<svg viewBox="0 0 330 200" xmlns="http://www.w3.org/2000/svg"><g><g><g><g><g><line x1="41.171875" y1="178" x2="36.171875" y2="178" style="visibility: inherit;" fill="rgb(0, 0, 0)" stroke="rgb(204, 204, 204)" stroke-width="1px"></line><line x1="41.171875" y1="158.2222222222222" x2="36.171875" y2="158.2222222222222" style="visibility: inherit;" fill="rgb(0, 0, 0)" stroke="rgb(204, 204, 204)" stroke-width="1px"></line><line x1="41.171875" y1="138.44444444444446" x2="36.171875" y2="138.44444444444446" style="visibility: inherit;" fill="rgb(0, 0, 0)" stroke="rgb(204, 204, 204)" stroke-width="1px"></line><line x1="41.171875" y1="118.66666666666669" x2="36.171875" y2="118.66666666666669" style="visibility: inherit;" fill="rgb(0, 0, 0)" stroke="rgb(204, 204, 204)" stroke-width="1px"></line><line x1="41.171875" y1="98.8888888888889" x2="36.171875" y2="98.8888888888889" style="visibility: inherit;" fill="rgb(0, 0, 0)" stroke="rgb(204, 204, 204)" stroke-width="1px"></line><line x1="41.171875" y1="79.1111111111111" x2="36.171875" y2="79.1111111111111" style="visibility: inherit;" fill="rgb(0, 0, 0)" stroke="rgb(204, 204, 204)" stroke-width="1px"></line><line x1="41.171875" y1="59.33333333333334" x2="36.171875" y2="59.33333333333334" style="visibility: inherit;" fill="rgb(0, 0, 0)" stroke="rgb(204, 204, 204)" stroke-width="1px"></line><line x1="41.171875" y1="39.55555555555555" x2="36.171875" y2="39.55555555555555" style="visibility: inherit;" fill="rgb(0, 0, 0)" stroke="rgb(204, 204, 204)" stroke-width="1px"></line><line x1="41.171875" y1="19.777777777777786" x2="36.171875" y2="19.777777777777786" style="visibility: inherit;" fill="rgb(0, 0, 0)" stroke="rgb(204, 204, 204)" stroke-width="1px"></line><line x1="41.171875" y1="0" x2="36.171875" y2="0" style="visibility: inherit;" fill="rgb(0, 0, 0)" stroke="rgb(204, 204, 204)" stroke-width="1px"></line></g><g transform="translate(31.171875, 0)"><text x="0" y="178" dx="0em" dy="0.3em" style="text-anchor: end; visibility: hidden; font-family: Roboto, sans-serif; font-size: 12px; font-weight: 200;" fill="rgb(50, 49, 63)" stroke="none" stroke-width="1px">60</text><text x="0" y="158.2222222222222" dx="0em" dy="0.3em" style="text-anchor: end; visibility: inherit; font-family: Roboto, sans-serif; font-size: 12px; font-weight: 200;" fill="rgb(50, 49, 63)" stroke="none" stroke-width="1px">65</text><text x="0" y="138.44444444444446" dx="0em" dy="0.3em" style="text-anchor: end; visibility: hidden; font-family: Roboto, sans-serif; font-size: 12px; font-weight: 200;" fill="rgb(50, 49, 63)" stroke="none" stroke-width="1px">70</text><text x="0" y="118.66666666666669" dx="0em" dy="0.3em" style="text-anchor: end; visibility: inherit; font-family: Roboto, sans-serif; font-size: 12px; font-weight: 200;" fill="rgb(50, 49, 63)" stroke="none" stroke-width="1px">75</text><text x="0" y="98.8888888888889" dx="0em" dy="0.3em" style="text-anchor: end; visibility: hidden; font-family: Roboto, sans-serif; font-size: 12px; font-weight: 200;" fill="rgb(50, 49, 63)" stroke="none" stroke-width="1px">80</text><text x="0" y="79.1111111111111" dx="0em" dy="0.3em" style="text-anchor: end; visibility: inherit; font-family: Roboto, sans-serif; font-size: 12px; font-weight: 200;" fill="rgb(50, 49, 63)" stroke="none" stroke-width="1px">85</text><text x="0" y="59.33333333333334" dx="0em" dy="0.3em" style="text-anchor: end; visibility: hidden; font-family: Roboto, sans-serif; font-size: 12px; font-weight: 200;" fill="rgb(50, 49, 63)" stroke="none" stroke-width="1px">90</text><text x="0" y="39.55555555555555" dx="0em" dy="0.3em" style="text-anchor: end; visibility: inherit; font-family: Roboto, sans-serif; font-size: 12px; font-weight: 200;" fill="rgb(50, 49, 63)" stroke="none" stroke-width="1px">95</text><text x="0" y="19.777777777777786" dx="0em" dy="0.3em" style="text-anchor: end; visibility: hidden; font-family: Roboto, sans-serif; font-size: 12px; font-weight: 200;" fill="rgb(50, 49, 63)" stroke="none" stroke-width="1px">100</text><text x="0" y="0" dx="0em" dy="0.3em" style="text-anchor: end; visibility: hidden; font-family: Roboto, sans-serif; font-size: 12px; font-weight: 200;" fill="rgb(50, 49, 63)" stroke="none" stroke-width="1px">105</text></g><line x1="41.171875" y1="0" x2="41.171875" y2="178" fill="rgb(0, 0, 0)" stroke="rgb(204, 204, 204)" stroke-width="1px"></line></g></g><g transform="translate(41, 0)" clip-path="url(#clip_0)"><clipPath id="clip_0"><rect width="288" height="178"></rect></clipPath><g><g><g><line x1="0" y1="0" x2="0" y2="178" fill="rgb(0, 0, 0)" stroke="rgb(60, 60, 60)" stroke-width="1px" opacity="0.25"></line><line x1="24.069010416666664" y1="0" x2="24.069010416666664" y2="178" fill="rgb(0, 0, 0)" stroke="rgb(60, 60, 60)" stroke-width="1px" opacity="0.25"></line><line x1="48.13802083333333" y1="0" x2="48.13802083333333" y2="178" fill="rgb(0, 0, 0)" stroke="rgb(60, 60, 60)" stroke-width="1px" opacity="0.25"></line><line x1="72.20703125" y1="0" x2="72.20703125" y2="178" fill="rgb(0, 0, 0)" stroke="rgb(60, 60, 60)" stroke-width="1px" opacity="0.25"></line><line x1="96.27604166666666" y1="0" x2="96.27604166666666" y2="178" fill="rgb(0, 0, 0)" stroke="rgb(60, 60, 60)" stroke-width="1px" opacity="0.25"></line><line x1="120.34505208333334" y1="0" x2="120.34505208333334" y2="178" fill="rgb(0, 0, 0)" stroke="rgb(60, 60, 60)" stroke-width="1px" opacity="0.25"></line><line x1="144.4140625" y1="0" x2="144.4140625" y2="178" fill="rgb(0, 0, 0)" stroke="rgb(60, 60, 60)" stroke-width="1px" opacity="0.25"></line><line x1="168.48307291666669" y1="0" x2="168.48307291666669" y2="178" fill="rgb(0, 0, 0)" stroke="rgb(60, 60, 60)" stroke-width="1px" opacity="0.25"></line><line x1="192.55208333333331" y1="0" x2="192.55208333333331" y2="178" fill="rgb(0, 0, 0)" stroke="rgb(60, 60, 60)" stroke-width="1px" opacity="0.25"></line><line x1="216.62109375" y1="0" x2="216.62109375" y2="178" fill="rgb(0, 0, 0)" stroke="rgb(60, 60, 60)" stroke-width="1px" opacity="0.25"></line><line x1="240.69010416666669" y1="0" x2="240.69010416666669" y2="178" fill="rgb(0, 0, 0)" stroke="rgb(60, 60, 60)" stroke-width="1px" opacity="0.25"></line><line x1="264.7591145833333" y1="0" x2="264.7591145833333" y2="178" fill="rgb(0, 0, 0)" stroke="rgb(60, 60, 60)" stroke-width="1px" opacity="0.25"></line><line x1="288.828125" y1="0" x2="288.828125" y2="178" fill="rgb(0, 0, 0)" stroke="rgb(60, 60, 60)" stroke-width="1px" opacity="0.25"></line></g><g><line x1="0" y1="178" x2="288.828125" y2="178" fill="rgb(0, 0, 0)" stroke="rgb(60, 60, 60)" stroke-width="1px" opacity="0.25"></line><line x1="0" y1="158.2222222222222" x2="288.828125" y2="158.2222222222222" fill="rgb(0, 0, 0)" stroke="rgb(60, 60, 60)" stroke-width="1px" opacity="0.25"></line><line x1="0" y1="138.44444444444446" x2="288.828125" y2="138.44444444444446" fill="rgb(0, 0, 0)" stroke="rgb(60, 60, 60)" stroke-width="1px" opacity="0.25"></line><line x1="0" y1="118.66666666666669" x2="288.828125" y2="118.66666666666669" fill="rgb(0, 0, 0)" stroke="rgb(60, 60, 60)" stroke-width="1px" opacity="0.25"></line><line x1="0" y1="98.8888888888889" x2="288.828125" y2="98.8888888888889" fill="rgb(0, 0, 0)" stroke="rgb(60, 60, 60)" stroke-width="1px" opacity="0.25"></line><line x1="0" y1="79.1111111111111" x2="288.828125" y2="79.1111111111111" fill="rgb(0, 0, 0)" stroke="rgb(60, 60, 60)" stroke-width="1px" opacity="0.25"></line><line x1="0" y1="59.33333333333334" x2="288.828125" y2="59.33333333333334" fill="rgb(0, 0, 0)" stroke="rgb(60, 60, 60)" stroke-width="1px" opacity="0.25"></line><line x1="0" y1="39.55555555555555" x2="288.828125" y2="39.55555555555555" fill="rgb(0, 0, 0)" stroke="rgb(60, 60, 60)" stroke-width="1px" opacity="0.25"></line><line x1="0" y1="19.777777777777786" x2="288.828125" y2="19.777777777777786" fill="rgb(0, 0, 0)" stroke="rgb(60, 60, 60)" stroke-width="1px" opacity="0.25"></line><line x1="0" y1="0" x2="288.828125" y2="0" fill="rgb(0, 0, 0)" stroke="rgb(60, 60, 60)" stroke-width="1px" opacity="0.25"></line></g></g></g><g><g><line x1="0" y1="415.33333333333326" x2="288.828125" y2="415.33333333333326" fill="rgb(0, 0, 0)" stroke="rgb(153, 153, 153)" stroke-width="1.5px"></line></g></g><g><g><line x1="24.069010416666664" y1="0" x2="24.069010416666664" y2="178" fill="rgb(0, 0, 0)" stroke="rgb(153, 153, 153)" stroke-width="1.5px"></line></g></g><g><g><g><g><g><path stroke="rgb(0, 119, 187)" stroke-width="2px" d="M26.475911458333332,199.30462849934892L28.8828125,162.13228747049968L31.289713541666668,138.37776906538983L33.696614583333336,119.53226165148172L36.103515625,107.83024812737047L38.510416666666664,97.97777457773891L40.917317708333336,89.79053780191086L43.32421875,82.35924894558582L45.731119791666664,76.24219319840456L48.13802083333333,71.86984670754428L50.544921875,68.18041727879219L52.951822916666664,64.63703323096688L55.358723958333336,61.46714071134975L57.765625,58.49744401096717L60.17252604166667,58.10379387787735L62.579427083333336,55.756442807851876L64.986328125,52.715329956928464L67.39322916666667,50.60932534276006L69.80013020833333,49.03255139662028L72.20703125,47.197312724198596L74.61393229166667,45.17217499628214L77.02083333333333,43.599537146749235L79.427734375,42.4439439833787L81.83463541666667,41.77590776671757L84.24153645833334,40.99851974481582L86.6484375,39.83908030095533L89.05533854166667,39.51364804280888L91.46223958333333,38.831066281949816L93.869140625,37.83292800274482L96.27604166666666,36.34167907939245L98.68294270833333,36.01019349307548L101.08984375,35.46322339280857L103.49674479166667,35.36920234174235L105.90364583333333,34.793828246199155L108.310546875,34.02772244453223L110.71744791666667,33.78640641344905L113.12434895833333,32.935947032910356L115.53125,32.18517295328662L117.93815104166667,31.418268890706024L120.34505208333334,31.828353506195675L122.751953125,31.631371912587266L125.15885416666667,31.2600336779726L127.56575520833333,30.996091414389657L129.97265625,30.670006058429735L132.37955729166666,31.240152235377572L134.78645833333334,31.851214822167435L137.193359375,31.021697589015915L139.60026041666666,30.359442028872106L142.00716145833331,30.70572299727589L144.4140625,30.119217761034395L146.82096354166666,30.28945084976381L149.22786458333334,30.382102584511323L151.634765625,30.219346186123143L154.04166666666666,29.70714848315777L156.44856770833331,30.36182367648362L158.85546875,29.102778749075444L161.26236979166666,28.628989569323558L163.66927083333334,27.749801375057526L166.076171875,27.18748661930525L168.48307291666669,27.49880259983839L170.88997395833334,27.612813732212075L173.296875,27.513500413806394L175.70377604166666,27.457075128926174L178.11067708333334,28.049785848840063L180.517578125,27.142792380614807L182.92447916666666,26.364435329627565L185.33138020833334,26.36891781670019L187.73828125,26.61526846888301L190.14518229166666,26.54789412711977L192.55208333333331,26.722654255134678L194.958984375,26.631313907247435L197.36588541666666,26.199942451336316L199.77278645833334,25.605691653527487L202.1796875,25.492802334781416L204.58658854166669,25.902902944922687L206.99348958333334,25.721756551024814L209.400390625,26.211146107264163L211.80729166666666,26.04594601939323L214.21419270833334,25.90252393759077L216.62109375,26.170886921148256L219.02799479166666,25.980651184807L221.43489583333334,25.90764906591895L223.841796875,25.92712606064513L226.24869791666666,26.021090903314175L228.65559895833331,25.276870579314863L231.0625,25.187917323717386L233.46940104166666,25.049104018362343L235.87630208333334,24.87721197698966L238.283203125,24.998749603728502L240.69010416666669,25.245717589928063L243.09700520833334,25.061633163548866L245.50390625,25.036623859717892L247.91080729166666,24.73681779456335L250.31770833333334,24.36073773077447L252.724609375,24.445203896060175L255.13151041666666,24.486395476741993L257.53841145833337,24.337065014994845L259.9453125,24.567069059995173L262.3522135416667,24.5626772812662L264.7591145833333,24.607506949271894" style="fill: none;" fill="none"></path></g></g></g></g><g opacity="0.2"><g><g><g><path stroke="rgb(0, 119, 187)" stroke-width="2px" d="M26.475911458333332,199.30462849934895L28.8828125,139.8288828531901L31.289713541666668,115.57343139648438L33.696614583333336,97.3699449327257L36.103515625,92.55209927029078L38.510416666666664,84.34825676812066L40.917317708333336,78.08265821668837L43.32421875,71.52435845269098L45.731119791666664,67.2207241482205L48.13802083333333,65.37742173936631L50.544921875,62.6797359890408L52.951822916666664,59.34124009874131L55.358723958333336,56.72265218098958L57.765625,54.04871690538194L60.17252604166667,57.51378139919705L62.579427083333336,52.23707173665364L64.986328125,48.15494757758246L67.39322916666667,47.4508531358507L69.80013020833333,46.667630683051215L72.20703125,44.44462246365017L74.61393229166667,42.134579467773435L77.02083333333333,41.24063212076823L79.427734375,40.71057705349393L81.83463541666667,40.77386135525173L84.24153645833334,39.83244323730469L86.6484375,38.09992607964409L89.05533854166667,39.02550048828125L91.46223958333333,37.80719468858508L93.869140625,36.335721503363715L96.27604166666666,34.10480651855468L98.68294270833333,35.5129652235243L101.08984375,34.64276835123699L103.49674479166667,35.22817077636719L105.90364583333333,33.93076714409722L108.310546875,32.87856377495659L110.71744791666667,33.42443237304687L113.12434895833333,31.66025797526041L115.53125,31.05901184082032L117.93815104166667,30.26791280110677L120.34505208333334,32.44348042805989L122.751953125,31.335899522569434L125.15885416666667,30.703026326497387L127.56575520833333,30.600178019205735L129.97265625,30.180878024631077L132.37955729166666,32.09537150065105L134.78645833333334,32.76780870225695L137.193359375,29.77742173936632L139.60026041666666,29.366058688693577L142.00716145833331,31.22514444986979L144.4140625,29.239459906684033L146.82096354166666,30.544800482855905L149.22786458333334,30.521080186631934L151.634765625,29.975211588541676L154.04166666666666,28.93885192871093L156.44856770833331,31.34383646647135L158.85546875,27.214211357964402L161.26236979166666,27.91830579969618L163.66927083333334,26.43101908365886L166.076171875,26.34401448567709L168.48307291666669,27.965776570638024L170.88997395833334,27.78383043077257L173.296875,27.364530436197914L175.70377604166666,27.372437201605905L178.11067708333334,28.93885192871093L180.517578125,25.782302178276908L182.92447916666666,25.196899753146702L185.33138020833334,26.37564154730903L187.73828125,26.984794447157128L190.14518229166666,26.44683261447482L192.55208333333331,26.984794447157128L194.958984375,26.49430338541666L197.36588541666666,25.552885267469616L199.77278645833334,24.714315456814244L202.1796875,25.323468356662325L204.58658854166669,26.51805386013455L206.99348958333334,25.450036960177943L209.400390625,26.945230441623256L211.80729166666666,25.798145887586813L214.21419270833334,25.68739081488715L216.62109375,26.573431396484384L219.02799479166666,25.69529758029514L221.43489583333334,25.798145887586813L223.841796875,25.956341552734372L226.24869791666666,26.162038167317714L228.65559895833331,24.160540093315976L231.0625,25.05448744032118L233.46940104166666,24.840884060329863L235.87630208333334,24.619373914930563L238.283203125,25.1810560438368L240.69010416666669,25.616169569227438L243.09700520833334,24.785506523980033L245.50390625,24.99910990397135L247.91080729166666,24.287108696831595L250.31770833333334,23.79661763509115L252.724609375,24.57190314398872L255.13151041666666,24.54818284776475L257.53841145833337,24.113069322374134L259.9453125,24.912075127495655L262.3522135416667,24.55608961317274L264.7591145833333,24.674751451280372" style="fill: none;" fill="none"></path></g></g></g></g></g></g><g transform="translate(41, 178)" clip-path="url(#clip_1)"><clipPath id="clip_1"><rect width="288" height="22"></rect></clipPath><g><g><line x1="0" y1="0" x2="0" y2="5" style="visibility: inherit;" fill="rgb(0, 0, 0)" stroke="rgb(204, 204, 204)" stroke-width="1px"></line><line x1="24.069010416666664" y1="0" x2="24.069010416666664" y2="5" style="visibility: inherit;" fill="rgb(0, 0, 0)" stroke="rgb(204, 204, 204)" stroke-width="1px"></line><line x1="48.13802083333333" y1="0" x2="48.13802083333333" y2="5" style="visibility: inherit;" fill="rgb(0, 0, 0)" stroke="rgb(204, 204, 204)" stroke-width="1px"></line><line x1="72.20703125" y1="0" x2="72.20703125" y2="5" style="visibility: inherit;" fill="rgb(0, 0, 0)" stroke="rgb(204, 204, 204)" stroke-width="1px"></line><line x1="96.27604166666666" y1="0" x2="96.27604166666666" y2="5" style="visibility: inherit;" fill="rgb(0, 0, 0)" stroke="rgb(204, 204, 204)" stroke-width="1px"></line><line x1="120.34505208333334" y1="0" x2="120.34505208333334" y2="5" style="visibility: inherit;" fill="rgb(0, 0, 0)" stroke="rgb(204, 204, 204)" stroke-width="1px"></line><line x1="144.4140625" y1="0" x2="144.4140625" y2="5" style="visibility: inherit;" fill="rgb(0, 0, 0)" stroke="rgb(204, 204, 204)" stroke-width="1px"></line><line x1="168.48307291666669" y1="0" x2="168.48307291666669" y2="5" style="visibility: inherit;" fill="rgb(0, 0, 0)" stroke="rgb(204, 204, 204)" stroke-width="1px"></line><line x1="192.55208333333331" y1="0" x2="192.55208333333331" y2="5" style="visibility: inherit;" fill="rgb(0, 0, 0)" stroke="rgb(204, 204, 204)" stroke-width="1px"></line><line x1="216.62109375" y1="0" x2="216.62109375" y2="5" style="visibility: inherit;" fill="rgb(0, 0, 0)" stroke="rgb(204, 204, 204)" stroke-width="1px"></line><line x1="240.69010416666669" y1="0" x2="240.69010416666669" y2="5" style="visibility: inherit;" fill="rgb(0, 0, 0)" stroke="rgb(204, 204, 204)" stroke-width="1px"></line><line x1="264.7591145833333" y1="0" x2="264.7591145833333" y2="5" style="visibility: inherit;" fill="rgb(0, 0, 0)" stroke="rgb(204, 204, 204)" stroke-width="1px"></line><line x1="288.828125" y1="0" x2="288.828125" y2="5" style="visibility: inherit;" fill="rgb(0, 0, 0)" stroke="rgb(204, 204, 204)" stroke-width="1px"></line></g><g transform="translate(0, 8)"><text x="0" y="0" dx="0em" dy="0.95em" style="text-anchor: middle; visibility: hidden; font-family: Roboto, sans-serif; font-size: 12px; font-weight: 200;" fill="rgb(50, 49, 63)" stroke="none" stroke-width="1px">-10</text><text x="24.069010416666664" y="0" dx="0em" dy="0.95em" style="text-anchor: middle; visibility: inherit; font-family: Roboto, sans-serif; font-size: 12px; font-weight: 200;" fill="rgb(50, 49, 63)" stroke="none" stroke-width="1px">0</text><text x="48.13802083333333" y="0" dx="0em" dy="0.95em" style="text-anchor: middle; visibility: inherit; font-family: Roboto, sans-serif; font-size: 12px; font-weight: 200;" fill="rgb(50, 49, 63)" stroke="none" stroke-width="1px">10</text><text x="72.20703125" y="0" dx="0em" dy="0.95em" style="text-anchor: middle; visibility: inherit; font-family: Roboto, sans-serif; font-size: 12px; font-weight: 200;" fill="rgb(50, 49, 63)" stroke="none" stroke-width="1px">20</text><text x="96.27604166666666" y="0" dx="0em" dy="0.95em" style="text-anchor: middle; visibility: inherit; font-family: Roboto, sans-serif; font-size: 12px; font-weight: 200;" fill="rgb(50, 49, 63)" stroke="none" stroke-width="1px">30</text><text x="120.34505208333334" y="0" dx="0em" dy="0.95em" style="text-anchor: middle; visibility: inherit; font-family: Roboto, sans-serif; font-size: 12px; font-weight: 200;" fill="rgb(50, 49, 63)" stroke="none" stroke-width="1px">40</text><text x="144.4140625" y="0" dx="0em" dy="0.95em" style="text-anchor: middle; visibility: inherit; font-family: Roboto, sans-serif; font-size: 12px; font-weight: 200;" fill="rgb(50, 49, 63)" stroke="none" stroke-width="1px">50</text><text x="168.48307291666669" y="0" dx="0em" dy="0.95em" style="text-anchor: middle; visibility: inherit; font-family: Roboto, sans-serif; font-size: 12px; font-weight: 200;" fill="rgb(50, 49, 63)" stroke="none" stroke-width="1px">60</text><text x="192.55208333333331" y="0" dx="0em" dy="0.95em" style="text-anchor: middle; visibility: inherit; font-family: Roboto, sans-serif; font-size: 12px; font-weight: 200;" fill="rgb(50, 49, 63)" stroke="none" stroke-width="1px">70</text><text x="216.62109375" y="0" dx="0em" dy="0.95em" style="text-anchor: middle; visibility: inherit; font-family: Roboto, sans-serif; font-size: 12px; font-weight: 200;" fill="rgb(50, 49, 63)" stroke="none" stroke-width="1px">80</text><text x="240.69010416666669" y="0" dx="0em" dy="0.95em" style="text-anchor: middle; visibility: inherit; font-family: Roboto, sans-serif; font-size: 12px; font-weight: 200;" fill="rgb(50, 49, 63)" stroke="none" stroke-width="1px">90</text><text x="264.7591145833333" y="0" dx="0em" dy="0.95em" style="text-anchor: middle; visibility: inherit; font-family: Roboto, sans-serif; font-size: 12px; font-weight: 200;" fill="rgb(50, 49, 63)" stroke="none" stroke-width="1px">100</text><text x="288.828125" y="0" dx="0em" dy="0.95em" style="text-anchor: middle; visibility: hidden; font-family: Roboto, sans-serif; font-size: 12px; font-weight: 200;" fill="rgb(50, 49, 63)" stroke="none" stroke-width="1px">110</text></g><line x1="0" y1="0" x2="288.828125" y2="0" fill="rgb(0, 0, 0)" stroke="rgb(204, 204, 204)" stroke-width="1px"></line></g></g></g></g></svg>