<svg viewBox="0 0 330 200" xmlns="http://www.w3.org/2000/svg"><g><g><g><g><g><line x1="41.171875" y1="178" x2="36.171875" y2="178" style="visibility: inherit;" fill="rgb(0, 0, 0)" stroke="rgb(204, 204, 204)" stroke-width="1px"></line><line x1="41.171875" y1="158.2222222222222" x2="36.171875" y2="158.2222222222222" style="visibility: inherit;" fill="rgb(0, 0, 0)" stroke="rgb(204, 204, 204)" stroke-width="1px"></line><line x1="41.171875" y1="138.44444444444446" x2="36.171875" y2="138.44444444444446" style="visibility: inherit;" fill="rgb(0, 0, 0)" stroke="rgb(204, 204, 204)" stroke-width="1px"></line><line x1="41.171875" y1="118.66666666666669" x2="36.171875" y2="118.66666666666669" style="visibility: inherit;" fill="rgb(0, 0, 0)" stroke="rgb(204, 204, 204)" stroke-width="1px"></line><line x1="41.171875" y1="98.8888888888889" x2="36.171875" y2="98.8888888888889" style="visibility: inherit;" fill="rgb(0, 0, 0)" stroke="rgb(204, 204, 204)" stroke-width="1px"></line><line x1="41.171875" y1="79.1111111111111" x2="36.171875" y2="79.1111111111111" style="visibility: inherit;" fill="rgb(0, 0, 0)" stroke="rgb(204, 204, 204)" stroke-width="1px"></line><line x1="41.171875" y1="59.33333333333334" x2="36.171875" y2="59.33333333333334" style="visibility: inherit;" fill="rgb(0, 0, 0)" stroke="rgb(204, 204, 204)" stroke-width="1px"></line><line x1="41.171875" y1="39.55555555555555" x2="36.171875" y2="39.55555555555555" style="visibility: inherit;" fill="rgb(0, 0, 0)" stroke="rgb(204, 204, 204)" stroke-width="1px"></line><line x1="41.171875" y1="19.777777777777786" x2="36.171875" y2="19.777777777777786" style="visibility: inherit;" fill="rgb(0, 0, 0)" stroke="rgb(204, 204, 204)" stroke-width="1px"></line><line x1="41.171875" y1="0" x2="36.171875" y2="0" style="visibility: inherit;" fill="rgb(0, 0, 0)" stroke="rgb(204, 204, 204)" stroke-width="1px"></line></g><g transform="translate(31.171875, 0)"><text x="0" y="178" dx="0em" dy="0.3em" style="text-anchor: end; visibility: hidden; font-family: Roboto, sans-serif; font-size: 12px; font-weight: 200;" fill="rgb(50, 49, 63)" stroke="none" stroke-width="1px">60</text><text x="0" y="158.2222222222222" dx="0em" dy="0.3em" style="text-anchor: end; visibility: inherit; font-family: Roboto, sans-serif; font-size: 12px; font-weight: 200;" fill="rgb(50, 49, 63)" stroke="none" stroke-width="1px">65</text><text x="0" y="138.44444444444446" dx="0em" dy="0.3em" style="text-anchor: end; visibility: hidden; font-family: Roboto, sans-serif; font-size: 12px; font-weight: 200;" fill="rgb(50, 49, 63)" stroke="none" stroke-width="1px">70</text><text x="0" y="118.66666666666669" dx="0em" dy="0.3em" style="text-anchor: end; visibility: inherit; font-family: Roboto, sans-serif; font-size: 12px; font-weight: 200;" fill="rgb(50, 49, 63)" stroke="none" stroke-width="1px">75</text><text x="0" y="98.8888888888889" dx="0em" dy="0.3em" style="text-anchor: end; visibility: hidden; font-family: Roboto, sans-serif; font-size: 12px; font-weight: 200;" fill="rgb(50, 49, 63)" stroke="none" stroke-width="1px">80</text><text x="0" y="79.1111111111111" dx="0em" dy="0.3em" style="text-anchor: end; visibility: inherit; font-family: Roboto, sans-serif; font-size: 12px; font-weight: 200;" fill="rgb(50, 49, 63)" stroke="none" stroke-width="1px">85</text><text x="0" y="59.33333333333334" dx="0em" dy="0.3em" style="text-anchor: end; visibility: hidden; font-family: Roboto, sans-serif; font-size: 12px; font-weight: 200;" fill="rgb(50, 49, 63)" stroke="none" stroke-width="1px">90</text><text x="0" y="39.55555555555555" dx="0em" dy="0.3em" style="text-anchor: end; visibility: inherit; font-family: Roboto, sans-serif; font-size: 12px; font-weight: 200;" fill="rgb(50, 49, 63)" stroke="none" stroke-width="1px">95</text><text x="0" y="19.777777777777786" dx="0em" dy="0.3em" style="text-anchor: end; visibility: hidden; font-family: Roboto, sans-serif; font-size: 12px; font-weight: 200;" fill="rgb(50, 49, 63)" stroke="none" stroke-width="1px">100</text><text x="0" y="0" dx="0em" dy="0.3em" style="text-anchor: end; visibility: hidden; font-family: Roboto, sans-serif; font-size: 12px; font-weight: 200;" fill="rgb(50, 49, 63)" stroke="none" stroke-width="1px">105</text></g><line x1="41.171875" y1="0" x2="41.171875" y2="178" fill="rgb(0, 0, 0)" stroke="rgb(204, 204, 204)" stroke-width="1px"></line></g></g><g transform="translate(41, 0)" clip-path="url(#clip_0)"><clipPath id="clip_0"><rect width="288" height="178"></rect></clipPath><g><g><g><line x1="0" y1="0" x2="0" y2="178" fill="rgb(0, 0, 0)" stroke="rgb(60, 60, 60)" stroke-width="1px" opacity="0.25"></line><line x1="24.069010416666664" y1="0" x2="24.069010416666664" y2="178" fill="rgb(0, 0, 0)" stroke="rgb(60, 60, 60)" stroke-width="1px" opacity="0.25"></line><line x1="48.13802083333333" y1="0" x2="48.13802083333333" y2="178" fill="rgb(0, 0, 0)" stroke="rgb(60, 60, 60)" stroke-width="1px" opacity="0.25"></line><line x1="72.20703125" y1="0" x2="72.20703125" y2="178" fill="rgb(0, 0, 0)" stroke="rgb(60, 60, 60)" stroke-width="1px" opacity="0.25"></line><line x1="96.27604166666666" y1="0" x2="96.27604166666666" y2="178" fill="rgb(0, 0, 0)" stroke="rgb(60, 60, 60)" stroke-width="1px" opacity="0.25"></line><line x1="120.34505208333334" y1="0" x2="120.34505208333334" y2="178" fill="rgb(0, 0, 0)" stroke="rgb(60, 60, 60)" stroke-width="1px" opacity="0.25"></line><line x1="144.4140625" y1="0" x2="144.4140625" y2="178" fill="rgb(0, 0, 0)" stroke="rgb(60, 60, 60)" stroke-width="1px" opacity="0.25"></line><line x1="168.48307291666669" y1="0" x2="168.48307291666669" y2="178" fill="rgb(0, 0, 0)" stroke="rgb(60, 60, 60)" stroke-width="1px" opacity="0.25"></line><line x1="192.55208333333331" y1="0" x2="192.55208333333331" y2="178" fill="rgb(0, 0, 0)" stroke="rgb(60, 60, 60)" stroke-width="1px" opacity="0.25"></line><line x1="216.62109375" y1="0" x2="216.62109375" y2="178" fill="rgb(0, 0, 0)" stroke="rgb(60, 60, 60)" stroke-width="1px" opacity="0.25"></line><line x1="240.69010416666669" y1="0" x2="240.69010416666669" y2="178" fill="rgb(0, 0, 0)" stroke="rgb(60, 60, 60)" stroke-width="1px" opacity="0.25"></line><line x1="264.7591145833333" y1="0" x2="264.7591145833333" y2="178" fill="rgb(0, 0, 0)" stroke="rgb(60, 60, 60)" stroke-width="1px" opacity="0.25"></line><line x1="288.828125" y1="0" x2="288.828125" y2="178" fill="rgb(0, 0, 0)" stroke="rgb(60, 60, 60)" stroke-width="1px" opacity="0.25"></line></g><g><line x1="0" y1="178" x2="288.828125" y2="178" fill="rgb(0, 0, 0)" stroke="rgb(60, 60, 60)" stroke-width="1px" opacity="0.25"></line><line x1="0" y1="158.2222222222222" x2="288.828125" y2="158.2222222222222" fill="rgb(0, 0, 0)" stroke="rgb(60, 60, 60)" stroke-width="1px" opacity="0.25"></line><line x1="0" y1="138.44444444444446" x2="288.828125" y2="138.44444444444446" fill="rgb(0, 0, 0)" stroke="rgb(60, 60, 60)" stroke-width="1px" opacity="0.25"></line><line x1="0" y1="118.66666666666669" x2="288.828125" y2="118.66666666666669" fill="rgb(0, 0, 0)" stroke="rgb(60, 60, 60)" stroke-width="1px" opacity="0.25"></line><line x1="0" y1="98.8888888888889" x2="288.828125" y2="98.8888888888889" fill="rgb(0, 0, 0)" stroke="rgb(60, 60, 60)" stroke-width="1px" opacity="0.25"></line><line x1="0" y1="79.1111111111111" x2="288.828125" y2="79.1111111111111" fill="rgb(0, 0, 0)" stroke="rgb(60, 60, 60)" stroke-width="1px" opacity="0.25"></line><line x1="0" y1="59.33333333333334" x2="288.828125" y2="59.33333333333334" fill="rgb(0, 0, 0)" stroke="rgb(60, 60, 60)" stroke-width="1px" opacity="0.25"></line><line x1="0" y1="39.55555555555555" x2="288.828125" y2="39.55555555555555" fill="rgb(0, 0, 0)" stroke="rgb(60, 60, 60)" stroke-width="1px" opacity="0.25"></line><line x1="0" y1="19.777777777777786" x2="288.828125" y2="19.777777777777786" fill="rgb(0, 0, 0)" stroke="rgb(60, 60, 60)" stroke-width="1px" opacity="0.25"></line><line x1="0" y1="0" x2="288.828125" y2="0" fill="rgb(0, 0, 0)" stroke="rgb(60, 60, 60)" stroke-width="1px" opacity="0.25"></line></g></g></g><g><g><line x1="0" y1="415.33333333333326" x2="288.828125" y2="415.33333333333326" fill="rgb(0, 0, 0)" stroke="rgb(153, 153, 153)" stroke-width="1.5px"></line></g></g><g><g><line x1="24.069010416666664" y1="0" x2="24.069010416666664" y2="178" fill="rgb(0, 0, 0)" stroke="rgb(153, 153, 153)" stroke-width="1.5px"></line></g></g><g><g><g><g><g><path stroke="rgb(204, 51, 17)" stroke-width="2px" d="M26.475911458333332,209.5099539862739L28.8828125,173.3413402345445L31.289713541666668,145.5914019076462L33.696614583333336,126.7501350895252L36.103515625,113.05327610272073L38.510416666666664,101.04254699610969L40.917317708333336,91.47364292634786L43.32421875,82.60769428135026L45.731119791666664,75.19789123119875L48.13802083333333,70.00734951784175L50.544921875,66.00168568410588L52.951822916666664,61.65088501119944L55.358723958333336,57.94697518170629L57.765625,54.913827821079046L60.17252604166667,51.92089323035939L62.579427083333336,49.76202631761979L64.986328125,47.39732876411731L67.39322916666667,45.97244037238795L69.80013020833333,44.53213771478296L72.20703125,43.661686649068734L74.61393229166667,42.421087964593355L77.02083333333333,41.173591627008754L79.427734375,40.140301601157894L81.83463541666667,38.80517154189147L84.24153645833334,37.693982469985365L86.6484375,36.44500619369679L89.05533854166667,35.372856432902175L91.46223958333333,34.663114194292014L93.869140625,34.3638377802198L96.27604166666666,33.77290282503498L98.68294270833333,32.620893234921745L101.08984375,32.00247811178759L103.49674479166667,31.390930604146014L105.90364583333333,31.23284937358339L108.310546875,31.44495214081709L110.71744791666667,30.607057267601274L113.12434895833333,30.287865950382248L115.53125,30.615312616150085L117.93815104166667,29.30551162276154L120.34505208333334,29.143022142710517L122.751953125,28.767053384066045L125.15885416666667,27.981371352978208L127.56575520833333,28.437142039349098L129.97265625,28.239107733340735L132.37955729166666,28.38926203042804L134.78645833333334,28.567958666835718L137.193359375,27.40306862996232L139.60026041666666,27.140829486348206L142.00716145833331,26.863230737595124L144.4140625,26.3739064601312L146.82096354166666,26.40625169942959L149.22786458333334,26.558564930248526L151.634765625,26.108828329893147L154.04166666666666,25.91810230935062L156.44856770833331,26.015676652537536L158.85546875,25.802083671644006L161.26236979166666,25.56001010424504L163.66927083333334,25.680578138284897L166.076171875,26.021893839351176L168.48307291666669,25.657082294279064L170.88997395833334,26.19132986159352L173.296875,25.75241849529812L175.70377604166666,25.321351677691034L178.11067708333334,25.002583955833327L180.517578125,25.121449597675394L182.92447916666666,25.148454882303106L185.33138020833334,25.920967324998188L187.73828125,25.46362029842774L190.14518229166666,25.458186963127794L192.55208333333331,24.942290921366297L194.958984375,24.57262566501592L197.36588541666666,24.2115950116398L199.77278645833334,24.03927864869398L202.1796875,23.958039845466427L204.58658854166669,23.817529799206955L206.99348958333334,24.09080271025334L209.400390625,24.140848678018315L211.80729166666666,23.97784254014438L214.21419270833334,24.345210162758516L216.62109375,24.239690930554445L219.02799479166666,23.913729922915987L221.43489583333334,23.87004771394924L223.841796875,24.191929208881668L226.24869791666666,23.99582796261194L228.65559895833331,24.125003152350097L231.0625,23.63923271280761L233.46940104166666,23.831930062797426L235.87630208333334,23.47605175512633L238.283203125,23.240373755983764L240.69010416666669,23.291988603633683L243.09700520833334,23.269167364654198L245.50390625,23.20484717986021L247.91080729166666,23.011197967204325L250.31770833333334,23.027914526850353L252.724609375,23.253117124313288L255.13151041666666,22.843963509180007L257.53841145833337,22.91491095598545L259.9453125,22.824573336829143L262.3522135416667,23.216553762297107L264.7591145833333,23.119476799478978" style="fill: none;" fill="none"></path></g></g></g></g><g opacity="0.2"><g><g><g><path stroke="rgb(204, 51, 17)" stroke-width="2px" d="M26.475911458333332,209.5099539862739L28.8828125,151.64017198350695L31.289713541666668,118.95146111382378L33.696614583333336,104.59280531141493L36.103515625,95.17065700954862L38.510416666666664,84.42738477918837L40.917317708333336,77.78995700412325L43.32421875,69.6810560438368L45.731119791666664,64.26987101236979L48.13802083333333,62.3L50.544921875,60.02952100965711L52.951822916666664,55.148360866970485L55.358723958333336,52.40320434570313L57.765625,50.37004903157551L60.17252604166667,47.435009426540795L62.579427083333336,46.52524854871961L64.986328125,43.85128309461805L67.39322916666667,43.83546956380209L69.80013020833333,42.37190314398872L72.20703125,42.356089613172735L74.61393229166667,40.56025797526042L77.02083333333333,39.30238817003039L79.427734375,38.59038696289062L81.83463541666667,36.80249226888021L84.24153645833334,36.02720675998264L86.6484375,34.57154710557725L89.05533854166667,33.76463453504775L91.46223958333333,33.59850192599827L93.869140625,33.91492343478733L96.27604166666666,32.8865007188585L98.68294270833333,30.892879231770827L101.08984375,31.074855550130202L103.49674479166667,30.473609415690113L105.90364583333333,30.9957275390625L108.310546875,31.763106282552084L110.71744791666667,29.350214979383676L113.12434895833333,29.809078979492185L115.53125,31.10648261176216L117.93815104166667,27.340810139973964L120.34505208333334,28.899287923177077L122.751953125,28.203100246853307L125.15885416666667,26.802848307291676L127.56575520833333,29.12079806857638L129.97265625,27.942056274414053L132.37955729166666,28.614493476019973L134.78645833333334,28.836003621419277L137.193359375,25.65573357476129L139.60026041666666,26.747470770941845L142.00716145833331,26.44683261447482L144.4140625,25.63992004394531L146.82096354166666,26.454769558376732L149.22786458333334,26.787034776475696L151.634765625,25.434223429361985L154.04166666666666,25.63201327853732L156.44856770833331,26.162038167317714L158.85546875,25.481694200303824L161.26236979166666,25.196899753146702L163.66927083333334,25.861430189344613L166.076171875,26.533867390950512L168.48307291666669,25.10986497667101L170.88997395833334,26.9927012125651L173.296875,25.09405144585503L175.70377604166666,24.674751451280372L178.11067708333334,24.524432373046878L180.517578125,25.299748060438375L182.92447916666666,25.18896280924479L185.33138020833334,27.079735989040792L187.73828125,24.777599758572045L190.14518229166666,25.450036960177943L192.55208333333331,24.168446858723964L194.958984375,24.018127780490452L197.36588541666666,23.670049031575527L199.77278645833334,23.78080410427517L202.1796875,23.836181640625L204.58658854166669,23.60676472981771L206.99348958333334,24.50071207682291L209.400390625,24.215917629665807L211.80729166666666,23.733333333333327L214.21419270833334,24.896261596679697L216.62109375,24.08141208224827L219.02799479166666,23.424788411458334L221.43489583333334,23.804524400499137L223.841796875,24.674751451280372L226.24869791666666,23.701676093207467L228.65559895833331,24.31876593695746L231.0625,22.910577053493917L233.46940104166666,24.120976087782125L235.87630208333334,22.942234293619798L238.283203125,22.886856757269967L240.69010416666669,23.3694108751085L243.09700520833334,23.23493550618489L245.50390625,23.10836690266927L247.91080729166666,22.720724148220494L250.31770833333334,23.052989366319437L252.724609375,23.590921020507803L255.13151041666666,22.230233086480027L257.53841145833337,23.021332126193577L259.9453125,22.689066908094613L262.3522135416667,23.804524400499137L264.7591145833333,22.973861355251735" style="fill: none;" fill="none"></path></g></g></g></g></g></g><g transform="translate(41, 178)" clip-path="url(#clip_1)"><clipPath id="clip_1"><rect width="288" height="22"></rect></clipPath><g><g><line x1="0" y1="0" x2="0" y2="5" style="visibility: inherit;" fill="rgb(0, 0, 0)" stroke="rgb(204, 204, 204)" stroke-width="1px"></line><line x1="24.069010416666664" y1="0" x2="24.069010416666664" y2="5" style="visibility: inherit;" fill="rgb(0, 0, 0)" stroke="rgb(204, 204, 204)" stroke-width="1px"></line><line x1="48.13802083333333" y1="0" x2="48.13802083333333" y2="5" style="visibility: inherit;" fill="rgb(0, 0, 0)" stroke="rgb(204, 204, 204)" stroke-width="1px"></line><line x1="72.20703125" y1="0" x2="72.20703125" y2="5" style="visibility: inherit;" fill="rgb(0, 0, 0)" stroke="rgb(204, 204, 204)" stroke-width="1px"></line><line x1="96.27604166666666" y1="0" x2="96.27604166666666" y2="5" style="visibility: inherit;" fill="rgb(0, 0, 0)" stroke="rgb(204, 204, 204)" stroke-width="1px"></line><line x1="120.34505208333334" y1="0" x2="120.34505208333334" y2="5" style="visibility: inherit;" fill="rgb(0, 0, 0)" stroke="rgb(204, 204, 204)" stroke-width="1px"></line><line x1="144.4140625" y1="0" x2="144.4140625" y2="5" style="visibility: inherit;" fill="rgb(0, 0, 0)" stroke="rgb(204, 204, 204)" stroke-width="1px"></line><line x1="168.48307291666669" y1="0" x2="168.48307291666669" y2="5" style="visibility: inherit;" fill="rgb(0, 0, 0)" stroke="rgb(204, 204, 204)" stroke-width="1px"></line><line x1="192.55208333333331" y1="0" x2="192.55208333333331" y2="5" style="visibility: inherit;" fill="rgb(0, 0, 0)" stroke="rgb(204, 204, 204)" stroke-width="1px"></line><line x1="216.62109375" y1="0" x2="216.62109375" y2="5" style="visibility: inherit;" fill="rgb(0, 0, 0)" stroke="rgb(204, 204, 204)" stroke-width="1px"></line><line x1="240.69010416666669" y1="0" x2="240.69010416666669" y2="5" style="visibility: inherit;" fill="rgb(0, 0, 0)" stroke="rgb(204, 204, 204)" stroke-width="1px"></line><line x1="264.7591145833333" y1="0" x2="264.7591145833333" y2="5" style="visibility: inherit;" fill="rgb(0, 0, 0)" stroke="rgb(204, 204, 204)" stroke-width="1px"></line><line x1="288.828125" y1="0" x2="288.828125" y2="5" style="visibility: inherit;" fill="rgb(0, 0, 0)" stroke="rgb(204, 204, 204)" stroke-width="1px"></line></g><g transform="translate(0, 8)"><text x="0" y="0" dx="0em" dy="0.95em" style="text-anchor: middle; visibility: hidden; font-family: Roboto, sans-serif; font-size: 12px; font-weight: 200;" fill="rgb(50, 49, 63)" stroke="none" stroke-width="1px">-10</text><text x="24.069010416666664" y="0" dx="0em" dy="0.95em" style="text-anchor: middle; visibility: inherit; font-family: Roboto, sans-serif; font-size: 12px; font-weight: 200;" fill="rgb(50, 49, 63)" stroke="none" stroke-width="1px">0</text><text x="48.13802083333333" y="0" dx="0em" dy="0.95em" style="text-anchor: middle; visibility: inherit; font-family: Roboto, sans-serif; font-size: 12px; font-weight: 200;" fill="rgb(50, 49, 63)" stroke="none" stroke-width="1px">10</text><text x="72.20703125" y="0" dx="0em" dy="0.95em" style="text-anchor: middle; visibility: inherit; font-family: Roboto, sans-serif; font-size: 12px; font-weight: 200;" fill="rgb(50, 49, 63)" stroke="none" stroke-width="1px">20</text><text x="96.27604166666666" y="0" dx="0em" dy="0.95em" style="text-anchor: middle; visibility: inherit; font-family: Roboto, sans-serif; font-size: 12px; font-weight: 200;" fill="rgb(50, 49, 63)" stroke="none" stroke-width="1px">30</text><text x="120.34505208333334" y="0" dx="0em" dy="0.95em" style="text-anchor: middle; visibility: inherit; font-family: Roboto, sans-serif; font-size: 12px; font-weight: 200;" fill="rgb(50, 49, 63)" stroke="none" stroke-width="1px">40</text><text x="144.4140625" y="0" dx="0em" dy="0.95em" style="text-anchor: middle; visibility: inherit; font-family: Roboto, sans-serif; font-size: 12px; font-weight: 200;" fill="rgb(50, 49, 63)" stroke="none" stroke-width="1px">50</text><text x="168.48307291666669" y="0" dx="0em" dy="0.95em" style="text-anchor: middle; visibility: inherit; font-family: Roboto, sans-serif; font-size: 12px; font-weight: 200;" fill="rgb(50, 49, 63)" stroke="none" stroke-width="1px">60</text><text x="192.55208333333331" y="0" dx="0em" dy="0.95em" style="text-anchor: middle; visibility: inherit; font-family: Roboto, sans-serif; font-size: 12px; font-weight: 200;" fill="rgb(50, 49, 63)" stroke="none" stroke-width="1px">70</text><text x="216.62109375" y="0" dx="0em" dy="0.95em" style="text-anchor: middle; visibility: inherit; font-family: Roboto, sans-serif; font-size: 12px; font-weight: 200;" fill="rgb(50, 49, 63)" stroke="none" stroke-width="1px">80</text><text x="240.69010416666669" y="0" dx="0em" dy="0.95em" style="text-anchor: middle; visibility: inherit; font-family: Roboto, sans-serif; font-size: 12px; font-weight: 200;" fill="rgb(50, 49, 63)" stroke="none" stroke-width="1px">90</text><text x="264.7591145833333" y="0" dx="0em" dy="0.95em" style="text-anchor: middle; visibility: inherit; font-family: Roboto, sans-serif; font-size: 12px; font-weight: 200;" fill="rgb(50, 49, 63)" stroke="none" stroke-width="1px">100</text><text x="288.828125" y="0" dx="0em" dy="0.95em" style="text-anchor: middle; visibility: hidden; font-family: Roboto, sans-serif; font-size: 12px; font-weight: 200;" fill="rgb(50, 49, 63)" stroke="none" stroke-width="1px">110</text></g><line x1="0" y1="0" x2="288.828125" y2="0" fill="rgb(0, 0, 0)" stroke="rgb(204, 204, 204)" stroke-width="1px"></line></g></g></g></g></svg>