<svg viewBox="0 0 330 200" xmlns="http://www.w3.org/2000/svg"><g><g><g><g><g><line x1="51.5625" y1="178" x2="46.5625" y2="178" style="visibility: inherit;" fill="rgb(0, 0, 0)" stroke="rgb(204, 204, 204)" stroke-width="1px"></line><line x1="51.5625" y1="155.75" x2="46.5625" y2="155.75" style="visibility: inherit;" fill="rgb(0, 0, 0)" stroke="rgb(204, 204, 204)" stroke-width="1px"></line><line x1="51.5625" y1="133.5" x2="46.5625" y2="133.5" style="visibility: inherit;" fill="rgb(0, 0, 0)" stroke="rgb(204, 204, 204)" stroke-width="1px"></line><line x1="51.5625" y1="111.24999999999999" x2="46.5625" y2="111.24999999999999" style="visibility: inherit;" fill="rgb(0, 0, 0)" stroke="rgb(204, 204, 204)" stroke-width="1px"></line><line x1="51.5625" y1="88.99999999999999" x2="46.5625" y2="88.99999999999999" style="visibility: inherit;" fill="rgb(0, 0, 0)" stroke="rgb(204, 204, 204)" stroke-width="1px"></line><line x1="51.5625" y1="66.75" x2="46.5625" y2="66.75" style="visibility: inherit;" fill="rgb(0, 0, 0)" stroke="rgb(204, 204, 204)" stroke-width="1px"></line><line x1="51.5625" y1="44.5" x2="46.5625" y2="44.5" style="visibility: inherit;" fill="rgb(0, 0, 0)" stroke="rgb(204, 204, 204)" stroke-width="1px"></line><line x1="51.5625" y1="22.25" x2="46.5625" y2="22.25" style="visibility: inherit;" fill="rgb(0, 0, 0)" stroke="rgb(204, 204, 204)" stroke-width="1px"></line><line x1="51.5625" y1="0" x2="46.5625" y2="0" style="visibility: inherit;" fill="rgb(0, 0, 0)" stroke="rgb(204, 204, 204)" stroke-width="1px"></line></g><g transform="translate(41.5625, 0)"><text x="0" y="178" dx="0em" dy="0.3em" style="text-anchor: end; visibility: hidden; font-family: Roboto, sans-serif; font-size: 12px; font-weight: 200;" fill="rgb(50, 49, 63)" stroke="none" stroke-width="1px">-0.1</text><text x="0" y="155.75" dx="0em" dy="0.3em" style="text-anchor: end; visibility: inherit; font-family: Roboto, sans-serif; font-size: 12px; font-weight: 200;" fill="rgb(50, 49, 63)" stroke="none" stroke-width="1px">0</text><text x="0" y="133.5" dx="0em" dy="0.3em" style="text-anchor: end; visibility: hidden; font-family: Roboto, sans-serif; font-size: 12px; font-weight: 200;" fill="rgb(50, 49, 63)" stroke="none" stroke-width="1px">0.1</text><text x="0" y="111.24999999999999" dx="0em" dy="0.3em" style="text-anchor: end; visibility: inherit; font-family: Roboto, sans-serif; font-size: 12px; font-weight: 200;" fill="rgb(50, 49, 63)" stroke="none" stroke-width="1px">0.2</text><text x="0" y="88.99999999999999" dx="0em" dy="0.3em" style="text-anchor: end; visibility: hidden; font-family: Roboto, sans-serif; font-size: 12px; font-weight: 200;" fill="rgb(50, 49, 63)" stroke="none" stroke-width="1px">0.3</text><text x="0" y="66.75" dx="0em" dy="0.3em" style="text-anchor: end; visibility: inherit; font-family: Roboto, sans-serif; font-size: 12px; font-weight: 200;" fill="rgb(50, 49, 63)" stroke="none" stroke-width="1px">0.4</text><text x="0" y="44.5" dx="0em" dy="0.3em" style="text-anchor: end; visibility: hidden; font-family: Roboto, sans-serif; font-size: 12px; font-weight: 200;" fill="rgb(50, 49, 63)" stroke="none" stroke-width="1px">0.5</text><text x="0" y="22.25" dx="0em" dy="0.3em" style="text-anchor: end; visibility: inherit; font-family: Roboto, sans-serif; font-size: 12px; font-weight: 200;" fill="rgb(50, 49, 63)" stroke="none" stroke-width="1px">0.6</text><text x="0" y="0" dx="0em" dy="0.3em" style="text-anchor: end; visibility: hidden; font-family: Roboto, sans-serif; font-size: 12px; font-weight: 200;" fill="rgb(50, 49, 63)" stroke="none" stroke-width="1px">0.7</text></g><line x1="51.5625" y1="0" x2="51.5625" y2="178" fill="rgb(0, 0, 0)" stroke="rgb(204, 204, 204)" stroke-width="1px"></line></g></g><g transform="translate(51, 0)" clip-path="url(#clip_0)"><clipPath id="clip_0"><rect width="278" height="178"></rect></clipPath><g><g><g><line x1="0" y1="0" x2="0" y2="178" fill="rgb(0, 0, 0)" stroke="rgb(60, 60, 60)" stroke-width="1px" opacity="0.25"></line><line x1="23.203125" y1="0" x2="23.203125" y2="178" fill="rgb(0, 0, 0)" stroke="rgb(60, 60, 60)" stroke-width="1px" opacity="0.25"></line><line x1="46.40625" y1="0" x2="46.40625" y2="178" fill="rgb(0, 0, 0)" stroke="rgb(60, 60, 60)" stroke-width="1px" opacity="0.25"></line><line x1="69.609375" y1="0" x2="69.609375" y2="178" fill="rgb(0, 0, 0)" stroke="rgb(60, 60, 60)" stroke-width="1px" opacity="0.25"></line><line x1="92.8125" y1="0" x2="92.8125" y2="178" fill="rgb(0, 0, 0)" stroke="rgb(60, 60, 60)" stroke-width="1px" opacity="0.25"></line><line x1="116.015625" y1="0" x2="116.015625" y2="178" fill="rgb(0, 0, 0)" stroke="rgb(60, 60, 60)" stroke-width="1px" opacity="0.25"></line><line x1="139.21875" y1="0" x2="139.21875" y2="178" fill="rgb(0, 0, 0)" stroke="rgb(60, 60, 60)" stroke-width="1px" opacity="0.25"></line><line x1="162.421875" y1="0" x2="162.421875" y2="178" fill="rgb(0, 0, 0)" stroke="rgb(60, 60, 60)" stroke-width="1px" opacity="0.25"></line><line x1="185.625" y1="0" x2="185.625" y2="178" fill="rgb(0, 0, 0)" stroke="rgb(60, 60, 60)" stroke-width="1px" opacity="0.25"></line><line x1="208.828125" y1="0" x2="208.828125" y2="178" fill="rgb(0, 0, 0)" stroke="rgb(60, 60, 60)" stroke-width="1px" opacity="0.25"></line><line x1="232.03125" y1="0" x2="232.03125" y2="178" fill="rgb(0, 0, 0)" stroke="rgb(60, 60, 60)" stroke-width="1px" opacity="0.25"></line><line x1="255.234375" y1="0" x2="255.234375" y2="178" fill="rgb(0, 0, 0)" stroke="rgb(60, 60, 60)" stroke-width="1px" opacity="0.25"></line><line x1="278.4375" y1="0" x2="278.4375" y2="178" fill="rgb(0, 0, 0)" stroke="rgb(60, 60, 60)" stroke-width="1px" opacity="0.25"></line></g><g><line x1="0" y1="178" x2="278.4375" y2="178" fill="rgb(0, 0, 0)" stroke="rgb(60, 60, 60)" stroke-width="1px" opacity="0.25"></line><line x1="0" y1="155.75" x2="278.4375" y2="155.75" fill="rgb(0, 0, 0)" stroke="rgb(60, 60, 60)" stroke-width="1px" opacity="0.25"></line><line x1="0" y1="133.5" x2="278.4375" y2="133.5" fill="rgb(0, 0, 0)" stroke="rgb(60, 60, 60)" stroke-width="1px" opacity="0.25"></line><line x1="0" y1="111.24999999999999" x2="278.4375" y2="111.24999999999999" fill="rgb(0, 0, 0)" stroke="rgb(60, 60, 60)" stroke-width="1px" opacity="0.25"></line><line x1="0" y1="88.99999999999999" x2="278.4375" y2="88.99999999999999" fill="rgb(0, 0, 0)" stroke="rgb(60, 60, 60)" stroke-width="1px" opacity="0.25"></line><line x1="0" y1="66.75" x2="278.4375" y2="66.75" fill="rgb(0, 0, 0)" stroke="rgb(60, 60, 60)" stroke-width="1px" opacity="0.25"></line><line x1="0" y1="44.5" x2="278.4375" y2="44.5" fill="rgb(0, 0, 0)" stroke="rgb(60, 60, 60)" stroke-width="1px" opacity="0.25"></line><line x1="0" y1="22.25" x2="278.4375" y2="22.25" fill="rgb(0, 0, 0)" stroke="rgb(60, 60, 60)" stroke-width="1px" opacity="0.25"></line><line x1="0" y1="0" x2="278.4375" y2="0" fill="rgb(0, 0, 0)" stroke="rgb(60, 60, 60)" stroke-width="1px" opacity="0.25"></line></g></g></g><g><g><line x1="0" y1="155.75" x2="278.4375" y2="155.75" fill="rgb(0, 0, 0)" stroke="rgb(153, 153, 153)" stroke-width="1.5px"></line></g></g><g><g><line x1="23.203125" y1="0" x2="23.203125" y2="178" fill="rgb(0, 0, 0)" stroke="rgb(153, 153, 153)" stroke-width="1.5px"></line></g></g><g><g><g><g><g><path stroke="rgb(204, 51, 17)" stroke-width="2px" d="M32.484375,-0.39306960385534095L32.484375,0.8037276677136067L32.484375,2.4225474281521517L32.484375,7.460551666998786L32.484375,7.296551220156711L34.8046875,14.162750266838966L34.8046875,16.30406606428992L34.8046875,19.041021682695874L34.8046875,19.762825845481274L34.8046875,22.502404069356892L34.8046875,22.073942360535774L34.8046875,23.099728356179085L34.8046875,25.503643518943072L34.8046875,28.11646255629891L37.125,31.100141291499508L37.125,32.030072250774474L37.125,34.930413614999914L37.125,36.395643431719684L37.125,36.934138035045336L37.125,38.765175745050556L37.125,38.94378989050418L37.125,38.96332286065597L37.125,40.337647618447534L37.125,42.53299829458891L37.125,41.79985323605356L39.4453125,45.58124227558035L39.4453125,47.158577360120155L39.4453125,47.981365649346564L39.4453125,51.57970983293298L39.4453125,51.7499630242982L39.4453125,51.465855562114605L39.4453125,52.083498032941755L39.4453125,53.94886852625271L39.4453125,53.78505804731404L39.4453125,54.63954276796551L41.765625,59.10695341203434L41.765625,61.04385593517912L41.765625,63.558332306053L41.765625,62.721555895749184L41.765625,60.614428578104665L41.765625,61.30248000519638L41.765625,62.17467852411964L41.765625,62.2952800749439L41.765625,63.32346758596288L41.765625,63.493043746663254L41.765625,63.4766910350997L44.0859375,66.86650354723209L44.0859375,67.43250940477893L44.0859375,69.10136388084915L44.0859375,70.68358015621679L44.0859375,70.36388185384857L44.0859375,71.1674023554503L44.0859375,70.66271061812515L44.0859375,70.90595184632943L44.0859375,70.92279864471436L44.0859375,71.11156753373909L46.40625,74.51874398990135L46.40625,77.35249892952241L46.40625,77.61561428953526L46.40625,78.69261669188332L46.40625,78.58518716734403L46.40625,78.6734232010946L46.40625,78.91188740745217L46.40625,78.11702452906984L46.40625,77.06469634657513L46.40625,76.90540395668393L46.40625,78.30589729840307L46.40625,76.92936218556612L48.7265625,80.12401488290338L48.7265625,83.51240947762793L48.7265625,83.90432794642247L48.7265625,84.4942914709556L48.7265625,83.12122393042492L48.7265625,84.33837056988862L48.7265625,84.50120531817906L48.7265625,84.03260938108346L48.7265625,84.59770747888314L48.7265625,83.28069112818378L51.04687499999999,86.46043920589051L51.04687499999999,89.22994623823499L51.04687499999999,90.63347579982005L51.04687499999999,91.58448278871846L51.04687499999999,90.17162786702913L51.04687499999999,88.00963413584591L51.04687499999999,88.81910395543791L51.04687499999999,88.97812870097765L53.36718750000001,92.90287083359128L53.36718750000001,93.40216931087711L53.36718750000001,94.61022156109178L53.36718750000001,92.97630477326966L53.36718750000001,92.73142994271433L53.36718750000001,93.16663935081192L53.36718750000001,93.61554743227975L53.36718750000001,93.57086589561473L53.36718750000001,93.40544750467876L53.36718750000001,93.90527169809306L55.6875,95.76309176627139L55.6875,97.7291082164248L55.6875,99.01520027939081L55.6875,98.35340873732328L55.6875,98.33928033312654L55.6875,98.62352554560003L55.6875,97.08462308383163L55.6875,98.2731596442233L55.6875,95.69972953868928L58.0078125,98.75920311911715L58.0078125,100.4190035271872L58.0078125,101.32514754880837L58.0078125,101.94124466448646L58.0078125,101.3458008871652L58.0078125,100.08577606714827L58.0078125,100.91250264428298L58.0078125,100.74831875730894L58.0078125,99.74442133646812L60.328125,103.05003943944934L60.328125,105.38396430554963L60.328125,105.87555960144388L60.328125,105.16241656736007L60.328125,104.25992235538644L60.328125,105.0348630130129L60.328125,106.55600514291746L60.328125,105.10560294556035L60.328125,103.96837169568188L60.328125,103.21470972979336L60.328125,104.16012929430168L62.6484375,107.27552427083586L62.6484375,108.30091000336608L62.6484375,108.27674167596221L62.6484375,107.36282017971827L62.6484375,107.48255547968002L62.6484375,107.21583683840899L64.96875,109.5053668919353L64.96875,111.85849935729195L64.96875,110.01906136524013L64.96875,110.14515643031199L64.96875,110.41112099713564L64.96875,109.65835803822566L64.96875,110.90839554116658L64.96875,111.43255102482756L64.96875,110.69837421683857L67.2890625,112.08831520979638L67.2890625,113.8178702301087L67.2890625,114.01209149696243L67.2890625,113.37015530131943L67.2890625,113.75458938576392L67.2890625,114.16672882853516L67.2890625,112.94828327249624L67.2890625,113.53452046067203L67.2890625,114.0330642005842L67.2890625,113.62119293755538L67.2890625,113.9472101750746L69.609375,116.83772937493173L69.609375,116.28065195105462L69.609375,116.34970260812037L69.609375,116.69208169670816L69.609375,118.3446224551911L69.609375,117.88357362577409L69.609375,117.19409590023211L69.609375,115.57336661551864L69.609375,117.19604242643399L71.92968750000001,118.94397428214957L71.92968750000001,119.91883867132907L71.92968750000001,120.09000308005956L71.92968750000001,120.3922343235549L71.92968750000001,118.60707211681228L71.92968750000001,116.42306605689537L71.92968750000001,118.87498991318233L71.92968750000001,118.92812384443097L71.92968750000001,116.46747662887937L71.92968750000001,118.42460356513241L71.92968750000001,118.4990765324806L74.25,120.92114956507532L74.25,120.0470722873774L74.25,119.21526370702784L74.25,119.2359627411282L74.25,119.4835272983024L74.25,120.81933233769593L74.25,121.2966528036109L74.25,120.4702172456927L74.25,120.85952900819461L74.25,120.64293501360703L76.5703125,122.73855339338473L76.5703125,123.16928596109207L76.5703125,123.02993743902478L76.5703125,124.2925095992448L76.5703125,124.17918157500993L76.5703125,123.3032059813915L76.5703125,123.8255003062116L76.5703125,124.19108820064228L76.5703125,122.36809574129201L78.890625,123.71835776008378L78.890625,124.42909083269362L78.890625,125.19597901107267L78.890625,124.7051525038564L78.890625,124.70290672612688L78.890625,124.37946027417482L78.890625,122.86813429832162L78.890625,123.20756404006303L81.2109375,126.52244918140065L81.2109375,126.33692731316263L81.2109375,126.04983654830083L81.2109375,125.07874615617528L81.2109375,124.68859298901519L81.2109375,126.03647335992314L81.2109375,124.71356576756273L81.2109375,124.95989220783493L81.2109375,124.324307712587L83.53125,126.54847181002633L83.53125,127.62545141822301L83.53125,126.78466219452741L83.53125,127.3169010460241L83.53125,127.11527521192211L83.53125,128.01198174225794L83.53125,127.66637626390164L83.53125,127.20276264012159L83.53125,126.72965716219129L83.53125,127.76654387352573L85.8515625,129.56876545600718L85.8515625,128.74107974739448L85.8515625,129.7943126542662L85.8515625,130.67037858416404L85.8515625,129.9723110845671L85.8515625,128.70718707448162L85.8515625,128.3580129462833L85.8515625,128.10240964104858L85.8515625,128.844456392587L85.8515625,127.19499400142477L85.8515625,127.65952572306182L88.171875,128.95788094747178L88.171875,130.2980737125761L88.171875,130.02122290646355L88.171875,129.027410347553L88.171875,128.56920047360177L88.171875,129.45087704364963L88.171875,130.57036110046212L88.171875,129.7541641073388L88.171875,131.03382397752776L90.4921875,129.51856481767757L90.4921875,130.07741828702132L90.4921875,130.92103294546746L90.4921875,131.48165830233899L90.4921875,131.88262227183105L90.4921875,132.278826637599L90.4921875,132.05489853533098L90.4921875,130.00317522890563L90.4921875,130.52690587644094L90.4921875,130.8724632200856L90.4921875,129.8991583593046L92.8125,132.04249538376064L92.8125,133.37655125048238L92.8125,133.027380651155L92.8125,132.319194667589L92.8125,131.9142742666908L92.8125,131.96863891263652L92.8125,132.90633710968405L92.8125,132.45925707815832L92.8125,132.7857250568196L92.8125,133.7853626547411L92.8125,132.43809170652358L92.8125,131.6412637911971L95.1328125,132.02533183739996L95.1328125,132.79473308471688L95.1328125,133.1231388032308L95.1328125,133.36576119094318L95.1328125,133.1981934787585L95.1328125,132.25679019729813L95.1328125,132.1945030399592L95.1328125,132.09226613989063L95.1328125,132.20268788934104L95.1328125,131.29142098725052L95.1328125,131.93641502320892L97.453125,133.94280851131754L97.453125,134.93631869999214L97.453125,134.76208036957766L97.453125,133.64350306283586L97.453125,134.6972068044016L97.453125,134.34397110745127L97.453125,133.46821451875456L97.453125,133.1286637720042L97.453125,132.721684040819L99.7734375,132.84375842195413L99.7734375,134.19543389994897L99.7734375,134.85188411187528L99.7734375,134.39784480340123L99.7734375,134.4603823867848L99.7734375,134.28859291508257L99.7734375,135.0557572903303L99.7734375,134.17923365903303L99.7734375,132.6858355723167L99.7734375,133.6632989896741L102.09374999999999,134.89696957787316L102.09374999999999,135.35047262829806L102.09374999999999,135.6902764762775L102.09374999999999,135.080914978703L102.09374999999999,135.86016234875927L102.09374999999999,135.25196026337866L102.09374999999999,134.98213177068664L102.09374999999999,134.43118629243156L102.09374999999999,135.0564396180879L104.4140625,136.7206652446491L104.4140625,136.8539371510686L104.4140625,136.12801625402815L104.4140625,135.99849574757843L104.4140625,135.41278788294332L104.4140625,135.77919724938832L104.4140625,135.10087629471755L104.4140625,135.83886867502056L104.4140625,135.77545825385286L106.73437500000001,137.64472980346224L106.73437500000001,137.47247792509756L106.73437500000001,137.51519417153338L106.73437500000001,137.61450711421097L106.73437500000001,136.57529363204193L106.73437500000001,137.20491763007135L106.73437500000001,135.33384105742866L106.73437500000001,136.40389330941974L109.0546875,137.0911866546186L109.0546875,137.84373912486507L109.0546875,137.6329620034878L109.0546875,137.775716336154L109.0546875,137.60836249237244L109.0546875,138.35285842356075L109.0546875,137.3697469782054L109.0546875,135.14130017615673L111.375,138.3677604724903L111.375,138.29599255948895L111.375,137.81789467561026L111.375,137.71971622155772L111.375,137.61196972159544L111.375,138.04789064364434L111.375,137.7692275258112L111.375,138.46083318812896L111.375,137.17466162814645L111.375,137.08255634560552L111.375,137.321055174496L111.375,137.57245223708523L113.6953125,138.27731855355248L113.6953125,138.8773607575449L113.6953125,139.64160423955633L113.6953125,139.33379643101284L113.6953125,139.62039667182438L113.6953125,140.11192805804774L113.6953125,139.52075473360995L113.6953125,138.1340417334007L113.6953125,137.5728763785104L113.6953125,136.20088779605268L113.6953125,136.83952681974674L116.015625,140.43068605367006L116.015625,140.32607218297517L116.015625,140.1861765156519L116.015625,139.60158740552257L116.015625,140.30377706481212L116.015625,140.4246162837338L116.015625,139.74489396158407L116.015625,137.94197687264415L116.015625,138.2566908926137L116.015625,138.7035606789808L118.3359375,139.2363549419177L118.3359375,139.75704347776963L118.3359375,139.5276766713714L118.3359375,139.94338708348607L118.3359375,140.78999142484386L118.3359375,138.91748002848934L118.3359375,138.35736890692658L118.3359375,139.90178364848583L118.3359375,141.6995766801267L120.65625,140.89499103084978L120.65625,140.18042460117206L120.65625,140.38152258416093L120.65625,139.75374050480175L120.65625,140.17442979986697L120.65625,139.007055165322L120.65625,138.3383279707738L122.9765625,140.009901730222L122.9765625,140.96434009850174L122.9765625,141.19436389672845L122.9765625,141.64515196214967L122.9765625,142.58866868946464L122.9765625,141.78628242333838L122.9765625,140.884897764445L122.9765625,140.36163054312505L122.9765625,140.8135871240809L122.9765625,139.6879665746876L122.9765625,140.37670048294L125.296875,140.6940729034992L125.296875,142.08900562528086L125.296875,141.4042739024956L125.296875,140.60508141673796L125.296875,141.15860041756744L125.296875,140.9775841819007L125.296875,141.27522036503308L125.296875,141.13872997802827L125.296875,140.81373471523722L127.6171875,141.8324679188752L127.6171875,141.7394888909354L127.6171875,141.33937001596058L127.6171875,141.8943582601557L127.6171875,141.55584140433132L127.6171875,140.9725266952113L127.6171875,141.34973760299656L127.6171875,141.58133016960485L129.9375,141.56933890245355L129.9375,142.2234013979852L129.9375,142.45512360589026L129.9375,143.422514813431L129.9375,143.15116493614786L129.9375,142.95436607576772L129.9375,141.9062714116416L129.9375,141.40492243389141L129.9375,140.64073494565397L129.9375,141.02500279689974L129.9375,140.79048852887837L132.2578125,142.0413386152213L132.2578125,142.67296116805227L132.2578125,143.50769542086812L132.2578125,142.58132665859873L132.2578125,142.25762347881323L132.2578125,141.90575378986793L132.2578125,142.2638013190186L132.2578125,142.04688964194986L132.2578125,141.64665601943096L132.2578125,141.9795683118353L132.2578125,141.0714697326809L134.578125,142.81234028775035L134.578125,143.29614019893728L134.578125,143.2190018080361L134.578125,142.86892404676598L134.578125,142.70917000485136L134.578125,142.59554413400693L134.578125,141.53941840197209L134.578125,141.92480126107074L134.578125,143.0121197712978L134.578125,141.80021875873567L134.578125,141.30104919091082L136.8984375,142.77682115325462L136.8984375,144.25094289445357L136.8984375,144.22041951262042L136.8984375,143.22342344607762L136.8984375,142.26781798294692L136.8984375,142.54266850436636L136.8984375,143.87481016835514L136.8984375,143.73007013825145L136.8984375,142.87176335559823L136.8984375,142.23552053544842L136.8984375,143.35763174816324L136.8984375,142.29314505472394L139.21875,143.37205844694145L139.21875,143.9778731089757L139.21875,143.39108482357418L139.21875,143.3858975781891L139.21875,143.26970119782646L139.21875,143.34694659342384L139.21875,144.39752849119913L139.21875,142.8311597119451L139.21875,141.76033209923986L139.21875,141.2991036573892L141.5390625,142.98698930962948L141.5390625,143.6724800252859L141.5390625,143.86848689222003L141.5390625,143.36612211378613L141.5390625,142.90229141168118L141.5390625,143.26275120647145L141.5390625,142.9382033480489L141.5390625,143.68970911626718L141.5390625,143.8584024730307L141.5390625,143.47159687492143L143.85937500000003,143.8718167688721L143.85937500000003,143.63557613171778L143.85937500000003,144.02323853166484L143.85937500000003,142.97614423448792L143.85937500000003,141.62390330293744L143.85937500000003,141.65350163345914L143.85937500000003,142.7571088514649L146.1796875,143.72259677525895L146.1796875,143.93795313880761L146.1796875,144.1953007456417L146.1796875,143.31404561932416L146.1796875,143.6674472019704L146.1796875,143.50226950276684L146.1796875,142.5855561994242L146.1796875,142.0134376482801L146.1796875,142.42540616820077L148.5,144.2720339381982L148.5,144.60786749328904L148.5,143.59594991746982L148.5,144.47494615729713L148.5,145.09830797532834L148.5,144.56628183838507L148.5,144.40085999036899L148.5,143.8220278798942L148.5,143.4396482142451L148.5,143.66029139206663L148.5,144.4872792853168L150.8203125,145.4553331825585L150.8203125,144.98253674840635L150.8203125,144.16058908871236L150.8203125,144.5199534049417L150.8203125,145.3968202986291L150.8203125,145.1079682539684L150.8203125,144.77192922418013L150.8203125,143.89015479451237L150.8203125,143.46494677851092L150.8203125,142.86189848893576L153.140625,143.9598755811971L153.140625,144.74199476914535L153.140625,146.16116373882846L153.140625,145.71800817338323L153.140625,144.90690401814993L153.140625,144.43952452166448L153.140625,145.242644412211L153.140625,144.41475560092414L153.140625,144.16318625404526L153.140625,144.075210791493L153.140625,143.4085127229479L155.4609375,144.76900395765824L155.4609375,144.3715156205888L155.4609375,145.38307238450022L155.4609375,146.03755249056442L155.4609375,145.97079895569814L155.4609375,145.1468084753092L155.4609375,145.08797218951798L155.4609375,145.47308118896612L155.4609375,144.91443360824542L155.4609375,143.92422924848887L155.4609375,143.54418735004958L155.4609375,143.9913674789518L157.78125,145.0082752382964L157.78125,146.43274322978914L157.78125,146.43447402168667L157.78125,147.2586272346935L157.78125,145.94583588394292L157.78125,144.3399144965575L157.78125,144.45015535850322L157.78125,144.34334770798083L157.78125,145.92311305305003L160.1015625,145.09552946612618L160.1015625,146.07754485786188L160.1015625,146.01736900943652L160.1015625,146.10193838991606L160.1015625,145.66235744323063L160.1015625,145.3038493252738L160.1015625,144.48544095870517L160.1015625,145.0640555257598L160.1015625,145.34318174555895L160.1015625,145.8433694050312L162.421875,146.77912131804823L162.421875,147.24515279819727L162.421875,147.30378973820902L162.421875,145.6568477382606L162.421875,146.79635499449645L162.421875,146.06017797086878L162.421875,146.1765424349561L162.421875,146.0258333899769L162.421875,145.45884441618279L164.7421875,146.18699900379272L164.7421875,145.71643579048214L164.7421875,145.1678164551693L164.7421875,145.68249279186355L164.7421875,144.7987921278192L164.7421875,145.40323517340502L164.7421875,146.41454506810356L164.7421875,146.28171402973442L164.7421875,146.36243130572146L164.7421875,145.56326157261435L164.7421875,145.62163233405056L167.0625,146.44621426326455L167.0625,146.05633041985286L167.0625,144.56282688142332L167.0625,143.85382685265822L167.0625,144.6990692240112L167.0625,145.32017728967148L167.0625,145.20633935128257L167.0625,145.44796434235337L167.0625,144.82767392064193L167.0625,145.0388938672248L167.0625,145.1845050029101L169.38281249999997,145.92158367691292L169.38281249999997,146.18252296944172L169.38281249999997,146.73332071423357L169.38281249999997,146.33626177754897L169.38281249999997,145.63139447404083L169.38281249999997,145.42527220000704L169.38281249999997,144.51013394057682L169.38281249999997,146.22488390980618L169.38281249999997,146.95002652825985L169.38281249999997,146.34889902917786L169.38281249999997,145.5764990538254L171.703125,146.55645038425294L171.703125,146.4206118881069L171.703125,146.6109506368257L171.703125,146.4076986017595L171.703125,146.36944042684257L171.703125,146.00272134716283L171.703125,146.25690009832365L171.703125,145.90861870878925L171.703125,146.10061850493545L174.0234375,146.68391975742813L174.0234375,146.63721385811112L174.0234375,145.53786303081714L174.0234375,145.95463796170714L174.0234375,146.18573124982217L174.0234375,145.96793658675134L174.0234375,145.9974276878916L174.0234375,146.08774458071485L174.0234375,145.75120238707004L174.0234375,146.2216591834756L176.34375,145.90891588403179L176.34375,146.88853540523883L176.34375,146.84552170487663L176.34375,147.11525756882085L176.34375,147.8572694522378L176.34375,146.46287190465551L176.34375,146.36375959171903L176.34375,146.8374229651931L176.34375,146.49234910576004L176.34375,146.87391859452998L176.34375,146.52904624960465L176.34375,146.04397158382324L178.66406250000003,146.68602787588827L178.66406250000003,146.7676293843078L178.66406250000003,146.95101492363736L178.66406250000003,146.88426632513716L178.66406250000003,148.01753612208432L178.66406250000003,146.9904395556335L178.66406250000003,145.8972102614274L178.66406250000003,145.49422806945623L178.66406250000003,146.62707902534117L178.66406250000003,147.04391852345057L178.66406250000003,146.63408719122998L180.984375,146.81250085306522L180.984375,145.7091212667367L180.984375,146.55891858099946L180.984375,147.2390078749302L180.984375,146.77269591665524L180.984375,146.5992629559413L180.984375,146.34738521764132L180.984375,145.5329138747719L180.984375,146.65914954688353L180.984375,147.10121590984585L180.984375,146.52008999268844L183.3046875,147.06533119830866L183.3046875,147.26531622933376L183.3046875,147.1064988553645L183.3046875,146.63380610302815L183.3046875,147.01480432811815L183.3046875,147.23063855596445L183.3046875,145.6169237031225L183.3046875,144.6011378025224L183.3046875,146.19806281210245L185.625,147.3360508258269L185.625,146.12276358158147L185.625,146.76378585845683L185.625,147.54592569366366L185.625,146.26147111323638L185.625,146.17020172963836L185.625,146.01361288035093L185.625,146.32270967679727L185.625,146.63016818444436L185.625,146.74193286437097L185.625,146.43284128033105L185.625,146.33625952630032L187.9453125,146.94500217946643L187.9453125,146.7245791330175L187.9453125,145.53671684260584L187.9453125,147.0950830784912L187.9453125,147.44705326750724L187.9453125,147.44382046025902L187.9453125,147.43095219723529L187.9453125,147.23952787275402L187.9453125,146.90810427162222L190.265625,146.73649198542935L190.265625,147.68292428951503L190.265625,148.1315447291049L190.265625,146.8251338720508L190.265625,147.56369552658126L190.265625,147.28094241184667L190.265625,147.27647480614587L190.265625,146.80107701717378L190.265625,147.43669990464187L192.5859375,147.39613209598744L192.5859375,147.7258873726933L192.5859375,146.9878116500979L192.5859375,147.7343385325435L192.5859375,147.71434160808107L192.5859375,147.4235055527948L192.5859375,146.7741790254034L192.5859375,146.47900149310337L194.90625,147.77327431900625L194.90625,148.54504030816747L194.90625,148.98589113465246L194.90625,146.72137942678506L194.90625,147.26601557294595L194.90625,148.23969819946626L194.90625,147.28926057325924L194.90625,147.0686246541567L194.90625,147.28043597265648L194.90625,146.99331232502797L194.90625,147.11411282998168L197.2265625,147.5969837744942L197.2265625,147.57239183797898L197.2265625,147.28251413413562L197.2265625,147.53343144898818L197.2265625,147.78546258640412L197.2265625,147.76481260929776L197.2265625,147.72715645998284L197.2265625,147.5994505455766L197.2265625,147.86273954559408L197.2265625,147.83907580375103L197.2265625,148.21221480741755L197.2265625,147.62009556874426L199.546875,148.60548166206354L199.546875,147.41063802031204L199.546875,146.88679057188347L199.546875,147.91127708674978L199.546875,148.3747206430674L199.546875,147.71899058899524L199.546875,146.80256493005896L199.546875,146.91826601021734L199.546875,147.64372397776393L199.546875,147.80927784258694L199.546875,148.48362275594215L201.8671875,148.5787591584548L201.8671875,148.86135408754794L201.8671875,148.11816468820362L201.8671875,147.53887312031023L201.8671875,147.79743809277554L201.8671875,147.4981070825442L201.8671875,148.27068319024053L201.8671875,148.015386026212L201.8671875,148.35057216352726L201.8671875,147.98652759472435L204.18749999999997,147.62041617500722L204.18749999999997,147.15668745826446L204.18749999999997,147.71417251819827L204.18749999999997,148.12641719859516L204.18749999999997,148.47882815677926L204.18749999999997,148.5931644863129L204.18749999999997,147.78930186189652L204.18749999999997,148.24835956145787L204.18749999999997,147.78727156996408L204.18749999999997,147.760517592458L206.5078125,148.85497434264605L206.5078125,149.6005113110762L206.5078125,148.73434760709532L206.5078125,148.12956515127377L206.5078125,148.21534562810632L206.5078125,148.37800081345065L206.5078125,147.9276590870179L206.5078125,147.70686308302626L208.828125,148.36926518348244L208.828125,148.94408978837663L208.828125,148.45024133588632L208.828125,149.27289379233576L208.828125,149.02265825849446L208.828125,148.1912197551529L208.828125,147.41039090194704L208.828125,147.52447648473623L208.828125,147.56258430184747L208.828125,147.6853853768219L211.1484375,147.68275031334815L211.1484375,148.1940608472327L211.1484375,148.81283749942182L211.1484375,147.81002984004732L211.1484375,147.4184244747908L211.1484375,147.52543472429818L211.1484375,147.05629758868042L211.1484375,147.26036156093136L211.1484375,147.56008548140557L211.1484375,148.52993120983263L213.46875000000003,148.33487512236843L213.46875000000003,148.09874244148142L213.46875000000003,149.02013665990296L213.46875000000003,148.82243244458L213.46875000000003,147.63655274575208L213.46875000000003,147.28152264261396L213.46875000000003,147.54924301567166L213.46875000000003,148.2217774637788L213.46875000000003,148.78876313892005L213.46875000000003,148.83560847611426L213.46875000000003,148.3424590788555L215.7890625,148.48063844813535L215.7890625,148.33257913663167L215.7890625,148.59506708353268L215.7890625,148.80335078742806L215.7890625,149.42919900294663L215.7890625,149.2754654334576L215.7890625,148.12218569496818L215.7890625,147.8588756183061L215.7890625,147.82580134998398L218.109375,148.61053418803596L218.109375,148.70638293214668L218.109375,148.80873343460576L218.109375,148.53959153063784L218.109375,147.73086246009285L218.109375,148.1506812186874L218.109375,147.80700107510904L218.109375,148.02747172845017L218.109375,147.52126578678258L218.109375,148.29885664956015L220.4296875,148.89021253847326L220.4296875,149.23909164339747L220.4296875,149.41362599578764L220.4296875,149.72388607776026L220.4296875,149.040825079476L220.4296875,148.71984576245853L220.4296875,147.78667704722707L220.4296875,147.76481751031534L220.4296875,147.57648313895973L220.4296875,147.88307236719794L222.75,148.5530603663693L222.75,147.34390922853765L222.75,148.5877698412205L222.75,148.55060107935458L222.75,148.9978827319532L222.75,148.775174041509L222.75,148.08474997798763L222.75,147.59455746781921L222.75,148.13735501652715L222.75,147.99334719217273L225.0703125,148.3459360297707L225.0703125,148.39736055634543L225.0703125,148.24306070761156L225.0703125,147.80976457048223L225.0703125,148.27993957898772L225.0703125,148.66754505493796L225.0703125,147.48878014584514L225.0703125,148.60976943299252L225.0703125,149.5792372713988L225.0703125,150.12390198129444L225.0703125,150.22745171453374L225.0703125,149.55620171362648L227.390625,148.61782603180106L227.390625,149.02952974529978L227.390625,149.5738332181687L227.390625,149.03838810008853L227.390625,148.78993589241557L227.390625,149.00568885167988L227.390625,149.09775163939923L227.390625,147.7947200266202L227.390625,148.28279861861049L227.390625,147.87427600579605L229.7109375,148.79233212572126L229.7109375,148.89810223274998L229.7109375,149.037787005416L229.7109375,150.1801715564647L229.7109375,149.94465734120718L229.7109375,149.7419555436463L229.7109375,149.59553346788232L229.7109375,148.3285428807458L229.7109375,148.42927730234388L232.03125,149.05676852219952L232.03125,148.88726384448202L232.03125,148.99291591499562L232.03125,148.8489161411185L232.03125,148.63768970768206L232.03125,148.70790913544926L232.03125,149.9184426834752L232.03125,148.68130052286804L232.03125,149.25233318104398L232.03125,148.601270384008L232.03125,148.13989401394983L232.03125,148.4845688553742L234.3515625,148.46883484942265L234.3515625,148.70495873338012L234.3515625,148.16240546864884L234.3515625,148.92327740870488L234.3515625,149.36012104128343L234.3515625,149.906665843946L234.3515625,149.31909184439317L234.3515625,149.16957193632922L234.3515625,149.0367752918303L234.3515625,148.89789227224588L236.671875,149.2233533692491L236.671875,150.03283342277302L236.671875,149.84999677050288L236.671875,148.24853682746394L236.671875,149.2004837340409L236.671875,149.08054410569633L236.671875,149.62742775657932L236.671875,149.56640927034115L236.671875,149.5609588181972L238.99218749999997,150.07790507151185L238.99218749999997,149.6143996094823L238.99218749999997,149.2592341370976L238.99218749999997,149.83761947595153L238.99218749999997,148.62706413786455L238.99218749999997,149.0165477032712L238.99218749999997,147.51995558799808L238.99218749999997,147.9561486177832L238.99218749999997,147.19808037255348L238.99218749999997,147.38900828390803L241.3125,148.83883148486603L241.3125,149.20856770645196L241.3125,149.6680440255738L241.3125,149.01725642673594L241.3125,149.8375750305797L241.3125,149.3642367771295L241.3125,148.20932139238877L241.3125,148.82163243610358L241.3125,149.0131744451445L241.3125,148.64681481984985L243.6328125,149.0946522476836L243.6328125,148.6709591886439L243.6328125,149.58588327674795L243.6328125,150.37210827296215L243.6328125,149.4861986270561L243.6328125,148.9368163991579L243.6328125,148.45288131377748L243.6328125,148.0942904158929L243.6328125,147.769791737467L243.6328125,148.10407227517362L245.953125,148.90215405555782L245.953125,149.49284317818115L245.953125,149.40612494819956L245.953125,149.3476592715746L245.953125,148.31037081501876L245.953125,148.5448310332566L245.953125,149.07229271237966L245.953125,149.26611281941783L245.953125,148.24620685658127L245.953125,149.44640510339303L245.953125,149.91057376822093L248.27343750000003,149.87504957622443L248.27343750000003,150.30298760499747L248.27343750000003,149.86489463353868L248.27343750000003,149.4714882221354L248.27343750000003,150.10939182432193L248.27343750000003,150.02650150413334L248.27343750000003,149.94986262473475L248.27343750000003,149.8215354971022L248.27343750000003,149.89559030037705L248.27343750000003,148.55193255693663L248.27343750000003,148.73416008301646L250.59375,149.38011494315012L250.59375,149.99699040710234L250.59375,149.82227554334287L250.59375,149.75787958115689L250.59375,149.69292764282434L250.59375,149.74484799193567L250.59375,149.15059569261805L250.59375,148.8531021373411L250.59375,149.0263423187697L252.9140625,149.13299718726657L252.9140625,149.73829193996778L252.9140625,149.60512923203345L252.9140625,149.91233196297247L252.9140625,149.6147520862607L252.9140625,149.75798452519402L252.9140625,150.04262489153757L252.9140625,149.6850230083544L252.9140625,149.91203669969312L252.9140625,150.50971212283713L255.234375,149.9590978919473L255.234375,150.03977812336424L255.234375,148.63952411715113L255.234375,148.73110946791724L255.234375,148.9640429695836L255.234375,149.61580790983982L255.234375,149.26917123590317L255.234375,149.01537487384323L255.234375,149.768702637265L255.234375,150.97800525362632L255.234375,150.65366719304228L255.234375,150.94363402732435" style="fill: none;" fill="none"></path></g></g></g></g><g opacity="0.2"><g><g><g><path stroke="rgb(204, 51, 17)" stroke-width="2px" d="M32.484375,-1.242371380329132L32.484375,0.8125276565551758L32.484375,1.5234256982803345L32.484375,1.396561086177826L32.484375,2.5989235639572144L32.484375,4.850777059793472L32.484375,15.017558008432388L32.484375,7.050550550222397L34.8046875,24.462048828601837L34.8046875,19.51603975892067L34.8046875,23.146455109119415L34.8046875,20.845532089471817L34.8046875,26.611771404743195L34.8046875,21.431249797344208L34.8046875,24.638407349586487L34.8046875,29.109516263008118L34.8046875,32.03569111227989L37.125,35.57565939426422L37.125,33.4249686896801L37.125,39.280925661325455L37.125,38.5934881567955L37.125,37.74187994003296L37.125,41.511732310056686L37.125,39.21171110868454L37.125,38.99262231588364L37.125,42.39913475513458L37.125,45.8260243088007L37.125,40.70013564825058L39.4453125,51.25332583487034L39.4453125,49.52457998692989L39.4453125,49.21554808318615L39.4453125,56.97722610831261L39.4453125,52.005342811346054L39.4453125,51.039694368839264L39.4453125,53.00996173918247L39.4453125,56.74692426621914L39.4453125,53.53934232890606L39.4453125,55.92126984894276L41.765625,65.80806937813759L41.765625,63.94920971989632L41.765625,67.33004686236382L41.765625,61.466391280293465L41.765625,57.45373760163784L41.765625,62.33455714583397L41.765625,63.48297630250454L41.765625,62.47618240118027L41.765625,64.86574885249138L41.765625,63.747407987713814L41.765625,63.452161967754364L44.0859375,71.95122231543064L44.0859375,68.28151819109917L44.0859375,71.60464559495449L44.0859375,73.05690456926823L44.0859375,69.88433440029621L44.0859375,72.37268310785294L44.0859375,69.90567301213741L44.0859375,71.27081368863583L44.0859375,70.94806884229183L44.0859375,71.39472086727619L46.40625,79.62950867414474L46.40625,81.60313133895397L46.40625,78.01028732955456L46.40625,80.30812029540539L46.40625,78.42404288053513L46.40625,78.80577725172043L46.40625,79.26958371698856L46.40625,76.92473021149635L46.40625,75.48620407283306L46.40625,76.66646537184715L46.40625,80.40663731098175L46.40625,74.86455951631069L48.7265625,84.9159939289093L48.7265625,88.59500136971474L48.7265625,84.49220564961433L48.7265625,85.37923675775528L48.7265625,81.0616226196289L48.7265625,86.1640905290842L48.7265625,84.7454574406147L48.7265625,83.32971547544003L48.7265625,85.4453546255827L48.7265625,81.3051666021347L51.04687499999999,91.23006132245064L51.04687499999999,93.38420678675175L51.04687499999999,92.73877014219761L51.04687499999999,93.01099327206612L51.04687499999999,88.05234548449516L51.04687499999999,84.76664353907108L51.04687499999999,90.0333086848259L51.04687499999999,89.2166658192873L53.36718750000001,98.78998403251171L53.36718750000001,94.15111702680588L53.36718750000001,96.42229993641376L53.36718750000001,90.52542959153652L53.36718750000001,92.3641176968813L53.36718750000001,93.81945346295834L53.36718750000001,94.2889095544815L53.36718750000001,93.50384359061718L53.36718750000001,93.15731991827488L53.36718750000001,94.65500798821449L55.6875,98.54982186853886L55.6875,100.67813289165497L55.6875,100.94433837383986L55.6875,97.36072142422199L55.6875,98.31808772683144L55.6875,99.04989336431026L55.6875,94.77626939117908L55.6875,100.05596448481083L55.6875,91.83958438038826L58.0078125,103.34841348975897L58.0078125,102.90870413929224L58.0078125,102.68436358124018L58.0078125,102.86539033800364L58.0078125,100.4526352211833L58.0078125,98.19573883712292L58.0078125,102.15259250998497L58.0078125,100.50204292684793L58.0078125,98.23857520520687L60.328125,108.00846659392118L60.328125,108.88485160470009L60.328125,106.61295254528522L60.328125,104.0927020162344L60.328125,102.906181037426L60.328125,106.19727399945259L60.328125,108.83771833777428L60.328125,102.92999964952469L60.328125,102.2625248208642L60.328125,102.08421678096056L60.328125,105.57825864106417L62.6484375,111.94861673563719L62.6484375,109.83898860216141L62.6484375,108.24048918485641L62.6484375,105.99193793535233L62.6484375,107.66215842962265L62.6484375,106.81575887650251L64.96875,112.93966197222471L64.96875,115.38819805532694L64.96875,107.25990437716246L64.96875,110.33429902791977L64.96875,110.8100678473711L64.96875,108.52921359986067L64.96875,112.783451795578L64.96875,112.218784250319L64.96875,109.59710900485516L67.2890625,114.17322669923306L67.2890625,116.4122027605772L67.2890625,114.30342339724302L67.2890625,112.40725100785494L67.2890625,114.33124051243067L67.2890625,114.784937992692L67.2890625,111.12061493843794L67.2890625,114.41387624293566L67.2890625,114.78087981045246L67.2890625,113.00338604301214L67.2890625,114.43623603135347L69.609375,121.17350817471743L69.609375,115.44503581523895L69.609375,116.453278593719L69.609375,117.20565032958984L69.609375,120.82343359291553L69.609375,117.19200038164854L69.609375,116.15987931191921L69.609375,113.14227268844843L69.609375,119.630056142807L71.92968750000001,121.56587206572294L71.92968750000001,121.38113525509834L71.92968750000001,120.34674969315529L71.92968750000001,120.84558118879795L71.92968750000001,115.92932880669832L71.92968750000001,113.14705696702003L71.92968750000001,122.55287569761276L71.92968750000001,119.00782474130392L71.92968750000001,112.776505805552L71.92968750000001,121.36029396951199L71.92968750000001,118.61078598350286L74.25,124.55425911396742L74.25,118.73595637083054L74.25,117.9675508365035L74.25,119.26701129227877L74.25,119.85487413406372L74.25,122.82303989678621L74.25,122.01263350248337L74.25,119.23056390881538L74.25,121.4434966519475L74.25,120.31804402172565L76.5703125,125.88198096305132L76.5703125,123.81538481265306L76.5703125,122.82091465592384L76.5703125,126.18636783957481L76.5703125,124.00918953865767L76.5703125,121.98924259096384L76.5703125,124.60894179344177L76.5703125,124.7394700422883L76.5703125,119.6336070522666L78.890625,125.74375078827143L78.890625,125.49519044160843L78.890625,126.34631127864122L78.890625,123.96891274303198L78.890625,124.69953805953264L78.890625,123.89429059624672L78.890625,120.6011453345418L78.890625,123.71670865267515L81.2109375,131.4947768934071L81.2109375,126.0586445108056L81.2109375,125.61920040100813L81.2109375,123.62211056798697L81.2109375,124.10336323827505L81.2109375,128.05829391628504L81.2109375,122.72920437902212L81.2109375,125.32938186824322L81.2109375,123.37093096971512L83.53125,129.88471795618534L83.53125,129.240920830518L83.53125,125.523478358984L83.53125,128.11525932326913L83.53125,126.81283646076918L83.53125,129.3570415377617L83.53125,127.14796804636717L83.53125,126.50734220445156L83.53125,126.01999894529581L83.53125,129.32187394052744L85.8515625,132.27209782972932L85.8515625,127.49955118447542L85.8515625,131.3741620145738L85.8515625,131.98447747901082L85.8515625,128.9252098351717L85.8515625,126.80950105935335L85.8515625,127.83425175398588L85.8515625,127.71900468319654L85.8515625,129.9575265198946L85.8515625,124.72080041468143L85.8515625,128.35632330551744L88.171875,130.9054137840867L88.171875,132.3083628602326L88.171875,129.6059466972947L88.171875,127.53669150918722L88.171875,127.8818856626749L88.171875,130.77339189872146L88.171875,132.24958718568087L88.171875,128.52986861765385L88.171875,132.95331378281116L90.4921875,127.24567607790232L90.4921875,130.9156984910369L90.4921875,132.1864549331367L90.4921875,132.32259633764625L90.4921875,132.4840682260692L90.4921875,132.87313318625093L90.4921875,131.71900638192892L90.4921875,126.92559026926756L90.4921875,131.312501847744L90.4921875,131.39079923555255L90.4921875,128.43920106813312L92.8125,135.25750092044473L92.8125,135.377635050565L92.8125,132.5036247521639L92.8125,131.25691569224L92.8125,131.30689366534352L92.8125,132.05018588155508L92.8125,134.31288440525532L92.8125,131.78863703086972L92.8125,133.2754270248115L92.8125,135.28481905162334L92.8125,130.41718528419733L92.8125,130.4460219182074L95.1328125,132.6014339067042L95.1328125,133.9488349556923L95.1328125,133.6157473810017L95.1328125,133.72969477251172L95.1328125,132.94684191048145L95.1328125,130.84468527510762L95.1328125,132.1010723039508L95.1328125,131.93891078978777L95.1328125,132.36832051351666L95.1328125,129.92452063411474L95.1328125,132.90390607714653L97.453125,136.95239874348044L97.453125,136.4265839830041L97.453125,134.50072287395597L97.453125,131.96563710272312L97.453125,136.2777624167502L97.453125,133.81411756202579L97.453125,132.15457963570952L97.453125,132.6193376518786L97.453125,132.11121444404125L99.7734375,133.02686999365687L99.7734375,136.2229471169412L99.7734375,135.83655942976475L99.7734375,133.71678584069014L99.7734375,134.55418876186013L99.7734375,134.0309087075293L99.7734375,136.20650385320187L99.7734375,132.86444821208715L99.7734375,130.44573844224215L99.7734375,135.12949411571026L102.09374999999999,136.7474754601717L102.09374999999999,136.03072720393538L102.09374999999999,136.19998224824667L102.09374999999999,134.1668727323413L102.09374999999999,137.02903340384364L102.09374999999999,134.3396571353078L102.09374999999999,134.57738903164864L102.09374999999999,133.60476807504892L102.09374999999999,135.9943196065724L104.4140625,139.21700368449092L104.4140625,137.05384501069784L104.4140625,135.03913490846753L104.4140625,135.80421498790383L104.4140625,134.53422608599067L104.4140625,136.32881129905581L104.4140625,134.08339486271143L104.4140625,136.94585724547505L104.4140625,135.6803426221013L106.73437500000001,140.44863712787628L106.73437500000001,137.21410010755062L106.73437500000001,137.57926854118705L106.73437500000001,137.76347652822733L106.73437500000001,135.01647340878844L106.73437500000001,138.1493536271155L106.73437500000001,132.52722619846463L106.73437500000001,138.0089716874063L109.0546875,138.12212667241693L109.0546875,138.97256783023477L109.0546875,137.31679632142186L109.0546875,137.98984783515334L109.0546875,137.35733172670007L109.0546875,139.46960232034326L109.0546875,135.89507981017232L109.0546875,131.79862997308373L111.375,143.20745091699064L111.375,138.18834068998694L111.375,137.10074784979224L111.375,137.57244854047894L111.375,137.45034997165203L111.375,138.70177202671766L111.375,137.3512328490615L111.375,139.49824168160558L111.375,135.24540428817272L111.375,136.94439842179418L111.375,137.67880341783166L111.375,137.9495478309691L113.6953125,139.33461802825332L113.6953125,139.77742406353354L113.6953125,140.78796946257353L113.6953125,138.87208471819758L113.6953125,140.05029703304172L113.6953125,140.84922513738275L113.6953125,138.63399474695325L113.6953125,136.05397223308682L113.6953125,136.73112834617496L113.6953125,134.14290492236614L113.6953125,137.7974853552878L116.015625,145.81742490455508L116.015625,140.16915137693286L116.015625,139.97633301466703L116.015625,138.72470374032855L116.015625,141.35706155374646L116.015625,140.60587511211634L116.015625,138.72531047835946L116.015625,135.2376012392342L116.015625,138.72876192256808L116.015625,139.37386535853148L118.3359375,140.03554633632302L118.3359375,140.53807628154755L118.3359375,139.1836264617741L118.3359375,140.566952701658L118.3359375,142.0598979368806L118.3359375,136.10871293395758L118.3359375,137.51720222458243L118.3359375,142.21840576082468L118.3359375,144.39626622758806L120.65625,139.68811255693436L120.65625,139.1085749566555L120.65625,140.6831695586443L120.65625,138.81206738576293L120.65625,140.80546374246478L120.65625,137.25599321350455L120.65625,137.3352371789515L122.9765625,142.5172623693943L122.9765625,142.39599765092134L122.9765625,141.53939959406853L122.9765625,142.32133406028152L122.9765625,144.0039437804371L122.9765625,140.58270302414894L122.9765625,139.53282077610493L122.9765625,139.57672971114516L122.9765625,141.49152199551463L122.9765625,137.99953575059772L122.9765625,141.40980134531856L125.296875,141.170131534338L125.296875,144.18140470795333L125.296875,140.37717631831765L125.296875,139.40629268810153L125.296875,141.98887891881168L125.296875,140.7060598284006L125.296875,141.72167463973165L125.296875,140.93399439752102L125.296875,140.32624182105064L127.6171875,143.3605677243322L127.6171875,141.60002034902573L127.6171875,140.73919170349836L127.6171875,142.7268406264484L127.6171875,141.04806612059474L127.6171875,140.09755463153124L127.6171875,141.91555396467447L127.6171875,141.9287190195173L129.9375,141.55135200172663L129.9375,143.20449514128268L129.9375,142.80270691774786L129.9375,144.87360162474215L129.9375,142.74414012022316L129.9375,142.6591677851975L129.9375,140.33412941545248L129.9375,140.65289896726608L129.9375,139.49445371329784L129.9375,141.60140457376838L129.9375,140.4387171268463L132.2578125,143.91761374473572L132.2578125,143.62039499729872L132.2578125,144.75979680009186L132.2578125,141.19177351519465L132.2578125,141.77206870913506L132.2578125,141.37794925644994L132.2578125,142.80087261274457L132.2578125,141.72152212634683L132.2578125,141.0463055856526L132.2578125,142.4789367504418L132.2578125,139.7093218639493L134.578125,145.42364612035453L134.578125,144.0218400657177L134.578125,143.10329422168434L134.578125,142.34380740486085L134.578125,142.4695389419794L134.578125,142.4251053277403L134.578125,139.9552298039198L134.578125,142.50287554971874L134.578125,144.64309753663838L134.578125,139.98236723989248L134.578125,140.55229483917356L136.8984375,144.9904790967703L136.8984375,146.46212550625205L136.8984375,144.17463443987072L136.8984375,141.7279293462634L136.8984375,140.83440978825092L136.8984375,142.95494428649545L136.8984375,145.87302266433835L136.8984375,143.5129600930959L136.8984375,141.58430318161845L136.8984375,141.2811563052237L136.8984375,145.04079856723547L136.8984375,140.696415014565L139.21875,144.9904285352677L139.21875,144.88659510202706L139.21875,142.51090239547193L139.21875,143.3781167101115L139.21875,143.0954066272825L139.21875,143.4628146868199L139.21875,145.97340133786201L139.21875,140.48160654306412L139.21875,140.15409068018198L139.21875,140.60726099461317L141.5390625,145.51881778798997L141.5390625,144.7007160987705L141.5390625,144.16249719262123L141.5390625,142.61257494613528L141.5390625,142.20654535852373L141.5390625,143.80344089865685L141.5390625,142.45138156041503L141.5390625,144.81696776859462L141.5390625,144.11144250817597L141.5390625,142.89138847775757L143.85937500000003,144.47214660979807L143.85937500000003,143.2812151759863L143.85937500000003,144.60473213158548L143.85937500000003,141.40550278872252L143.85937500000003,139.59554190561175L143.85937500000003,141.6978991292417L143.85937500000003,144.41251967847347L146.1796875,145.17082866095006L146.1796875,144.26098768413067L146.1796875,144.58132215589285L146.1796875,141.99216292984784L146.1796875,144.19754957593977L146.1796875,143.2545029539615L146.1796875,141.21048624441028L146.1796875,141.15525982156396L146.1796875,143.04335894808173L148.5,147.04197559319437L148.5,145.11161782592535L148.5,142.07807355374098L148.5,145.7934405170381L148.5,146.03335070237517L148.5,143.7682426329702L148.5,144.1527272183448L148.5,142.95377971418202L148.5,142.86607871577144L148.5,143.99125615879893L148.5,145.72776112519205L150.8203125,146.90741402842104L150.8203125,144.2733420971781L150.8203125,142.9276675991714L150.8203125,145.0589998792857L150.8203125,146.71212063916028L150.8203125,144.6746901869774L150.8203125,144.26787067949772L150.8203125,142.5674931500107L150.8203125,142.82713475450873L150.8203125,141.95732605457306L153.140625,145.6068412195891L153.140625,145.9151735510677L153.140625,148.28991719335318L153.140625,145.05327482521534L153.140625,143.69024778530002L153.140625,143.7384552769363L153.140625,146.44732424803078L153.140625,143.17292238399386L153.140625,143.78583223372698L153.140625,143.9432475976646L153.140625,142.4084656201303L155.4609375,146.80974080972373L155.4609375,143.77528311498463L155.4609375,146.90040753036737L155.4609375,147.0192726496607L155.4609375,145.87066865339875L155.4609375,143.9108227547258L155.4609375,144.99971776083112L155.4609375,146.05074468813837L155.4609375,144.07646223716438L155.4609375,142.43892270885408L155.4609375,142.97412450239062L155.4609375,144.6621376723051L157.78125,146.53363687731326L157.78125,148.56944521702826L157.78125,146.43707020953298L157.78125,148.49485705420375L157.78125,143.97664885781705L157.78125,141.93103241547942L157.78125,144.61551665142179L157.78125,144.18313623219728L157.78125,148.2927610706538L160.1015625,143.85415408574045L160.1015625,147.55056794546545L160.1015625,145.92710523679852L160.1015625,146.2287924606353L160.1015625,145.00298602320254L160.1015625,144.76608714833856L160.1015625,143.25782840885222L160.1015625,145.93197737634182L160.1015625,145.76187107525766L160.1015625,146.59365089423954L162.421875,148.1827491875738L162.421875,147.94420001842082L162.421875,147.39174514822662L162.421875,143.186434738338L162.421875,148.50561587885022L162.421875,144.9559124354273L162.421875,146.35108913108706L162.421875,145.7997698225081L162.421875,144.60836095549166L164.7421875,147.27923088520765L164.7421875,145.0105909705162L164.7421875,144.34488745220006L164.7421875,146.45450729690492L164.7421875,143.47324113175273L164.7421875,146.30989974178374L164.7421875,147.93150991015136L164.7421875,146.08246747218072L164.7421875,146.483507219702L164.7421875,144.36450697295368L164.7421875,145.70918847620487L167.0625,147.68308715708554L167.0625,145.47150465473533L167.0625,142.322571573779L167.0625,142.7903268095106L167.0625,145.96693278104067L167.0625,146.2518393881619L167.0625,145.03558244369924L167.0625,145.81040182895958L167.0625,143.89723828807473L167.0625,145.35572378709912L167.0625,145.40292170643806L169.38281249999997,147.0272016879171L169.38281249999997,146.57393190823495L169.38281249999997,147.55951733142138L169.38281249999997,145.740673372522L169.38281249999997,144.57409351877868L169.38281249999997,145.1160887889564L169.38281249999997,143.13742655143142L169.38281249999997,148.79700886365026L169.38281249999997,148.03774045594037L169.38281249999997,145.4472077805549L169.38281249999997,144.4178990907967L171.703125,148.02637737989426L171.703125,146.21685414388776L171.703125,146.8964587599039L171.703125,146.10282054916024L171.703125,146.31205316446722L171.703125,145.45264272764325L171.703125,146.63816822506487L171.703125,145.38619662448764L171.703125,146.38861819915473L174.0234375,147.55887163616717L174.0234375,146.5671550091356L174.0234375,143.88883678987622L174.0234375,146.57980035804212L174.0234375,146.53237118199468L174.0234375,145.64124459214509L174.0234375,146.041664339602L174.0234375,146.22321991994977L174.0234375,145.2463890966028L174.0234375,146.92734437808394L176.34375,145.43980093486607L176.34375,148.3579646870494L176.34375,146.78100115433335L176.34375,147.51986136473715L176.34375,148.97028727736324L176.34375,144.3712755832821L176.34375,146.21509112231433L176.34375,147.54791802540421L176.34375,145.97473831661046L176.34375,147.44627282768488L176.34375,146.01173773221672L176.34375,145.31635958515108L178.66406250000003,147.64911231398582L178.66406250000003,146.89003164693713L178.66406250000003,147.22609323263168L178.66406250000003,146.78414342738688L178.66406250000003,149.71744081750512L178.66406250000003,145.44979470595717L178.66406250000003,144.2573663201183L178.66406250000003,144.8897547814995L178.66406250000003,148.32635545916855L178.66406250000003,147.66917777061462L178.66406250000003,146.0193401928991L180.984375,147.08012134581804L180.984375,144.054051887244L180.984375,147.83361455239356L180.984375,148.2591418158263L180.984375,146.0732279792428L180.984375,146.3391135148704L180.984375,145.96956861019135L180.984375,144.3112068604678L180.984375,148.34850305505097L180.984375,147.76431545428932L180.984375,145.6484011169523L183.3046875,147.88319300673902L183.3046875,147.5652937758714L183.3046875,146.8682727944106L183.3046875,145.92476697452366L183.3046875,147.58630166575313L183.3046875,147.55438989773393L183.3046875,143.1963514238596L183.3046875,143.07745895162225L183.3046875,148.59345032647252L185.625,149.04303284641355L185.625,144.3028327152133L185.625,147.72531927376986L185.625,148.71913544647396L185.625,144.33478924259543L185.625,146.03329765424132L185.625,145.7787296064198L185.625,146.78635487146676L185.625,147.09135594591498L185.625,146.9095798842609L185.625,145.96920390427113L185.625,146.19138689525425L187.9453125,147.85811615921557L187.9453125,146.39394456334412L187.9453125,143.75492340698838L187.9453125,149.43263243231922L187.9453125,147.97500855103135L187.9453125,147.43897124938667L187.9453125,147.41164980269969L187.9453125,146.9523913860321L187.9453125,146.41096886992455L190.265625,146.47907355614007L190.265625,149.10257274564356L190.265625,148.80447538848966L190.265625,144.86551758646965L190.265625,148.67153800837696L190.265625,146.85681273974478L190.265625,147.2697733975947L190.265625,146.08798033371568L190.265625,148.39013423584402L192.5859375,147.33528038300574L192.5859375,148.22052028775215L192.5859375,145.8806980662048L192.5859375,148.8541288562119L192.5859375,147.6843462213874L192.5859375,146.98725146986544L192.5859375,145.80018923431635L192.5859375,146.03623519465327L194.90625,149.71468355786055L194.90625,149.70268929190934L194.90625,149.64716737437993L194.90625,143.32461186498404L194.90625,148.0829697921872L194.90625,149.70022213924676L194.90625,145.86360413394868L194.90625,146.73767077550292L194.90625,147.59815295040607L194.90625,146.56262685358524L194.90625,147.29531358741224L197.2265625,148.32129019126296L197.2265625,147.5355039332062L197.2265625,146.84769757837057L197.2265625,147.90980742126703L197.2265625,148.16350929252803L197.2265625,147.73383764363825L197.2265625,147.67067223601043L197.2265625,147.40789167396724L197.2265625,148.25767304562032L197.2265625,147.8035801909864L197.2265625,148.77192331291735L197.2265625,146.73191671073437L199.546875,150.08356080204248L199.546875,145.61837255768478L199.546875,146.1010193992406L199.546875,149.4480068590492L199.546875,149.0698859775439L199.546875,146.735395507887L199.546875,145.42792644165456L199.546875,147.0918176304549L199.546875,148.73191092908382L199.546875,148.0576086398214L199.546875,149.495140125975L201.8671875,148.72146376222372L201.8671875,149.28524648118764L201.8671875,147.00338058918715L201.8671875,146.66993576847017L201.8671875,148.1852855514735L201.8671875,147.0491105671972L201.8671875,149.429547351785L201.8671875,147.63244028016925L201.8671875,148.85335136950016L201.8671875,147.44046074151993L204.18749999999997,147.0712490454316L204.18749999999997,146.46109438315034L204.18749999999997,148.55040010809898L204.18749999999997,148.74478421919048L204.18749999999997,149.0074445940554L204.18749999999997,148.76466898061335L204.18749999999997,146.583507925272L204.18749999999997,148.9369461107999L204.18749999999997,147.09563958272338L204.18749999999997,147.7203866261989L206.5078125,150.4966594679281L206.5078125,150.7188167637214L206.5078125,147.43510205112398L206.5078125,147.22239146754146L206.5078125,148.34401634335518L206.5078125,148.62198359146714L206.5078125,147.2521464973688L206.5078125,147.37566907703876L208.828125,149.3628683341667L208.828125,149.80632669571787L208.828125,147.70946865715086L208.828125,150.5068724770099L208.828125,148.64730495773256L208.828125,146.94406200014055L208.828125,146.23914762213826L208.828125,147.69560485891998L208.828125,147.61974602751434L208.828125,147.86958698928356L211.1484375,147.6787977181375L211.1484375,148.9610266480595L211.1484375,149.74100247770548L211.1484375,146.30581835098565L211.1484375,146.831016426906L211.1484375,147.68595009855926L211.1484375,146.3525918852538L211.1484375,147.56645751930773L211.1484375,148.00967136211693L211.1484375,149.9846998024732L213.46875000000003,148.0422909911722L213.46875000000003,147.74454342015088L213.46875000000003,150.4022279875353L213.46875000000003,148.5258761215955L213.46875000000003,145.85773319751024L213.46875000000003,146.7489774879068L213.46875000000003,147.95082357525826L213.46875000000003,149.23057913593948L213.46875000000003,149.6392416516319L213.46875000000003,148.90587648190558L213.46875000000003,147.60273498296738L215.7890625,148.68790750205517L215.7890625,148.11049016937613L215.7890625,148.9887990038842L215.7890625,149.11577634327114L215.7890625,150.3679713262245L215.7890625,149.0448650792241L215.7890625,146.39226608723402L215.7890625,147.46391050331295L215.7890625,147.77618994750082L218.109375,149.7876334451139L218.109375,148.85015604831278L218.109375,148.9622591882944L218.109375,148.13587867468596L218.109375,146.51776885427535L218.109375,148.78040935657918L218.109375,147.29148085974157L218.109375,148.35817770846188L218.109375,146.76195687428117L218.109375,149.46524294372648L220.4296875,149.77724637184292L220.4296875,149.7624103007838L220.4296875,149.67542752437294L220.4296875,150.18927620071918L220.4296875,148.0162335820496L220.4296875,148.23837678693235L220.4296875,146.3869239743799L220.4296875,147.7320282049477L220.4296875,147.29398158192635L220.4296875,148.34295620955527L222.75,149.5580423651263L222.75,145.53018252179027L222.75,150.45356076024473L222.75,148.49484793655574L222.75,149.66880521085113L222.75,148.44111100584269L222.75,147.04911388270557L222.75,146.85926870256662L222.75,148.95155133958906L222.75,147.77733545564115L225.0703125,148.87481928616762L225.0703125,148.4744973462075L225.0703125,148.01161093451083L225.0703125,147.15982036478817L225.0703125,148.98520209174603L225.0703125,149.24895326886326L225.0703125,145.72063278220594L225.0703125,150.29125336371362L225.0703125,151.03343902900815L225.0703125,150.94089904613793L225.0703125,150.3827763143927L225.0703125,148.5493267122656L227.390625,147.2102625090629L227.390625,149.64708531554788L227.390625,150.39028842747211L227.390625,148.23522042296827L227.390625,148.41725758090615L227.390625,149.32931829057634L227.390625,149.23584582097828L227.390625,145.84017260745168L227.390625,149.0149165065959L227.390625,147.26149208657444L229.7109375,150.16941630560905L229.7109375,149.05675739329308L229.7109375,149.247314164415L229.7109375,151.89374838303775L229.7109375,149.59138601832092L229.7109375,149.43790284730494L229.7109375,149.37590035423636L229.7109375,146.428057000041L229.7109375,148.58037893474102L232.03125,149.998005351983L232.03125,148.63300682790577L232.03125,149.15139402076602L232.03125,148.6329164803028L232.03125,148.32085005752742L232.03125,148.81323827710003L232.03125,151.73424300551414L232.03125,146.82558728195727L232.03125,150.1088821683079L232.03125,147.62467618845403L232.03125,147.44782945886254L232.03125,149.0015811175108L234.3515625,148.44523384049535L234.3515625,149.05914455931634L234.3515625,147.34857557155192L234.3515625,150.0645853187889L234.3515625,150.0153864901513L234.3515625,150.72648304793984L234.3515625,148.43773084506392L234.3515625,148.9452920742333L234.3515625,148.83758032508194L234.3515625,148.68956774286926L236.671875,149.71154501475394L236.671875,151.24705350305885L236.671875,149.5757417920977L236.671875,145.84634691290557L236.671875,150.62840409390628L236.671875,148.90063466317952L236.671875,150.44775323290378L236.671875,149.47488154098392L236.671875,149.55278313998133L238.99218749999997,150.8533244514838L238.99218749999997,148.91914141643792L238.99218749999997,148.72648592852056L238.99218749999997,150.70519748423249L238.99218749999997,146.8112311307341L238.99218749999997,149.6007730513811L238.99218749999997,145.27506741508842L238.99218749999997,148.61043816246092L238.99218749999997,146.0609780047089L238.99218749999997,147.67540015093982L241.3125,151.0135662863031L241.3125,149.76317203883082L241.3125,150.3572585042566L241.3125,148.0410750284791L241.3125,151.06805293634534L241.3125,148.65422939695418L241.3125,146.4769483152777L241.3125,149.74009900167584L241.3125,149.3004874587059L241.3125,148.09727538190782L243.6328125,149.76640838943422L243.6328125,148.03541960008442L243.6328125,150.95826940890402L243.6328125,151.55144576728344L243.6328125,148.15733415819705L243.6328125,148.11274305731058L243.6328125,147.72697868570685L243.6328125,147.55640406906605L243.6328125,147.28304371982813L243.6328125,148.60549308173358L245.953125,150.09927672613412L245.953125,150.37887686211616L245.953125,149.2760476032272L245.953125,149.25996075663716L245.953125,146.754438130185L245.953125,148.8965213606134L245.953125,149.86348523106426L245.953125,149.55684297997504L245.953125,146.71634791232646L245.953125,151.24670247361064L245.953125,150.60682676546276L248.27343750000003,149.8217632882297L248.27343750000003,150.94489464815706L248.27343750000003,149.20775517635047L248.27343750000003,148.88137860503048L248.27343750000003,151.0662472276017L248.27343750000003,149.90216602385044L248.27343750000003,149.83490430563688L248.27343750000003,149.6290448056534L248.27343750000003,150.00667250528932L248.27343750000003,146.53644594177604L248.27343750000003,149.00750137213618L250.59375,150.34904723335057L250.59375,150.92230360303074L250.59375,149.5602032477036L250.59375,149.66128563787788L250.59375,149.59549973532557L250.59375,149.82272851560265L250.59375,148.25921724364161L250.59375,148.40686180442572L250.59375,149.28620259091258L252.9140625,149.29297949001193L252.9140625,150.64623406901956L252.9140625,149.40538517013192L252.9140625,150.37313605938107L252.9140625,149.16838227119297L252.9140625,149.97283318359405L252.9140625,150.4695854410529L252.9140625,149.14862018357962L252.9140625,150.25255723670125L252.9140625,151.40622525755316L255.234375,149.1331765456125L255.234375,150.16079847048968L255.234375,146.53914310783148L255.234375,148.86848749406636L255.234375,149.31344322208315L255.234375,150.59345532022417L255.234375,148.74921622499824L255.234375,148.63468033075333L255.234375,150.89869428239763L255.234375,152.79195917816833L255.234375,150.16716010216624L255.234375,151.37858427874744" style="fill: none;" fill="none"></path></g></g></g></g></g></g><g transform="translate(51, 178)" clip-path="url(#clip_1)"><clipPath id="clip_1"><rect width="278" height="22"></rect></clipPath><g><g><line x1="0" y1="0" x2="0" y2="5" style="visibility: inherit;" fill="rgb(0, 0, 0)" stroke="rgb(204, 204, 204)" stroke-width="1px"></line><line x1="23.203125" y1="0" x2="23.203125" y2="5" style="visibility: inherit;" fill="rgb(0, 0, 0)" stroke="rgb(204, 204, 204)" stroke-width="1px"></line><line x1="46.40625" y1="0" x2="46.40625" y2="5" style="visibility: inherit;" fill="rgb(0, 0, 0)" stroke="rgb(204, 204, 204)" stroke-width="1px"></line><line x1="69.609375" y1="0" x2="69.609375" y2="5" style="visibility: inherit;" fill="rgb(0, 0, 0)" stroke="rgb(204, 204, 204)" stroke-width="1px"></line><line x1="92.8125" y1="0" x2="92.8125" y2="5" style="visibility: inherit;" fill="rgb(0, 0, 0)" stroke="rgb(204, 204, 204)" stroke-width="1px"></line><line x1="116.015625" y1="0" x2="116.015625" y2="5" style="visibility: inherit;" fill="rgb(0, 0, 0)" stroke="rgb(204, 204, 204)" stroke-width="1px"></line><line x1="139.21875" y1="0" x2="139.21875" y2="5" style="visibility: inherit;" fill="rgb(0, 0, 0)" stroke="rgb(204, 204, 204)" stroke-width="1px"></line><line x1="162.421875" y1="0" x2="162.421875" y2="5" style="visibility: inherit;" fill="rgb(0, 0, 0)" stroke="rgb(204, 204, 204)" stroke-width="1px"></line><line x1="185.625" y1="0" x2="185.625" y2="5" style="visibility: inherit;" fill="rgb(0, 0, 0)" stroke="rgb(204, 204, 204)" stroke-width="1px"></line><line x1="208.828125" y1="0" x2="208.828125" y2="5" style="visibility: inherit;" fill="rgb(0, 0, 0)" stroke="rgb(204, 204, 204)" stroke-width="1px"></line><line x1="232.03125" y1="0" x2="232.03125" y2="5" style="visibility: inherit;" fill="rgb(0, 0, 0)" stroke="rgb(204, 204, 204)" stroke-width="1px"></line><line x1="255.234375" y1="0" x2="255.234375" y2="5" style="visibility: inherit;" fill="rgb(0, 0, 0)" stroke="rgb(204, 204, 204)" stroke-width="1px"></line><line x1="278.4375" y1="0" x2="278.4375" y2="5" style="visibility: inherit;" fill="rgb(0, 0, 0)" stroke="rgb(204, 204, 204)" stroke-width="1px"></line></g><g transform="translate(0, 8)"><text x="0" y="0" dx="0em" dy="0.95em" style="text-anchor: middle; visibility: hidden; font-family: Roboto, sans-serif; font-size: 12px; font-weight: 200;" fill="rgb(50, 49, 63)" stroke="none" stroke-width="1px">-10</text><text x="23.203125" y="0" dx="0em" dy="0.95em" style="text-anchor: middle; visibility: inherit; font-family: Roboto, sans-serif; font-size: 12px; font-weight: 200;" fill="rgb(50, 49, 63)" stroke="none" stroke-width="1px">0</text><text x="46.40625" y="0" dx="0em" dy="0.95em" style="text-anchor: middle; visibility: inherit; font-family: Roboto, sans-serif; font-size: 12px; font-weight: 200;" fill="rgb(50, 49, 63)" stroke="none" stroke-width="1px">10</text><text x="69.609375" y="0" dx="0em" dy="0.95em" style="text-anchor: middle; visibility: inherit; font-family: Roboto, sans-serif; font-size: 12px; font-weight: 200;" fill="rgb(50, 49, 63)" stroke="none" stroke-width="1px">20</text><text x="92.8125" y="0" dx="0em" dy="0.95em" style="text-anchor: middle; visibility: inherit; font-family: Roboto, sans-serif; font-size: 12px; font-weight: 200;" fill="rgb(50, 49, 63)" stroke="none" stroke-width="1px">30</text><text x="116.015625" y="0" dx="0em" dy="0.95em" style="text-anchor: middle; visibility: inherit; font-family: Roboto, sans-serif; font-size: 12px; font-weight: 200;" fill="rgb(50, 49, 63)" stroke="none" stroke-width="1px">40</text><text x="139.21875" y="0" dx="0em" dy="0.95em" style="text-anchor: middle; visibility: inherit; font-family: Roboto, sans-serif; font-size: 12px; font-weight: 200;" fill="rgb(50, 49, 63)" stroke="none" stroke-width="1px">50</text><text x="162.421875" y="0" dx="0em" dy="0.95em" style="text-anchor: middle; visibility: inherit; font-family: Roboto, sans-serif; font-size: 12px; font-weight: 200;" fill="rgb(50, 49, 63)" stroke="none" stroke-width="1px">60</text><text x="185.625" y="0" dx="0em" dy="0.95em" style="text-anchor: middle; visibility: inherit; font-family: Roboto, sans-serif; font-size: 12px; font-weight: 200;" fill="rgb(50, 49, 63)" stroke="none" stroke-width="1px">70</text><text x="208.828125" y="0" dx="0em" dy="0.95em" style="text-anchor: middle; visibility: inherit; font-family: Roboto, sans-serif; font-size: 12px; font-weight: 200;" fill="rgb(50, 49, 63)" stroke="none" stroke-width="1px">80</text><text x="232.03125" y="0" dx="0em" dy="0.95em" style="text-anchor: middle; visibility: inherit; font-family: Roboto, sans-serif; font-size: 12px; font-weight: 200;" fill="rgb(50, 49, 63)" stroke="none" stroke-width="1px">90</text><text x="255.234375" y="0" dx="0em" dy="0.95em" style="text-anchor: middle; visibility: inherit; font-family: Roboto, sans-serif; font-size: 12px; font-weight: 200;" fill="rgb(50, 49, 63)" stroke="none" stroke-width="1px">100</text><text x="278.4375" y="0" dx="0em" dy="0.95em" style="text-anchor: middle; visibility: hidden; font-family: Roboto, sans-serif; font-size: 12px; font-weight: 200;" fill="rgb(50, 49, 63)" stroke="none" stroke-width="1px">110</text></g><line x1="0" y1="0" x2="278.4375" y2="0" fill="rgb(0, 0, 0)" stroke="rgb(204, 204, 204)" stroke-width="1px"></line></g></g></g></g></svg>