<svg viewBox="0 0 330 200" xmlns="http://www.w3.org/2000/svg"><g><g><g><g><g><line x1="41.171875" y1="178" x2="36.171875" y2="178" style="visibility: inherit;" fill="rgb(0, 0, 0)" stroke="rgb(204, 204, 204)" stroke-width="1px"></line><line x1="41.171875" y1="160.20000000000002" x2="36.171875" y2="160.20000000000002" style="visibility: inherit;" fill="rgb(0, 0, 0)" stroke="rgb(204, 204, 204)" stroke-width="1px"></line><line x1="41.171875" y1="142.4" x2="36.171875" y2="142.4" style="visibility: inherit;" fill="rgb(0, 0, 0)" stroke="rgb(204, 204, 204)" stroke-width="1px"></line><line x1="41.171875" y1="124.6" x2="36.171875" y2="124.6" style="visibility: inherit;" fill="rgb(0, 0, 0)" stroke="rgb(204, 204, 204)" stroke-width="1px"></line><line x1="41.171875" y1="106.8" x2="36.171875" y2="106.8" style="visibility: inherit;" fill="rgb(0, 0, 0)" stroke="rgb(204, 204, 204)" stroke-width="1px"></line><line x1="41.171875" y1="89" x2="36.171875" y2="89" style="visibility: inherit;" fill="rgb(0, 0, 0)" stroke="rgb(204, 204, 204)" stroke-width="1px"></line><line x1="41.171875" y1="71.2" x2="36.171875" y2="71.2" style="visibility: inherit;" fill="rgb(0, 0, 0)" stroke="rgb(204, 204, 204)" stroke-width="1px"></line><line x1="41.171875" y1="53.400000000000006" x2="36.171875" y2="53.400000000000006" style="visibility: inherit;" fill="rgb(0, 0, 0)" stroke="rgb(204, 204, 204)" stroke-width="1px"></line><line x1="41.171875" y1="35.599999999999994" x2="36.171875" y2="35.599999999999994" style="visibility: inherit;" fill="rgb(0, 0, 0)" stroke="rgb(204, 204, 204)" stroke-width="1px"></line><line x1="41.171875" y1="17.799999999999997" x2="36.171875" y2="17.799999999999997" style="visibility: inherit;" fill="rgb(0, 0, 0)" stroke="rgb(204, 204, 204)" stroke-width="1px"></line><line x1="41.171875" y1="0" x2="36.171875" y2="0" style="visibility: inherit;" fill="rgb(0, 0, 0)" stroke="rgb(204, 204, 204)" stroke-width="1px"></line></g><g transform="translate(31.171875, 0)"><text x="0" y="178" dx="0em" dy="0.3em" style="text-anchor: end; visibility: hidden; font-family: Roboto, sans-serif; font-size: 12px; font-weight: 200;" fill="rgb(50, 49, 63)" stroke="none" stroke-width="1px">60</text><text x="0" y="160.20000000000002" dx="0em" dy="0.3em" style="text-anchor: end; visibility: inherit; font-family: Roboto, sans-serif; font-size: 12px; font-weight: 200;" fill="rgb(50, 49, 63)" stroke="none" stroke-width="1px">65</text><text x="0" y="142.4" dx="0em" dy="0.3em" style="text-anchor: end; visibility: hidden; font-family: Roboto, sans-serif; font-size: 12px; font-weight: 200;" fill="rgb(50, 49, 63)" stroke="none" stroke-width="1px">70</text><text x="0" y="124.6" dx="0em" dy="0.3em" style="text-anchor: end; visibility: inherit; font-family: Roboto, sans-serif; font-size: 12px; font-weight: 200;" fill="rgb(50, 49, 63)" stroke="none" stroke-width="1px">75</text><text x="0" y="106.8" dx="0em" dy="0.3em" style="text-anchor: end; visibility: hidden; font-family: Roboto, sans-serif; font-size: 12px; font-weight: 200;" fill="rgb(50, 49, 63)" stroke="none" stroke-width="1px">80</text><text x="0" y="89" dx="0em" dy="0.3em" style="text-anchor: end; visibility: inherit; font-family: Roboto, sans-serif; font-size: 12px; font-weight: 200;" fill="rgb(50, 49, 63)" stroke="none" stroke-width="1px">85</text><text x="0" y="71.2" dx="0em" dy="0.3em" style="text-anchor: end; visibility: hidden; font-family: Roboto, sans-serif; font-size: 12px; font-weight: 200;" fill="rgb(50, 49, 63)" stroke="none" stroke-width="1px">90</text><text x="0" y="53.400000000000006" dx="0em" dy="0.3em" style="text-anchor: end; visibility: inherit; font-family: Roboto, sans-serif; font-size: 12px; font-weight: 200;" fill="rgb(50, 49, 63)" stroke="none" stroke-width="1px">95</text><text x="0" y="35.599999999999994" dx="0em" dy="0.3em" style="text-anchor: end; visibility: hidden; font-family: Roboto, sans-serif; font-size: 12px; font-weight: 200;" fill="rgb(50, 49, 63)" stroke="none" stroke-width="1px">100</text><text x="0" y="17.799999999999997" dx="0em" dy="0.3em" style="text-anchor: end; visibility: inherit; font-family: Roboto, sans-serif; font-size: 12px; font-weight: 200;" fill="rgb(50, 49, 63)" stroke="none" stroke-width="1px">105</text><text x="0" y="0" dx="0em" dy="0.3em" style="text-anchor: end; visibility: hidden; font-family: Roboto, sans-serif; font-size: 12px; font-weight: 200;" fill="rgb(50, 49, 63)" stroke="none" stroke-width="1px">110</text></g><line x1="41.171875" y1="0" x2="41.171875" y2="178" fill="rgb(0, 0, 0)" stroke="rgb(204, 204, 204)" stroke-width="1px"></line></g></g><g transform="translate(41, 0)" clip-path="url(#clip_0)"><clipPath id="clip_0"><rect width="288" height="178"></rect></clipPath><g><g><g><line x1="0" y1="0" x2="0" y2="178" fill="rgb(0, 0, 0)" stroke="rgb(60, 60, 60)" stroke-width="1px" opacity="0.25"></line><line x1="24.069010416666664" y1="0" x2="24.069010416666664" y2="178" fill="rgb(0, 0, 0)" stroke="rgb(60, 60, 60)" stroke-width="1px" opacity="0.25"></line><line x1="48.13802083333333" y1="0" x2="48.13802083333333" y2="178" fill="rgb(0, 0, 0)" stroke="rgb(60, 60, 60)" stroke-width="1px" opacity="0.25"></line><line x1="72.20703125" y1="0" x2="72.20703125" y2="178" fill="rgb(0, 0, 0)" stroke="rgb(60, 60, 60)" stroke-width="1px" opacity="0.25"></line><line x1="96.27604166666666" y1="0" x2="96.27604166666666" y2="178" fill="rgb(0, 0, 0)" stroke="rgb(60, 60, 60)" stroke-width="1px" opacity="0.25"></line><line x1="120.34505208333334" y1="0" x2="120.34505208333334" y2="178" fill="rgb(0, 0, 0)" stroke="rgb(60, 60, 60)" stroke-width="1px" opacity="0.25"></line><line x1="144.4140625" y1="0" x2="144.4140625" y2="178" fill="rgb(0, 0, 0)" stroke="rgb(60, 60, 60)" stroke-width="1px" opacity="0.25"></line><line x1="168.48307291666669" y1="0" x2="168.48307291666669" y2="178" fill="rgb(0, 0, 0)" stroke="rgb(60, 60, 60)" stroke-width="1px" opacity="0.25"></line><line x1="192.55208333333331" y1="0" x2="192.55208333333331" y2="178" fill="rgb(0, 0, 0)" stroke="rgb(60, 60, 60)" stroke-width="1px" opacity="0.25"></line><line x1="216.62109375" y1="0" x2="216.62109375" y2="178" fill="rgb(0, 0, 0)" stroke="rgb(60, 60, 60)" stroke-width="1px" opacity="0.25"></line><line x1="240.69010416666669" y1="0" x2="240.69010416666669" y2="178" fill="rgb(0, 0, 0)" stroke="rgb(60, 60, 60)" stroke-width="1px" opacity="0.25"></line><line x1="264.7591145833333" y1="0" x2="264.7591145833333" y2="178" fill="rgb(0, 0, 0)" stroke="rgb(60, 60, 60)" stroke-width="1px" opacity="0.25"></line><line x1="288.828125" y1="0" x2="288.828125" y2="178" fill="rgb(0, 0, 0)" stroke="rgb(60, 60, 60)" stroke-width="1px" opacity="0.25"></line></g><g><line x1="0" y1="178" x2="288.828125" y2="178" fill="rgb(0, 0, 0)" stroke="rgb(60, 60, 60)" stroke-width="1px" opacity="0.25"></line><line x1="0" y1="160.20000000000002" x2="288.828125" y2="160.20000000000002" fill="rgb(0, 0, 0)" stroke="rgb(60, 60, 60)" stroke-width="1px" opacity="0.25"></line><line x1="0" y1="142.4" x2="288.828125" y2="142.4" fill="rgb(0, 0, 0)" stroke="rgb(60, 60, 60)" stroke-width="1px" opacity="0.25"></line><line x1="0" y1="124.6" x2="288.828125" y2="124.6" fill="rgb(0, 0, 0)" stroke="rgb(60, 60, 60)" stroke-width="1px" opacity="0.25"></line><line x1="0" y1="106.8" x2="288.828125" y2="106.8" fill="rgb(0, 0, 0)" stroke="rgb(60, 60, 60)" stroke-width="1px" opacity="0.25"></line><line x1="0" y1="89" x2="288.828125" y2="89" fill="rgb(0, 0, 0)" stroke="rgb(60, 60, 60)" stroke-width="1px" opacity="0.25"></line><line x1="0" y1="71.2" x2="288.828125" y2="71.2" fill="rgb(0, 0, 0)" stroke="rgb(60, 60, 60)" stroke-width="1px" opacity="0.25"></line><line x1="0" y1="53.400000000000006" x2="288.828125" y2="53.400000000000006" fill="rgb(0, 0, 0)" stroke="rgb(60, 60, 60)" stroke-width="1px" opacity="0.25"></line><line x1="0" y1="35.599999999999994" x2="288.828125" y2="35.599999999999994" fill="rgb(0, 0, 0)" stroke="rgb(60, 60, 60)" stroke-width="1px" opacity="0.25"></line><line x1="0" y1="17.799999999999997" x2="288.828125" y2="17.799999999999997" fill="rgb(0, 0, 0)" stroke="rgb(60, 60, 60)" stroke-width="1px" opacity="0.25"></line><line x1="0" y1="0" x2="288.828125" y2="0" fill="rgb(0, 0, 0)" stroke="rgb(60, 60, 60)" stroke-width="1px" opacity="0.25"></line></g></g></g><g><g><line x1="0" y1="391.6" x2="288.828125" y2="391.6" fill="rgb(0, 0, 0)" stroke="rgb(153, 153, 153)" stroke-width="1.5px"></line></g></g><g><g><line x1="24.069010416666664" y1="0" x2="24.069010416666664" y2="178" fill="rgb(0, 0, 0)" stroke="rgb(153, 153, 153)" stroke-width="1.5px"></line></g></g><g><g><g><g><g><path stroke="rgb(238, 51, 119)" stroke-width="2px" d="M33.88916666666667,180.9920702095582L35.838756510416665,175.43524158013818L37.16255208333334,170.73022719435582L37.23475911458334,167.81529609582884L37.57172526041666,165.68266617813663L37.66800130208333,164.44027658510402L38.823313802083334,163.48373943662338L38.991796875000006,162.81246253372126L40.05083333333333,162.3692378960813L40.77290364583333,161.98135181961283L42.14483723958333,161.37086992959485L42.84283854166667,160.8908102878051L36.22386067708334,155.4969861724812L36.60896484375,152.3560472942385L37.95682942708333,149.96580708744835L39.18434895833333,149.40610534621447L39.61759114583333,149.10754870577412L39.83421223958333,148.95097978498745L40.21931640625,148.50744834462452L40.291523437500004,148.29202210736042L41.350559895833335,147.4855645827751L42.86690755208333,146.56621802212564L43.396425781249995,145.78018113065806L43.4686328125,145.29193668132444L43.66118489583334,144.92666664746653L44.6239453125,144.50178990547204L45.03311848958334,144.16664218058793L45.346015625,143.85226106518869L40.48407552083333,137.1960202133319L41.92821614583333,133.89687116120228L44.11849609375,131.45773671039325L44.40732421875,129.83622454576715L45.177532552083335,128.86628318937437L45.32194661458334,128.2250973062028L45.80332682291667,127.69295779778422L45.923671875000004,127.3154308066002L47.00677734375,126.68938153083512L47.295605468750004,126.24072242436043L41.133938802083335,122.7413766919209L41.97635416666667,121.38624251905881L42.000423177083334,120.34785903682591L43.10759765625,119.51808212131432L43.51677083333333,118.66659524446827L43.56490885416667,118.19803026679814L43.68525390625,117.92436588957109L44.28697916666666,117.63855276128173L44.311048177083336,117.52748102200343L44.59987630208334,117.31711471183488L44.72022135416666,117.19553396381966L45.41822265625,117.01614838122148L45.7792578125,116.86639630412347L45.923671875000004,116.74000855884127L49.100781250000004,116.24220813823445L43.42049479166667,112.07594988294068L44.59987630208334,111.60702891413939L47.17526041666667,109.87195172348363L48.884160156250005,108.85700135635578L50.593059895833335,108.43499414877441L50.66526692708333,108.17128408692093L52.06126953125,107.89921149219164L46.549466145833335,105.58136832597908L48.21022786458333,104.85047053172028L48.54719401041667,104.37325509735248L48.59533203125,103.94725493829426L48.61940104166667,103.6884607510625L50.01540364583333,103.3468296244656L54.22748046875,102.90712865846841L50.11167968749999,101.5039407692998L50.544921875,100.26261446157991L50.593059895833335,99.55970039081515L51.79651041666667,98.94852274913755L53.50541015625,98.98708557331064L54.756998697916664,98.87992822386919L55.262447916666666,98.81343923412624L55.43093098958334,98.80714898969447L51.00223307291667,97.413760219012L51.67616536458333,96.09809170269625L52.35009765625,95.75085502161774L53.60168619791666,95.60488471707224L55.09396484375,95.68354740739179L57.45272786458333,95.90806057334132L58.19886718750001,96.0744160559189L58.31921223958333,96.12199399390292L53.048098958333334,97.77882139634175L53.360996093749996,95.41905626553938L53.40913411458334,94.03419291459707L55.358723958333336,94.03414074875826L57.57307291666667,94.06934223734092L57.98224609375001,93.94296996642801L58.4876953125,93.85219738513024L60.84645833333333,93.97487555998441L61.71294270833334,94.04244193755318L61.80921875,94.08842475725848L62.00177083333333,94.14728178306605L57.693417968750005,92.89808220460527L58.030384114583335,92.35914436670849L58.94500651041667,92.22654716690013L59.23383463541667,92.18524189877293L60.24473307291667,92.1518868384825L61.88142578125,92.26964345562854L62.098046875,92.27691534583806L62.17025390625,92.25319437351847L63.999498697916664,92.17349377254858L64.04763671875,92.12692280161508L58.343281250000004,91.02448339288313L59.01721354166667,89.73545675936269L61.54445963541667,89.6014132157739L63.71067057291666,89.54371511696434L64.09577473958333,89.5351922049442L64.43274088541666,89.58056466378684L65.90095052083333,89.77754216741272L61.231562499999995,89.29459842056482L62.00177083333333,89.24701820761231L64.76970703125001,89.17616465991898L65.1307421875,89.08301422563886L66.18977864583333,88.72941070823488L68.23564453125,88.72805865638628L68.64481770833333,88.80397081394898L68.71702473958334,88.85103910458037L69.58350911458334,88.92771294028731L62.74791015625,90.80019453663328L63.61439453125,88.46052748858158L64.11984375,87.34131649314897L65.61212239583332,87.58804783045969L66.09350260416667,87.69411800491645L68.76516276041667,88.08487204806707L69.00585286458333,88.2742595325512L70.66661458333334,88.23279387871041L70.97951171875,88.29486114167936L71.12392578125,88.31681548871858L71.43682291666666,88.3222418811218L65.80467447916666,87.29106827320433L66.35826171875,86.26881125200855L66.47860677083334,85.41620435374418L67.89867838541667,85.52391377435586L68.47633463541666,86.01667809859791L71.36461588541667,86.10590493044782L72.66434244791667,86.2842604875656L73.36234375000001,86.57901906109407L67.65798828125,85.40331756458613L68.5966796875,84.77274053875166L68.66888671875,84.28902188672755L68.95771484375,84.30783537324749L69.70385416666667,84.27027776203442L72.20703125,84.22641665722062L72.39958333333333,84.287383441598L72.76061848958334,84.43833155421663L75.0953125,84.63249112002998L75.72110677083333,84.84193058510394L76.250625,84.97365652000772L71.46089192708334,84.74937286708278L71.65344401041666,84.42111468704653L72.6402734375,84.71967857785293L74.85462239583333,84.67299244944614L76.3950390625,84.67901849212863L77.06897135416666,84.52721004547249L77.09304036458335,84.44160056341633L77.5503515625,84.48081019156544L78.10393880208333,84.46656094404082L78.56125,84.54455607326044L72.73654947916667,84.68832751602659L72.97723958333333,84.20885588461594L73.04944661458333,83.74138030323053L73.41048177083333,82.93007818193833L74.20475911458334,83.0981943701005L78.44090494791666,83.48820544041965L78.58531901041667,83.71560661386121L80.19794270833333,83.76721919292612L80.871875,83.72495077845097L81.11256510416666,83.7272392658987L74.9508984375,84.18348796871891L76.56352213541666,83.70380091111414L77.33373046874999,83.15819070291846L78.75380208333334,82.9568608328839L79.59621744791667,82.98036198312877L80.55897786458333,82.68398391351008L83.30284505208333,82.87999618306698L77.14117838541667,81.10049770984023L77.28559244791667,79.89120475383383L78.94635416666667,80.6144103523003L80.005390625,80.63293881391924L80.70339192708333,80.68152671608588L80.82373697916667,80.66718983336246L81.04035807291667,80.72676092150185L83.20656901041667,81.17732266618236L83.27877604166666,81.46523808213126L83.95270833333333,81.82304909927878L84.1933984375,82.04100585116882L85.58940104166666,82.48647399409973L86.43181640625001,82.81917944040512L80.24608072916666,81.56790280584465L81.69022135416667,81.01624607803805L84.67477864583334,80.74671114779939L84.74698567708333,80.59877693282026L86.09485026041666,80.43541154543435L86.72064453125,80.37467844581532L86.79285156249999,80.34478973350481L87.29830078125,80.24687384010286L87.46678385416666,80.2247585814055L81.85870442708332,76.83735514884332L82.00311848958333,78.14241308930598L83.35098307291668,77.63636020709919L87.46678385416666,78.89756185179857L87.63526692708334,79.6416585710401L88.28513020833333,80.14878261820998L89.63299479166668,80.64774454651193L90.403203125,81.06926855407903L84.93953776041666,79.68414621545523L85.01174479166667,78.39033147927312L85.49312499999999,77.06313785240762L86.28740234375,77.44023756984302L88.18885416666667,78.32777218057771L88.35733723958333,78.96510044213574L88.67023437499999,79.31627352211737L90.114375,79.65712031444231L90.8364453125,80.00886081171224L91.39003255208334,80.2138754469883L91.82327473958334,80.23189204065392L93.50810546874999,80.20803415017356L88.30919921875001,79.74561223815104L89.84961588541667,79.53604983800786L91.41410156250001,79.84591481491408L93.48403645833334,80.00630279519844L94.10983072916666,80.23398223864248L89.12754557291666,75.3595596312714L91.72699869791667,76.56418231196595L91.89548177083333,77.3656891967499L94.61527994791666,78.07894720945619L94.68748697916666,78.54505729051745L95.19293619791667,78.95325837333391L96.6130078125,79.38361017536752L96.85369791666666,79.65300057787678L97.64797526041667,79.77882622563234L92.68975911458334,78.22763802053565L93.09893229166667,77.06243095685264L93.4358984375,76.77150947743189L93.82100260416667,77.09257316692788L94.23017578125,77.5313085485942L95.19293619791667,78.11378512915653L96.30011067708332,78.45441670737671L96.3241796875,78.63350366212133L96.85369791666666,78.73338344727281L97.69611328124999,78.95787223144964L98.32190755208333,79.1414763906276L98.53852864583334,79.24865121523592L99.79011718749999,79.37376336097749L99.86232421875,79.4251791591646L100.68067057291667,79.43949323768626L100.77694661458332,79.43634828636178L94.32645182291667,77.06694398158271L94.47086588541667,75.65466638894958L94.51900390624999,75.08418630797911L95.48176432291667,75.99461237072497L95.62617838541667,76.58522677302093L95.93907552083333,77.15029683041413L96.05942057291666,77.68223376231094L97.59983723958332,78.48425785992565L98.0571484375,79.13695376380694L98.27376953125,79.58296864500291L99.91046223958332,79.93604668993142L99.95860026041667,80.15113106571663L99.98266927083334,80.28397331716435L101.40274088541668,80.46984419537675L98.22563151041668,78.83857680531199L99.50128906249999,78.38838424236688L99.98266927083334,78.29283559913108L100.72880859375,78.25198749229114L100.9454296875,78.1424766750622L101.35460286458333,78.11879313394357L101.76377604166666,78.20864087060052L102.50991536458334,78.33805610439153L103.73743489583335,78.47223197806458L104.29102213541665,78.6856942893778L104.62798828125,78.83783600722045L99.40501302083334,76.04228131624635L102.14888020833334,71.38438282783373L104.45950520833334,67.87114690861432L104.57985026041666,65.73804373598891L105.44633463541666,64.21791877089025L106.19247395833332,63.1291257742529L101.5230859375,59.410532227247046L102.14888020833334,57.04171508830139L102.24515625,55.649921264894886L102.63026041666667,54.96549963393693L103.64115885416666,54.42956003426839L105.18157552083333,54.344945737357904L105.25378255208334,54.30650809182879L105.63888671875,54.22879828771448L107.94951171875,54.11587870407399L109.22516927083333,54.05268994217093L104.50764322916667,53.16119367721663L107.34778645833333,52.408434956329984L108.02171875,52.01684820524332L109.44179036458334,51.7737914182632L110.57303385416668,51.740880441778245L112.30600260416666,51.7528357601841L112.76331380208335,51.76154081157917L106.79419921875001,51.06989775354907L108.67158203125,50.463787895293464L109.08075520833333,50.190338777215146L109.73061848958334,49.986669086641626L110.23606770833332,49.924296740070915L110.52489583333333,49.91352335654254L110.88593098958334,49.87959448267553L110.98220703125,49.819886816558466L111.39138020833333,49.792014853606986L112.25786458333333,49.7914902842345L113.220625,49.80182251526726L114.01490234375,49.80243762537128L109.65841145833333,49.246904347683724L110.93406901041666,48.666813629118025L111.03034505208333,48.35280778196301L111.51172526041667,48.17847348753716L112.69110677083333,48.018856309319204L113.38910807291667,47.89148187641182L114.40000651041667,47.78986300280019L115.62752604166666,47.89088862687544L116.18111328124999,47.9314485813987L117.60118489583334,48.07429187833144L117.67339192708333,48.15517412602226L112.23379557291666,47.75969212209772L112.931796875,47.333723354313335L113.75014322916667,47.24033459852549L114.59255859375,47.2276823264981L115.14614583333334,47.2563667201176L115.53125,47.24963253207058L117.28828776041667,47.22723142353921L117.74559895833333,47.23969114904537L118.27511718749999,47.26056261423189L113.24469401041667,45.71133756853915L116.63842447916666,45.73581474815471L118.22697916666667,45.82712666627563L118.39546223958332,45.84084692261699L118.61208333333333,45.85783566821861L119.02125651041668,45.89138706987649L119.31008463541667,45.89151681223841L119.45449869791668,45.87382073187432L120.8745703125,45.94480452408551L122.07802083333334,46.00866701620912L116.20518229166666,45.06350843726453L117.07166666666666,44.59822224985871L117.64932291666666,44.37436047393864L117.72152994791668,44.23879401873815L119.52670572916666,44.254808759875715L119.67111979166667,44.26621020709729L120.39319010416666,44.25838432738341L120.60981119791666,44.25379744213315L120.70608723958333,44.228089134225215L120.85050130208333,44.245235194402284L123.06485026041666,44.44808093597729L123.08891927083334,44.565214528383265L123.28147135416667,44.68285198363155L123.37774739583332,44.779660775139845L123.78692057291666,44.847480425044864L118.32325520833334,45.04223825502693L118.78056640625,44.761776180555245L119.59891276041668,44.757027744465915L122.02988281249999,44.53642636347642L123.54623046875001,44.48078892355461L124.65340494791666,44.46933053186713L125.71244140625001,44.46575823122964L126.16975260416667,44.491166608659654L120.77829427083334,44.210393202500484L122.174296875,43.88415840685184L122.72788411458333,43.54839897477514L125.76057942708333,43.40986909677913L125.80871744791666,43.32936945611435L126.57892578124999,43.317399749840476L127.32506510416667,43.32625357060738L128.74513671875,43.394741522247244L125.18292317708334,42.6780849035827L125.76057942708333,42.25874876929805L125.97720052083332,42.0194997498601L127.2287890625,42.17314211065825L127.30099609374999,42.30453663358246L130.93541666666667,42.397431696946356L131.2723828125,42.472278964456876L126.72333984375,42.6501006550413L127.2287890625,42.71480331294667L130.42996744791668,42.53075552292427L132.16293619791668,42.499559881137415L132.69245442708333,42.51565157809654L133.10162760416665,42.5171584029126L134.20880208333332,42.540421140380346L128.02306640625,42.10635851918913L129.58755208333332,42.19236039959941L130.88727864583333,42.159307230970555L131.51307291666666,42.07940684834796L131.63341796875,42.015452702758765L133.34231770833333,42.049740371655304L134.20880208333332,42.06164329525882L135.38818359375,42.095641494733385L136.88046223958332,42.20820191344161L136.90453125,42.277356939080576L130.71879557291666,42.11851304040147L131.05576171875,42.15638077345963L132.06666015625,41.91227524141952L136.08618489583333,41.83574514973455L136.83232421875,41.85530597655951L137.65067057291668,41.89902684765447L139.11888020833334,41.987935273631734L139.35957031249998,42.048559381952515L133.24604166666666,42.15768091725748L133.43859375,42.088306670471695L134.04031901041668,41.97595580404081L134.47356119791667,41.90631811133072L134.52169921875,41.83378964609531L135.07528645833332,41.90300010601656L135.09935546875,41.921841811656776L135.12342447916666,41.96942259187688L135.19563151041666,42.04601280805579L135.65294270833334,42.068891254169415L136.49535807291667,42.025124669493835L137.24149739583333,41.92791025091505L138.18018880208334,41.87101568179901L138.42087890625,41.835814243063766L140.56302083333335,41.860975118103894L140.89998697916667,41.94299547125296L141.59798828125,41.95031510501738L141.76647135416667,41.94897055715103L141.79054036458334,41.95265076690781L135.48445963541667,42.32711182244938L136.20652994791666,42.50236694698529L137.86729166666666,42.122865480691175L139.04667317708333,41.876999561852216L139.84095052083333,41.72893679765819L140.75557291666667,41.64591151707147L143.42723307291666,41.66327005477413L144.02895833333332,41.662864376614465L144.10116536458332,41.66106738085148L137.31370442708334,42.796640428510884L137.98763671875,42.345255009059656L138.83005208333333,42.0521194360999L139.11888020833334,41.82142791165995L140.659296875,41.63511248430065L141.06847005208334,41.466796494486616L142.70516276041667,41.33050892696539L143.23468098958332,41.25000750461669L143.90861328125,41.21500450277003L145.20833984375,41.270845597169824L141.40543619791666,41.01983707021597L141.42950520833332,40.8866039022858L143.71606119791667,40.821309021058966L144.79916666666665,40.74661683353378L147.71151692708332,40.81723426027652L147.88,40.88742808057998L143.88454427083332,40.62662713643394L145.03985677083332,40.62024715588376L146.60434244791668,40.67405405524903L147.06165364583333,40.6681177358838L147.18199869791667,40.67442069035842L147.7355859375,40.73877070034786L148.26510416666665,40.788451385052454L148.77055338541666,40.87868679782835L150.40724609375002,41.027281902915774L144.67882161458334,40.98023376577288L146.07482421875,40.81129101629965L147.13386067708333,40.61703596231885L147.8318619791667,40.50617580102411L152.28462890625,40.486332555809796L152.6456640625,40.503075656532786L152.71787109375,40.50887359216186L153.24738932291666,40.53691644045334L153.39180338541667,40.58433589942824L147.54303385416668,40.44477182774288L147.90406901041666,40.138533384731645L149.01124348958334,40.218042149979624L149.34820963541668,40.30975851752683L149.61296875,40.36313697086766L150.93676432291664,40.474690410059665L151.2015234375,40.572553015567024L151.34593750000002,40.64284101344175L152.76600911458334,40.80566139517444L153.41587239583333,40.9280915392531L153.96945963541668,41.02560309249719L155.65429036458335,41.07126847170922L156.18380859374997,41.102046483416146L149.97400390625,41.01856309512782L150.38317708333335,40.751655068990715L150.55166015625,40.57212841737099L151.51442057291666,40.4569595455398L151.94766276041668,40.30598517556609L152.09207682291665,40.274643351433426L152.16428385416668,40.30151159679755L153.99352864583332,40.404307592844134L154.01759765625,40.46160689457369L154.06573567708332,40.51503151955673L155.14884114583333,40.65191551817932L155.89498046875,40.73566469176697L156.54484375,40.81124964513832L156.61705078125001,40.85028848337204L156.73739583333332,40.878894037288845L158.08526041666667,40.90466186182644L158.44629557291665,40.93808117471306L151.65883463541667,38.80284870482784L151.70697265625,38.63420922289673L152.88635416666668,39.452978292527135L154.25828776041666,40.014314197195986L155.34139322916667,40.430240129645696L156.32822265625,40.68891080142025L156.64111979166665,40.862299972063084L156.66518880208332,40.96640952425348L157.19470703125,41.06892090986457L157.3150520833333,41.120497809590645L157.57981119791665,41.18683970137937L160.25147135416665,41.29518743899169L160.75692057291667,41.33017813722316L155.41360026041667,40.98985993409168L155.48580729166667,40.79933624854097L155.50987630208334,40.67103973740588L156.66518880208332,40.71452472134973L157.24284505208334,40.75151256230198L158.63884765625,40.75281329909993L160.41995442708333,40.68999437594434L161.38271484375,40.74768034138691L161.57526692708333,40.80697551440247L162.3454752604167,40.92339356059463L162.65837239583334,41.012821780888046L157.19470703125,40.9291436300563L158.75919270833333,40.860250216119724L159.31277994791665,40.719386701937424L161.33457682291666,40.688385927412455L161.40678385416666,40.67821612675995L161.52712890625,40.68212022781378L163.13975260416666,40.68218119430544L163.57299479166667,40.6901486824036L165.37817057291667,40.777139014129645L159.31277994791665,40.579965903594996L159.33684895833332,40.42360454215702L163.11568359375,40.58088245185672L164.12658203125,40.73732756681716L164.15065104166666,40.82649041216061L165.71513671875,40.968705648663544L165.85955078125002,41.103564941932476L166.3409309895833,41.22372221711262L166.48534505208335,41.30100969745507L166.99079427083336,41.35093479796522L167.13520833333334,41.382280483271316L161.57526692708333,41.29436828996279L162.99533854166668,40.762626711282365L163.76554687499998,40.47329550919132L163.93402994791666,40.277913951022626L169.08479817708334,40.43321492334793L169.6865234375,40.559640135649346L169.99942057291668,40.659809472014615L170.64928385416667,40.72110614219311L163.81368489583335,40.34141368531584L164.1987890625,40.31586896314262L164.39134114583334,40.13535108979963L164.72830729166668,40.06581490192666L165.40223958333334,40.13365922924194L167.06300130208334,40.332158306099856L167.13520833333334,40.42480328444114L168.14610677083334,40.49857703902407L168.98852213541664,40.55271690212537L169.8790755208333,40.662956313150175L172.06935546875,40.79582823124947L172.45445963541667,40.884590444609074L168.02576171875,41.05069481852324L168.19424479166668,41.17127113916085L168.48307291666669,41.2678876834965L169.71059244791667,41.25520734154321L169.99942057291668,41.2317699127384L172.16563151041666,41.18207268983055L172.2378385416667,41.18293502014831L168.77190104166667,41.082056300174926L168.86817708333334,40.766577530104954L168.89224609375,40.66318309032859L169.30141927083332,40.79746356513468L169.90314453125,40.679498402752685L170.16790364583332,40.74555463247191L170.28824869791666,40.823332779483124L170.40859375,40.88946841768987L171.22694010416666,40.813260762527946L171.46763020833333,40.71968997802459L172.09342447916666,40.69656398681474L173.17652994791666,40.72319034521384L173.7301171875,40.73561354794859L174.95763671875,40.76575203990197L175.53529296875,40.799153738589595L175.99260416666664,40.816131037099055L176.3295703125,40.865950228704705L177.12384765624998,40.931889351089964L172.83956380208335,40.40607684795869L174.01894531250002,39.98124059119709L175.96853515625,39.625963959210424L176.2332942708333,39.38866846341686L176.71467447916666,39.197162992112624L178.15881510416668,39.021832707376944L178.47171223958333,38.89980580118399L179.362265625,38.758753231686924L179.84364583333334,38.64064891166838L180.10840494791668,38.55141485969632L175.41494791666665,37.965026039841206L178.80867838541667,37.6408531483188L179.74736979166664,37.43472465754597L180.44537109375,37.300161576754135L181.3840625,37.22270473413842L182.539375,37.164638465483065L176.69060546875,36.81012878241482L176.73874348958333,36.58479870499576L176.93129557291667,36.56170893491152L177.65336588541666,36.6852010201266L178.20695312499998,36.72179285328687L178.54391927083333,36.7161853311127L179.91585286458334,36.708355607847295L182.22647786458333,36.67553021041145L183.30958333333334,36.65722559695001L183.405859375,36.64109317067002L184.85,36.60817506744104L178.95309244791667,36.586338268003686L179.67516276041667,36.53411399595842L180.20468098958332,36.55687257237979L180.3972330729167,36.537152718232576L183.33365234375,36.45964636726765L184.05572265625,36.422062112352776L184.58524088541668,36.40341182795858L185.37951822916668,36.387799904392324L187.160625,36.42181373169791L181.095234375,36.27850852710472L183.16516927083333,36.23971974028625L184.92220703125,36.21483855803892L185.52393229166665,36.20958990240146L185.83682942708333,36.22751736917526L186.05345052083334,36.23770890783325L187.95490234375,36.27425461716088L189.37497395833333,36.2977899529137L185.11475911458334,36.238729513740424L185.47579427083332,36.22463065258019L187.37724609375002,36.263430857368434L188.86952473958334,36.2863198669601L189.47125,36.29809770630884L191.61339192708334,36.28696677808219L185.49986328125,36.17111329438838L186.34227864583335,36.101601204172084L187.13655598958334,36.09379043441734L188.12338541666665,36.126444426666026L190.72283854166668,36.119495440179264L191.10794270833333,36.12029101410761L191.61339192708334,36.138085985417675L191.83001302083335,36.157715116641214L192.2151171875,36.160236247719126L193.73146484375,36.15928273984241L193.75553385416666,36.158069643905435L194.0925,36.16406676192918L189.73600911458334,36.072472405790364L190.04890625000002,36.022545943474256L190.31366536458336,35.98868979752987L192.72056640625001,36.04281800449451L194.33319010416665,36.072763556602965L195.34408854166668,36.10897197673522L192.14291015625,36.21366736572861L194.16470703125,36.18803867627308L194.21284505208334,36.17005404072481L195.17560546874998,36.17092060802864L195.19967447916665,36.17035412262965L195.22374348958334,36.168927805609016L195.60884765625,36.16680089723262L195.92174479166667,36.16721957642552L195.9698828125,36.16559126733969L198.35271484375,36.14162551235697L194.958984375,36.12522530741418L196.49940104166666,36.11864446179223L196.64381510416666,36.11405496320815L196.78822916666667,36.12334972597175L196.88450520833334,36.12414631019243L196.90857421875,36.1234617851389L198.71374999999998,36.11832511795836L199.67651041666667,36.106432204564044L201.00030598958332,36.10353351707438L196.61974609375,36.09560167762744L196.88450520833334,36.0920485065765L197.07705729166668,36.09749985589899L198.23236979166668,36.08664713033623L199.77278645833334,36.06998827820172L199.84499348958332,36.05736381653044L200.5911328125,36.045573807496396L200.83182291666668,36.04060746809161L201.00030598958332,36.041658304097155L201.43354817708334,36.05109971878643L202.80548177083335,36.054939372287464L203.28686197916667,36.05944860872408L203.35906901041665,36.06055710468756L203.86451822916666,36.06275406261723L198.93037109374998,35.997463472726594L201.12065104166666,35.93832061293281L201.1687890625,35.901563778892495L201.93899739583335,35.892188267335484L202.37223958333334,35.89298373676843L202.1796875,35.92041524206108L202.80548177083335,35.942349731174176L203.86451822916666,35.98210612776698L205.18831380208334,36.00726367666019L206.68059244791667,36.01879472943364L206.99348958333334,36.021856549574224L202.20375651041664,35.85311392974454L202.9017578125,35.82603864593263L203.84044921875,35.816235980528305L205.40493489583332,35.837667125426364L210.57977213541665,35.86691997740425L205.47714192708335,35.91049158605195L206.10293619791668,35.87458877487333L206.63245442708333,35.843280120392706L207.08976562499998,35.82084453707938L207.57114583333333,35.82222376326325L207.69149088541667,35.81957473647357L208.07659505208335,35.823808562587274L208.36542317708336,35.82640317954457L208.75052734375,35.8323056528439L209.400390625,35.84507089170633L211.03708333333333,35.838367486195665L212.21646484375,35.858833479998665L212.52936197916668,35.876664712022645L212.72191406250002,35.891068163151104L208.00438802083332,35.90707620062503L209.73735677083332,35.90135155533592L210.53163411458334,35.89433156308439L210.7001171875,35.884959045272524L210.91673828125,35.88018294669476L212.12018880208336,35.88823586664968L212.19239583333334,35.89655504538044L212.69784505208335,35.8952887401189L212.98667317708336,35.902275172782325L213.44398437499999,35.918352530427185L213.90129557291667,35.918927289740694L210.17059895833333,35.93041887384443L212.12018880208336,35.92624314559569L212.1442578125,35.92260782583398L212.96260416666667,35.913832029484766L213.41991536458335,35.9148678212065L214.52708984375002,35.90904679135676L216.26005859375002,35.91034531114215L216.38040364583333,35.91664346598216L217.00619791666665,35.93080858935491L218.11337239583332,35.94600004619106L218.47440755208333,35.958102591191164L213.44398437499999,35.84758469924596L214.47895182291668,35.78863993087572L214.96033203125,35.764137327666035L215.10474609375,35.7472085928887L215.41764322916666,35.74765486764727L216.09157552083332,35.738590235041514L217.12654296875002,35.73348824747018L219.70192708333335,35.73774956469303L220.30365234375,35.74883479740957L220.47213541666665,35.76347116653167L220.56841145833334,35.774491025114344L215.94716145833334,35.79739932698266L216.01936848958334,35.80743959618958L216.98212890624998,35.8115299198231L219.24461588541666,35.822729841542326L219.58158203125,35.82343099574571L219.99075520833335,35.8174960974474L220.01482421875002,35.81358750221844L221.02572265625,35.80677713512017L223.4085546875,35.81143664240027L220.56841145833334,35.808267869229226L221.84406901041666,35.812113797709415L224.44352213541666,35.82653500225847L224.70828125,35.83193931190195L220.6646875,35.870045301008346L222.08475911458333,35.86714973919872L222.9753125,35.87561394019896L223.48076171875002,35.86760103013502L224.37131510416668,35.855774973549785L225.23779947916668,35.844018572997044L225.26186848958335,35.836617076415436L225.86359375,35.82814553881805L227.35587239583333,35.82370360747049L222.06069010416667,35.73422216448233L222.686484375,35.6805332986894L223.64924479166666,35.67250381710423L224.75641927083333,35.66768612815315L226.32090494791666,35.67897337122781L226.48938802083333,35.68976549246321L226.68194010416667,35.704888714423234L227.83725260416668,35.72566345326334L228.05387369791666,35.736074951840834L229.4739453125,35.744929272862336L229.78684244791665,35.75107841332675L226.27276692708332,35.7897834005351L226.56159505208333,35.812321944617906L227.35587239583333,35.8264534695051L228.36677083333333,35.84830628580464L229.9312565104167,35.86770838085776L231.71236328125,35.8660952433584L232.84360677083333,35.86079252199164L226.70600911458334,35.87358134815592L227.40401041666667,35.83368005889359L228.10201171875,35.79799502264086L228.41490885416667,35.76824025088922L228.48711588541667,35.74879034193977L230.07567057291666,35.752243443445124L230.14787760416664,35.753152828762396L231.18284505208334,35.75159079393711L232.12153645833334,35.7639079675732L232.36222656249998,35.77718669948925L233.71009114583333,35.80321033512324L229.88311848958335,35.80917705556615L230.0516015625,35.80222962201155L230.07567057291666,35.796757450941286L230.24415364583334,35.81918984654135L231.80863932291666,35.80794396163577L232.48257161458332,35.78773561526269L232.77139973958333,35.77118885450918L233.084296875,35.76317290743209L233.25277994791665,35.76197027277959L235.99664713541668,35.76283487362866L236.09292317708335,35.76610229136472L236.74278645833334,35.765879026186056L236.79092447916665,35.765353953797586L231.39946614583334,35.77867355391918L231.95305338541667,35.76733779934368L233.63788411458333,35.76278524796557L233.87857421875,35.754719366552735L234.28774739583335,35.7509445349707L234.45623046875,35.745800607701156L234.52843750000002,35.74156264001134L234.86540364583334,35.75534883888963L235.13016276041668,35.772203321888455L238.40354817708334,35.77627548434404L239.2941015625,35.78383584724703L233.61381510416666,35.895721796434174L233.78229817708333,35.948588595438636L235.34678385416666,35.95177913382565L235.94850911458332,35.91907993146725L236.16513020833332,35.900709799700635L236.45395833333333,35.87911679778914L236.91126953125,35.86860545465005L237.32044270833333,35.851553897790055L237.68147786458331,35.839932338674075L238.62016927083334,35.8427372352357L238.90899739583335,35.8440942454383L239.51072265625,35.83953064394265L240.23279296875,35.82686255140467L240.40127604166668,35.81724094392874L241.79727864583333,35.80751338959941L235.90037109374998,35.72450803375963L236.35768229166666,35.78595482025578L236.52616536458333,35.79397828766126L237.63333984375,35.79258887689362L238.88492838541666,35.79565549898773L238.9571354166667,35.81299876814265L239.79955078125002,35.857475042135576L242.03796875,35.854436197156346L242.85631510416667,35.84089035598912L242.92852213541664,35.835663608124676L244.18011067708335,35.82523764241385L244.20417968750002,35.8187430493155L244.70962890624997,35.81612827587834L239.02934244791666,35.765561609081686L239.67920572916665,35.75688493908184L241.12334635416667,35.76013132966007L241.14741536458334,35.761525086858526L241.77320963541666,35.781308606802625L242.06203776041664,35.79381970998003L242.42307291666668,35.80684541485522L242.904453125,35.81102131141316L243.12107421875,35.82623803098856L243.33769531250002,35.841691060780676L244.05976562499998,35.84699742455439L245.23914713541666,35.848279997701425L246.56294270833334,35.8653893853396L247.33315104166664,35.87462291343029L240.85858723958333,35.764773748058175L242.615625,35.824020498834884L244.4930078125,35.811863593246244L246.27411458333333,35.82302782391645L247.45349609375,35.84071012696705L248.31998046875,35.83918413282085L249.81225911458333,35.83744285273936L244.66149088541667,35.793810194065486L244.73369791666667,35.76537083323619L246.56294270833334,35.745580288027696L247.06839192708335,35.72780666891036L247.26094401041667,35.7216946214634L247.5738411458333,35.73282451213585L247.62197916666665,35.73887231958622L247.76639322916668,35.7406649444861L249.3068098958333,35.74477164735569L250.12515625,35.75163569349158L250.17329427083334,35.755308686602746L250.19736328124998,35.757295197313226L252.26729817708332,35.758617474833244L252.33950520833335,35.75891108548588L245.98528645833335,35.80659665129156L250.10108723958334,35.793858625540565L250.2695703125,35.78373875930875L251.858125,35.79031283566336L251.9784700520833,35.79276887815584L252.98936848958334,35.8229784655654L254.48164713541667,35.83221725512047L254.89082031249998,35.83346914701761L254.91488932291668,35.83406818254646L249.49936197916668,35.858437613629434L249.98074218750003,35.87148395489638L250.87129557291667,35.88951329774254L250.89536458333333,35.89930966321583L250.96757161458333,35.91974558796855L252.55612630208333,35.907127992429565L253.80771484375,35.88417364604365L254.16875,35.8689126348918L254.52978515625,35.862482956911634L254.91488932291668,35.856886868873545L255.22778645833336,35.849281291246L256.07020182291666,35.83817766146633L256.52751302083334,35.829918437700115L256.69599609375,35.8232898077373L255.29999348958333,35.85758741003298L256.74413411458335,35.86705183566825L257.4662044270833,35.88009645784628L257.923515625,35.88424024775462L253.06157552083332,36.00893855783245L254.00026692708332,35.971301611261936L254.09654296875001,35.939886801718075L254.3131640625,35.92192878513244L254.457578125,35.91677079647005L255.05930338541665,35.904756447608634L256.43123697916667,35.89843870743236L257.4662044270833,35.897657462740625L259.9453125,35.90838976573032L261.41352213541666,35.926790695375644L255.73323567708331,35.97407441722537L256.52751302083334,35.9011680390071L257.41806640625,35.83924830875581L259.15103515625,35.810168614159764L259.29544921875004,35.79683835111304L259.5120703125,35.785341902269394L260.811796875,35.77720550757256L262.61697265625,35.76355621469975L262.85766276041664,35.75358490069486L263.43531901041666,35.74697198533879L258.16420572916667,35.688183191203294L260.28227864583334,35.69194519304227L261.12469401041665,35.69249670566914L262.59290364583336,35.70318125094056L263.05021484375,35.710493711501854L264.0851822916667,35.715380943697994L265.7459440104167,35.72143132500787L260.30634765625,35.74702908309064L260.8358658854167,35.74835111684658L263.91669921875,35.75643425409234L266.34766927083336,35.773321734096015L267.67146484375,35.78023840178575L268.0325,35.78098788970428L262.6891796875,35.86752596136159L263.50752604166667,35.83004682681698L265.2886328125,35.82921181191048L265.6737369791667,35.81813988011507L265.93849609374996,35.813017717131586L266.75684244791665,35.80683724160707L268.68236328125,35.78754961058925L270.15057291666665,35.77090342358014L270.1746419270833,35.760731018991834L270.5356770833333,35.75533375299662L271.57064453125,35.75129143832142L265.0479427083333,35.69077486299287L266.08291015625,35.796058789866024L266.2032552083333,35.847430562005556L267.9362239583333,35.8327432493127L271.32995442708335,35.82929780505637L271.40216145833335,35.82625275529942L271.88354166666664,35.8259575857968L271.9076106770833,35.8254762848765L271.9798177083333,35.82428577092588L274.17009765625,35.81716155044619" style="fill: none;" fill="none"></path></g></g></g></g><g opacity="0.2"><g><g><g><path stroke="rgb(238, 51, 119)" stroke-width="2px" d="M39.06400390625,189.44704376220704L33.88916666666667,163.88515625L35.838756510416665,167.09999877929687L37.16255208333334,163.67270568847655L37.23475911458334,163.44289947509768L37.57172526041666,162.48372131347656L37.66800130208333,162.57669219970703L38.823313802083334,162.0489337158203L38.991796875000006,161.80554718017578L40.05083333333333,161.70440093994142L40.77290364583333,161.39952270507814L42.14483723958333,160.45514709472656L42.84283854166667,160.17072082519533L36.22386067708334,147.40625L36.60896484375,147.6446389770508L37.95682942708333,146.38044677734374L39.18434895833333,148.566552734375L39.61759114583333,148.6597137451172L39.83421223958333,148.7161264038086L40.21931640625,147.842151184082L40.291523437500004,147.96888275146486L41.350559895833335,146.27587829589842L42.86690755208333,145.18719818115233L43.396425781249995,144.60112579345702L43.4686328125,144.55957000732423L43.66118489583334,144.37876159667968L44.6239453125,143.86447479248045L45.03311848958334,143.66392059326174L45.346015625,143.38068939208986L40.48407552083333,127.21165893554686L41.92821614583333,128.9481475830078L44.11849609375,127.7990350341797L44.40732421875,127.40395629882812L45.177532552083335,127.41137115478516L45.32194661458334,127.26331848144531L45.80332682291667,126.89474853515625L45.923671875000004,126.74914031982422L47.00677734375,125.7503076171875L47.295605468750004,125.56773376464844L41.133938802083335,117.49235809326171L41.97635416666667,119.35354125976562L42.000423177083334,118.79028381347656L43.10759765625,118.27341674804688L43.51677083333333,117.38936492919922L43.56490885416667,117.49518280029297L43.68525390625,117.51386932373046L44.28697916666666,117.20983306884766L44.311048177083336,117.36087341308594L44.59987630208334,117.00156524658203L44.72022135416666,117.01316284179688L45.41822265625,116.74707000732423L45.7792578125,116.64176818847656L45.923671875000004,116.55042694091796L49.100781250000004,115.49550750732422L43.42049479166667,105.8265625L44.59987630208334,110.90364746093749L47.17526041666667,107.2693359375L48.884160156250005,107.33457580566406L50.593059895833335,107.80198333740233L50.66526692708333,107.77571899414062L52.06126953125,107.49110260009766L46.549466145833335,102.10460357666015L48.21022786458333,103.75412384033203L48.54719401041667,103.65743194580078L48.59533203125,103.30825469970702L48.61940104166667,103.30026947021484L50.01540364583333,102.83438293457031L54.22748046875,102.24757720947267L50.11167968749999,99.39915893554686L50.544921875,98.40062499999999L50.593059895833335,98.50532928466797L51.79651041666667,98.03175628662109L53.50541015625,99.0449298095703L54.756998697916664,98.71919219970704L55.262447916666666,98.71370574951172L55.43093098958334,98.79771362304687L51.00223307291667,95.32367706298828L51.67616536458333,94.12458892822266L52.35009765625,95.22999999999999L53.60168619791666,95.3859292602539L55.09396484375,95.8015414428711L57.45272786458333,96.24483032226563L58.19886718750001,96.32394927978515L58.31921223958333,96.1933609008789L53.048098958333334,100.2640625L53.360996093749996,91.87940856933594L53.40913411458334,91.95689788818359L55.358723958333336,94.0340625L57.57307291666667,94.12214447021483L57.98224609375001,93.7534115600586L58.4876953125,93.71603851318359L60.84645833333333,94.15889282226563L61.71294270833334,94.14379150390624L61.80921875,94.1573989868164L62.00177083333333,94.23556732177735L57.693417968750005,91.02428283691407L58.030384114583335,91.55073760986329L58.94500651041667,92.0276513671875L59.23383463541667,92.12328399658203L60.24473307291667,92.10185424804688L61.88142578125,92.44627838134765L62.098046875,92.28782318115233L62.17025390625,92.21761291503907L63.999498697916664,92.05394287109375L64.04763671875,92.05706634521485L58.343281250000004,89.37082427978515L59.01721354166667,87.80191680908203L61.54445963541667,89.40034790039063L63.71067057291666,89.45716796875L64.09577473958333,89.52240783691406L64.43274088541666,89.64862335205078L65.90095052083333,90.07300842285156L61.231562499999995,88.57018280029297L62.00177083333333,89.17564788818359L64.76970703125001,89.0698843383789L65.1307421875,88.94328857421876L66.18977864583333,88.1990054321289L68.23564453125,88.72603057861328L68.64481770833333,88.91783905029297L68.71702473958334,88.92164154052735L69.58350911458334,89.04272369384765L62.74791015625,93.60891693115235L63.61439453125,84.9510269165039L64.11984375,85.6625L65.61212239583332,87.95814483642579L66.09350260416667,87.85322326660156L68.76516276041667,88.67100311279297L69.00585286458333,88.55834075927734L70.66661458333334,88.17059539794921L70.97951171875,88.38796203613282L71.12392578125,88.34974700927734L71.43682291666666,88.33038146972656L65.80467447916666,85.74430786132812L66.35826171875,84.73542572021485L66.47860677083334,84.13729400634766L67.89867838541667,85.68547790527344L68.47633463541666,86.75582458496093L71.36461588541667,86.23974517822266L72.66434244791667,86.55179382324219L73.36234375000001,87.02115692138672L67.65798828125,83.63976531982422L68.5966796875,83.826875L68.66888671875,83.56344390869141L68.95771484375,84.33605560302735L69.70385416666667,84.21394134521485L72.20703125,84.160625L72.39958333333333,84.37883361816407L72.76061848958334,84.66475372314453L75.0953125,84.92373046875L75.72110677083333,85.15608978271484L76.250625,85.17124542236328L71.46089192708334,84.41294738769531L71.65344401041666,83.92872741699219L72.6402734375,85.1675244140625L74.85462239583333,84.60296325683593L76.3950390625,84.68805755615234L77.06897135416666,84.29949737548829L77.09304036458335,84.31318634033204L77.5503515625,84.53962463378906L78.10393880208333,84.44518707275391L78.56125,84.66154876708984L72.73654947916667,84.90398468017578L72.97723958333333,83.4896484375L73.04944661458333,83.04016693115234L73.41048177083333,81.713125L74.20475911458334,83.35036865234375L78.44090494791666,84.07322204589843L78.58531901041667,84.05670837402344L80.19794270833333,83.84463806152344L80.871875,83.66154815673828L81.11256510416666,83.73067199707032L74.9508984375,84.86786102294921L76.56352213541666,82.98427032470703L77.33373046874999,82.339775390625L78.75380208333334,82.65486602783203L79.59621744791667,83.01561370849609L80.55897786458333,82.23941680908203L83.30284505208333,83.17401458740234L77.14117838541667,78.43125L77.28559244791667,78.07726531982422L78.94635416666667,81.69921875L80.005390625,80.66073150634766L80.70339192708333,80.75440856933594L80.82373697916667,80.64568450927734L81.04035807291667,80.81611755371094L83.20656901041667,81.85316528320313L83.27877604166666,81.89711120605469L83.95270833333333,82.359765625L84.1933984375,82.3679409790039L85.58940104166666,83.1546762084961L86.43181640625001,83.31823760986327L80.24608072916666,79.69098785400391L81.69022135416667,80.18876098632812L84.67477864583334,80.3424087524414L84.74698567708333,80.37687561035156L86.09485026041666,80.19036346435547L86.72064453125,80.28357879638672L86.79285156249999,80.29995666503906L87.29830078125,80.1L87.46678385416666,80.19158569335937L81.85870442708332,71.75625L82.00311848958333,80.1L83.35098307291668,76.87728088378907L87.46678385416666,80.78936431884766L87.63526692708334,80.75780364990234L88.28513020833333,80.90946868896485L89.63299479166668,81.39618743896484L90.403203125,81.70155456542969L84.93953776041666,77.60646270751953L85.01174479166667,76.449609375L85.49312499999999,75.07234741210938L86.28740234375,78.0058871459961L88.18885416666667,79.65907409667969L88.35733723958333,79.92109283447266L88.67023437499999,79.84303314208984L90.114375,80.16839050292968L90.8364453125,80.53647155761719L91.39003255208334,80.52139739990234L91.82327473958334,80.25891693115234L93.50810546874999,80.17224731445313L88.30919921875001,79.05197937011718L89.84961588541667,79.22170623779297L91.41410156250001,80.31071228027344L93.48403645833334,80.246884765625L94.10983072916666,80.57550140380859L89.12754557291666,68.04792572021485L91.72699869791667,78.37111633300782L91.89548177083333,78.56794952392578L94.61527994791666,79.14883422851562L94.68748697916666,79.24422241210938L95.19293619791667,79.5655599975586L96.6130078125,80.02913787841797L96.85369791666666,80.05708618164063L97.64797526041667,79.96756469726563L92.68975911458334,75.90085571289063L93.09893229166667,75.31462036132812L93.4358984375,76.33512725830079L93.82100260416667,77.57416870117187L94.23017578125,78.18941162109375L95.19293619791667,78.9875L96.30011067708332,78.96536407470703L96.3241796875,78.90213409423828L96.85369791666666,78.883203125L97.69611328124999,79.29460540771484L98.32190755208333,79.41688262939454L98.53852864583334,79.40941345214844L99.79011718749999,79.56143157958985L99.86232421875,79.50230285644531L100.68067057291667,79.46096435546875L100.77694661458332,79.431630859375L94.32645182291667,73.51283752441407L94.47086588541667,73.53625L94.51900390624999,74.22846618652343L95.48176432291667,77.36025146484376L95.62617838541667,77.47114837646484L95.93907552083333,77.9979019165039L96.05942057291666,78.48013916015626L97.59983723958332,79.68729400634766L98.0571484375,80.1159976196289L98.27376953125,80.25199096679688L99.91046223958332,80.46566375732422L99.95860026041667,80.47375762939453L99.98266927083334,80.48323669433594L101.40274088541668,80.7486505126953L98.22563151041668,76.39167572021485L99.50128906249999,77.71309539794922L99.98266927083334,78.14951263427734L100.72880859375,78.19071533203125L100.9454296875,77.97821044921875L101.35460286458333,78.08326782226563L101.76377604166666,78.34341247558594L102.50991536458334,78.53217895507812L103.73743489583335,78.67349578857421L104.29102213541665,79.00588775634766L104.62798828125,79.06604858398437L99.40501302083334,71.84894927978516L102.14888020833334,64.39753509521485L104.45950520833334,62.601293029785154L104.57985026041666,62.538388977050786L105.44633463541666,61.93773132324219L106.19247395833332,61.49593627929687L101.5230859375,53.832641906738274L102.14888020833334,53.48848937988281L102.24515625,53.562230529785154L102.63026041666667,53.938867187499994L103.64115885416666,53.62565063476562L105.18157552083333,54.218024291992194L105.25378255208334,54.24885162353516L105.63888671875,54.11223358154297L107.94951171875,53.946499328613285L109.22516927083333,53.957906799316405L104.50764322916667,51.823949279785154L107.34778645833333,51.279296875L108.02171875,51.42946807861328L109.44179036458334,51.40920623779297L110.57303385416668,51.691513977050775L112.30600260416666,51.77076873779296L112.76331380208335,51.774598388671876L106.79419921875001,50.03243316650391L108.67158203125,49.55462310791016L109.08075520833333,49.78016510009766L109.73061848958334,49.68116455078125L110.23606770833332,49.83073822021484L110.52489583333333,49.897363281249994L110.88593098958334,49.828701171875L110.98220703125,49.73032531738281L111.39138020833333,49.75020690917968L112.25786458333333,49.79070343017578L113.220625,49.81732086181641L114.01490234375,49.80336029052734L109.65841145833333,48.41360443115235L110.93406901041666,47.796677551269525L111.03034505208333,47.88179901123047L111.51172526041667,47.91697204589843L112.69110677083333,47.779430541992184L113.38910807291667,47.700420227050785L114.40000651041667,47.63743469238281L115.62752604166666,48.04242706298828L116.18111328124999,47.992288513183595L117.60118489583334,48.288556823730474L117.67339192708333,48.276497497558594L112.23379557291666,47.16646911621093L112.931796875,46.69477020263672L113.75014322916667,47.10025146484375L114.59255859375,47.20870391845703L115.14614583333334,47.299393310546876L115.53125,47.23953125L117.28828776041667,47.19362976074218L117.74559895833333,47.25838073730469L118.27511718749999,47.291869812011726L113.24469401041667,43.3875L116.63842447916666,45.77253051757812L118.22697916666667,45.96409454345704L118.39546223958332,45.861427307128906L118.61208333333333,45.88331878662109L119.02125651041668,45.94171417236328L119.31008463541667,45.89171142578125L119.45449869791668,45.84727661132813L120.8745703125,46.05128021240235L122.07802083333334,46.10446075439454L116.20518229166666,43.64577056884765L117.07166666666666,43.900292968749994L117.64932291666666,44.038567810058595L117.72152994791668,44.0354443359375L119.52670572916666,44.27883087158203L119.67111979166667,44.28331237792969L120.39319010416666,44.2466455078125L120.60981119791666,44.24691711425781L120.70608723958333,44.189526672363286L120.85050130208333,44.270954284667965L123.06485026041666,44.75234954833985L123.08891927083334,44.74091491699218L123.28147135416667,44.85930816650391L123.37774739583332,44.924873962402344L123.78692057291666,44.94920989990234L118.32325520833334,45.334374999999994L118.78056640625,44.34108306884765L119.59891276041668,44.749905090332035L122.02988281249999,44.20552429199219L123.54623046875001,44.39733276367187L124.65340494791666,44.45214294433593L125.71244140625001,44.460399780273434L126.16975260416667,44.529279174804685L120.77829427083334,43.789233093261714L122.174296875,43.3948062133789L122.72788411458333,43.044759826660155L125.76057942708333,43.20207427978515L125.80871744791666,43.20861999511719L126.57892578124999,43.299445190429694L127.32506510416667,43.33953430175781L128.74513671875,43.49747344970703L125.18292317708334,41.603099975585934L125.76057942708333,41.6297445678711L125.97720052083332,41.66062622070312L127.2287890625,42.40360565185547L127.30099609374999,42.501628417968746L130.93541666666667,42.53677429199219L131.2723828125,42.58454986572265L126.72333984375,42.91683319091797L127.2287890625,42.811857299804686L130.42996744791668,42.254683837890624L132.16293619791668,42.45276641845703L132.69245442708333,42.53978912353516L133.10162760416665,42.51941864013672L134.20880208333332,42.575315246582036L128.02306640625,41.45526458740234L129.58755208333332,42.32136322021485L130.88727864583333,42.10972747802734L131.51307291666666,41.95955627441407L131.63341796875,41.919521484375L133.34231770833333,42.101171875000006L134.20880208333332,42.07949768066406L135.38818359375,42.146638793945314L136.88046223958332,42.37704254150391L136.90453125,42.381089477539064L130.71879557291666,41.88024719238281L131.05576171875,42.21318237304688L132.06666015625,41.54611694335938L136.08618489583333,41.72095001220703L136.83232421875,41.88464721679688L137.65067057291668,41.96460815429687L139.11888020833334,42.121297912597655L139.35957031249998,42.1394955444336L133.24604166666666,42.32136322021485L133.43859375,41.98424530029297L134.04031901041668,41.807429504394534L134.47356119791667,41.80186157226562L134.52169921875,41.72499694824219L135.07528645833332,42.00681579589843L135.09935546875,41.95010437011719L135.12342447916666,42.04079376220703L135.19563151041666,42.16089813232422L135.65294270833334,42.10320892333985L136.49535807291667,41.959474792480464L137.24149739583333,41.782088623046874L138.18018880208334,41.785673828125L138.42087890625,41.783012084960944L140.56302083333335,41.89871643066407L140.89998697916667,42.066026000976564L141.59798828125,41.96129455566407L141.76647135416667,41.946953735351556L141.79054036458334,41.95817108154297L135.48445963541667,42.88880340576172L136.20652994791666,42.76524963378907L137.86729166666666,41.553613281249994L139.04667317708333,41.508200683593756L139.84095052083333,41.506842651367194L140.75557291666667,41.52137359619141L143.42723307291666,41.68930786132813L144.02895833333332,41.662255859374994L144.10116536458332,41.658371887207025L137.31370442708334,44.5L137.98763671875,41.66817687988281L138.83005208333333,41.61241607666015L139.11888020833334,41.475390625L140.659296875,41.355639343261714L141.06847005208334,41.21432250976562L142.70516276041667,41.126077575683595L143.23468098958332,41.12925537109375L143.90861328125,41.162499999999994L145.20833984375,41.35460723876953L141.40543619791666,40.64332427978516L141.42950520833332,40.68675415039063L143.71606119791667,40.723366699218744L144.79916666666665,40.6345785522461L147.71151692708332,40.92316040039063L147.88,40.99271881103516L143.88454427083332,40.23542572021485L145.03985677083332,40.61067718505859L146.60434244791668,40.75476440429688L147.06165364583333,40.65921325683594L147.18199869791667,40.68387512207032L147.7355859375,40.83529571533204L148.26510416666665,40.86297241210937L148.77055338541666,41.01403991699219L150.40724609375002,41.25017456054688L144.67882161458334,40.909661560058595L146.07482421875,40.55787689208984L147.13386067708333,40.32565338134765L147.8318619791667,40.339885559082035L152.28462890625,40.45656768798828L152.6456640625,40.528190307617194L152.71787109375,40.51757049560547L153.24738932291666,40.578980712890626L153.39180338541667,40.65546508789062L147.54303385416668,40.23542572021485L147.90406901041666,39.67917572021484L149.01124348958334,40.33730529785156L149.34820963541668,40.447333068847655L149.61296875,40.44320465087891L150.93676432291664,40.642020568847656L151.2015234375,40.71934692382813L151.34593750000002,40.74827301025391L152.76600911458334,41.04989196777343L153.41587239583333,41.1117367553711L153.96945963541668,41.171870422363284L155.65429036458335,41.13976654052735L156.18380859374997,41.14821350097657L149.97400390625,40.89333801269531L150.38317708333335,40.351293029785154L150.55166015625,40.30283843994141L151.51442057291666,40.28420623779297L151.94766276041668,40.07952362060547L152.09207682291665,40.227630615234375L152.16428385416668,40.34181396484375L153.99352864583332,40.55850158691406L154.01759765625,40.54755584716797L154.06573567708332,40.59516845703125L155.14884114583333,40.85724151611328L155.89498046875,40.86128845214844L156.54484375,40.92462707519532L156.61705078125001,40.90884674072265L156.73739583333332,40.921802368164066L158.08526041666667,40.94331359863281L158.44629557291665,40.98821014404297L151.65883463541667,35.599999999999994L151.70697265625,38.381249999999994L152.88635416666668,40.68113189697266L154.25828776041666,40.85631805419922L155.34139322916667,41.05412902832032L156.32822265625,41.076916809082036L156.64111979166665,41.122383728027344L156.66518880208332,41.12257385253906L157.19470703125,41.22268798828125L157.3150520833333,41.19786315917969L157.57981119791665,41.286352539062506L160.25147135416665,41.457709045410155L160.75692057291667,41.38266418457032L155.41360026041667,40.479382629394536L155.48580729166667,40.51355072021484L155.50987630208334,40.47859497070313L156.66518880208332,40.77975219726562L157.24284505208334,40.806994323730464L158.63884765625,40.75476440429688L160.41995442708333,40.59576599121094L161.38271484375,40.834209289550785L161.57526692708333,40.89591827392579L162.3454752604167,41.09802062988281L162.65837239583334,41.14696411132813L157.19470703125,40.80362640380859L158.75919270833333,40.75691009521485L159.31277994791665,40.50809143066407L161.33457682291666,40.641884765624994L161.40678385416666,40.66296142578125L161.52712890625,40.68797637939453L163.13975260416666,40.68227264404297L163.57299479166667,40.702099914550786L165.37817057291667,40.90762451171875L159.31277994791665,40.28420623779297L159.33684895833332,40.189062500000006L163.11568359375,40.81679931640625L164.12658203125,40.97199523925781L164.15065104166666,40.96023468017579L165.71513671875,41.18202850341797L165.85955078125002,41.305853881835944L166.3409309895833,41.40395812988281L166.48534505208335,41.416940917968745L166.99079427083336,41.42582244873047L167.13520833333334,41.42929901123047L161.57526692708333,41.162499999999994L162.99533854166668,39.965014343261714L163.76554687499998,40.039298706054694L163.93402994791666,39.98484161376953L169.08479817708334,40.666166381835936L169.6865234375,40.74927795410156L169.99942057291668,40.810063476562505L170.64928385416667,40.81305114746094L163.81368489583335,39.771874999999994L164.1987890625,40.27755187988281L164.39134114583334,39.86457427978516L164.72830729166668,39.96151062011718L165.40223958333334,40.23542572021485L167.06300130208334,40.62990692138672L167.13520833333334,40.56377075195313L168.14610677083334,40.60923767089844L168.98852213541664,40.63392669677734L169.8790755208333,40.82831542968751L172.06935546875,40.99513610839844L172.45445963541667,41.01773376464844L168.02576171875,41.299851379394525L168.19424479166668,41.35213562011718L168.48307291666669,41.4128125L169.71059244791667,41.236186828613285L169.99942057291668,41.196613769531254L172.16563151041666,41.10752685546875L172.2378385416667,41.184228515624994L168.77190104166667,40.93073822021485L168.86817708333334,40.293359374999994L168.89224609375,40.50809143066407L169.30141927083332,40.99888427734375L169.90314453125,40.50255065917969L170.16790364583332,40.84463897705078L170.28824869791666,40.94L170.40859375,40.988671874999994L171.22694010416666,40.698949279785154L171.46763020833333,40.57933380126953L172.09342447916666,40.661874999999995L173.17652994791666,40.76312988281251L173.7301171875,40.75424835205078L174.95763671875,40.810959777832025L175.53529296875,40.8492562866211L175.99260416666664,40.84159698486329L176.3295703125,40.94067901611328L177.12384765624998,41.03079803466797L172.83956380208335,39.617358093261714L174.01894531250002,39.343986206054694L175.96853515625,39.09304901123046L176.2332942708333,39.03272521972656L176.71467447916666,38.90990478515624L178.15881510416668,38.75883728027344L178.47171223958333,38.71676544189454L179.362265625,38.54717437744141L179.84364583333334,38.46349243164063L180.10840494791668,38.41756378173828L175.41494791666665,37.085442810058595L178.80867838541667,37.154593811035156L179.74736979166664,37.125531921386724L180.44537109375,37.0983169555664L181.3840625,37.10651947021485L182.539375,37.077539062499994L176.69060546875,36.2783642578125L176.73874348958333,36.24680358886718L176.93129557291667,36.527074279785154L177.65336588541666,36.87043914794921L178.20695312499998,36.776680603027344L178.54391927083333,36.70777404785156L179.91585286458334,36.69661102294921L182.22647786458333,36.62629211425781L183.30958333333334,36.629768676757806L183.405859375,36.61689453125L184.85,36.558797912597655L178.95309244791667,36.55358306884766L179.67516276041667,36.45577758789062L180.20468098958332,36.59101043701172L180.3972330729167,36.507572937011716L183.33365234375,36.343386840820315L184.05572265625,36.36568572998047L184.58524088541668,36.37543640136718L185.37951822916668,36.364382019042964L187.160625,36.472834472656245L181.095234375,36.06355072021485L183.16516927083333,36.18153656005859L184.92220703125,36.17751678466797L185.52393229166665,36.20171691894531L185.83682942708333,36.254408569335936L186.05345052083334,36.25299621582032L187.95490234375,36.32907318115234L189.37497395833333,36.33309295654297L185.11475911458334,36.15013885498047L185.47579427083332,36.20348236083984L187.37724609375002,36.32163116455078L188.86952473958334,36.320653381347654L189.47125,36.31576446533204L191.61339192708334,36.270270385742194L185.49986328125,35.99733306884765L186.34227864583335,35.99733306884765L187.13655598958334,36.08207427978516L188.12338541666665,36.17542541503906L190.72283854166668,36.109071960449214L191.10794270833333,36.121484374999994L191.61339192708334,36.16477844238281L191.83001302083335,36.18715881347656L192.2151171875,36.16401794433594L193.73146484375,36.15785247802734L193.75553385416666,36.15625L194.0925,36.17306243896485L189.73600911458334,35.93508087158203L190.04890625000002,35.947656249999994L190.31366536458336,35.93790557861328L192.72056640625001,36.1240103149414L194.33319010416665,36.11768188476563L195.34408854166668,36.16328460693359L192.14291015625,36.37071044921875L194.16470703125,36.14959564208985L194.21284505208334,36.14307708740235L195.17560546874998,36.17222045898437L195.19967447916665,36.169504394531245L195.22374348958334,36.16678833007812L195.60884765625,36.16361053466797L195.92174479166667,36.16784759521484L195.9698828125,36.16314880371094L198.35271484375,36.10567687988281L194.958984375,36.100624999999994L196.49940104166666,36.10877319335937L196.64381510416666,36.10717071533203L196.78822916666667,36.13729187011718L196.88450520833334,36.12534118652344L196.90857421875,36.1224349975586L198.71374999999998,36.110620117187494L199.67651041666667,36.08859283447265L201.00030598958332,36.09918548583984L196.61974609375,36.08370391845703L196.88450520833334,36.08671875L197.07705729166668,36.10567687988281L198.23236979166668,36.07036804199218L199.77278645833334,36.045L199.84499348958332,36.03842712402344L200.5911328125,36.02788879394531L200.83182291666668,36.033157958984376L201.00030598958332,36.04323455810547L201.43354817708334,36.06526184082031L202.80548177083335,36.06069885253906L203.28686197916667,36.0662124633789L203.35906901041665,36.06221984863281L203.86451822916666,36.06604949951172L198.93037109374998,35.89952758789063L201.12065104166666,35.849606323242185L201.1687890625,35.84642852783203L201.93899739583335,35.878125L202.37223958333334,35.89417694091797L202.1796875,35.9615625L202.80548177083335,35.97525146484375L203.86451822916666,36.04174072265624L205.18831380208334,36.045L206.68059244791667,36.036091308593754L206.99348958333334,36.026449279785155L202.20375651041664,35.599999999999994L202.9017578125,35.785425720214846L203.84044921875,35.80153198242188L205.40493489583332,35.86981384277344L210.57977213541665,35.91079925537109L205.47714192708335,35.97584899902344L206.10293619791668,35.82073455810547L206.63245442708333,35.79631713867188L207.08976562499998,35.78719116210938L207.57114583333333,35.82429260253906L207.69149088541667,35.815601196289066L208.07659505208335,35.83015930175782L208.36542317708336,35.830295104980465L208.75052734375,35.841159362792965L209.400390625,35.864218750000006L211.03708333333333,35.82831237792969L212.21646484375,35.88953247070313L212.52936197916668,35.9034115600586L212.72191406250002,35.91267333984375L208.00438802083332,35.931088256835935L209.73735677083332,35.89276458740234L210.53163411458334,35.883801574707036L210.7001171875,35.87090026855469L210.91673828125,35.87301879882813L212.12018880208336,35.900315246582025L212.19239583333334,35.90903381347657L212.69784505208335,35.893389282226565L212.98667317708336,35.91275482177734L213.44398437499999,35.94246856689453L213.90129557291667,35.91978942871094L210.17059895833333,35.947656249999994L212.12018880208336,35.91997955322266L212.1442578125,35.91715484619141L212.96260416666667,35.90066833496094L213.41991536458335,35.91642150878906L214.52708984375002,35.900315246582025L216.26005859375002,35.91229309082031L216.38040364583333,35.92609069824219L217.00619791666665,35.95205627441406L218.11337239583332,35.96878723144532L218.47440755208333,35.97625640869141L213.44398437499999,35.681807861328124L214.47895182291668,35.70022277832031L214.96033203125,35.72738342285156L215.10474609375,35.72181549072266L215.41764322916666,35.74832427978515L216.09157552083332,35.724993286132815L217.12654296875002,35.72583526611328L219.70192708333335,35.74414154052734L220.30365234375,35.76546264648438L220.47213541666665,35.785425720214846L220.56841145833334,35.79102081298828L215.94716145833334,35.831761779785154L216.01936848958334,35.822500000000005L216.98212890624998,35.81766540527343L219.24461588541666,35.83952972412109L219.58158203125,35.82448272705078L219.99075520833335,35.80859375L220.01482421875002,35.807724609375L221.02572265625,35.796561584472656L223.4085546875,35.81842590332032L220.56841145833334,35.80351470947265L221.84406901041666,35.817882690429684L224.44352213541666,35.84816680908203L224.70828125,35.84004577636719L220.6646875,35.927204284667965L222.08475911458333,35.86280639648437L222.9753125,35.888310241699216L223.48076171875002,35.85558166503907L224.37131510416668,35.83803588867187L225.23779947916668,35.826383972167974L225.26186848958335,35.825514831542975L225.86359375,35.81543823242187L227.35587239583333,35.81704071044922L222.06069010416667,35.599999999999994L222.686484375,35.599999999999994L223.64924479166666,35.66045959472656L224.75641927083333,35.66045959472656L226.32090494791666,35.69590423583985L226.48938802083333,35.705953674316405L226.68194010416667,35.72757354736328L227.83725260416668,35.75682556152344L228.05387369791666,35.75169219970704L229.4739453125,35.758210754394526L229.78684244791665,35.76030212402344L226.27276692708332,35.84784088134765L226.56159505208333,35.84612976074219L227.35587239583333,35.84765075683593L228.36677083333333,35.88108551025391L229.9312565104167,35.896811523437506L231.71236328125,35.86367553710937L232.84360677083333,35.85283843994141L226.70600911458334,35.89276458740234L227.40401041666667,35.773828124999994L228.10201171875,35.74446746826172L228.41490885416667,35.72360809326172L228.48711588541667,35.71961547851562L230.07567057291666,35.75742309570313L230.14787760416664,35.754516906738274L231.18284505208334,35.74924774169922L232.12153645833334,35.78238372802734L232.36222656249998,35.797104797363275L233.71009114583333,35.84224578857422L229.88311848958335,35.81812713623047L230.0516015625,35.79180847167969L230.07567057291666,35.78854919433594L230.24415364583334,35.85283843994141L231.80863932291666,35.79107513427735L232.48257161458332,35.75742309570313L232.77139973958333,35.7463687133789L233.084296875,35.7511489868164L233.25277994791665,35.76016632080078L235.99664713541668,35.76413177490234L236.09292317708335,35.77100341796876L236.74278645833334,35.76554412841797L236.79092447916665,35.764566345214845L231.39946614583334,35.798652954101556L231.95305338541667,35.750334167480474L233.63788411458333,35.75595642089844L233.87857421875,35.74262054443359L234.28774739583335,35.74528228759766L234.45623046875,35.73808471679688L234.52843750000002,35.73520568847657L234.86540364583334,35.776028137207035L235.13016276041668,35.797485046386726L238.40354817708334,35.78238372802734L239.2941015625,35.79517639160156L233.61381510416666,36.06355072021485L233.78229817708333,36.02788879394531L235.34678385416666,35.956564941406256L235.94850911458332,35.87003112792969L236.16513020833332,35.873154602050775L236.45395833333333,35.84672729492188L236.91126953125,35.85283843994141L237.32044270833333,35.8259765625L237.68147786458331,35.822500000000005L238.62016927083334,35.84694458007813L238.90899739583335,35.84612976074219L239.51072265625,35.832685241699224L240.23279296875,35.80786041259766L240.40127604166668,35.80280853271485L241.79727864583333,35.792922058105475L235.90037109374998,35.599999999999994L236.35768229166666,35.878125L236.52616536458333,35.80601348876954L237.63333984375,35.79050476074218L238.88492838541666,35.80025543212891L238.9571354166667,35.839013671874994L239.79955078125002,35.924189453124995L242.03796875,35.849877929687494L242.85631510416667,35.82057159423829L242.92852213541664,35.82782348632813L244.18011067708335,35.80959869384766L244.20417968750002,35.80900115966797L244.70962890624997,35.81220611572266L239.02934244791666,35.689711608886725L239.67920572916665,35.74386993408203L241.12334635416667,35.76500091552734L241.14741536458334,35.763615722656255L241.77320963541666,35.810983886718745L242.06203776041664,35.812586364746096L242.42307291666668,35.826383972167974L242.904453125,35.817285156249994L243.12107421875,35.849063110351565L243.33769531250002,35.86487060546875L244.05976562499998,35.85495697021484L245.23914713541666,35.850203857421874L246.56294270833334,35.891053466796876L247.33315104166664,35.88847320556641L240.85858723958333,35.599999999999994L242.615625,35.912890625L244.4930078125,35.79362823486328L246.27411458333333,35.83977416992188L247.45349609375,35.86723358154296L248.31998046875,35.83689514160156L249.81225911458333,35.834830932617194L244.66149088541667,35.728361206054686L244.73369791666667,35.72271179199218L246.56294270833334,35.71589447021485L247.06839192708335,35.70114624023438L247.26094401041667,35.712526550292964L247.5738411458333,35.74951934814453L247.62197916666665,35.747944030761715L247.76639322916668,35.743353881835944L249.3068098958333,35.75093170166015L250.12515625,35.76193176269531L250.17329427083334,35.76081817626954L250.19736328124998,35.760274963378905L252.26729817708332,35.760600891113285L252.33950520833335,35.75935150146485L245.98528645833335,35.878125L250.10108723958334,35.774751586914064L250.2695703125,35.76855895996094L251.858125,35.800173950195315L251.9784700520833,35.79645294189453L252.98936848958334,35.868292846679694L254.48164713541667,35.84607543945313L254.89082031249998,35.83534698486328L254.91488932291668,35.83496673583984L249.49936197916668,35.8949917602539L249.98074218750003,35.891053466796876L250.87129557291667,35.91655731201172L250.89536458333333,35.91400421142578L250.96757161458333,35.950399475097655L252.55612630208333,35.88820159912109L253.80771484375,35.84974212646485L254.16875,35.84602111816406L254.52978515625,35.85283843994141L254.91488932291668,35.84849273681641L255.22778645833336,35.837872924804685L256.07020182291666,35.82152221679688L256.52751302083334,35.81752960205078L256.69599609375,35.81334686279297L255.29999348958333,35.90903381347657L256.74413411458335,35.881248474121094L257.4662044270833,35.89966339111328L257.923515625,35.890455932617186L253.06157552083332,36.195986022949214L254.00026692708332,35.914846191406255L254.09654296875001,35.89276458740234L254.3131640625,35.8949917602539L254.457578125,35.90903381347657L255.05930338541665,35.8867349243164L256.43123697916667,35.88896209716796L257.4662044270833,35.896485595703126L259.9453125,35.92448822021484L261.41352213541666,35.95439208984375L255.73323567708331,36.045L256.52751302083334,35.79180847167969L257.41806640625,35.7463687133789L259.15103515625,35.76654907226562L259.29544921875004,35.776842956542964L259.5120703125,35.7680972290039L260.811796875,35.76500091552734L262.61697265625,35.74308227539062L262.85766276041664,35.738627929687496L263.43531901041666,35.737052612304694L258.16420572916667,35.599999999999994L260.28227864583334,35.697588195800776L261.12469401041665,35.69332397460937L262.59290364583336,35.71920806884765L263.05021484375,35.72146240234375L264.0851822916667,35.72271179199218L265.7459440104167,35.730506896972656L260.30634765625,35.785425720214846L260.8358658854167,35.750334167480474L263.91669921875,35.76855895996094L266.34766927083336,35.798652954101556L267.67146484375,35.79061340332031L268.0325,35.78211212158203L262.6891796875,35.99733306884765L263.50752604166667,35.773828124999994L265.2886328125,35.827959289550776L265.6737369791667,35.80153198242188L265.93849609374996,35.805334472656256L266.75684244791665,35.79756652832032L268.68236328125,35.7586181640625L270.15057291666665,35.74593414306641L270.1746419270833,35.74547241210938L270.5356770833333,35.74723785400391L271.57064453125,35.74522796630859L265.0479427083333,35.599999999999994L266.08291015625,35.95398468017578L266.2032552083333,35.92448822021484L267.9362239583333,35.810712280273435L271.32995442708335,35.82412963867188L271.40216145833335,35.82168518066406L271.88354166666664,35.825514831542975L271.9076106770833,35.82475433349609L271.9798177083333,35.822500000000005L274.17009765625,35.806475219726565" style="fill: none;" fill="none"></path></g></g></g></g></g></g><g transform="translate(41, 178)" clip-path="url(#clip_1)"><clipPath id="clip_1"><rect width="288" height="22"></rect></clipPath><g><g><line x1="0" y1="0" x2="0" y2="5" style="visibility: inherit;" fill="rgb(0, 0, 0)" stroke="rgb(204, 204, 204)" stroke-width="1px"></line><line x1="24.069010416666664" y1="0" x2="24.069010416666664" y2="5" style="visibility: inherit;" fill="rgb(0, 0, 0)" stroke="rgb(204, 204, 204)" stroke-width="1px"></line><line x1="48.13802083333333" y1="0" x2="48.13802083333333" y2="5" style="visibility: inherit;" fill="rgb(0, 0, 0)" stroke="rgb(204, 204, 204)" stroke-width="1px"></line><line x1="72.20703125" y1="0" x2="72.20703125" y2="5" style="visibility: inherit;" fill="rgb(0, 0, 0)" stroke="rgb(204, 204, 204)" stroke-width="1px"></line><line x1="96.27604166666666" y1="0" x2="96.27604166666666" y2="5" style="visibility: inherit;" fill="rgb(0, 0, 0)" stroke="rgb(204, 204, 204)" stroke-width="1px"></line><line x1="120.34505208333334" y1="0" x2="120.34505208333334" y2="5" style="visibility: inherit;" fill="rgb(0, 0, 0)" stroke="rgb(204, 204, 204)" stroke-width="1px"></line><line x1="144.4140625" y1="0" x2="144.4140625" y2="5" style="visibility: inherit;" fill="rgb(0, 0, 0)" stroke="rgb(204, 204, 204)" stroke-width="1px"></line><line x1="168.48307291666669" y1="0" x2="168.48307291666669" y2="5" style="visibility: inherit;" fill="rgb(0, 0, 0)" stroke="rgb(204, 204, 204)" stroke-width="1px"></line><line x1="192.55208333333331" y1="0" x2="192.55208333333331" y2="5" style="visibility: inherit;" fill="rgb(0, 0, 0)" stroke="rgb(204, 204, 204)" stroke-width="1px"></line><line x1="216.62109375" y1="0" x2="216.62109375" y2="5" style="visibility: inherit;" fill="rgb(0, 0, 0)" stroke="rgb(204, 204, 204)" stroke-width="1px"></line><line x1="240.69010416666669" y1="0" x2="240.69010416666669" y2="5" style="visibility: inherit;" fill="rgb(0, 0, 0)" stroke="rgb(204, 204, 204)" stroke-width="1px"></line><line x1="264.7591145833333" y1="0" x2="264.7591145833333" y2="5" style="visibility: inherit;" fill="rgb(0, 0, 0)" stroke="rgb(204, 204, 204)" stroke-width="1px"></line><line x1="288.828125" y1="0" x2="288.828125" y2="5" style="visibility: inherit;" fill="rgb(0, 0, 0)" stroke="rgb(204, 204, 204)" stroke-width="1px"></line></g><g transform="translate(0, 8)"><text x="0" y="0" dx="0em" dy="0.95em" style="text-anchor: middle; visibility: hidden; font-family: Roboto, sans-serif; font-size: 12px; font-weight: 200;" fill="rgb(50, 49, 63)" stroke="none" stroke-width="1px">-1k</text><text x="24.069010416666664" y="0" dx="0em" dy="0.95em" style="text-anchor: middle; visibility: inherit; font-family: Roboto, sans-serif; font-size: 12px; font-weight: 200;" fill="rgb(50, 49, 63)" stroke="none" stroke-width="1px">0</text><text x="48.13802083333333" y="0" dx="0em" dy="0.95em" style="text-anchor: middle; visibility: inherit; font-family: Roboto, sans-serif; font-size: 12px; font-weight: 200;" fill="rgb(50, 49, 63)" stroke="none" stroke-width="1px">1k</text><text x="72.20703125" y="0" dx="0em" dy="0.95em" style="text-anchor: middle; visibility: inherit; font-family: Roboto, sans-serif; font-size: 12px; font-weight: 200;" fill="rgb(50, 49, 63)" stroke="none" stroke-width="1px">2k</text><text x="96.27604166666666" y="0" dx="0em" dy="0.95em" style="text-anchor: middle; visibility: inherit; font-family: Roboto, sans-serif; font-size: 12px; font-weight: 200;" fill="rgb(50, 49, 63)" stroke="none" stroke-width="1px">3k</text><text x="120.34505208333334" y="0" dx="0em" dy="0.95em" style="text-anchor: middle; visibility: inherit; font-family: Roboto, sans-serif; font-size: 12px; font-weight: 200;" fill="rgb(50, 49, 63)" stroke="none" stroke-width="1px">4k</text><text x="144.4140625" y="0" dx="0em" dy="0.95em" style="text-anchor: middle; visibility: inherit; font-family: Roboto, sans-serif; font-size: 12px; font-weight: 200;" fill="rgb(50, 49, 63)" stroke="none" stroke-width="1px">5k</text><text x="168.48307291666669" y="0" dx="0em" dy="0.95em" style="text-anchor: middle; visibility: inherit; font-family: Roboto, sans-serif; font-size: 12px; font-weight: 200;" fill="rgb(50, 49, 63)" stroke="none" stroke-width="1px">6k</text><text x="192.55208333333331" y="0" dx="0em" dy="0.95em" style="text-anchor: middle; visibility: inherit; font-family: Roboto, sans-serif; font-size: 12px; font-weight: 200;" fill="rgb(50, 49, 63)" stroke="none" stroke-width="1px">7k</text><text x="216.62109375" y="0" dx="0em" dy="0.95em" style="text-anchor: middle; visibility: inherit; font-family: Roboto, sans-serif; font-size: 12px; font-weight: 200;" fill="rgb(50, 49, 63)" stroke="none" stroke-width="1px">8k</text><text x="240.69010416666669" y="0" dx="0em" dy="0.95em" style="text-anchor: middle; visibility: inherit; font-family: Roboto, sans-serif; font-size: 12px; font-weight: 200;" fill="rgb(50, 49, 63)" stroke="none" stroke-width="1px">9k</text><text x="264.7591145833333" y="0" dx="0em" dy="0.95em" style="text-anchor: middle; visibility: inherit; font-family: Roboto, sans-serif; font-size: 12px; font-weight: 200;" fill="rgb(50, 49, 63)" stroke="none" stroke-width="1px">10k</text><text x="288.828125" y="0" dx="0em" dy="0.95em" style="text-anchor: middle; visibility: hidden; font-family: Roboto, sans-serif; font-size: 12px; font-weight: 200;" fill="rgb(50, 49, 63)" stroke="none" stroke-width="1px">11k</text></g><line x1="0" y1="0" x2="288.828125" y2="0" fill="rgb(0, 0, 0)" stroke="rgb(204, 204, 204)" stroke-width="1px"></line></g></g></g></g></svg>