<svg viewBox="0 0 330 200" xmlns="http://www.w3.org/2000/svg"><g><g><g><g><g><line x1="51.5625" y1="178" x2="46.5625" y2="178" style="visibility: inherit;" fill="rgb(0, 0, 0)" stroke="rgb(204, 204, 204)" stroke-width="1px"></line><line x1="51.5625" y1="155.75" x2="46.5625" y2="155.75" style="visibility: inherit;" fill="rgb(0, 0, 0)" stroke="rgb(204, 204, 204)" stroke-width="1px"></line><line x1="51.5625" y1="133.5" x2="46.5625" y2="133.5" style="visibility: inherit;" fill="rgb(0, 0, 0)" stroke="rgb(204, 204, 204)" stroke-width="1px"></line><line x1="51.5625" y1="111.24999999999999" x2="46.5625" y2="111.24999999999999" style="visibility: inherit;" fill="rgb(0, 0, 0)" stroke="rgb(204, 204, 204)" stroke-width="1px"></line><line x1="51.5625" y1="88.99999999999999" x2="46.5625" y2="88.99999999999999" style="visibility: inherit;" fill="rgb(0, 0, 0)" stroke="rgb(204, 204, 204)" stroke-width="1px"></line><line x1="51.5625" y1="66.75" x2="46.5625" y2="66.75" style="visibility: inherit;" fill="rgb(0, 0, 0)" stroke="rgb(204, 204, 204)" stroke-width="1px"></line><line x1="51.5625" y1="44.5" x2="46.5625" y2="44.5" style="visibility: inherit;" fill="rgb(0, 0, 0)" stroke="rgb(204, 204, 204)" stroke-width="1px"></line><line x1="51.5625" y1="22.25" x2="46.5625" y2="22.25" style="visibility: inherit;" fill="rgb(0, 0, 0)" stroke="rgb(204, 204, 204)" stroke-width="1px"></line><line x1="51.5625" y1="0" x2="46.5625" y2="0" style="visibility: inherit;" fill="rgb(0, 0, 0)" stroke="rgb(204, 204, 204)" stroke-width="1px"></line></g><g transform="translate(41.5625, 0)"><text x="0" y="178" dx="0em" dy="0.3em" style="text-anchor: end; visibility: hidden; font-family: Roboto, sans-serif; font-size: 12px; font-weight: 200;" fill="rgb(50, 49, 63)" stroke="none" stroke-width="1px">-0.1</text><text x="0" y="155.75" dx="0em" dy="0.3em" style="text-anchor: end; visibility: inherit; font-family: Roboto, sans-serif; font-size: 12px; font-weight: 200;" fill="rgb(50, 49, 63)" stroke="none" stroke-width="1px">0</text><text x="0" y="133.5" dx="0em" dy="0.3em" style="text-anchor: end; visibility: hidden; font-family: Roboto, sans-serif; font-size: 12px; font-weight: 200;" fill="rgb(50, 49, 63)" stroke="none" stroke-width="1px">0.1</text><text x="0" y="111.24999999999999" dx="0em" dy="0.3em" style="text-anchor: end; visibility: inherit; font-family: Roboto, sans-serif; font-size: 12px; font-weight: 200;" fill="rgb(50, 49, 63)" stroke="none" stroke-width="1px">0.2</text><text x="0" y="88.99999999999999" dx="0em" dy="0.3em" style="text-anchor: end; visibility: hidden; font-family: Roboto, sans-serif; font-size: 12px; font-weight: 200;" fill="rgb(50, 49, 63)" stroke="none" stroke-width="1px">0.3</text><text x="0" y="66.75" dx="0em" dy="0.3em" style="text-anchor: end; visibility: inherit; font-family: Roboto, sans-serif; font-size: 12px; font-weight: 200;" fill="rgb(50, 49, 63)" stroke="none" stroke-width="1px">0.4</text><text x="0" y="44.5" dx="0em" dy="0.3em" style="text-anchor: end; visibility: hidden; font-family: Roboto, sans-serif; font-size: 12px; font-weight: 200;" fill="rgb(50, 49, 63)" stroke="none" stroke-width="1px">0.5</text><text x="0" y="22.25" dx="0em" dy="0.3em" style="text-anchor: end; visibility: inherit; font-family: Roboto, sans-serif; font-size: 12px; font-weight: 200;" fill="rgb(50, 49, 63)" stroke="none" stroke-width="1px">0.6</text><text x="0" y="0" dx="0em" dy="0.3em" style="text-anchor: end; visibility: hidden; font-family: Roboto, sans-serif; font-size: 12px; font-weight: 200;" fill="rgb(50, 49, 63)" stroke="none" stroke-width="1px">0.7</text></g><line x1="51.5625" y1="0" x2="51.5625" y2="178" fill="rgb(0, 0, 0)" stroke="rgb(204, 204, 204)" stroke-width="1px"></line></g></g><g transform="translate(51, 0)" clip-path="url(#clip_0)"><clipPath id="clip_0"><rect width="278" height="178"></rect></clipPath><g><g><g><line x1="0" y1="0" x2="0" y2="178" fill="rgb(0, 0, 0)" stroke="rgb(60, 60, 60)" stroke-width="1px" opacity="0.25"></line><line x1="23.203125" y1="0" x2="23.203125" y2="178" fill="rgb(0, 0, 0)" stroke="rgb(60, 60, 60)" stroke-width="1px" opacity="0.25"></line><line x1="46.40625" y1="0" x2="46.40625" y2="178" fill="rgb(0, 0, 0)" stroke="rgb(60, 60, 60)" stroke-width="1px" opacity="0.25"></line><line x1="69.609375" y1="0" x2="69.609375" y2="178" fill="rgb(0, 0, 0)" stroke="rgb(60, 60, 60)" stroke-width="1px" opacity="0.25"></line><line x1="92.8125" y1="0" x2="92.8125" y2="178" fill="rgb(0, 0, 0)" stroke="rgb(60, 60, 60)" stroke-width="1px" opacity="0.25"></line><line x1="116.015625" y1="0" x2="116.015625" y2="178" fill="rgb(0, 0, 0)" stroke="rgb(60, 60, 60)" stroke-width="1px" opacity="0.25"></line><line x1="139.21875" y1="0" x2="139.21875" y2="178" fill="rgb(0, 0, 0)" stroke="rgb(60, 60, 60)" stroke-width="1px" opacity="0.25"></line><line x1="162.421875" y1="0" x2="162.421875" y2="178" fill="rgb(0, 0, 0)" stroke="rgb(60, 60, 60)" stroke-width="1px" opacity="0.25"></line><line x1="185.625" y1="0" x2="185.625" y2="178" fill="rgb(0, 0, 0)" stroke="rgb(60, 60, 60)" stroke-width="1px" opacity="0.25"></line><line x1="208.828125" y1="0" x2="208.828125" y2="178" fill="rgb(0, 0, 0)" stroke="rgb(60, 60, 60)" stroke-width="1px" opacity="0.25"></line><line x1="232.03125" y1="0" x2="232.03125" y2="178" fill="rgb(0, 0, 0)" stroke="rgb(60, 60, 60)" stroke-width="1px" opacity="0.25"></line><line x1="255.234375" y1="0" x2="255.234375" y2="178" fill="rgb(0, 0, 0)" stroke="rgb(60, 60, 60)" stroke-width="1px" opacity="0.25"></line><line x1="278.4375" y1="0" x2="278.4375" y2="178" fill="rgb(0, 0, 0)" stroke="rgb(60, 60, 60)" stroke-width="1px" opacity="0.25"></line></g><g><line x1="0" y1="178" x2="278.4375" y2="178" fill="rgb(0, 0, 0)" stroke="rgb(60, 60, 60)" stroke-width="1px" opacity="0.25"></line><line x1="0" y1="155.75" x2="278.4375" y2="155.75" fill="rgb(0, 0, 0)" stroke="rgb(60, 60, 60)" stroke-width="1px" opacity="0.25"></line><line x1="0" y1="133.5" x2="278.4375" y2="133.5" fill="rgb(0, 0, 0)" stroke="rgb(60, 60, 60)" stroke-width="1px" opacity="0.25"></line><line x1="0" y1="111.24999999999999" x2="278.4375" y2="111.24999999999999" fill="rgb(0, 0, 0)" stroke="rgb(60, 60, 60)" stroke-width="1px" opacity="0.25"></line><line x1="0" y1="88.99999999999999" x2="278.4375" y2="88.99999999999999" fill="rgb(0, 0, 0)" stroke="rgb(60, 60, 60)" stroke-width="1px" opacity="0.25"></line><line x1="0" y1="66.75" x2="278.4375" y2="66.75" fill="rgb(0, 0, 0)" stroke="rgb(60, 60, 60)" stroke-width="1px" opacity="0.25"></line><line x1="0" y1="44.5" x2="278.4375" y2="44.5" fill="rgb(0, 0, 0)" stroke="rgb(60, 60, 60)" stroke-width="1px" opacity="0.25"></line><line x1="0" y1="22.25" x2="278.4375" y2="22.25" fill="rgb(0, 0, 0)" stroke="rgb(60, 60, 60)" stroke-width="1px" opacity="0.25"></line><line x1="0" y1="0" x2="278.4375" y2="0" fill="rgb(0, 0, 0)" stroke="rgb(60, 60, 60)" stroke-width="1px" opacity="0.25"></line></g></g></g><g><g><line x1="0" y1="155.75" x2="278.4375" y2="155.75" fill="rgb(0, 0, 0)" stroke="rgb(153, 153, 153)" stroke-width="1.5px"></line></g></g><g><g><line x1="23.203125" y1="0" x2="23.203125" y2="178" fill="rgb(0, 0, 0)" stroke="rgb(153, 153, 153)" stroke-width="1.5px"></line></g></g><g><g><g><g><g><path stroke="rgb(0, 119, 187)" stroke-width="2px" d="M32.484375,-1.2737415434419295L32.484375,1.335586986009081L32.484375,3.274181422359143L32.484375,9.167778121208316L34.8046875,13.78668566676949L34.8046875,15.592028968380578L34.8046875,19.874758876831265L34.8046875,21.619280838858124L34.8046875,19.105074371016695L34.8046875,22.213032511843572L37.125,29.77070501456857L37.125,34.82744007765284L37.125,39.12965776028661L37.125,41.71961134385281L37.125,40.250524185333745L37.125,38.48116283547525L37.125,39.80025609095949L37.125,42.61494399763554L37.125,40.427457986213845L39.4453125,42.84230067011423L39.4453125,48.51263088987887L39.4453125,47.77769789699639L39.4453125,49.44529267313497L39.4453125,47.612660110964455L39.4453125,46.43509716449606L39.4453125,50.05596887265727L39.4453125,48.970686639518014L39.4453125,51.27577839801942L39.4453125,53.1673024684801L41.765625,53.50411038938845L41.765625,59.61908337082681L41.765625,62.03497740391623L41.765625,60.387351577065765L41.765625,59.164801981796245L41.765625,58.07627411290967L41.765625,58.89337581160642L41.765625,60.08681636907445L41.765625,61.181631117211495L41.765625,59.4843843633811L44.0859375,62.755885055952064L44.0859375,62.48302943187524L44.0859375,62.989717153773114L44.0859375,64.34607479456986L44.0859375,67.38081581284955L44.0859375,67.81832688981505L46.40625,70.27581943234331L46.40625,74.28662846184093L46.40625,76.90729837236591L46.40625,75.28371735583417L46.40625,74.66783462268515L46.40625,74.14968267859463L46.40625,73.68704732526209L46.40625,73.21005552571334L46.40625,73.3858990821917L48.7265625,75.7626716764974L48.7265625,77.25755192471787L48.7265625,78.43842816730287L48.7265625,79.76974961388078L48.7265625,78.84305378930551L48.7265625,78.41171267114152L48.7265625,77.9197084038381L48.7265625,78.31636490994238L48.7265625,80.28201982720817L48.7265625,81.63750871028974L51.04687499999999,84.57548854950949L51.04687499999999,83.4546568167441L51.04687499999999,84.45551872087914L51.04687499999999,85.67063297530053L51.04687499999999,87.1679048162701L51.04687499999999,85.13809050452723L53.36718750000001,88.12156637508876L53.36718750000001,91.56630806922439L53.36718750000001,89.82773459434227L53.36718750000001,87.18946760582753L53.36718750000001,89.96235334091084L53.36718750000001,89.77609742410598L53.36718750000001,88.10325665311585L53.36718750000001,88.36416665337426L53.36718750000001,89.30215410364832L53.36718750000001,87.78789198382596L53.36718750000001,88.99900286784111L53.36718750000001,89.95265175336802L55.6875,93.5422905530584L55.6875,95.561429711941L55.6875,97.76879245505519L55.6875,98.59206835905186L55.6875,96.68630608009977L55.6875,97.88511479549217L55.6875,94.75374208481675L55.6875,91.59110587591866L55.6875,93.7817422434982L55.6875,94.72519825013258L55.6875,92.61861138410438L58.0078125,96.43334039072434L58.0078125,95.90950075400019L58.0078125,96.74743957288352L58.0078125,98.32009752075246L58.0078125,97.41748063254578L58.0078125,96.47197548442018L58.0078125,94.87267399962505L58.0078125,96.026477713202L60.328125,98.9693482391921L60.328125,100.75567842858358L60.328125,103.99475141964749L60.328125,103.1274597352886L60.328125,101.74535359776876L60.328125,101.79810930095232L60.328125,102.68590788127253L60.328125,102.09962550152105L60.328125,100.80747047870614L62.6484375,103.67991170471461L62.6484375,104.81507263592216L62.6484375,104.8002386838873L62.6484375,104.19599502090689L62.6484375,102.28646312239216L62.6484375,102.42849141110447L62.6484375,102.67073086052815L64.96875,104.29770758241226L64.96875,105.68690118783597L64.96875,105.02553552743126L64.96875,103.96925356004434L64.96875,105.75540629931567L64.96875,105.9509019160764L67.2890625,108.87620676484684L67.2890625,110.15063300387251L67.2890625,109.35395617876166L67.2890625,108.39481544550485L67.2890625,111.53774923119681L67.2890625,112.04154328425965L67.2890625,111.56998138976239L67.2890625,110.26210523755637L67.2890625,109.58555795318654L67.2890625,106.17473793367606L69.609375,108.74145089292561L69.609375,110.3273905021193L69.609375,109.19188418997778L69.609375,109.98907300539884L69.609375,110.84527865474266L69.609375,108.44882518604304L71.92968750000001,109.38176438841165L71.92968750000001,112.2968862720307L71.92968750000001,112.88674362408973L71.92968750000001,110.17024928872503L71.92968750000001,109.65384230044313L71.92968750000001,110.14216563419598L71.92968750000001,111.37723481247482L74.25,113.47988929503954L74.25,116.27714058252451L74.25,115.08685781653091L74.25,114.85173137244799L74.25,114.98870729957355L74.25,113.97570484909018L74.25,113.47527014930604L74.25,110.98948058914876L74.25,112.22639836628278L74.25,112.19390570079709L74.25,114.08860161575927L74.25,114.08284989102636L74.25,113.706806004667L76.5703125,117.97725171185952L76.5703125,117.75380911432158L76.5703125,117.58543998004467L76.5703125,116.93432526589316L76.5703125,117.92030060172605L76.5703125,114.69434050846415L76.5703125,116.33490493076036L76.5703125,115.06444193826312L76.5703125,116.33529089931362L76.5703125,115.72232317056488L78.890625,117.59048291520017L78.890625,116.76562228188358L78.890625,117.28390536538029L78.890625,117.71673738855876L78.890625,116.30364857851718L78.890625,117.79292498969586L78.890625,117.9122214939806L78.890625,118.20023976126987L78.890625,118.64907342409896L78.890625,118.55293165871981L78.890625,118.23643403786113L78.890625,119.4091749223333L78.890625,118.38398474945195L81.2109375,121.01580766733628L81.2109375,121.54609604714001L81.2109375,120.88754285596421L81.2109375,121.87651234699851L81.2109375,119.53257245322206L81.2109375,119.96126812994562L81.2109375,119.9133036005502L81.2109375,122.04991124677689L81.2109375,121.38765775029677L81.2109375,119.25160134354124L83.53125,122.56236168753439L83.53125,122.75397539741597L83.53125,122.66346698168992L83.53125,123.24315609433698L83.53125,120.2500445091632L83.53125,119.74785046243113L83.53125,120.78068001248504L83.53125,122.52419847952164L83.53125,121.91051567618155L83.53125,120.54598379447519L85.8515625,121.94426023253477L85.8515625,120.55143009894297L85.8515625,122.71563714309458L85.8515625,119.66994226613L85.8515625,121.78836091541262L85.8515625,120.30192766894704L85.8515625,122.16632541900759L85.8515625,122.7246564172857L85.8515625,120.8388797696324L85.8515625,121.57289915119956L88.171875,121.85184287032695L88.171875,123.27374176681762L88.171875,124.21299281418756L88.171875,124.58993602216503L88.171875,123.14036179435409L88.171875,124.08640050501917L88.171875,124.66766108042772L88.171875,123.75433733741507L88.171875,123.09154560375252L88.171875,123.91283445482277L88.171875,124.19976641788973L88.171875,122.11072104009924L88.171875,121.7749947001513L90.4921875,124.57132087588167L90.4921875,128.0051735978714L90.4921875,125.17855520495125L90.4921875,126.08697964816302L90.4921875,128.2449820537508L90.4921875,126.8447387039149L90.4921875,126.17429102179312L90.4921875,125.45206126699988L90.4921875,124.30224603492107L90.4921875,120.6606937442904L90.4921875,123.38776360718519L90.4921875,123.41797062020368L92.8125,125.08786385512869L92.8125,128.5126367107422L92.8125,127.71508502634711L92.8125,128.33594873948303L92.8125,126.36764644624834L92.8125,125.39731523121623L92.8125,127.34153851851956L92.8125,125.33214769056521L92.8125,124.42339707488466L95.1328125,127.39747395857958L95.1328125,128.08924391117566L95.1328125,129.6505852103047L95.1328125,130.3990173926838L95.1328125,128.7782718027167L95.1328125,126.72872187701059L95.1328125,127.37349945311064L95.1328125,127.21676983537863L95.1328125,126.37417913140409L95.1328125,126.69670873082609L95.1328125,125.55409385977346L95.1328125,125.02322788368559L95.1328125,126.59914866585073L97.453125,128.13447967766845L97.453125,128.27126414983942L97.453125,128.60268758630437L97.453125,128.12477278647233L97.453125,128.88774568401223L97.453125,129.98461355306176L97.453125,127.9069292845575L97.453125,128.79518119110153L97.453125,129.16795017935925L97.453125,130.6412982903009L97.453125,130.62361420763048L99.7734375,131.53548494471616L99.7734375,130.4792640119404L99.7734375,128.82086430845322L99.7734375,129.44366856877602L99.7734375,130.72717038520932L99.7734375,130.2192902086899L99.7734375,129.61219171844277L99.7734375,129.8513359168908L99.7734375,130.12922585098391L99.7734375,129.12325322978762L99.7734375,129.00462110849062L102.09374999999999,128.6936165273895L102.09374999999999,129.57298154715957L102.09374999999999,130.95469938566842L102.09374999999999,129.30427622706029L102.09374999999999,131.29770069515902L102.09374999999999,131.4303969126713L102.09374999999999,130.4219231505258L102.09374999999999,131.00079897338526L102.09374999999999,127.73092605945097L102.09374999999999,129.6966523231663L102.09374999999999,131.41602193424688L104.4140625,131.84708842998495L104.4140625,131.24808190682978L104.4140625,133.0847500498262L104.4140625,130.10059111029906L104.4140625,130.04771787351967L104.4140625,130.05875337974192L104.4140625,131.28552751604295L104.4140625,130.14081019826875L104.4140625,128.90245361130323L106.73437500000001,129.4711164370232L106.73437500000001,132.0917526578935L106.73437500000001,132.30870815342857L106.73437500000001,131.9363863183629L106.73437500000001,134.09998020312617L106.73437500000001,132.5776295887317L106.73437500000001,133.608697240167L106.73437500000001,134.87883588797638L106.73437500000001,134.036909947555L106.73437500000001,131.60633854702755L106.73437500000001,131.1662228070834L106.73437500000001,130.05968467671505L109.0546875,132.50385063456793L109.0546875,133.93218870799123L109.0546875,134.20626483911502L109.0546875,133.727515819992L109.0546875,133.10165154983125L109.0546875,131.87132331609442L109.0546875,131.37222558784313L109.0546875,130.41590108590023L109.0546875,131.42807981143412L109.0546875,133.3722868860961L109.0546875,133.21668188132054L109.0546875,133.3703070110512L109.0546875,131.9957164392729L109.0546875,131.72983545904515L111.375,132.01436550524926L111.375,131.87961580072098L111.375,132.99826916136894L111.375,132.8451024611506L111.375,133.5443490472265L111.375,133.19433766763376L113.6953125,134.90931764937022L113.6953125,134.46835312215435L113.6953125,134.53249645065037L113.6953125,134.75408073413828L113.6953125,133.4169846275357L113.6953125,133.38129305385993L113.6953125,133.62221704598335L113.6953125,132.77754310325426L113.6953125,134.0637079719045L113.6953125,133.79889078547586L113.6953125,132.56004457539336L113.6953125,133.21178473750362L113.6953125,134.17975514065986L116.015625,134.25551185418226L116.015625,134.28960297202502L116.015625,134.29117449638508L116.015625,134.44115879545964L116.015625,134.09417863434766L116.015625,135.2842465117348L116.015625,135.88261644540862L116.015625,133.34438672511956L116.015625,135.7834641492318L116.015625,137.00279171204272L118.3359375,137.77913435063186L118.3359375,137.37914266742123L118.3359375,134.3478569719604L118.3359375,134.43263561328718L118.3359375,134.89119229495805L118.3359375,133.96864598709513L118.3359375,133.8285362346063L118.3359375,134.2819719790274L118.3359375,133.45963450991238L118.3359375,135.63112160994484L118.3359375,135.09674811770842L120.65625,136.4540278757234L120.65625,136.49130489049074L120.65625,137.16542577664683L120.65625,137.0791188563146L120.65625,138.187030567839L120.65625,136.48796866483346L120.65625,135.87007738290345L120.65625,137.6339338728077L120.65625,136.35154262532512L120.65625,134.45971943944525L120.65625,134.19670501953263L120.65625,135.72725335571707L122.9765625,137.04544924386465L122.9765625,137.3513443734534L122.9765625,136.61513622202202L122.9765625,136.69641420899464L122.9765625,137.24647459333323L122.9765625,137.0841087621163L122.9765625,136.85658274720376L122.9765625,134.6952298157231L122.9765625,134.56421246664618L125.296875,134.54185562453804L125.296875,136.2438013337382L125.296875,136.585198036273L125.296875,136.6127982639907L125.296875,135.93187291643846L125.296875,136.34227745069163L125.296875,136.18270327349364L125.296875,137.44448173165236L125.296875,135.57768930417248L125.296875,135.33703122241465L127.6171875,136.54130560429792L127.6171875,136.88742873979749L127.6171875,137.91636929460253L127.6171875,137.8763425859683L127.6171875,138.26248876380166L127.6171875,137.60727068857693L127.6171875,137.48829591468777L127.6171875,137.47121310946827L129.9375,139.26629188115885L129.9375,139.78844207051688L129.9375,137.9508876399594L129.9375,138.3683623907803L129.9375,139.13457655685178L129.9375,137.87870718852895L129.9375,138.4046535078658L129.9375,136.93382472896417L129.9375,136.86046269001864L129.9375,137.1676413533825L132.2578125,137.9254545788609L132.2578125,135.6166198742773L132.2578125,136.99629852577362L132.2578125,138.69815395715423L132.2578125,138.24882334138505L132.2578125,137.74383780309887L132.2578125,138.29094083576996L132.2578125,138.60964470785618L134.578125,137.50654097158764L134.578125,137.8415831327978L134.578125,137.52672925296685L134.578125,137.81434963764704L134.578125,137.56457517219755L134.578125,137.42444747789605L134.578125,138.7090345970029L134.578125,139.7602019564053L134.578125,140.04298419688584L134.578125,139.3355643164184L134.578125,138.02508985764183L134.578125,139.25879058996676L134.578125,138.66186120068932L136.8984375,139.58359058771077L136.8984375,140.26625266118967L136.8984375,140.86505071636512L136.8984375,141.54591032082723L136.8984375,141.9266321768754L136.8984375,139.62967539193588L136.8984375,137.88054699368692L136.8984375,138.63335510443102L136.8984375,137.93298502773314L136.8984375,138.42293501204412L136.8984375,139.00727589908934L139.21875,138.84729744782265L139.21875,137.52663718038926L139.21875,138.9037545286067L139.21875,140.29126922040865L139.21875,139.6517781928163L139.21875,138.6211483219255L139.21875,139.38792016887598L139.21875,137.91684288402755L139.21875,138.35816918534255L139.21875,137.73124705536495L139.21875,137.0974502639969L141.5390625,138.28755675864218L141.5390625,137.54843731738328L141.5390625,137.46912650327204L141.5390625,137.78978955036592L141.5390625,139.54623999021166L141.5390625,139.3113476176364L141.5390625,138.65242501731532L141.5390625,139.1449069075931L141.5390625,138.38891041387015L141.5390625,139.48913148110447L141.5390625,140.6744495984336L141.5390625,140.21929071136833L143.85937500000003,141.1028532425375L143.85937500000003,141.2327687838561L143.85937500000003,141.0608958795003L143.85937500000003,140.5520202231009L143.85937500000003,139.80252346763606L143.85937500000003,138.93210398030038L143.85937500000003,139.7447097740874L143.85937500000003,139.4738626475516L143.85937500000003,140.74720522659322L143.85937500000003,138.93644831417382L146.1796875,139.42003392331824L146.1796875,138.5591223457636L146.1796875,137.68893333042752L146.1796875,140.11326877260262L146.1796875,139.17731589665445L146.1796875,139.3755227526452L146.1796875,140.8578667938963L146.1796875,139.7632484778914L146.1796875,140.1493248906823L146.1796875,141.171222157305L146.1796875,140.70818827720018L148.5,140.3284876818748L148.5,139.258875665086L148.5,139.14533126921503L148.5,139.70948799145847L148.5,141.1830973726072L148.5,141.50627732807743L148.5,140.08810125162807L148.5,140.2729484833515L148.5,138.43347321881274L148.5,140.90416070928225L148.5,139.87844549930125L148.5,140.83207871804254L148.5,140.42433296465646L150.8203125,141.35705635144572L150.8203125,141.17081770714677L150.8203125,141.50795523027514L150.8203125,139.95016564696988L150.8203125,138.0137050763962L150.8203125,138.5066566491841L150.8203125,139.98887861443868L153.140625,140.94290797143165L153.140625,141.4163758962094L153.140625,141.0607611408078L153.140625,142.3468770314898L153.140625,142.91477674795067L153.140625,141.35977553607748L153.140625,141.6016112731798L153.140625,141.34414435278794L153.140625,141.22865789444103L153.140625,139.7707880142978L155.4609375,141.99622787333436L155.4609375,143.89520844621603L155.4609375,141.9794496599027L155.4609375,141.66280035693578L155.4609375,140.93213424843032L155.4609375,139.75697358704494L155.4609375,140.25101235215L157.78125,140.42788699987014L157.78125,140.71980889870213L157.78125,142.42184846391373L157.78125,142.00229284489208L157.78125,141.80888523354562L157.78125,139.4408658232953L157.78125,139.51629602233564L157.78125,140.11743956845996L157.78125,140.48634417827128L157.78125,140.0465328006458L157.78125,138.9107030813999L160.1015625,141.20916560203474L160.1015625,141.4890556099155L160.1015625,142.16723143232693L160.1015625,141.67764070435064L160.1015625,141.87070799725473L162.421875,143.57349589605462L162.421875,141.25348731511434L162.421875,141.73884700318334L162.421875,140.61239586669302L162.421875,142.29450445635973L162.421875,143.15842037581717L162.421875,142.22383492102213L162.421875,142.6596462222039L162.421875,142.77284092334506L164.7421875,143.75263129325268L164.7421875,142.38430352599357L164.7421875,141.99700851494632L164.7421875,141.79560631367303L164.7421875,141.5447135141655L164.7421875,142.66705852277065L164.7421875,143.00051617712964L164.7421875,141.53827942068094L164.7421875,140.5796716043634L164.7421875,141.02146948005455L164.7421875,141.6164392985445L164.7421875,141.77315951109182L164.7421875,141.36145957541615L167.0625,142.3853734358081L167.0625,143.76064650484497L167.0625,143.30903459872945L167.0625,142.79349069169845L167.0625,143.13126802964024L167.0625,139.31851959838278L169.38281249999997,141.20681201063874L169.38281249999997,142.32585801269582L169.38281249999997,142.75535296848994L169.38281249999997,142.6139784459864L169.38281249999997,142.93387850177854L169.38281249999997,141.49734261216264L169.38281249999997,142.3851206076535L169.38281249999997,141.6992727650638L171.703125,142.945586210247L171.703125,143.86209817722806L171.703125,143.78411173072678L171.703125,142.95901422051918L171.703125,142.7836380256613L171.703125,141.32303945144415L171.703125,141.72754772332547L174.0234375,142.97028958172942L174.0234375,142.85189796534982L174.0234375,144.1851283284891L174.0234375,144.30768497871568L174.0234375,143.7642167871428L174.0234375,143.46235400305582L174.0234375,142.05305897513864L174.0234375,143.80611442071103L174.0234375,143.1956161143893L174.0234375,141.70380017951214L174.0234375,141.79423089203289L174.0234375,143.78199930639298L176.34375,143.19004354939597L176.34375,142.36513318011603L176.34375,143.71160107487108L176.34375,142.7443214990715L176.34375,143.65566230419398L176.34375,143.5009758374281L176.34375,144.6037866697423L176.34375,143.08199341301395L176.34375,143.8685806621866L176.34375,143.36575763775446L176.34375,144.08477622853837L176.34375,143.73319725893214L176.34375,142.7663139698045L178.66406250000003,143.1804180888615L178.66406250000003,142.96135741014967L178.66406250000003,142.88376850583964L178.66406250000003,143.88849489807376L178.66406250000003,144.29864897009307L178.66406250000003,144.16340125606402L178.66406250000003,143.22715782228676L178.66406250000003,144.96500261040666L178.66406250000003,142.92999998725736L178.66406250000003,141.1279608771043L180.984375,142.0425865808032L180.984375,143.16945138924729L180.984375,144.65653367402203L180.984375,145.30709408931165L180.984375,144.83068848378792L180.984375,145.0707825547596L180.984375,141.46323485381248L180.984375,142.4879305322876L180.984375,142.6337507142073L180.984375,142.01231319895066L180.984375,142.28371198663518L180.984375,142.06195195728188L180.984375,142.09209653415468L180.984375,140.60388417201153L183.3046875,143.28288786355802L183.3046875,144.97672803398459L183.3046875,143.51660732296995L183.3046875,141.95472265403208L183.3046875,141.99138450992544L183.3046875,141.92197040541436L183.3046875,142.53255803181804L183.3046875,143.36328004624892L183.3046875,143.81149888605742L183.3046875,144.1120488670222L183.3046875,143.02415347258759L185.625,143.8916670033962L185.625,144.73676206467334L185.625,144.38847563295235L185.625,145.00335919635694L185.625,145.53168803544165L185.625,144.61192180941296L185.625,144.37972217115637L185.625,143.37911321856305L185.625,144.84906665019824L185.625,145.1028689006426L185.625,143.45827965792762L185.625,144.44833033893553L185.625,145.42976065942077L185.625,143.83614037912147L187.9453125,146.16467616695795L187.9453125,145.15706737928767L187.9453125,141.80074487980116L187.9453125,142.75670593444053L187.9453125,141.7464642209622L187.9453125,140.77860651360825L187.9453125,142.05792755825445L187.9453125,143.14182134087756L187.9453125,144.33415470415875L190.265625,145.38693786945657L190.265625,143.85345415345856L190.265625,143.44601677922623L190.265625,144.1548992771996L190.265625,145.56888021553118L190.265625,145.65787777989837L190.265625,144.51840481498678L190.265625,144.55945834123395L190.265625,144.26161217751087L190.265625,145.10951650030603L190.265625,144.44137828729862L192.5859375,144.4792279611964L192.5859375,145.02624164884918L192.5859375,144.2252556800284L192.5859375,143.14015906270967L192.5859375,144.13391650373714L192.5859375,142.04654710683212L192.5859375,143.83053235079637L192.5859375,145.11617757300013L194.90625,145.55973519634887L194.90625,145.13435286433509L194.90625,146.35477799267179L194.90625,144.91194486523034L194.90625,145.74301474782445L194.90625,145.9995234436847L194.90625,145.99901781094414L194.90625,144.91726390190325L194.90625,145.5878150517786L194.90625,145.2971540975597L197.2265625,144.83811217996634L197.2265625,146.13621436925627L197.2265625,145.05837011037406L197.2265625,145.16116969703518L197.2265625,145.52236352291035L197.2265625,144.56665671274857L197.2265625,143.35480430368065L197.2265625,144.10579854111955L197.2265625,145.321950275368L199.546875,145.75607336009534L199.546875,147.00136575703317L199.546875,145.91610597285327L199.546875,143.7985796613258L199.546875,143.56533857034216L199.546875,144.14367692081075L199.546875,144.08358822037542L199.546875,141.56544961941103L199.546875,143.04008559234057L199.546875,143.7582661962337L201.8671875,143.99114123319546L201.8671875,143.66693313768482L201.8671875,146.01454497747704L201.8671875,145.27463431282692L201.8671875,144.711542800062L201.8671875,142.73755181878394L201.8671875,143.54550257056704L201.8671875,143.94259804996702L201.8671875,144.16698291905433L201.8671875,144.17483642627425L201.8671875,143.73560328665152L201.8671875,144.0518536448942L201.8671875,143.48293763133685L204.18749999999997,145.4231328911054L204.18749999999997,145.66910819762754L204.18749999999997,145.86003901170974L204.18749999999997,145.050238077982L204.18749999999997,145.6644746907912L204.18749999999997,145.45739102651848L204.18749999999997,144.9434561992596L204.18749999999997,145.310757116372L204.18749999999997,146.09846723356523L204.18749999999997,146.63769623058246L204.18749999999997,146.6302523965669L204.18749999999997,145.4234236183782L206.5078125,145.46469488012906L206.5078125,145.79957702766725L206.5078125,146.41983689448756L206.5078125,145.84904897336077L206.5078125,146.9362482942576L206.5078125,146.17095696955528L206.5078125,145.02564567568666L206.5078125,145.6020024530158L206.5078125,146.21284798008597L208.828125,145.10778879059788L208.828125,142.05229968090913L208.828125,144.72926862990894L208.828125,146.51162019941827L208.828125,147.34715650721563L208.828125,146.23191034864885L208.828125,145.0072220396787L211.1484375,145.96968641768635L211.1484375,146.28321642885052L211.1484375,145.54096200740005L211.1484375,144.77324711785118L211.1484375,146.30410182404756L211.1484375,146.69339684950256L211.1484375,145.17444222826924L211.1484375,145.59112882336476L211.1484375,144.6978132499486L211.1484375,145.0333182102877L211.1484375,145.77142420479285L211.1484375,144.8745270099856L211.1484375,145.85656287232743L213.46875000000003,146.23066558664863L213.46875000000003,146.94094666675224L213.46875000000003,146.57939594960507L213.46875000000003,146.94944809363065L213.46875000000003,145.69586861721143L213.46875000000003,145.9217687120525L213.46875000000003,143.71488685730029L213.46875000000003,143.47375296919301L213.46875000000003,144.87475666847084L213.46875000000003,146.56803619047258L213.46875000000003,143.7098683516994L215.7890625,144.75211556037158L215.7890625,145.454516631543L215.7890625,145.27872381116708L215.7890625,145.68280296329115L215.7890625,146.3958875301686L215.7890625,146.06155727137372L215.7890625,145.41072103726412L215.7890625,145.94225056900112L215.7890625,146.59863100757318L218.109375,145.23900625443528L218.109375,145.72902547395867L218.109375,145.8533237581053L218.109375,146.56546039906732L218.109375,145.46846692057008L218.109375,145.6025778676066L218.109375,144.93174493536313L218.109375,146.0669902233777L218.109375,145.0749488588272L220.4296875,146.9258621817737L220.4296875,146.80716605325992L220.4296875,146.28376674631508L220.4296875,146.0408613941328L220.4296875,144.5271642974768L220.4296875,145.3023403746935L220.4296875,145.60618400428012L220.4296875,146.51998648258038L220.4296875,146.63233498312226L220.4296875,145.93063532979602L220.4296875,146.1782143237967L220.4296875,145.73044797913903L220.4296875,145.69463367245598L220.4296875,147.1910713530004L222.75,147.222266374017L222.75,148.74799184790862L222.75,146.02618929470546L222.75,145.225594448149L222.75,145.5189535242914L222.75,145.42922600120897L222.75,145.00176717049237L222.75,144.8244373669109L222.75,145.23528597696907L222.75,145.20424432274274L222.75,145.34256621281247L222.75,144.52415252599087L222.75,145.67988383247237L225.0703125,146.77265106423962L225.0703125,146.42980494668643L225.0703125,145.53862487343287L225.0703125,145.94453417847953L225.0703125,145.43155734071374L225.0703125,145.16990686851287L225.0703125,145.68417241959298L225.0703125,147.31598644912856L225.0703125,146.87994378409155L225.0703125,144.74523599059205L225.0703125,144.910623133098L227.390625,146.17441380689436L227.390625,146.81143675473268L227.390625,146.03062224225363L227.390625,145.068344264246L227.390625,145.41702117786824L227.390625,145.70113294879206L227.390625,146.2783273476935L227.390625,145.24482754430633L227.390625,146.07275372705735L227.390625,146.24845483652877L229.7109375,146.70106957034545L229.7109375,147.02044041559859L229.7109375,146.96923840556005L229.7109375,146.08529466175113L229.7109375,144.816900894988L229.7109375,145.49051759672074L229.7109375,145.79464579988664L229.7109375,146.85425902676073L229.7109375,146.48068741423776L232.03125,146.9979000744992L232.03125,144.8027901698812L232.03125,145.23187251536035L232.03125,146.51570782600632L232.03125,145.9777369300353L232.03125,147.41081347315475L232.03125,147.96720517500617L232.03125,148.07010177641735L232.03125,148.2406865507044L232.03125,146.33935701472626L232.03125,145.65680863483587L232.03125,145.2950733230939L232.03125,144.25490181529108L232.03125,145.11809584578026L232.03125,146.04772280949442L234.3515625,145.7269893991833L234.3515625,145.47215480106385L234.3515625,145.11284474803395L234.3515625,144.3506189161443L234.3515625,145.26484954872151L234.3515625,146.64316319089184L234.3515625,145.56841755307346L234.3515625,145.6307760619916L236.671875,146.19485071935046L236.671875,146.51127158634534L236.671875,146.1941566849212L236.671875,146.2528867324865L236.671875,145.61451856274462L236.671875,146.6381982347611L236.671875,146.23247973956128L238.99218749999997,146.05788887418782L238.99218749999997,146.14083158300804L238.99218749999997,145.55235886395863L238.99218749999997,146.09653634173208L238.99218749999997,145.4758448583933L238.99218749999997,144.53007313880633L238.99218749999997,145.22884552194662L238.99218749999997,146.2216514498829L238.99218749999997,146.991300393691L238.99218749999997,145.75465826812407L238.99218749999997,145.98087968154562L241.3125,146.6636796986986L241.3125,146.25894055491258L241.3125,146.75427047148688L241.3125,147.71580081126297L241.3125,145.77851166317586L241.3125,144.286028589247L241.3125,146.0708759429683L241.3125,145.1076715664643L243.6328125,145.2745251783179L243.6328125,145.85940113907736L243.6328125,147.17167262283374L243.6328125,148.0095416466737L243.6328125,147.0231051309612L243.6328125,146.65869770504275L243.6328125,146.91158882786178L243.6328125,145.21874440094436L245.953125,144.89296585920815L245.953125,146.88145774701752L245.953125,147.7975985193969L245.953125,146.5557203529609L245.953125,147.64736718391376L245.953125,147.30016463297602L245.953125,146.0457886087775L245.953125,145.18517589213727L245.953125,146.42234482924508L248.27343750000003,145.55963478422385L248.27343750000003,147.08088427371516L248.27343750000003,147.5097259064718L248.27343750000003,147.45166238279367L248.27343750000003,147.50036413822306L248.27343750000003,147.02150806920966L248.27343750000003,146.1655731388166L248.27343750000003,146.83904872094L250.59375,147.32402716952208L250.59375,146.59796447531963L250.59375,147.03436358035557L250.59375,147.87139749347241L250.59375,147.96422102343482L250.59375,149.238361813375L250.59375,146.30703021377244L250.59375,146.7157043988402L250.59375,146.51744938790173L250.59375,145.87187296837192L252.9140625,146.64517850988878L252.9140625,148.25555637628597L252.9140625,146.6250711420224L252.9140625,147.4146813401011L252.9140625,146.85056668808625L252.9140625,146.32724537501073L252.9140625,146.20824592291913L252.9140625,147.11171744379166L252.9140625,146.87522450007654L252.9140625,144.8234221826056L252.9140625,144.78987655282376L255.234375,145.0953284494004L255.234375,145.67512576755414L255.234375,145.92353028715567L255.234375,145.27416344008395L255.234375,145.7595026740226L255.234375,145.74440662108617L255.234375,147.57603435690856L255.234375,147.8586459724644L255.234375,146.46189484334226L255.234375,146.41814448363326L255.234375,146.1948128248855L255.234375,145.4541308361652L255.234375,147.09248470944837" style="fill: none;" fill="none"></path></g></g></g></g><g opacity="0.2"><g><g><g><path stroke="rgb(0, 119, 187)" stroke-width="2px" d="M32.484375,-0.2826775908470154L32.484375,3.0293959081172943L32.484375,5.249579668045044L32.484375,6.182073026895523L32.484375,18.00817307829857L34.8046875,20.71504694223404L34.8046875,18.300043910741806L34.8046875,26.29885372519493L34.8046875,24.23606377840042L34.8046875,15.333764672279358L34.8046875,26.874969720840454L37.125,41.10721376538277L37.125,42.412542670965195L37.125,45.582984283566475L37.125,45.60454171895981L37.125,38.04689344763756L37.125,35.82712081074715L37.125,41.77889597415924L37.125,46.83697585761547L37.125,37.14622896909714L39.4453125,46.46456469595432L39.4453125,57.01812621951103L39.4453125,46.675298407673836L39.4453125,51.94668483734131L39.4453125,44.86371126770973L39.4453125,44.66875274479389L39.4453125,55.48727643489838L39.4453125,47.34276328980923L39.4453125,54.73341603577137L39.4453125,56.004588574171066L41.765625,54.009322270751L41.765625,68.7915428429842L41.765625,65.65881845355034L41.765625,57.915912836790085L41.765625,57.33097758889198L41.765625,56.44348230957985L41.765625,60.119028359651566L41.765625,61.87697720527649L41.765625,62.823853239417076L41.765625,56.9385142326355L44.0859375,67.66313609480858L44.0859375,62.073745995759964L44.0859375,63.74974873661995L44.0859375,66.38061125576496L44.0859375,71.93292734026909L44.0859375,68.47459350526333L46.40625,73.96205824613571L46.40625,80.3028420060873L46.40625,80.83830323815346L46.40625,72.84834583103657L46.40625,73.74401052296162L46.40625,73.3724547624588L46.40625,72.99309429526329L46.40625,72.49456782639027L46.40625,73.64966441690922L48.7265625,79.32783056795597L48.7265625,79.49987229704857L48.7265625,80.20974253118038L48.7265625,81.76673178374767L48.7265625,77.45301005244255L48.7265625,77.76470099389553L48.7265625,77.18170200288296L48.7265625,78.91134966909885L48.7265625,83.23050220310688L48.7265625,83.67074203491211L51.04687499999999,88.98245830833912L51.04687499999999,81.77340921759605L51.04687499999999,85.95681157708168L51.04687499999999,87.49330435693264L51.04687499999999,89.41381257772446L51.04687499999999,82.09336903691292L53.36718750000001,92.59678018093109L53.36718750000001,96.73342061042786L53.36718750000001,87.21987438201904L53.36718750000001,83.23206712305546L53.36718750000001,94.1216819435358L53.36718750000001,89.4967135488987L53.36718750000001,85.59399549663067L53.36718750000001,88.75553165376186L53.36718750000001,90.70913527905941L53.36718750000001,85.51649880409241L53.36718750000001,90.81566919386387L53.36718750000001,91.38312508165836L55.6875,98.926748752594L55.6875,98.59013845026493L55.6875,101.07983656972647L55.6875,99.82698221504688L55.6875,93.82766266167164L55.6875,99.68332786858082L55.6875,90.0566830188036L55.6875,86.84715156257153L55.6875,97.06769679486752L55.6875,96.14038226008415L55.6875,89.45873108506203L58.0078125,102.15543390065432L58.0078125,95.12374129891396L58.0078125,98.0043478012085L58.0078125,100.6790844425559L58.0078125,96.06355530023575L58.0078125,95.05371776223183L58.0078125,92.47372177243233L58.0078125,97.75718328356743L60.328125,103.38365402817726L60.328125,103.4351737126708L60.328125,108.85336090624332L60.328125,101.82652220875025L60.328125,99.67219439148903L60.328125,101.87724285572767L60.328125,104.01760575175285L60.328125,101.22020193189383L60.328125,98.86923794448376L62.6484375,107.9885735437274L62.6484375,106.51781403273344L62.6484375,104.77798775583506L62.6484375,103.28962952643633L62.6484375,99.42216527462006L62.6484375,102.64153384417295L62.6484375,103.03409003466368L64.96875,106.73817266523838L64.96875,107.77069159597158L64.96875,104.03348703682423L64.96875,102.38483060896397L64.96875,108.43463540822268L64.96875,106.24414534121752L67.2890625,113.26416403800249L67.2890625,112.06227236241102L67.2890625,108.15894094109535L67.2890625,106.95610434561968L67.2890625,116.25214990973473L67.2890625,112.79723436385393L67.2890625,110.86263854801655L67.2890625,108.3002910092473L67.2890625,108.57073702663183L67.2890625,101.05850790441036L69.609375,112.59152033179998L69.609375,112.70629991590977L69.609375,107.48862472176552L69.609375,111.1848562285304L69.609375,112.12958712875843L69.609375,104.8541449829936L71.92968750000001,110.78117319196463L71.92968750000001,116.66956909745932L71.92968750000001,113.77152965217829L71.92968750000001,106.09550778567791L71.92968750000001,108.87923181802034L71.92968750000001,110.87465063482523L71.92968750000001,113.22983857989311L74.25,116.63387101888657L74.25,120.47301751375198L74.25,113.30143366754055L74.25,114.49904170632362L74.25,115.19417119026184L74.25,112.45620117336512L74.25,112.72461809962988L74.25,107.26079624891281L74.25,114.08177503198385L74.25,112.14516670256853L74.25,116.93064548820257L74.25,114.07422230392694L74.25,113.14274017512798L76.5703125,124.38292027264833L76.5703125,117.41864521801472L76.5703125,117.3328862786293L76.5703125,115.95765319466591L76.5703125,119.39926360547543L76.5703125,109.85540036857128L76.5703125,118.79575156420469L76.5703125,113.15874744951725L76.5703125,118.24156434088945L76.5703125,114.80287157744169L78.890625,120.39272253215313L78.890625,115.5283313319087L78.890625,118.06132999062538L78.890625,118.36598542332649L78.890625,114.18401536345482L78.890625,120.02683960646391L78.890625,118.0911662504077L78.890625,118.63226716220379L78.890625,119.32232391834259L78.890625,118.40871901065111L78.890625,117.7616876065731L78.890625,121.16828624904156L78.890625,116.84619949012995L81.2109375,124.96354204416275L81.2109375,122.34152861684561L81.2109375,119.89971306920052L81.2109375,123.35996658354998L81.2109375,116.01666261255741L81.2109375,120.60431164503098L81.2109375,119.84135680645704L81.2109375,125.2548227161169L81.2109375,120.39427750557661L81.2109375,116.04751673340797L83.53125,127.52850220352411L83.53125,123.04139596223831L83.53125,122.52770435810089L83.53125,124.11268976330757L83.53125,115.76037713140249L83.53125,118.99455939233303L83.53125,122.3299243375659L83.53125,125.1394761800766L83.53125,120.98999147117138L83.53125,118.49918597191572L85.8515625,124.04167488962412L85.8515625,118.46218489855528L85.8515625,125.96194770932198L85.8515625,115.10139995068312L85.8515625,124.96598888933659L85.8515625,118.0722777992487L85.8515625,124.96292204409838L85.8515625,123.56215291470289L85.8515625,118.01021479815245L85.8515625,122.67392822355032L88.171875,122.270258449018L88.171875,125.40659011155367L88.171875,125.62186938524246L88.171875,125.15535083413124L88.171875,120.96600045263767L88.171875,125.50545857101679L88.171875,125.53955194354057L88.171875,122.3843517228961L88.171875,122.0973580032587L88.171875,125.14476773142815L88.171875,124.63016436249018L88.171875,118.97715297341347L88.171875,121.27140519022942L90.4921875,128.76581013947725L90.4921875,133.155952680856L90.4921875,120.93862761557102L90.4921875,127.44961631298065L90.4921875,131.4819856621325L90.4921875,124.74437367916107L90.4921875,125.1686194986105L90.4921875,124.36871663480997L90.4921875,122.57752318680286L90.4921875,115.19836530834436L90.4921875,127.4783684015274L90.4921875,123.46328113973141L92.8125,127.5927037075162L92.8125,133.64979599416256L92.8125,126.51875749975443L92.8125,129.26724430918694L92.8125,123.4151930063963L92.8125,123.94181840866804L92.8125,130.25787344947457L92.8125,122.31806144863367L92.8125,123.06027115136385L95.1328125,131.858589284122L95.1328125,129.12689884006977L95.1328125,131.99259715899825L95.1328125,131.52166566625237L95.1328125,126.3471534177661L95.1328125,123.65439698845148L95.1328125,128.34066581726074L95.1328125,126.98167540878057L95.1328125,125.11029307544231L95.1328125,127.1805031299591L95.1328125,123.84017155319452L95.1328125,124.22692891955376L95.1328125,128.96302983909845L97.453125,130.437476195395L97.453125,128.47644085809588L97.453125,129.09982274100184L97.453125,127.40790058672428L97.453125,130.03220503032207L97.453125,131.62991535663605L97.453125,124.79040288180113L97.453125,130.12755905091763L97.453125,129.7271036617458L97.453125,132.85132045671344L97.453125,130.59708808362484L99.7734375,132.9032910503447L99.7734375,128.89493261277676L99.7734375,126.33326475322247L99.7734375,130.37787495926023L99.7734375,132.65242310985923L99.7734375,129.45746994391084L99.7734375,128.70154398307204L99.7734375,130.2100522145629L99.7734375,130.5460607521236L99.7734375,127.61429429799318L99.7734375,128.82667292654514L102.09374999999999,128.22710965573788L102.09374999999999,130.89202907681465L102.09374999999999,133.02727614343166L102.09374999999999,126.82864148914814L102.09374999999999,134.28783739730716L102.09374999999999,131.62944123893976L102.09374999999999,128.90921250730753L102.09374999999999,131.8691127076745L102.09374999999999,122.82611668854952L102.09374999999999,132.64524171873927L102.09374999999999,133.99507635086775L104.4140625,132.4936881735921L104.4140625,130.34957212209702L104.4140625,135.83975226432085L104.4140625,125.62435270100832L104.4140625,129.9684080183506L104.4140625,130.07530663907528L104.4140625,133.1256887204945L104.4140625,128.42373422160745L104.4140625,127.04491873085499L106.73437500000001,130.32411067560315L106.73437500000001,136.02270698919892L106.73437500000001,132.63414139673114L106.73437500000001,131.37790356576443L106.73437500000001,137.34537103027105L106.73437500000001,130.29410366714L106.73437500000001,135.15529871731997L106.73437500000001,136.78404385969043L106.73437500000001,132.77402103692293L106.73437500000001,127.96048144623637L106.73437500000001,130.50604919716716L106.73437500000001,128.39987748116255L109.0546875,136.17009957134724L109.0546875,136.0746958181262L109.0546875,134.6173790358007L109.0546875,133.00939229130745L109.0546875,132.16285514459014L109.0546875,130.02583096548915L109.0546875,130.62357899546623L109.0546875,128.98141433298588L109.0546875,132.94634789973497L109.0546875,136.28859749808908L109.0546875,132.9832743741572L109.0546875,133.60074470564723L109.0546875,129.93383058160543L109.0546875,131.3310139887035L111.375,132.4411605745554L111.375,131.67749124392867L111.375,134.67624920234084L111.375,132.6153524108231L111.375,134.59321892634034L111.375,132.66932059824467L113.6953125,137.48178762197495L113.6953125,133.80690633133054L113.6953125,134.62871144339442L113.6953125,135.08645715937018L113.6953125,131.41134046763182L113.6953125,133.32775569334626L113.6953125,133.98360303416848L113.6953125,131.51053218916059L113.6953125,135.99295527487993L113.6953125,133.4016650058329L113.6953125,130.70177526026964L113.6953125,134.18939498066902L113.6953125,135.63171074539423L116.015625,134.3691469244659L116.015625,134.34073964878917L116.015625,134.29353178292513L116.015625,134.66613524407148L116.015625,133.5737083926797L116.015625,137.06934832781553L116.015625,136.78017134591937L116.015625,129.53704214468598L116.015625,139.44208028540015L116.015625,138.83178305625916L118.3359375,138.94364830851555L118.3359375,136.7791551426053L118.3359375,129.8009284287691L118.3359375,134.55980357527733L118.3359375,135.57902731746435L118.3359375,132.58482652530074L118.3359375,133.6183716058731L118.3359375,134.96212559565902L118.3359375,132.22612830623984L118.3359375,138.88835225999355L118.3359375,134.29518787935376L120.65625,138.48994751274586L120.65625,136.54722041264176L120.65625,138.17660710588098L120.65625,136.94965847581625L120.65625,139.84889813512564L120.65625,133.93937581032515L120.65625,134.94324046000838L120.65625,140.2797186076641L120.65625,134.42795575410128L120.65625,131.62198466062546L120.65625,133.8021833896637L120.65625,138.0230758599937L122.9765625,139.02274307608604L122.9765625,137.81018706783652L122.9765625,135.51082399487495L122.9765625,136.8183311894536L122.9765625,138.07156516984105L122.9765625,136.84056001529098L122.9765625,136.51529372483492L122.9765625,131.4532004185021L122.9765625,134.36768644303083L125.296875,134.5083203613758L125.296875,138.79671989753842L125.296875,137.09729309007525L125.296875,136.65419860556722L125.296875,134.91048489511013L125.296875,136.95788425207138L125.296875,135.94334200769663L125.296875,139.33714941889048L125.296875,132.77750066295266L125.296875,134.97604409977794L127.6171875,138.34771717712283L127.6171875,137.4066134430468L127.6171875,139.45978012681007L127.6171875,137.81630252301693L127.6171875,138.84170803055167L127.6171875,136.62444357573986L127.6171875,137.30983375385404L127.6171875,137.44558890163898L129.9375,141.95891003869474L129.9375,140.57166735455394L129.9375,135.19455599412322L129.9375,138.99457451701164L129.9375,140.283897805959L129.9375,135.99490313604474L129.9375,139.193572986871L129.9375,134.72758156061172L129.9375,136.75041963160038L129.9375,137.62840934842825L132.2578125,139.0621744170785L132.2578125,132.1533678174019L132.2578125,139.06581650301814L132.2578125,141.25093710422516L132.2578125,137.57482741773129L132.2578125,136.9863594956696L132.2578125,139.1115953847766L132.2578125,139.0877005159855L134.578125,135.85188536718488L134.578125,138.34414637461305L134.578125,137.0544484332204L134.578125,138.24578021466732L134.578125,137.18991347402334L134.578125,137.2142559364438L134.578125,140.63591527566314L134.578125,141.3369529955089L134.578125,140.4671575576067L134.578125,138.2744344957173L134.578125,136.059378169477L134.578125,141.10934168845415L134.578125,137.76646711677313L136.8984375,140.96618466824293L136.8984375,141.29024577140808L136.8984375,141.7632477991283L136.8984375,142.56719972752035L136.8984375,142.49771496094763L136.8984375,136.18424021452665L136.8984375,135.25685439631343L136.8984375,139.76256727054715L136.8984375,136.88242991268635L136.8984375,139.1578599885106L136.8984375,139.88378722965717L139.21875,138.60732977092266L139.21875,135.54564677923918L139.21875,140.96943055093288L139.21875,142.3725412581116L139.21875,138.69254165142775L139.21875,137.07520351558924L139.21875,140.53807793930173L139.21875,135.71022695675492L139.21875,139.02015863731503L139.21875,136.79086386039853L139.21875,136.14675507694483L141.5390625,140.0727165006101L141.5390625,136.43975815549493L141.5390625,137.3501602821052L141.5390625,138.27078412100673L141.5390625,142.1809156499803L141.5390625,138.95900905877352L141.5390625,137.6640411168337L141.5390625,139.8836297430098L141.5390625,137.25491567328572L141.5390625,141.1394630819559L141.5390625,142.4524267744273L141.5390625,139.53655238077044L143.85937500000003,142.42819703929126L143.85937500000003,141.42764209583402L143.85937500000003,140.80308652296662L143.85937500000003,139.7887067385018L143.85937500000003,138.6782783344388L143.85937500000003,137.6264747492969L143.85937500000003,140.96361846476793L143.85937500000003,139.06759195774794L143.85937500000003,142.6572190951556L143.85937500000003,136.22031294554472L146.1796875,140.14541233703494L146.1796875,137.26775497943163L146.1796875,136.38364980742335L146.1796875,143.74977193586528L146.1796875,137.7733865827322L146.1796875,139.67283303663135L146.1796875,143.08138285577297L146.1796875,138.12132100388408L146.1796875,140.72843950986862L146.1796875,142.70406805723906L146.1796875,140.01363745704293L148.5,139.75893678888679L148.5,137.65445763990283L148.5,138.9750146754086L148.5,140.55572307482362L148.5,143.39351144433022L148.5,141.9910472612828L148.5,137.96083713695407L148.5,140.55021933093667L148.5,135.67426032200456L148.5,144.61019194498658L148.5,138.33987268432975L148.5,142.2625285461545L148.5,139.81271433457732L150.8203125,142.75614143162966L150.8203125,140.89145974069834L150.8203125,142.01366151496768L150.8203125,137.613481272012L150.8203125,135.10901422053576L150.8203125,139.24608400836587L150.8203125,142.2122115623206L153.140625,142.37395200692117L153.140625,142.12657778337598L153.140625,140.52733900770545L153.140625,144.27605086751282L153.140625,143.76662632264197L153.140625,139.02727371826768L153.140625,141.9643648788333L153.140625,140.95794397220016L153.140625,141.05542820692062L153.140625,137.58398319408298L155.4609375,145.3343876618892L155.4609375,146.74367930553854L155.4609375,139.10581148043275L155.4609375,141.18782640248537L155.4609375,139.83613508567214L155.4609375,137.9942325949669L155.4609375,140.9920704998076L157.78125,140.69319897145033L157.78125,141.15769174695015L157.78125,144.9749078117311L157.78125,141.37295941635966L157.78125,141.51877381652594L157.78125,135.88883670791984L157.78125,139.62944132089615L157.78125,141.01915488764644L157.78125,141.03970109298825L157.78125,139.38681573420763L157.78125,137.20695850253105L160.1015625,144.65685938298702L160.1015625,141.90889062173665L160.1015625,143.1844951659441L160.1015625,140.94325461238623L160.1015625,142.16030893661082L162.421875,146.12767774425447L162.421875,137.7734744437039L162.421875,142.4668865352869L162.421875,138.9227191619575L162.421875,144.81766734085977L162.421875,144.45429425500333L162.421875,140.8219567388296L162.421875,143.31336317397654L162.421875,142.94263297505677L164.7421875,145.22231684811413L164.7421875,140.3318118751049L164.7421875,141.41606599837542L164.7421875,141.4935030117631L164.7421875,141.1683743149042L164.7421875,144.3505760356784L164.7421875,143.50070265866816L164.7421875,139.34492428600788L164.7421875,139.1417598798871L164.7421875,141.68416629359126L164.7421875,142.50889402627945L164.7421875,142.00823982991278L164.7421875,140.74390967190266L167.0625,143.92124422639608L167.0625,145.82355610840023L167.0625,142.6316167395562L167.0625,142.02017483115196L167.0625,143.6379340365529L167.0625,133.5993969514966L169.38281249999997,144.03925062902272L169.38281249999997,144.0044270157814L169.38281249999997,143.39959540218115L169.38281249999997,142.4019166622311L169.38281249999997,143.41372858546674L169.38281249999997,139.3425387777388L169.38281249999997,143.7167876008898L169.38281249999997,140.67050100117922L171.703125,144.81505637802184L171.703125,145.2368661276996L171.703125,143.66713206097484L171.703125,141.72136795520782L171.703125,142.52057373337448L171.703125,139.1321415901184L171.703125,142.3343101311475L174.0234375,144.8344023693353L174.0234375,142.67431054078043L174.0234375,146.18497387319803L174.0234375,144.49151995405555L174.0234375,142.94901449978352L174.0234375,143.0095598269254L174.0234375,139.93911643326283L174.0234375,146.4356975890696L174.0234375,142.27986865490675L174.0234375,139.4660762771964L174.0234375,141.929876960814L174.0234375,146.7636519279331L176.34375,142.3021099139005L176.34375,141.12776762619615L176.34375,145.73130291700363L176.34375,141.29340213537216L176.34375,145.02267351187766L176.34375,143.26894613727927L176.34375,146.2580029182136L176.34375,140.79930352792144L176.34375,145.04846153594553L176.34375,142.6115231011063L176.34375,145.16330411471426L176.34375,143.20582880452275L176.34375,141.31598903611302L178.66406250000003,143.801574267447L178.66406250000003,142.63276639208198L178.66406250000003,142.7673851493746L178.66406250000003,145.39558448642492L178.66406250000003,144.91388007812202L178.66406250000003,143.96052968502045L178.66406250000003,141.82279267162085L178.66406250000003,147.57176979258657L178.66406250000003,139.8774960525334L178.66406250000003,138.42490221187472L180.984375,143.41452513635159L180.984375,144.85974860191345L180.984375,146.88715710118413L180.984375,146.28293471224606L180.984375,144.1160800755024L180.984375,145.4309236612171L180.984375,136.05191330239177L180.984375,144.0249740500003L180.984375,142.8524809870869L180.984375,141.08015692606568L180.984375,142.690810168162L180.984375,141.72931191325188L180.984375,142.1373133994639L180.984375,138.37156562879682L183.3046875,147.3013934008777L183.3046875,147.51748828962445L183.3046875,141.32642625644803L183.3046875,139.61189565062523L183.3046875,142.04637729376554L183.3046875,141.8178492486477L183.3046875,143.44843947142363L183.3046875,144.60936306789517L183.3046875,144.4838271457702L183.3046875,144.5628738384694L183.3046875,141.39231038093567L185.625,145.19293729960918L185.625,146.00440465658903L185.625,143.86604598537087L185.625,145.92568454146385L185.625,146.3241812940687L185.625,143.23227247036994L185.625,144.03142271377146L185.625,141.8781997896731L185.625,147.05399679765105L185.625,145.48357227630913L185.625,140.9913957938552L185.625,145.9334063604474L185.625,146.90190614014864L185.625,141.44570995867252L187.9453125,149.65747984871268L187.9453125,143.64565419778228L187.9453125,136.76626113057137L187.9453125,144.19064751639962L187.9453125,140.23110165074468L187.9453125,139.32681995257735L187.9453125,143.97690912522376L187.9453125,144.76766201481223L187.9453125,146.12265474908054L190.265625,146.96611261740327L190.265625,141.55322857946157L190.265625,142.83486071787775L190.265625,145.21822302415967L190.265625,147.68985162302852L190.265625,145.79137412644923L190.265625,142.8091953676194L190.265625,144.62103863060474L190.265625,143.81484293192625L190.265625,146.38137298449874L190.265625,143.4391709677875L192.5859375,144.53600247204304L192.5859375,145.84676218032837L192.5859375,143.02377672679722L192.5859375,141.51251413673162L192.5859375,145.62455266527832L192.5859375,138.9154930114746L192.5859375,146.50651021674275L192.5859375,147.0446454063058L194.90625,146.22507163137197L194.90625,144.4962793663144L194.90625,148.18541568517685L194.90625,142.7476951740682L194.90625,146.9896195717156L194.90625,146.38428648747504L194.90625,145.99825936183333L194.90625,143.294633038342L194.90625,146.59364177659154L194.90625,144.8611626662314L197.2265625,144.14954930357635L197.2265625,148.0833676531911L197.2265625,143.4416037220508L197.2265625,145.31536907702684L197.2265625,146.06415426172316L197.2265625,143.1330964975059L197.2265625,141.53702569007874L197.2265625,145.23228989727795L197.2265625,147.1461778767407L199.546875,146.4072579871863L199.546875,148.86930435243994L199.546875,144.2882162965834L199.546875,140.62229019403458L199.546875,143.21547693386674L199.546875,145.01118444651365L199.546875,143.99345516972244L199.546875,137.7882417179644L199.546875,145.25203955173492L199.546875,144.83553710207343L201.8671875,144.34045378863811L201.8671875,143.18062099441886L201.8671875,149.5359627371654L201.8671875,144.1647683158517L201.8671875,143.86690553091466L201.8671875,139.77656534686685L201.8671875,144.7574286982417L201.8671875,144.53824126906693L201.8671875,144.50356022268534L201.8671875,144.1866166871041L201.8671875,143.07675357721746L201.8671875,144.52622918225825L201.8671875,142.62956361100078L204.18749999999997,148.33342578075826L204.18749999999997,146.03807115741074L204.18749999999997,146.14643523283303L204.18749999999997,143.83553667739034L204.18749999999997,146.58582961000502L204.18749999999997,145.1467655301094L204.18749999999997,144.17255395837128L204.18749999999997,145.86170849204063L204.18749999999997,147.28003240935504L204.18749999999997,147.4465397261083L204.18749999999997,146.61908664554358L204.18749999999997,143.6131804510951L206.5078125,145.52660177275538L206.5078125,146.30190024897456L206.5078125,147.350226694718L206.5078125,144.99286709167063L206.5078125,148.56704727560282L206.5078125,145.02301998250186L206.5078125,143.30767873488367L206.5078125,146.4665376190096L206.5078125,147.12911627069116L208.828125,143.45020000636578L208.828125,137.46906601637602L208.828125,148.74472205340862L208.828125,149.18514755368233L208.828125,148.60046096891165L208.828125,144.55904111079872L208.828125,143.1701895762235L211.1484375,147.41338298469782L211.1484375,146.7535114455968L211.1484375,144.42758037522435L211.1484375,143.62167478352785L211.1484375,148.60038388334215L211.1484375,147.27733938768506L211.1484375,142.89601029641926L211.1484375,146.21615871600807L211.1484375,143.3578398898244L211.1484375,145.5365756507963L211.1484375,146.8785831965506L211.1484375,143.52918121777475L211.1484375,147.32961666584015L213.46875000000003,146.7918196581304L213.46875000000003,148.00636828690767L213.46875000000003,146.03706987388432L213.46875000000003,147.50452630966902L213.46875000000003,143.81549940258265L213.46875000000003,146.2606188543141L213.46875000000003,140.40456407517195L213.46875000000003,143.11205213703215L213.46875000000003,146.97626221738756L213.46875000000003,149.10795547347516L213.46875000000003,139.42261659353971L215.7890625,146.31548637337983L215.7890625,146.50811823830009L215.7890625,145.01503458060324L215.7890625,146.2889216914773L215.7890625,147.46551438048482L215.7890625,145.56006188318133L215.7890625,144.43446668609977L215.7890625,146.7395448666066L215.7890625,147.58320166543126L218.109375,143.19956912472844L218.109375,146.46405430324376L218.109375,146.03977118432522L218.109375,147.63366536051035L218.109375,143.82297670282423L218.109375,145.8037442881614L218.109375,143.92549553699791L218.109375,147.76985815539956L218.109375,143.58688681200147L220.4296875,149.70223216619343L220.4296875,146.62912186048925L220.4296875,145.49866778589785L220.4296875,145.6765033658594L220.4296875,142.25661865249276L220.4296875,146.46510449051857L220.4296875,146.06194944866002L220.4296875,147.8906902000308L220.4296875,146.80085773393512L220.4296875,144.87808584980667L220.4296875,146.54958281479776L220.4296875,145.05879846215248L220.4296875,145.64091221243143L220.4296875,149.4357278738171L222.75,147.2690589055419L222.75,151.03658005874604L222.75,141.94348546490073L222.75,144.02470217831433L222.75,145.95899213850498L222.75,145.29463471658528L222.75,144.3605789244175L222.75,144.55844266153872L222.75,145.85155889205635L222.75,145.15768184140325L222.75,145.55004904791713L222.75,143.29653199575841L222.75,147.4134807921946L225.0703125,148.4118019118905L225.0703125,145.91553577035666L225.0703125,144.20185476355255L225.0703125,146.5533981360495L225.0703125,144.66209208406508L225.0703125,144.77743116021156L225.0703125,146.4555707462132L225.0703125,149.76370749343187L225.0703125,146.2258797865361L225.0703125,141.5431743003428L225.0703125,145.15870384685695L227.390625,148.07009981758893L227.390625,147.7669711764902L227.390625,144.85940047353506L227.390625,143.62492729723454L227.390625,145.94003654830158L227.390625,146.12730060517788L227.390625,147.14411894604564L227.390625,143.69457783922553L227.390625,147.31464300118387L227.390625,146.51200650073588L229.7109375,147.37999167107046L229.7109375,147.49949668347836L229.7109375,146.89243539050221L229.7109375,144.7593790460378L229.7109375,142.91431024484336L229.7109375,146.50094264931977L229.7109375,146.25083810463548L229.7109375,148.44367886707187L229.7109375,145.92032999545336L232.03125,147.77371906489134L232.03125,141.5101253129542L232.03125,145.8754960335791L232.03125,148.44146079197526L232.03125,145.17078058607876L232.03125,149.56042828783393L232.03125,148.80179272778332L232.03125,148.22444667853415L232.03125,148.49656371213496L232.03125,143.48736271075904L232.03125,144.6329860650003L232.03125,144.7524703554809L232.03125,142.69464455358684L232.03125,146.41288689151406L232.03125,147.44216325506568L234.3515625,145.24588928371668L234.3515625,145.08990290388465L234.3515625,144.5738796684891L234.3515625,143.2072801683098L234.3515625,146.63619549758732L234.3515625,148.7106336541474L234.3515625,143.9562990963459L234.3515625,145.72431382536888L236.671875,147.04096270538867L236.671875,146.98590288683772L236.671875,145.718484332785L236.671875,146.34098180383444L236.671875,144.6569663081318L236.671875,148.1737177427858L236.671875,145.62390199676156L238.99218749999997,145.79600257612765L238.99218749999997,146.26524564623833L238.99218749999997,144.66964978538454L238.99218749999997,146.9128025583923L238.99218749999997,144.54480763338506L238.99218749999997,143.11141555942595L238.99218749999997,146.27700409665704L238.99218749999997,147.71086034178734L238.99218749999997,148.14577380940318L238.99218749999997,143.89969507977366L238.99218749999997,146.32021180167794L241.3125,147.68787972442806L241.3125,145.65183183923364L241.3125,147.49726534634829L241.3125,149.15809632092714L241.3125,142.87257794104517L241.3125,142.04730397835374L241.3125,148.74814697355032L241.3125,143.66286500170827L243.6328125,145.5248055960983L243.6328125,146.73671508021653L243.6328125,149.1400798484683L243.6328125,149.26634518243372L243.6328125,145.54345035739243L243.6328125,146.1120865661651L243.6328125,147.29092551209033L243.6328125,142.67947776056826L245.953125,144.4042980466038L245.953125,149.8641955787316L245.953125,149.17180967796594L245.953125,144.6929031033069L245.953125,149.28483743034303L245.953125,146.77936080656946L245.953125,144.16422457247972L245.953125,143.89425681717694L245.953125,148.2780982349068L248.27343750000003,144.26556971669197L248.27343750000003,149.3627585079521L248.27343750000003,148.1529883556068L248.27343750000003,147.36456709727645L248.27343750000003,147.5734167713672L248.27343750000003,146.30322396568954L248.27343750000003,144.881670743227L248.27343750000003,147.84926209412515L250.59375,148.0514948423952L250.59375,145.508870434016L250.59375,147.68896223790944L250.59375,149.12694836314768L250.59375,148.10345631837845L250.59375,151.1495729982853L250.59375,141.9100328143686L250.59375,147.3287156764418L250.59375,146.22006687149405L250.59375,144.90350833907723L252.9140625,147.80513682216406L252.9140625,150.6711231758818L252.9140625,144.179343290627L252.9140625,148.5990966372192L252.9140625,146.00439471006393L252.9140625,145.54226340539753L252.9140625,146.02974674478173L252.9140625,148.4669247251004L252.9140625,146.5204850845039L252.9140625,141.7457187063992L252.9140625,144.73955810815096L255.234375,145.5535062942654L255.234375,146.5448217447847L255.234375,146.296137066558L255.234375,144.3001131694764L255.234375,146.4875115249306L255.234375,145.72176254168153L255.234375,150.3234759606421L255.234375,148.2825633957982L255.234375,144.36676814965904L255.234375,146.35251894406974L255.234375,145.85981533676386L255.234375,144.3431078530848L255.234375,149.55001551937312" style="fill: none;" fill="none"></path></g></g></g></g></g></g><g transform="translate(51, 178)" clip-path="url(#clip_1)"><clipPath id="clip_1"><rect width="278" height="22"></rect></clipPath><g><g><line x1="0" y1="0" x2="0" y2="5" style="visibility: inherit;" fill="rgb(0, 0, 0)" stroke="rgb(204, 204, 204)" stroke-width="1px"></line><line x1="23.203125" y1="0" x2="23.203125" y2="5" style="visibility: inherit;" fill="rgb(0, 0, 0)" stroke="rgb(204, 204, 204)" stroke-width="1px"></line><line x1="46.40625" y1="0" x2="46.40625" y2="5" style="visibility: inherit;" fill="rgb(0, 0, 0)" stroke="rgb(204, 204, 204)" stroke-width="1px"></line><line x1="69.609375" y1="0" x2="69.609375" y2="5" style="visibility: inherit;" fill="rgb(0, 0, 0)" stroke="rgb(204, 204, 204)" stroke-width="1px"></line><line x1="92.8125" y1="0" x2="92.8125" y2="5" style="visibility: inherit;" fill="rgb(0, 0, 0)" stroke="rgb(204, 204, 204)" stroke-width="1px"></line><line x1="116.015625" y1="0" x2="116.015625" y2="5" style="visibility: inherit;" fill="rgb(0, 0, 0)" stroke="rgb(204, 204, 204)" stroke-width="1px"></line><line x1="139.21875" y1="0" x2="139.21875" y2="5" style="visibility: inherit;" fill="rgb(0, 0, 0)" stroke="rgb(204, 204, 204)" stroke-width="1px"></line><line x1="162.421875" y1="0" x2="162.421875" y2="5" style="visibility: inherit;" fill="rgb(0, 0, 0)" stroke="rgb(204, 204, 204)" stroke-width="1px"></line><line x1="185.625" y1="0" x2="185.625" y2="5" style="visibility: inherit;" fill="rgb(0, 0, 0)" stroke="rgb(204, 204, 204)" stroke-width="1px"></line><line x1="208.828125" y1="0" x2="208.828125" y2="5" style="visibility: inherit;" fill="rgb(0, 0, 0)" stroke="rgb(204, 204, 204)" stroke-width="1px"></line><line x1="232.03125" y1="0" x2="232.03125" y2="5" style="visibility: inherit;" fill="rgb(0, 0, 0)" stroke="rgb(204, 204, 204)" stroke-width="1px"></line><line x1="255.234375" y1="0" x2="255.234375" y2="5" style="visibility: inherit;" fill="rgb(0, 0, 0)" stroke="rgb(204, 204, 204)" stroke-width="1px"></line><line x1="278.4375" y1="0" x2="278.4375" y2="5" style="visibility: inherit;" fill="rgb(0, 0, 0)" stroke="rgb(204, 204, 204)" stroke-width="1px"></line></g><g transform="translate(0, 8)"><text x="0" y="0" dx="0em" dy="0.95em" style="text-anchor: middle; visibility: hidden; font-family: Roboto, sans-serif; font-size: 12px; font-weight: 200;" fill="rgb(50, 49, 63)" stroke="none" stroke-width="1px">-10</text><text x="23.203125" y="0" dx="0em" dy="0.95em" style="text-anchor: middle; visibility: inherit; font-family: Roboto, sans-serif; font-size: 12px; font-weight: 200;" fill="rgb(50, 49, 63)" stroke="none" stroke-width="1px">0</text><text x="46.40625" y="0" dx="0em" dy="0.95em" style="text-anchor: middle; visibility: inherit; font-family: Roboto, sans-serif; font-size: 12px; font-weight: 200;" fill="rgb(50, 49, 63)" stroke="none" stroke-width="1px">10</text><text x="69.609375" y="0" dx="0em" dy="0.95em" style="text-anchor: middle; visibility: inherit; font-family: Roboto, sans-serif; font-size: 12px; font-weight: 200;" fill="rgb(50, 49, 63)" stroke="none" stroke-width="1px">20</text><text x="92.8125" y="0" dx="0em" dy="0.95em" style="text-anchor: middle; visibility: inherit; font-family: Roboto, sans-serif; font-size: 12px; font-weight: 200;" fill="rgb(50, 49, 63)" stroke="none" stroke-width="1px">30</text><text x="116.015625" y="0" dx="0em" dy="0.95em" style="text-anchor: middle; visibility: inherit; font-family: Roboto, sans-serif; font-size: 12px; font-weight: 200;" fill="rgb(50, 49, 63)" stroke="none" stroke-width="1px">40</text><text x="139.21875" y="0" dx="0em" dy="0.95em" style="text-anchor: middle; visibility: inherit; font-family: Roboto, sans-serif; font-size: 12px; font-weight: 200;" fill="rgb(50, 49, 63)" stroke="none" stroke-width="1px">50</text><text x="162.421875" y="0" dx="0em" dy="0.95em" style="text-anchor: middle; visibility: inherit; font-family: Roboto, sans-serif; font-size: 12px; font-weight: 200;" fill="rgb(50, 49, 63)" stroke="none" stroke-width="1px">60</text><text x="185.625" y="0" dx="0em" dy="0.95em" style="text-anchor: middle; visibility: inherit; font-family: Roboto, sans-serif; font-size: 12px; font-weight: 200;" fill="rgb(50, 49, 63)" stroke="none" stroke-width="1px">70</text><text x="208.828125" y="0" dx="0em" dy="0.95em" style="text-anchor: middle; visibility: inherit; font-family: Roboto, sans-serif; font-size: 12px; font-weight: 200;" fill="rgb(50, 49, 63)" stroke="none" stroke-width="1px">80</text><text x="232.03125" y="0" dx="0em" dy="0.95em" style="text-anchor: middle; visibility: inherit; font-family: Roboto, sans-serif; font-size: 12px; font-weight: 200;" fill="rgb(50, 49, 63)" stroke="none" stroke-width="1px">90</text><text x="255.234375" y="0" dx="0em" dy="0.95em" style="text-anchor: middle; visibility: inherit; font-family: Roboto, sans-serif; font-size: 12px; font-weight: 200;" fill="rgb(50, 49, 63)" stroke="none" stroke-width="1px">100</text><text x="278.4375" y="0" dx="0em" dy="0.95em" style="text-anchor: middle; visibility: hidden; font-family: Roboto, sans-serif; font-size: 12px; font-weight: 200;" fill="rgb(50, 49, 63)" stroke="none" stroke-width="1px">110</text></g><line x1="0" y1="0" x2="278.4375" y2="0" fill="rgb(0, 0, 0)" stroke="rgb(204, 204, 204)" stroke-width="1px"></line></g></g></g></g></svg>