<svg viewBox="0 0 330 200" xmlns="http://www.w3.org/2000/svg"><g><g><g><g><g><line x1="51.5625" y1="178" x2="46.5625" y2="178" style="visibility: inherit;" fill="rgb(0, 0, 0)" stroke="rgb(204, 204, 204)" stroke-width="1px"></line><line x1="51.5625" y1="155.75" x2="46.5625" y2="155.75" style="visibility: inherit;" fill="rgb(0, 0, 0)" stroke="rgb(204, 204, 204)" stroke-width="1px"></line><line x1="51.5625" y1="133.5" x2="46.5625" y2="133.5" style="visibility: inherit;" fill="rgb(0, 0, 0)" stroke="rgb(204, 204, 204)" stroke-width="1px"></line><line x1="51.5625" y1="111.24999999999999" x2="46.5625" y2="111.24999999999999" style="visibility: inherit;" fill="rgb(0, 0, 0)" stroke="rgb(204, 204, 204)" stroke-width="1px"></line><line x1="51.5625" y1="88.99999999999999" x2="46.5625" y2="88.99999999999999" style="visibility: inherit;" fill="rgb(0, 0, 0)" stroke="rgb(204, 204, 204)" stroke-width="1px"></line><line x1="51.5625" y1="66.75" x2="46.5625" y2="66.75" style="visibility: inherit;" fill="rgb(0, 0, 0)" stroke="rgb(204, 204, 204)" stroke-width="1px"></line><line x1="51.5625" y1="44.5" x2="46.5625" y2="44.5" style="visibility: inherit;" fill="rgb(0, 0, 0)" stroke="rgb(204, 204, 204)" stroke-width="1px"></line><line x1="51.5625" y1="22.25" x2="46.5625" y2="22.25" style="visibility: inherit;" fill="rgb(0, 0, 0)" stroke="rgb(204, 204, 204)" stroke-width="1px"></line><line x1="51.5625" y1="0" x2="46.5625" y2="0" style="visibility: inherit;" fill="rgb(0, 0, 0)" stroke="rgb(204, 204, 204)" stroke-width="1px"></line></g><g transform="translate(41.5625, 0)"><text x="0" y="178" dx="0em" dy="0.3em" style="text-anchor: end; visibility: hidden; font-family: Roboto, sans-serif; font-size: 12px; font-weight: 200;" fill="rgb(50, 49, 63)" stroke="none" stroke-width="1px">-0.1</text><text x="0" y="155.75" dx="0em" dy="0.3em" style="text-anchor: end; visibility: inherit; font-family: Roboto, sans-serif; font-size: 12px; font-weight: 200;" fill="rgb(50, 49, 63)" stroke="none" stroke-width="1px">0</text><text x="0" y="133.5" dx="0em" dy="0.3em" style="text-anchor: end; visibility: hidden; font-family: Roboto, sans-serif; font-size: 12px; font-weight: 200;" fill="rgb(50, 49, 63)" stroke="none" stroke-width="1px">0.1</text><text x="0" y="111.24999999999999" dx="0em" dy="0.3em" style="text-anchor: end; visibility: inherit; font-family: Roboto, sans-serif; font-size: 12px; font-weight: 200;" fill="rgb(50, 49, 63)" stroke="none" stroke-width="1px">0.2</text><text x="0" y="88.99999999999999" dx="0em" dy="0.3em" style="text-anchor: end; visibility: hidden; font-family: Roboto, sans-serif; font-size: 12px; font-weight: 200;" fill="rgb(50, 49, 63)" stroke="none" stroke-width="1px">0.3</text><text x="0" y="66.75" dx="0em" dy="0.3em" style="text-anchor: end; visibility: inherit; font-family: Roboto, sans-serif; font-size: 12px; font-weight: 200;" fill="rgb(50, 49, 63)" stroke="none" stroke-width="1px">0.4</text><text x="0" y="44.5" dx="0em" dy="0.3em" style="text-anchor: end; visibility: hidden; font-family: Roboto, sans-serif; font-size: 12px; font-weight: 200;" fill="rgb(50, 49, 63)" stroke="none" stroke-width="1px">0.5</text><text x="0" y="22.25" dx="0em" dy="0.3em" style="text-anchor: end; visibility: inherit; font-family: Roboto, sans-serif; font-size: 12px; font-weight: 200;" fill="rgb(50, 49, 63)" stroke="none" stroke-width="1px">0.6</text><text x="0" y="0" dx="0em" dy="0.3em" style="text-anchor: end; visibility: hidden; font-family: Roboto, sans-serif; font-size: 12px; font-weight: 200;" fill="rgb(50, 49, 63)" stroke="none" stroke-width="1px">0.7</text></g><line x1="51.5625" y1="0" x2="51.5625" y2="178" fill="rgb(0, 0, 0)" stroke="rgb(204, 204, 204)" stroke-width="1px"></line></g></g><g transform="translate(51, 0)" clip-path="url(#clip_0)"><clipPath id="clip_0"><rect width="278" height="178"></rect></clipPath><g><g><g><line x1="0" y1="0" x2="0" y2="178" fill="rgb(0, 0, 0)" stroke="rgb(60, 60, 60)" stroke-width="1px" opacity="0.25"></line><line x1="39.776785714285715" y1="0" x2="39.776785714285715" y2="178" fill="rgb(0, 0, 0)" stroke="rgb(60, 60, 60)" stroke-width="1px" opacity="0.25"></line><line x1="79.55357142857143" y1="0" x2="79.55357142857143" y2="178" fill="rgb(0, 0, 0)" stroke="rgb(60, 60, 60)" stroke-width="1px" opacity="0.25"></line><line x1="119.33035714285714" y1="0" x2="119.33035714285714" y2="178" fill="rgb(0, 0, 0)" stroke="rgb(60, 60, 60)" stroke-width="1px" opacity="0.25"></line><line x1="159.10714285714286" y1="0" x2="159.10714285714286" y2="178" fill="rgb(0, 0, 0)" stroke="rgb(60, 60, 60)" stroke-width="1px" opacity="0.25"></line><line x1="198.88392857142858" y1="0" x2="198.88392857142858" y2="178" fill="rgb(0, 0, 0)" stroke="rgb(60, 60, 60)" stroke-width="1px" opacity="0.25"></line><line x1="238.66071428571428" y1="0" x2="238.66071428571428" y2="178" fill="rgb(0, 0, 0)" stroke="rgb(60, 60, 60)" stroke-width="1px" opacity="0.25"></line><line x1="278.4375" y1="0" x2="278.4375" y2="178" fill="rgb(0, 0, 0)" stroke="rgb(60, 60, 60)" stroke-width="1px" opacity="0.25"></line></g><g><line x1="0" y1="178" x2="278.4375" y2="178" fill="rgb(0, 0, 0)" stroke="rgb(60, 60, 60)" stroke-width="1px" opacity="0.25"></line><line x1="0" y1="155.75" x2="278.4375" y2="155.75" fill="rgb(0, 0, 0)" stroke="rgb(60, 60, 60)" stroke-width="1px" opacity="0.25"></line><line x1="0" y1="133.5" x2="278.4375" y2="133.5" fill="rgb(0, 0, 0)" stroke="rgb(60, 60, 60)" stroke-width="1px" opacity="0.25"></line><line x1="0" y1="111.24999999999999" x2="278.4375" y2="111.24999999999999" fill="rgb(0, 0, 0)" stroke="rgb(60, 60, 60)" stroke-width="1px" opacity="0.25"></line><line x1="0" y1="88.99999999999999" x2="278.4375" y2="88.99999999999999" fill="rgb(0, 0, 0)" stroke="rgb(60, 60, 60)" stroke-width="1px" opacity="0.25"></line><line x1="0" y1="66.75" x2="278.4375" y2="66.75" fill="rgb(0, 0, 0)" stroke="rgb(60, 60, 60)" stroke-width="1px" opacity="0.25"></line><line x1="0" y1="44.5" x2="278.4375" y2="44.5" fill="rgb(0, 0, 0)" stroke="rgb(60, 60, 60)" stroke-width="1px" opacity="0.25"></line><line x1="0" y1="22.25" x2="278.4375" y2="22.25" fill="rgb(0, 0, 0)" stroke="rgb(60, 60, 60)" stroke-width="1px" opacity="0.25"></line><line x1="0" y1="0" x2="278.4375" y2="0" fill="rgb(0, 0, 0)" stroke="rgb(60, 60, 60)" stroke-width="1px" opacity="0.25"></line></g></g></g><g><g><line x1="0" y1="155.75" x2="278.4375" y2="155.75" fill="rgb(0, 0, 0)" stroke="rgb(153, 153, 153)" stroke-width="1.5px"></line></g></g><g><g><line x1="0" y1="0" x2="0" y2="178" fill="rgb(0, 0, 0)" stroke="rgb(153, 153, 153)" stroke-width="1.5px"></line></g></g><g><g><g><g><g><path stroke="rgb(51, 187, 238)" stroke-width="2px" d="M31.82142857142857,-3.9446328881144455L31.82142857142857,0.16602210042001242L31.82142857142857,2.8678172455488706L31.82142857142857,8.219080481481996L31.82142857142857,9.457596158482149L31.82142857142857,12.218715083359408L31.82142857142857,16.46736595467012L31.82142857142857,19.964770365560575L39.776785714285715,21.911999121192572L39.776785714285715,26.966048573151266L39.776785714285715,27.577233965589024L39.776785714285715,30.195849109117898L39.776785714285715,30.839248749676354L39.776785714285715,32.47815814213331L39.776785714285715,35.00917777742402L39.776785714285715,35.65675511044675L47.732142857142854,38.566716447317475L47.732142857142854,41.76133964504189L47.732142857142854,43.934611899558675L47.732142857142854,43.360467077933L47.732142857142854,46.240585268822L47.732142857142854,46.84357157430039L47.732142857142854,47.99407240204936L47.732142857142854,49.253401663647104L55.6875,53.3093039911018L55.6875,54.282276423046476L55.6875,55.40903405623354L55.6875,56.87861975596806L55.6875,58.14040004948871L55.6875,58.877715752960604L55.6875,59.93191195514349L55.6875,59.14873412839471L63.64285714285714,62.84218555445694L63.64285714285714,65.66117232296044L63.64285714285714,67.36503865273711L63.64285714285714,67.45785700650165L63.64285714285714,68.11868664843531L63.64285714285714,69.23507413400827L63.64285714285714,67.65863379319677L63.64285714285714,68.89752250003919L71.59821428571428,71.76053183727326L71.59821428571428,72.19236579807317L71.59821428571428,73.83177861733266L71.59821428571428,76.35074539877789L71.59821428571428,75.3630729728807L71.59821428571428,76.20840814792328L71.59821428571428,75.5150398020936L71.59821428571428,76.57514147192195L79.55357142857143,79.78153574603766L79.55357142857143,81.03684116088137L79.55357142857143,82.37011371065847L79.55357142857143,80.04005432730716L79.55357142857143,82.3396088993895L79.55357142857143,82.50664538838554L79.55357142857143,83.14905634342483L79.55357142857143,83.503798656576L87.50892857142857,86.58820318753307L87.50892857142857,87.85041478618852L87.50892857142857,89.32472175565285L87.50892857142857,89.617628271621L87.50892857142857,88.30364796235652L87.50892857142857,88.15929860302502L87.50892857142857,88.96226905839856L87.50892857142857,89.50924748812447L95.46428571428571,90.46813972374397L95.46428571428571,92.27549940693737L95.46428571428571,93.37954567878461L95.46428571428571,93.42845320706974L95.46428571428571,93.54868509176616L95.46428571428571,93.70953396441487L95.46428571428571,93.93519957948891L95.46428571428571,94.14890064650277L103.41964285714286,97.26342884810863L103.41964285714286,100.07406578130782L103.41964285714286,98.72606285612142L103.41964285714286,97.8012076985857L103.41964285714286,97.97403542828685L103.41964285714286,98.98753673811035L103.41964285714286,98.29103272544906L103.41964285714286,97.06018888585307L111.375,100.99655335624537L111.375,103.19717334794714L111.375,102.01082739286252L111.375,101.50663032265085L111.375,102.28920767981752L111.375,103.22078477310504L111.375,103.57343877236467L111.375,103.16032971668494L119.33035714285714,106.05036219196468L119.33035714285714,106.24604282222361L119.33035714285714,105.96594827140672L119.33035714285714,108.67327545443356L119.33035714285714,107.53119036471355L119.33035714285714,106.69149364778703L119.33035714285714,106.50986876338305L119.33035714285714,105.16936681717388L127.28571428571428,109.12433335214703L127.28571428571428,109.93456697183757L127.28571428571428,110.62683229874317L127.28571428571428,109.95994855899062L127.28571428571428,109.20370884501008L127.28571428571428,109.11093767442148L127.28571428571428,108.71904661630296L127.28571428571428,106.75878534242335L135.24107142857142,110.44925111547006L135.24107142857142,112.59468471118743L135.24107142857142,113.45857169097027L135.24107142857142,112.00814440170146L135.24107142857142,112.15121745955476L135.24107142857142,111.85253393883424L135.24107142857142,112.75376710435698L135.24107142857142,113.07767540896505L143.19642857142856,114.65056765785556L143.19642857142856,116.81762878126348L143.19642857142856,116.16877224759128L143.19642857142856,116.97731038758673L143.19642857142856,116.16405234533262L143.19642857142856,114.8883101868493L143.19642857142856,114.96840174960269L143.19642857142856,115.15775967518792L151.1517857142857,117.91005624461357L151.1517857142857,119.31359993593802L151.1517857142857,119.14343248413152L151.1517857142857,119.52448380652754L151.1517857142857,118.88667677738479L151.1517857142857,118.3904456817997L151.1517857142857,118.02692070745782L151.1517857142857,118.2134250589809L159.10714285714286,120.53682612410792L159.10714285714286,121.34349925834898L159.10714285714286,121.34179177295545L159.10714285714286,121.62407084054577L159.10714285714286,121.40003066806095L159.10714285714286,121.13983076541483L159.10714285714286,119.60851487355744L159.10714285714286,119.09148272775003L167.0625,121.59354792477122L167.0625,121.99602491820714L167.0625,122.49536217847383L167.0625,122.57682662963221L167.0625,121.73448471581548L167.0625,123.09296686265236L167.0625,123.08986825831751L167.0625,122.16171043269647L175.01785714285714,123.85535231323725L175.01785714285714,124.59100697393231L175.01785714285714,125.13857030543693L175.01785714285714,123.0135273437083L175.01785714285714,123.03601117732406L175.01785714285714,122.48403224231173L175.01785714285714,121.93851981092314L175.01785714285714,122.3970289470483L182.97321428571428,125.39954919318731L182.97321428571428,125.43949527561888L182.97321428571428,126.49629749220745L182.97321428571428,126.33289362706024L182.97321428571428,125.39582345615194L182.97321428571428,125.43239664572695L182.97321428571428,125.52104858778846L182.97321428571428,126.04992502166587L190.92857142857142,127.60971045484399L190.92857142857142,127.23447387808712L190.92857142857142,127.50673510667175L190.92857142857142,127.76826470963057L190.92857142857142,126.31935511751112L190.92857142857142,128.0582912801095L190.92857142857142,128.4244424902432L190.92857142857142,127.33516123014884L198.88392857142858,128.34582184474587L198.88392857142858,130.1446520699317L198.88392857142858,129.61242548157304L198.88392857142858,129.80632226633745L198.88392857142858,130.21841031442713L198.88392857142858,129.02068170982974L198.88392857142858,128.1617574309014L198.88392857142858,128.46184551505462L206.83928571428572,130.62760009043345L206.83928571428572,130.66352851195887L206.83928571428572,129.50302328171585L206.83928571428572,129.15556201936158L206.83928571428572,129.39718011082024L206.83928571428572,129.81709016001707L206.83928571428572,130.0152745582848L206.83928571428572,129.89383272309237L214.79464285714286,131.80901341127833L214.79464285714286,132.35685504518437L214.79464285714286,131.58614209319646L214.79464285714286,132.35090067401822L214.79464285714286,132.11992717334806L214.79464285714286,131.3761586892556L214.79464285714286,130.996990226087L214.79464285714286,131.3218336119515L222.75,133.0013944500245L222.75,133.23722888341885L222.75,133.89925043172445L222.75,134.10635211102252L222.75,133.1536902474289L222.75,133.4836779929355L222.75,133.03610800636736L222.75,133.37961084802706L230.70535714285717,135.4017617041454L230.70535714285717,135.43164649066838L230.70535714285717,135.3938628969044L230.70535714285717,135.14731966927351L230.70535714285717,134.18402733787718L230.70535714285717,133.57461959352983L230.70535714285717,132.5158513455444L230.70535714285717,133.70987240486463L238.66071428571428,134.79629511095953L238.66071428571428,134.5021015775673L238.66071428571428,136.0918210847659L238.66071428571428,136.47034179887078L238.66071428571428,135.12107455564083L238.66071428571428,134.92672004897918L238.66071428571428,134.66679383277608L238.66071428571428,134.6750665051324" style="fill: none;" fill="none"></path></g></g></g></g><g opacity="0.2"><g><g><g><path stroke="rgb(51, 187, 238)" stroke-width="2px" d="M23.866071428571427,-4.217045485973358L31.82142857142857,4.345506846904755L31.82142857142857,6.331987053155899L31.82142857142857,6.9205030500888824L31.82142857142857,16.245967119932175L31.82142857142857,11.31536853313446L31.82142857142857,16.360391944646835L31.82142857142857,22.840340852737427L31.82142857142857,25.210876286029816L39.776785714285715,24.832842022180557L39.776785714285715,34.54712238907814L39.776785714285715,28.494012027978897L39.776785714285715,34.123771756887436L39.776785714285715,31.804348200559616L39.776785714285715,34.93652221560478L39.776785714285715,38.80570721626282L39.776785714285715,36.628121107816696L47.732142857142854,42.93165844678879L47.732142857142854,46.55327443778515L47.732142857142854,47.19452027976513L47.732142857142854,42.49924984574318L47.732142857142854,50.56076255440712L47.732142857142854,47.74805103242397L47.732142857142854,49.71982364356518L47.732142857142854,51.14239555597305L55.6875,59.39315748214722L55.6875,55.74173507094383L55.6875,57.09917050600052L55.6875,59.08299830555916L55.6875,60.033070489764214L55.6875,59.983689308166504L55.6875,61.513206258416176L55.6875,57.973967388272285L63.64285714285714,68.3823626935482L63.64285714285714,69.88965247571468L63.64285714285714,69.92083814740181L63.64285714285714,67.59708453714848L63.64285714285714,69.10993111133575L63.64285714285714,70.90965536236763L63.64285714285714,65.29397328197956L63.64285714285714,70.75585556030273L71.59821428571428,76.05504584312439L71.59821428571428,72.84011673927307L71.59821428571428,76.29089784622192L71.59821428571428,80.12919557094574L71.59821428571428,73.88156433403492L71.59821428571428,77.47641091048717L71.59821428571428,74.47498728334904L71.59821428571428,78.16529397666454L79.55357142857143,84.5911271572113L79.55357142857143,82.91979928314686L79.55357142857143,84.3700225353241L79.55357142857143,76.54496525228024L79.55357142857143,85.78894075751305L79.55357142857143,82.75720012187958L79.55357142857143,84.11267277598381L79.55357142857143,84.03591212630272L87.50892857142857,91.21480998396873L87.50892857142857,89.74373218417168L87.50892857142857,91.53618220984936L87.50892857142857,90.05698804557323L87.50892857142857,86.33267749845982L87.50892857142857,87.94277456402779L87.50892857142857,90.16672474145889L87.50892857142857,90.32971513271332L95.46428571428571,91.90647807717323L95.46428571428571,94.98653893172741L95.46428571428571,95.03561508655548L95.46428571428571,93.50181449949741L95.46428571428571,93.72903291881084L95.46428571428571,93.95080727338791L95.46428571428571,94.27369800209999L95.46428571428571,94.46945224702358L103.41964285714286,101.93522115051746L103.41964285714286,104.29002118110657L103.41964285714286,96.70405846834183L103.41964285714286,96.41392496228218L103.41964285714286,98.23327702283859L103.41964285714286,100.50778870284557L103.41964285714286,97.24627670645714L103.41964285714286,95.21392312645912L111.375,106.90110006183386L111.375,106.49810333549976L111.375,100.2313084602356L111.375,100.75033471733332L111.375,103.46307371556759L111.375,104.61815041303635L111.375,104.10241977125406L111.375,102.54066613316536L119.33035714285714,110.38541090488434L119.33035714285714,106.53956376761198L119.33035714285714,105.54580644518137L119.33035714285714,112.73426622897387L119.33035714285714,105.81806273013353L119.33035714285714,105.43194857239723L119.33035714285714,106.23743143677711L119.33035714285714,103.15861389786005L127.28571428571428,115.05678315460682L127.28571428571428,111.14991740137339L127.28571428571428,111.6652302891016L127.28571428571428,108.9596229493618L127.28571428571428,108.06934927403927L127.28571428571428,108.97178091853857L127.28571428571428,108.13121002912521L127.28571428571428,103.81839343160391L135.24107142857142,115.98494977504015L135.24107142857142,115.81283510476351L135.24107142857142,114.75440216064453L135.24107142857142,109.83250346779823L135.24107142857142,112.36582704633474L135.24107142857142,111.40450865775347L135.24107142857142,114.1056168526411L135.24107142857142,113.56353786587715L143.19642857142856,117.00990603119135L143.19642857142856,120.06822046637535L143.19642857142856,115.195487447083L143.19642857142856,118.19011759757996L143.19642857142856,114.94416528195143L143.19642857142856,112.97469694912434L143.19642857142856,115.08853909373283L143.19642857142856,115.44179656356573L151.1517857142857,122.03850109875202L151.1517857142857,121.41891547292471L151.1517857142857,118.88818130642176L151.1517857142857,120.09606079012156L151.1517857142857,117.92996623367071L151.1517857142857,117.64609903842211L151.1517857142857,117.48163324594498L151.1517857142857,118.49318158626556L159.10714285714286,124.02192772179842L159.10714285714286,122.5535089597106L159.10714285714286,121.33923054486513L159.10714285714286,122.04748944193125L159.10714285714286,121.0639704093337L159.10714285714286,120.74953091144562L159.10714285714286,117.31154103577137L159.10714285714286,118.31593450903893L167.0625,125.34664572030306L167.0625,122.59974040836096L167.0625,123.24436806887388L167.0625,122.69902330636978L167.0625,120.47097184509039L167.0625,125.13069008290768L167.0625,123.08522035181522L167.0625,120.76947369426489L175.01785714285714,126.39581513404846L175.01785714285714,125.69448896497488L175.01785714285714,125.95991530269384L175.01785714285714,119.82596290111542L175.01785714285714,123.06973692774773L175.01785714285714,121.6560638397932L175.01785714285714,121.1202511638403L175.01785714285714,123.08479265123606L182.97321428571428,129.9033295623958L182.97321428571428,125.49941439926624L182.97321428571428,128.08150081709027L182.97321428571428,126.0877878293395L182.97321428571428,123.99021819978952L182.97321428571428,125.48725643008947L182.97321428571428,125.65402650088072L182.97321428571428,126.84323967248201L190.92857142857142,129.94938860461116L190.92857142857142,126.67161901295185L190.92857142857142,127.91512694954872L190.92857142857142,128.16055911406875L190.92857142857142,124.14599072933197L190.92857142857142,130.66669552400708L190.92857142857142,128.97366930544376L190.92857142857142,125.7012393400073L198.88392857142858,129.86181276664138L198.88392857142858,132.84289740771055L198.88392857142858,128.81408559903502L198.88392857142858,130.09716744348407L198.88392857142858,130.83654238656163L198.88392857142858,127.2240888029337L198.88392857142858,126.87337101250887L198.88392857142858,128.91197764128447L206.83928571428572,133.8762319535017L206.83928571428572,130.71742114424706L206.83928571428572,127.7622654363513L206.83928571428572,128.63437012583017L206.83928571428572,129.75960724800825L206.83928571428572,130.44695523381233L206.83928571428572,130.31255115568638L206.83928571428572,129.71166997030377L214.79464285714286,134.68178444355726L214.79464285714286,133.17861749604344L214.79464285714286,130.43007266521454L214.79464285714286,133.4980385452509L214.79464285714286,131.77346692234278L214.79464285714286,130.26050596311688L214.79464285714286,130.42823753133416L214.79464285714286,131.80909869074821L222.75,135.520735707134L222.75,133.59098053351045L222.75,134.89228275418282L222.75,134.4170046299696L222.75,131.72469745203853L222.75,133.97865961119533L222.75,132.36475302651525L222.75,133.89486511051655L230.70535714285717,138.43498798832297L230.70535714285717,135.47647367045283L230.70535714285717,135.3371875062585L230.70535714285717,134.77750482782722L230.70535714285717,132.73908884078264L230.70535714285717,132.66050797700882L230.70535714285717,130.9276989735663L230.70535714285717,135.500903993845L238.66071428571428,136.42592917010188L238.66071428571428,134.06081127747893L238.66071428571428,138.4764003455639L238.66071428571428,137.03812287002802L238.66071428571428,133.0971736907959L238.66071428571428,134.63518828898668L238.66071428571428,134.2769045084715L238.66071428571428,134.68747551366687" style="fill: none;" fill="none"></path></g></g></g></g></g></g><g transform="translate(51, 178)" clip-path="url(#clip_1)"><clipPath id="clip_1"><rect width="278" height="22"></rect></clipPath><g><g><line x1="0" y1="0" x2="0" y2="5" style="visibility: inherit;" fill="rgb(0, 0, 0)" stroke="rgb(204, 204, 204)" stroke-width="1px"></line><line x1="39.776785714285715" y1="0" x2="39.776785714285715" y2="5" style="visibility: inherit;" fill="rgb(0, 0, 0)" stroke="rgb(204, 204, 204)" stroke-width="1px"></line><line x1="79.55357142857143" y1="0" x2="79.55357142857143" y2="5" style="visibility: inherit;" fill="rgb(0, 0, 0)" stroke="rgb(204, 204, 204)" stroke-width="1px"></line><line x1="119.33035714285714" y1="0" x2="119.33035714285714" y2="5" style="visibility: inherit;" fill="rgb(0, 0, 0)" stroke="rgb(204, 204, 204)" stroke-width="1px"></line><line x1="159.10714285714286" y1="0" x2="159.10714285714286" y2="5" style="visibility: inherit;" fill="rgb(0, 0, 0)" stroke="rgb(204, 204, 204)" stroke-width="1px"></line><line x1="198.88392857142858" y1="0" x2="198.88392857142858" y2="5" style="visibility: inherit;" fill="rgb(0, 0, 0)" stroke="rgb(204, 204, 204)" stroke-width="1px"></line><line x1="238.66071428571428" y1="0" x2="238.66071428571428" y2="5" style="visibility: inherit;" fill="rgb(0, 0, 0)" stroke="rgb(204, 204, 204)" stroke-width="1px"></line><line x1="278.4375" y1="0" x2="278.4375" y2="5" style="visibility: inherit;" fill="rgb(0, 0, 0)" stroke="rgb(204, 204, 204)" stroke-width="1px"></line></g><g transform="translate(0, 8)"><text x="0" y="0" dx="0em" dy="0.95em" style="text-anchor: middle; visibility: hidden; font-family: Roboto, sans-serif; font-size: 12px; font-weight: 200;" fill="rgb(50, 49, 63)" stroke="none" stroke-width="1px">0</text><text x="39.776785714285715" y="0" dx="0em" dy="0.95em" style="text-anchor: middle; visibility: inherit; font-family: Roboto, sans-serif; font-size: 12px; font-weight: 200;" fill="rgb(50, 49, 63)" stroke="none" stroke-width="1px">5</text><text x="79.55357142857143" y="0" dx="0em" dy="0.95em" style="text-anchor: middle; visibility: inherit; font-family: Roboto, sans-serif; font-size: 12px; font-weight: 200;" fill="rgb(50, 49, 63)" stroke="none" stroke-width="1px">10</text><text x="119.33035714285714" y="0" dx="0em" dy="0.95em" style="text-anchor: middle; visibility: inherit; font-family: Roboto, sans-serif; font-size: 12px; font-weight: 200;" fill="rgb(50, 49, 63)" stroke="none" stroke-width="1px">15</text><text x="159.10714285714286" y="0" dx="0em" dy="0.95em" style="text-anchor: middle; visibility: inherit; font-family: Roboto, sans-serif; font-size: 12px; font-weight: 200;" fill="rgb(50, 49, 63)" stroke="none" stroke-width="1px">20</text><text x="198.88392857142858" y="0" dx="0em" dy="0.95em" style="text-anchor: middle; visibility: inherit; font-family: Roboto, sans-serif; font-size: 12px; font-weight: 200;" fill="rgb(50, 49, 63)" stroke="none" stroke-width="1px">25</text><text x="238.66071428571428" y="0" dx="0em" dy="0.95em" style="text-anchor: middle; visibility: inherit; font-family: Roboto, sans-serif; font-size: 12px; font-weight: 200;" fill="rgb(50, 49, 63)" stroke="none" stroke-width="1px">30</text><text x="278.4375" y="0" dx="0em" dy="0.95em" style="text-anchor: middle; visibility: hidden; font-family: Roboto, sans-serif; font-size: 12px; font-weight: 200;" fill="rgb(50, 49, 63)" stroke="none" stroke-width="1px">35</text></g><line x1="0" y1="0" x2="278.4375" y2="0" fill="rgb(0, 0, 0)" stroke="rgb(204, 204, 204)" stroke-width="1px"></line></g></g></g></g></svg>