<svg viewBox="0 0 330 200" xmlns="http://www.w3.org/2000/svg"><g><g><g><g><g><line x1="41.171875" y1="178" x2="36.171875" y2="178" style="visibility: inherit;" fill="rgb(0, 0, 0)" stroke="rgb(204, 204, 204)" stroke-width="1px"></line><line x1="41.171875" y1="161.8181818181818" x2="36.171875" y2="161.8181818181818" style="visibility: inherit;" fill="rgb(0, 0, 0)" stroke="rgb(204, 204, 204)" stroke-width="1px"></line><line x1="41.171875" y1="145.63636363636363" x2="36.171875" y2="145.63636363636363" style="visibility: inherit;" fill="rgb(0, 0, 0)" stroke="rgb(204, 204, 204)" stroke-width="1px"></line><line x1="41.171875" y1="129.45454545454547" x2="36.171875" y2="129.45454545454547" style="visibility: inherit;" fill="rgb(0, 0, 0)" stroke="rgb(204, 204, 204)" stroke-width="1px"></line><line x1="41.171875" y1="113.27272727272727" x2="36.171875" y2="113.27272727272727" style="visibility: inherit;" fill="rgb(0, 0, 0)" stroke="rgb(204, 204, 204)" stroke-width="1px"></line><line x1="41.171875" y1="97.09090909090908" x2="36.171875" y2="97.09090909090908" style="visibility: inherit;" fill="rgb(0, 0, 0)" stroke="rgb(204, 204, 204)" stroke-width="1px"></line><line x1="41.171875" y1="80.90909090909092" x2="36.171875" y2="80.90909090909092" style="visibility: inherit;" fill="rgb(0, 0, 0)" stroke="rgb(204, 204, 204)" stroke-width="1px"></line><line x1="41.171875" y1="64.72727272727273" x2="36.171875" y2="64.72727272727273" style="visibility: inherit;" fill="rgb(0, 0, 0)" stroke="rgb(204, 204, 204)" stroke-width="1px"></line><line x1="41.171875" y1="48.54545454545454" x2="36.171875" y2="48.54545454545454" style="visibility: inherit;" fill="rgb(0, 0, 0)" stroke="rgb(204, 204, 204)" stroke-width="1px"></line><line x1="41.171875" y1="32.36363636363635" x2="36.171875" y2="32.36363636363635" style="visibility: inherit;" fill="rgb(0, 0, 0)" stroke="rgb(204, 204, 204)" stroke-width="1px"></line><line x1="41.171875" y1="16.181818181818187" x2="36.171875" y2="16.181818181818187" style="visibility: inherit;" fill="rgb(0, 0, 0)" stroke="rgb(204, 204, 204)" stroke-width="1px"></line><line x1="41.171875" y1="0" x2="36.171875" y2="0" style="visibility: inherit;" fill="rgb(0, 0, 0)" stroke="rgb(204, 204, 204)" stroke-width="1px"></line></g><g transform="translate(31.171875, 0)"><text x="0" y="178" dx="0em" dy="0.3em" style="text-anchor: end; visibility: hidden; font-family: Roboto, sans-serif; font-size: 12px; font-weight: 200;" fill="rgb(50, 49, 63)" stroke="none" stroke-width="1px">55</text><text x="0" y="161.8181818181818" dx="0em" dy="0.3em" style="text-anchor: end; visibility: inherit; font-family: Roboto, sans-serif; font-size: 12px; font-weight: 200;" fill="rgb(50, 49, 63)" stroke="none" stroke-width="1px">60</text><text x="0" y="145.63636363636363" dx="0em" dy="0.3em" style="text-anchor: end; visibility: hidden; font-family: Roboto, sans-serif; font-size: 12px; font-weight: 200;" fill="rgb(50, 49, 63)" stroke="none" stroke-width="1px">65</text><text x="0" y="129.45454545454547" dx="0em" dy="0.3em" style="text-anchor: end; visibility: inherit; font-family: Roboto, sans-serif; font-size: 12px; font-weight: 200;" fill="rgb(50, 49, 63)" stroke="none" stroke-width="1px">70</text><text x="0" y="113.27272727272727" dx="0em" dy="0.3em" style="text-anchor: end; visibility: hidden; font-family: Roboto, sans-serif; font-size: 12px; font-weight: 200;" fill="rgb(50, 49, 63)" stroke="none" stroke-width="1px">75</text><text x="0" y="97.09090909090908" dx="0em" dy="0.3em" style="text-anchor: end; visibility: inherit; font-family: Roboto, sans-serif; font-size: 12px; font-weight: 200;" fill="rgb(50, 49, 63)" stroke="none" stroke-width="1px">80</text><text x="0" y="80.90909090909092" dx="0em" dy="0.3em" style="text-anchor: end; visibility: hidden; font-family: Roboto, sans-serif; font-size: 12px; font-weight: 200;" fill="rgb(50, 49, 63)" stroke="none" stroke-width="1px">85</text><text x="0" y="64.72727272727273" dx="0em" dy="0.3em" style="text-anchor: end; visibility: inherit; font-family: Roboto, sans-serif; font-size: 12px; font-weight: 200;" fill="rgb(50, 49, 63)" stroke="none" stroke-width="1px">90</text><text x="0" y="48.54545454545454" dx="0em" dy="0.3em" style="text-anchor: end; visibility: hidden; font-family: Roboto, sans-serif; font-size: 12px; font-weight: 200;" fill="rgb(50, 49, 63)" stroke="none" stroke-width="1px">95</text><text x="0" y="32.36363636363635" dx="0em" dy="0.3em" style="text-anchor: end; visibility: inherit; font-family: Roboto, sans-serif; font-size: 12px; font-weight: 200;" fill="rgb(50, 49, 63)" stroke="none" stroke-width="1px">100</text><text x="0" y="16.181818181818187" dx="0em" dy="0.3em" style="text-anchor: end; visibility: hidden; font-family: Roboto, sans-serif; font-size: 12px; font-weight: 200;" fill="rgb(50, 49, 63)" stroke="none" stroke-width="1px">105</text><text x="0" y="0" dx="0em" dy="0.3em" style="text-anchor: end; visibility: hidden; font-family: Roboto, sans-serif; font-size: 12px; font-weight: 200;" fill="rgb(50, 49, 63)" stroke="none" stroke-width="1px">110</text></g><line x1="41.171875" y1="0" x2="41.171875" y2="178" fill="rgb(0, 0, 0)" stroke="rgb(204, 204, 204)" stroke-width="1px"></line></g></g><g transform="translate(41, 0)" clip-path="url(#clip_0)"><clipPath id="clip_0"><rect width="288" height="178"></rect></clipPath><g><g><g><line x1="0" y1="0" x2="0" y2="178" fill="rgb(0, 0, 0)" stroke="rgb(60, 60, 60)" stroke-width="1px" opacity="0.25"></line><line x1="24.069010416666664" y1="0" x2="24.069010416666664" y2="178" fill="rgb(0, 0, 0)" stroke="rgb(60, 60, 60)" stroke-width="1px" opacity="0.25"></line><line x1="48.13802083333333" y1="0" x2="48.13802083333333" y2="178" fill="rgb(0, 0, 0)" stroke="rgb(60, 60, 60)" stroke-width="1px" opacity="0.25"></line><line x1="72.20703125" y1="0" x2="72.20703125" y2="178" fill="rgb(0, 0, 0)" stroke="rgb(60, 60, 60)" stroke-width="1px" opacity="0.25"></line><line x1="96.27604166666666" y1="0" x2="96.27604166666666" y2="178" fill="rgb(0, 0, 0)" stroke="rgb(60, 60, 60)" stroke-width="1px" opacity="0.25"></line><line x1="120.34505208333334" y1="0" x2="120.34505208333334" y2="178" fill="rgb(0, 0, 0)" stroke="rgb(60, 60, 60)" stroke-width="1px" opacity="0.25"></line><line x1="144.4140625" y1="0" x2="144.4140625" y2="178" fill="rgb(0, 0, 0)" stroke="rgb(60, 60, 60)" stroke-width="1px" opacity="0.25"></line><line x1="168.48307291666669" y1="0" x2="168.48307291666669" y2="178" fill="rgb(0, 0, 0)" stroke="rgb(60, 60, 60)" stroke-width="1px" opacity="0.25"></line><line x1="192.55208333333331" y1="0" x2="192.55208333333331" y2="178" fill="rgb(0, 0, 0)" stroke="rgb(60, 60, 60)" stroke-width="1px" opacity="0.25"></line><line x1="216.62109375" y1="0" x2="216.62109375" y2="178" fill="rgb(0, 0, 0)" stroke="rgb(60, 60, 60)" stroke-width="1px" opacity="0.25"></line><line x1="240.69010416666669" y1="0" x2="240.69010416666669" y2="178" fill="rgb(0, 0, 0)" stroke="rgb(60, 60, 60)" stroke-width="1px" opacity="0.25"></line><line x1="264.7591145833333" y1="0" x2="264.7591145833333" y2="178" fill="rgb(0, 0, 0)" stroke="rgb(60, 60, 60)" stroke-width="1px" opacity="0.25"></line><line x1="288.828125" y1="0" x2="288.828125" y2="178" fill="rgb(0, 0, 0)" stroke="rgb(60, 60, 60)" stroke-width="1px" opacity="0.25"></line></g><g><line x1="0" y1="178" x2="288.828125" y2="178" fill="rgb(0, 0, 0)" stroke="rgb(60, 60, 60)" stroke-width="1px" opacity="0.25"></line><line x1="0" y1="161.8181818181818" x2="288.828125" y2="161.8181818181818" fill="rgb(0, 0, 0)" stroke="rgb(60, 60, 60)" stroke-width="1px" opacity="0.25"></line><line x1="0" y1="145.63636363636363" x2="288.828125" y2="145.63636363636363" fill="rgb(0, 0, 0)" stroke="rgb(60, 60, 60)" stroke-width="1px" opacity="0.25"></line><line x1="0" y1="129.45454545454547" x2="288.828125" y2="129.45454545454547" fill="rgb(0, 0, 0)" stroke="rgb(60, 60, 60)" stroke-width="1px" opacity="0.25"></line><line x1="0" y1="113.27272727272727" x2="288.828125" y2="113.27272727272727" fill="rgb(0, 0, 0)" stroke="rgb(60, 60, 60)" stroke-width="1px" opacity="0.25"></line><line x1="0" y1="97.09090909090908" x2="288.828125" y2="97.09090909090908" fill="rgb(0, 0, 0)" stroke="rgb(60, 60, 60)" stroke-width="1px" opacity="0.25"></line><line x1="0" y1="80.90909090909092" x2="288.828125" y2="80.90909090909092" fill="rgb(0, 0, 0)" stroke="rgb(60, 60, 60)" stroke-width="1px" opacity="0.25"></line><line x1="0" y1="64.72727272727273" x2="288.828125" y2="64.72727272727273" fill="rgb(0, 0, 0)" stroke="rgb(60, 60, 60)" stroke-width="1px" opacity="0.25"></line><line x1="0" y1="48.54545454545454" x2="288.828125" y2="48.54545454545454" fill="rgb(0, 0, 0)" stroke="rgb(60, 60, 60)" stroke-width="1px" opacity="0.25"></line><line x1="0" y1="32.36363636363635" x2="288.828125" y2="32.36363636363635" fill="rgb(0, 0, 0)" stroke="rgb(60, 60, 60)" stroke-width="1px" opacity="0.25"></line><line x1="0" y1="16.181818181818187" x2="288.828125" y2="16.181818181818187" fill="rgb(0, 0, 0)" stroke="rgb(60, 60, 60)" stroke-width="1px" opacity="0.25"></line><line x1="0" y1="0" x2="288.828125" y2="0" fill="rgb(0, 0, 0)" stroke="rgb(60, 60, 60)" stroke-width="1px" opacity="0.25"></line></g></g></g><g><g><line x1="0" y1="356" x2="288.828125" y2="356" fill="rgb(0, 0, 0)" stroke="rgb(153, 153, 153)" stroke-width="1.5px"></line></g></g><g><g><line x1="24.069010416666664" y1="0" x2="24.069010416666664" y2="178" fill="rgb(0, 0, 0)" stroke="rgb(153, 153, 153)" stroke-width="1.5px"></line></g></g><g><g><g><g><g><path stroke="rgb(187, 187, 187)" stroke-width="2px" d="M35.838756510416665,181.64134274057645L37.16255208333334,176.95827413232064L37.23475911458334,174.15373671906735L37.57172526041666,172.0073623214028L37.66800130208333,170.75737987119558L38.823313802083334,169.2300675699299L38.991796875000006,168.2834429851281L40.05083333333333,167.20749010717245L40.77290364583333,166.2186177102614L42.14483723958333,164.87566542138305L42.84283854166667,163.80171478232606L36.22386067708334,159.16511977831308L36.60896484375,156.55654151581064L37.95682942708333,153.16568072442652L39.18434895833333,150.29301638917815L39.61759114583333,148.611847653101L39.83421223958333,147.50647427012444L40.21931640625,146.9311322094458L40.291523437500004,146.6910633588704L41.350559895833335,146.36474943222544L42.86690755208333,145.72139316075547L43.396425781249995,144.9650761086335L43.4686328125,144.52696003840447L43.66118489583334,144.2067271150171L44.6239453125,143.7237906857361L45.03311848958334,143.377139623622L45.346015625,143.02926672871865L40.48407552083333,138.78588356794847L41.92821614583333,135.52484723505174L44.11849609375,133.13491932735917L44.40732421875,131.64625610635866L45.177532552083335,130.62060311782798L45.32194661458334,129.88901314910586L45.80332682291667,129.29398916609708L45.923671875000004,128.88799672675333L47.00677734375,128.4206963181898L47.295605468750004,128.00298197770363L41.133938802083335,123.23461966424998L41.97635416666667,120.23824350043212L42.000423177083334,118.3735038506144L43.10759765625,117.23341549840133L43.51677083333333,116.20164697748538L43.56490885416667,115.60931193915457L43.68525390625,115.19355502570865L44.28697916666666,114.81531991617095L44.311048177083336,114.65016684760738L44.59987630208334,114.72054755174625L44.72022135416666,114.79432182827786L45.41822265625,114.69947451120677L45.7792578125,114.74460125501952L45.923671875000004,114.75877846430434L49.100781250000004,114.16435798767351L43.42049479166667,106.22247842896776L44.59987630208334,106.31380233170594L47.17526041666667,105.64609389902357L48.884160156250005,104.9577635393431L50.593059895833335,104.40239416320102L50.66526692708333,104.05428850431268L52.06126953125,103.73521215177084L46.549466145833335,99.4295607960341L48.21022786458333,98.03457163830936L48.54719401041667,97.07622438390891L48.59533203125,96.50078146095618L48.61940104166667,96.18058251293738L50.01540364583333,96.35835161624966L54.22748046875,96.65481166222138L50.11167968749999,95.07539398863258L50.544921875,94.27353184772495L50.593059895833335,93.80213313562359L51.79651041666667,93.95856548151623L53.50541015625,93.93800450109012L54.756998697916664,93.74280270065411L55.262447916666666,93.50827849983142L55.43093098958334,93.43996931935907L51.00223307291667,90.35453235067082L51.67616536458333,90.03220704800906L52.35009765625,89.61932422880543L53.60168619791666,89.80321174697782L55.09396484375,89.90680841803756L57.45272786458333,90.17557497447314L58.19886718750001,90.13405847456313L58.31921223958333,90.08372621133591L53.048098958333334,94.3025084540743L53.360996093749996,92.55035650177697L53.40913411458334,91.25796769634316L55.358723958333336,89.6973942541695L57.57307291666667,88.47133993939799L57.98224609375001,87.76531739137316L58.4876953125,87.41491908361652L60.84645833333333,87.17881328877077L61.71294270833334,87.11097738199824L61.80921875,87.09102657035663L62.00177083333333,87.06273994345689L57.693417968750005,85.22269612338945L58.030384114583335,84.29722884679644L58.94500651041667,84.0972393411034L59.23383463541667,84.04567070871039L60.24473307291667,84.17804895399044L61.88142578125,84.142324644944L62.098046875,84.11323569605733L62.17025390625,84.13027140698101L63.999498697916664,84.07064553239881L64.04763671875,84.04655402309697L58.343281250000004,82.54715260650734L59.01721354166667,81.10617541955071L61.54445963541667,81.30176289111252L63.71067057291666,81.57708168264337L64.09577473958333,81.62290439399655L64.43274088541666,81.72658609786812L65.90095052083333,81.96331460705183L61.231562499999995,80.39694717154642L62.00177083333333,79.16194482547758L64.76970703125001,79.3143508441502L65.1307421875,79.56832375222876L66.18977864583333,79.74458911106737L68.23564453125,79.77263925321712L68.64481770833333,79.81233366290333L68.71702473958334,79.8806740125502L69.58350911458334,79.9036731841637L62.74791015625,78.08084027413454L63.61439453125,78.39834835837277L64.11984375,78.18900901502367L65.61212239583332,78.03129658887927L66.09350260416667,77.80944867420826L68.76516276041667,78.19771565782752L69.00585286458333,78.38302126259426L70.66661458333334,78.5620864835864L70.97951171875,78.64079459256662L71.12392578125,78.744721007138L71.43682291666666,78.81731888801859L65.80467447916666,77.33979263341485L66.35826171875,76.40056547706597L66.47860677083334,76.15841368254638L67.89867838541667,76.46056212554345L71.36461588541667,76.88894392038999L72.66434244791667,77.1787435494996L73.36234375000001,77.40784338644694L67.65798828125,76.30751864284117L68.5966796875,75.70064754934107L68.66888671875,75.2155464441998L68.95771484375,74.77006517120738L69.70385416666667,74.15787572825711L72.20703125,74.7698958914997L72.39958333333333,75.26314325666826L72.76061848958334,75.52328900797824L75.0953125,75.85399471160514L75.72110677083333,76.03687236851133L76.250625,76.19498441631278L71.46089192708334,74.43385122329617L71.65344401041666,73.62997271018507L72.6402734375,73.88807440203438L74.85462239583333,74.26920827758428L76.3950390625,74.97329864819122L77.06897135416666,75.50103740535647L77.09304036458335,75.81977449843404L77.5503515625,76.02625634501216L78.10393880208333,76.09737478978425L78.56125,76.06934916808221L72.73654947916667,74.07931790816468L72.97723958333333,73.38523279035336L73.04944661458333,72.86945277346625L73.41048177083333,72.16121711862522L74.20475911458334,71.5832279629365L78.44090494791666,72.33884058635562L78.58531901041667,72.79009456843265L80.19794270833333,73.41362916204682L80.871875,73.75417936157467L81.11256510416666,73.97292931438798L74.9508984375,71.56054048103333L76.56352213541666,71.35189923979188L77.33373046874999,71.25820108950724L78.75380208333334,71.69991088807929L79.59621744791667,72.12279443323823L80.55897786458333,72.48693504950259L83.30284505208333,72.88557844358651L77.14117838541667,72.04952888433372L77.28559244791667,70.97786141795821L78.94635416666667,70.6394157144113L80.005390625,70.58927753589106L80.70339192708333,70.97846609095937L80.82373697916667,71.19587049264382L81.04035807291667,71.33608108908773L83.20656901041667,71.66525572021395L83.27877604166666,71.88525938915961L83.95270833333333,72.11094112266483L84.1933984375,72.35311618727077L85.58940104166666,72.55334498757554L86.43181640625001,72.63856849378826L80.24608072916666,72.05600031591075L81.69022135416667,71.58621182839588L84.67477864583334,71.457337115681L84.74698567708333,71.37014556663871L86.09485026041666,71.40169283092784L86.72064453125,71.44758430207231L86.79285156249999,71.48353404626467L87.29830078125,71.59366734714804L87.46678385416666,71.70799450896354L81.85870442708332,75.18616034174174L82.00311848958333,71.63832240355353L83.35098307291668,71.51628756500146L87.46678385416666,71.34118955338299L87.63526692708334,71.23955792592186L88.28513020833333,71.10116617423205L89.63299479166668,71.09187968056906L90.403203125,71.16024399708434L84.93953776041666,71.16079816494094L85.01174479166667,71.31806980805548L85.49312499999999,71.49023075645972L86.28740234375,71.35509637290988L88.18885416666667,71.40997699100447L88.35733723958333,71.42322130202452L88.67023437499999,71.34360197066788L90.114375,71.06714762149876L90.8364453125,70.92968010787796L91.39003255208334,70.88144176501088L91.82327473958334,70.75394018773521L93.50810546874999,70.86774153185276L88.30919921875001,70.19682811335882L89.84961588541667,69.4507719834272L91.41410156250001,69.26025578149805L93.48403645833334,69.33731502340875L94.10983072916666,69.50949694639608L89.12754557291666,70.4958529751885L91.72699869791667,68.81893301646961L91.89548177083333,67.94165089209056L94.61527994791666,67.69440415386228L94.68748697916666,67.5612759484608L95.19293619791667,67.55009076438897L96.6130078125,67.7119040458138L96.85369791666666,67.84094280923543L97.64797526041667,68.1263968512018L92.68975911458334,67.24665109900236L93.09893229166667,67.2740561112835L93.4358984375,67.53064859929847L93.82100260416667,67.72613518674528L94.23017578125,68.09200135796335L95.19293619791667,68.11633973079364L96.30011067708332,68.31146721294353L96.3241796875,68.43688942755308L96.85369791666666,68.5910864042236L97.69611328124999,68.80978800641913L98.32190755208333,69.00433771418527L98.53852864583334,69.11603047385914L99.79011718749999,69.14122861368337L99.86232421875,69.17175499047565L100.68067057291667,69.20438200706944L100.77694661458332,69.21256062292062L94.32645182291667,67.78040302858193L94.47086588541667,66.55915090805826L94.51900390624999,65.54171657466449L95.48176432291667,65.78049525463533L95.62617838541667,66.14335874280252L95.93907552083333,66.3907165063349L96.05942057291666,66.53887437290604L97.59983723958332,66.53197596873648L98.0571484375,66.62848933656858L98.27376953125,66.68925169409313L99.91046223958332,66.79978359369308L99.95860026041667,66.88460160152837L99.98266927083334,66.92472691439711L101.40274088541668,67.24322348883712L98.22563151041668,67.00098569575258L99.50128906249999,66.92776193858083L99.98266927083334,66.81462236201213L100.72880859375,66.88171220449425L100.9454296875,66.91035123072211L101.35460286458333,66.92481858200571L101.76377604166666,66.98441285552443L102.50991536458334,66.99060876178768L103.73743489583335,67.23366590515501L104.29102213541665,67.39311014323506L104.62798828125,67.53749794407311L99.40501302083334,67.12136240280752L102.14888020833334,66.87168107804816L104.45950520833334,67.08006686327063L104.57985026041666,67.1503128452351L105.44633463541666,67.15719110291522L106.19247395833332,67.21733812144372L101.5230859375,66.1426547372128L102.14888020833334,64.99726908966433L102.24515625,64.26981031743496L102.63026041666667,64.29160920182461L103.64115885416666,64.33420968391434L105.18157552083333,64.72345594174062L105.25378255208334,64.98571496685547L105.63888671875,65.22374243448118L107.94951171875,65.84843813203102L109.22516927083333,66.11091912477973L104.50764322916667,65.25405147486785L107.34778645833333,65.70072633946617L108.02171875,65.93860763429052L109.44179036458334,66.0903734983655L110.57303385416668,66.33908327426788L112.30600260416666,66.43271376960335L112.76331380208335,66.39676316055467L106.79419921875001,65.19322080471349L108.67158203125,64.14498000147157L109.08075520833333,63.61478174644402L109.73061848958334,63.46059456722012L110.23606770833332,63.411015831241194L110.52489583333333,63.433940486848385L110.88593098958334,63.484189309864746L110.98220703125,63.47429887533646L111.39138020833333,63.50795001944903L112.25786458333333,63.546698833579924L113.220625,63.795361718471824L114.01490234375,64.07929599947798L109.65841145833333,62.80699177315979L110.93406901041666,62.858794007432785L111.03034505208333,62.86869992186021L111.51172526041667,63.023562815332056L112.69110677083333,63.451652781528786L113.38910807291667,63.82864569945706L114.40000651041667,63.99861397773533L115.62752604166666,64.06651080496503L116.18111328124999,64.23926938692075L117.60118489583334,64.4009297962149L117.67339192708333,64.4581529815997L112.23379557291666,63.11457307447114L112.931796875,62.48885082266566L113.75014322916667,62.117605149139145L114.59255859375,62.339818238631224L115.14614583333334,62.52967973934351L115.53125,62.67547829815152L117.28828776041667,63.328007482264496L117.74559895833333,63.73670039667406L118.27511718749999,63.98734827422606L113.24469401041667,63.67649987362656L116.63842447916666,63.059124245021145L118.22697916666667,62.802803204683116L118.39546223958332,62.620338816453376L118.61208333333333,62.547561621725684L119.02125651041668,62.60622673688484L119.31008463541667,62.625880040710456L119.45449869791668,62.59197300400726L120.8745703125,62.615016677049205L122.07802083333334,62.78404374202499L116.20518229166666,63.04120405505164L117.07166666666666,62.96975084212191L117.64932291666666,62.921130734321466L117.72152994791668,62.8678400172974L119.52670572916666,62.9304636428358L119.67111979166667,62.98709965232078L120.39319010416666,62.9942366646169L120.60981119791666,62.9933929176267L120.70608723958333,62.95311360924078L120.85050130208333,63.018437878790216L123.06485026041666,63.16429969904259L123.08891927083334,63.254177298118776L123.28147135416667,63.304439639702245L123.37774739583332,63.31267099706705L123.78692057291666,63.30825667316918L118.32325520833334,63.00356195844696L118.78056640625,62.24823824928692L119.59891276041668,61.81515277734205L122.02988281249999,61.891293481923704L123.54623046875001,61.81291795705197L124.65340494791666,61.82157690171695L125.71244140625001,61.899226991527314L126.16975260416667,61.899021724035734L120.77829427083334,61.04130368161604L122.174296875,60.94807766351511L122.72788411458333,60.751677075736886L125.76057942708333,60.988939927970534L125.80871744791666,61.12271487563885L126.57892578124999,61.2790494021234L127.32506510416667,61.44470236854679L128.74513671875,61.731295187108195L125.18292317708334,61.339544046746425L125.76057942708333,61.27063749427653L125.97720052083332,61.383803062084375L127.2287890625,61.68916544875635L127.30099609374999,61.84380988271265L130.93541666666667,62.318988788292366L131.2723828125,62.581775020134536L126.72333984375,61.33944886772702L127.2287890625,60.36844204790898L130.42996744791668,60.34231511777236L132.16293619791668,60.48436822993188L132.69245442708333,60.61957568316514L133.10162760416665,60.718023708016965L134.20880208333332,60.79445558223206L128.02306640625,59.26961957181795L129.58755208333332,58.95798057210358L130.88727864583333,58.924904199085994L131.51307291666666,59.17871915297431L131.63341796875,59.410119675378304L133.34231770833333,59.678600214317896L134.20880208333332,60.02419326513192L135.38818359375,60.42416251003798L136.88046223958332,60.67775400904124L136.90453125,60.831607683301186L130.71879557291666,59.23181173356026L131.05576171875,58.32847768733079L132.06666015625,57.67256057813003L136.08618489583333,57.881621063674906L136.83232421875,58.14647541253022L137.65067057291668,58.30522999627524L139.35957031249998,58.65941751658615L133.24604166666666,57.94571254386504L134.04031901041668,57.826518435409916L134.47356119791667,57.848000017211845L134.52169921875,57.85879512751458L135.07528645833332,57.96399866741787L135.09935546875,58.06124443748909L135.12342447916666,58.179730504823L135.19563151041666,58.286763085386696L135.65294270833334,58.5442676568073L136.49535807291667,58.52868550530599L137.24149739583333,58.46168651181285L138.18018880208334,58.55156191152661L138.42087890625,58.588933973087805L140.56302083333335,58.85199064397344L140.89998697916667,59.05595823581584L141.59798828125,59.27957392053776L141.76647135416667,59.38665182302579L141.79054036458334,59.46457765276431L135.48445963541667,58.77271176832761L136.20652994791666,58.2198630783971L137.86729166666666,57.92779852885647L139.04667317708333,57.85005169810223L139.84095052083333,57.85099892546648L140.75557291666667,57.969513595336736L143.42723307291666,58.16477123426169L144.02895833333332,58.40042524055699L144.10116536458332,58.5514572039933L137.31370442708334,57.58314704966872L137.98763671875,56.13790924808955L138.83005208333333,55.80483372800857L139.11888020833334,55.54326955498696L140.659296875,55.80211607425637L141.06847005208334,55.8933347413223L142.70516276041667,56.228531695290535L143.23468098958332,56.453719137025175L143.90861328125,56.543448634203756L145.20833984375,56.73307967856911L141.40543619791666,56.73484780714145L141.42950520833332,56.72739505679904L143.71606119791667,56.61054747442036L144.79916666666665,56.73979805585251L147.71151692708332,57.226012400628015L147.88,57.53875840806146L143.88454427083332,56.73954621582409L145.03985677083332,56.155672642491616L146.60434244791668,55.788785443627035L147.06165364583333,55.67511297427281L147.18199869791667,55.63625286535204L147.7355859375,55.62920355692425L148.26510416666665,55.63530489338751L148.77055338541666,55.6232619044274L150.40724609375002,55.865064653309865L144.67882161458334,53.635980042873676L146.07482421875,52.93946122796141L147.13386067708333,53.229642756840754L147.8318619791667,53.70062245719398L152.28462890625,54.49697115276101L152.6456640625,55.03571897983135L152.71787109375,55.382829536868954L153.24738932291666,55.641189976205155L153.39180338541667,55.81746067872736L147.54303385416668,55.504494850950906L147.90406901041666,55.28299664867424L149.01124348958334,54.984131374325244L149.34820963541668,54.74924646930397L149.61296875,54.548532478528436L150.93676432291664,54.108517125611364L151.2015234375,53.90713542185119L151.34593750000002,53.76259268776979L152.76600911458334,53.73204513680957L153.41587239583333,53.810803564685195L153.96945963541668,53.95622212904552L155.65429036458335,54.247849710310845L156.18380859374997,54.523636694972L149.97400390625,53.554801357359615L150.38317708333335,53.0638907797922L150.55166015625,52.76436662785402L151.51442057291666,52.82273740835307L151.94766276041668,52.88215507374055L152.09207682291665,52.8676424316733L152.16428385416668,52.931034011915905L153.99352864583332,53.36706623012538L154.01759765625,53.65631040568884L154.06573567708332,53.82388156923008L155.14884114583333,53.93093294544426L155.89498046875,54.03387015877938L156.54484375,54.135366040580124L156.61705078125001,54.17645111404977L156.73739583333332,54.20675157219408L158.08526041666667,54.379401839978385L158.44629557291665,54.47467590512337L151.65883463541667,55.74389645216496L151.70697265625,54.14558358774072L152.88635416666668,52.6290421581487L154.25828776041666,51.973568094960264L155.34139322916667,51.97094261478868L156.32822265625,52.203373563368956L156.64111979166665,52.32435301763784L156.66518880208332,52.401938248792945L157.19470703125,52.49066246099454L157.3150520833333,52.547906887108056L157.57981119791665,52.573295468379904L160.25147135416665,52.987148112881634L160.75692057291667,53.26095119905001L155.41360026041667,52.691303052526635L155.48580729166667,52.24660001333417L155.50987630208334,51.969832455621265L156.66518880208332,51.717223292619906L157.24284505208334,51.59523820586313L158.63884765625,51.659914585449684L160.41995442708333,52.135354934686035L161.38271484375,52.460165042665295L161.57526692708333,52.67079440468299L162.3454752604167,52.788342343271474L162.65837239583334,52.85627356114753L157.19470703125,52.06500792219987L158.75919270833333,51.21133285612534L159.31277994791665,50.989766466161015L161.33457682291666,51.18183584294234L161.40678385416666,51.30851456950831L161.52712890625,51.39967250679733L163.13975260416666,51.686990782132355L163.57299479166667,51.93922416565725L165.37817057291667,52.23533536942277L159.31277994791665,50.993596685076945L159.33684895833332,50.16604437468254L163.11568359375,50.18748129455381L164.12658203125,50.37762838078057L164.15065104166666,50.53659589388027L165.71513671875,50.99636360877136L165.85955078125002,51.27272794420459L166.3409309895833,51.474803536764185L166.48534505208335,51.65325414798182L166.99079427083336,51.79492223754619L167.13520833333334,51.869295871824605L161.57526692708333,51.84674930931634L162.99533854166668,51.203282074048616L163.76554687499998,50.601101768399296L163.93402994791666,50.25810479772284L169.08479817708334,50.81780222078568L169.6865234375,51.177403522634734L169.99942057291668,51.42796943513622L170.64928385416667,51.58713866125931L163.81368489583335,48.78599202576838L164.1987890625,48.00940782643405L164.39134114583334,47.5832995032113L164.72830729166668,47.5865989091356L165.40223958333334,47.94485707275414L167.06300130208334,48.84212686794224L167.13520833333334,49.41455313159635L168.14610677083334,49.77160896525043L168.98852213541664,49.933723657736955L169.8790755208333,50.08715080952142L172.06935546875,50.23957286763754L172.45445963541667,50.38487331486523L168.02576171875,49.78145222045323L168.19424479166668,49.3652066705177L168.48307291666669,49.16878309321969L169.71059244791667,49.0909192921889L169.99942057291668,49.03901579761446L172.16563151041666,49.36445839547209L172.2378385416667,49.54490905716959L168.77190104166667,48.150622968925326L168.86817708333334,47.52474878135519L168.89224609375,46.99305550105745L169.30141927083332,47.32845304051373L169.90314453125,47.85638967320739L170.16790364583332,48.160914547887494L170.28824869791666,48.4091211941089L170.40859375,48.62800112555627L171.22694010416666,48.69611885715193L171.46763020833333,48.818550442487215L172.09342447916666,48.91833052738866L173.17652994791666,48.96626764793178L173.7301171875,49.098566297210795L174.95763671875,49.28111642960491L175.53529296875,49.37620692274874L175.99260416666664,49.46920215879839L176.3295703125,49.557611827061734L177.12384765624998,49.638430621627705L172.83956380208335,48.99646868458884L174.01894531250002,48.42707321625757L175.96853515625,48.1609524036537L176.2332942708333,47.969427887504736L176.71467447916666,47.91231102937785L178.15881510416668,47.99209586833692L178.47171223958333,48.08822382959589L179.362265625,48.323412702409485L179.84364583333334,48.529681943178666L180.10840494791668,48.68333994982053L175.41494791666665,47.924823860694886L178.80867838541667,47.39754590555045L179.74736979166664,47.14649307511289L180.44537109375,47.0597629659839L181.3840625,47.06588818619547L182.539375,47.24000377020449L176.69060546875,46.64228650839399L176.73874348958333,46.411005006066226L176.93129557291667,46.48345702974058L177.65336588541666,46.39178675335573L178.20695312499998,46.2652286349325L178.54391927083333,46.24994595226631L179.91585286458334,46.174119182687924L182.22647786458333,46.35983428038691L183.30958333333334,46.58949609380032L183.405859375,46.76506129264384L184.85,47.06469284802947L178.95309244791667,46.81900769212731L179.67516276041667,46.529343957428374L180.20468098958332,46.30349604508909L180.3972330729167,46.21020975418413L183.33365234375,45.86355982356872L184.05572265625,45.69647873416252L184.58524088541668,45.61942033264954L185.37951822916668,45.72890961258688L187.160625,45.88612961432059L181.095234375,45.8289348486705L183.16516927083333,45.472048298229296L184.92220703125,45.09206853415773L185.52393229166665,44.90677720891789L185.83682942708333,44.836511282737135L186.05345052083334,44.785452912220386L187.95490234375,44.98810313493874L189.37497395833333,45.256222476666416L185.11475911458334,44.867046585254094L185.47579427083332,44.51222679703313L187.37724609375002,44.56200304821276L188.86952473958334,44.64939010573875L189.47125,44.721259485140685L191.61339192708334,44.91067328252616L185.49986328125,44.80419194448018L186.34227864583335,44.1142255937123L187.13655598958334,43.48641743630551L188.12338541666665,43.143787051804594L190.72283854166668,42.99006096066373L191.10794270833333,42.98300108722922L191.61339192708334,43.00546160759323L191.83001302083335,42.981475983554475L192.2151171875,42.9707488269935L193.73146484375,43.16747415415064L193.75553385416666,43.284383418271645L194.0925,43.38664767347721L189.73600911458334,43.03508541694146L190.04890625000002,42.801422010995815L190.31366536458336,42.65285848891282L192.72056640625001,42.577735268241156L194.33319010416665,42.722104362294104L195.34408854166668,42.973032903242974L192.14291015625,42.22639986445999L194.16470703125,42.0421153314956L194.21284505208334,41.93491253163881L195.19967447916665,41.88697612782559L195.22374348958334,41.85946861348512L195.60884765625,41.85263329433402L195.92174479166667,41.87914955667855L195.9698828125,41.88436295843897L198.35271484375,42.02662263568128L194.958984375,41.22585994504512L196.49940104166666,41.09124128662931L196.64381510416666,41.020988668461925L196.78822916666667,40.99438286283142L196.88450520833334,41.008809671534095L196.90857421875,41.02066577451136L198.71374999999998,41.14503440788862L199.67651041666667,41.24058409910105L201.00030598958332,41.31745970129302L196.61974609375,41.41495324886529L196.88450520833334,41.43533558568285L197.07705729166668,41.44986623510996L198.23236979166668,41.17666701112987L199.77278645833334,41.1103183884961L199.84499348958332,41.06921538057635L200.5911328125,41.10082055469524L200.83182291666668,41.16230241360553L201.00030598958332,41.20880145881675L201.43354817708334,41.26878007628435L202.80548177083335,41.41092092219107L203.28686197916667,41.486704142448154L203.35906901041665,41.535186436995886L203.86451822916666,41.51840889255974L198.93037109374998,41.279580602758855L201.12065104166666,40.721357869822945L201.1687890625,40.373950086773014L201.93899739583335,40.086808683988544L202.37223958333334,39.92465723187748L202.1796875,39.44888524821738L202.80548177083335,39.27964986341903L203.86451822916666,39.26771900629718L205.18831380208334,39.17159209713766L206.68059244791667,39.12658762689059L206.99348958333334,39.09815283803064L202.20375651041664,39.43843715736385L202.9017578125,39.23806229441833L203.84044921875,39.0533431916368L205.40493489583332,38.973800792467834L210.57977213541665,38.908860442632715L205.47714192708335,38.477498993740134L206.10293619791668,38.118898854695765L206.63245442708333,38.06558658288139L207.08976562499998,38.079821698485965L207.57114583333333,38.08523188627909L207.69149088541667,38.07020629263391L208.07659505208335,38.20090529191558L208.36542317708336,38.25590727759966L208.75052734375,38.29002452458537L209.400390625,38.351798805660316L211.03708333333333,38.33777173279249L212.21646484375,38.30583930920672L212.52936197916668,38.279608210879125L212.72191406250002,38.25910903164113L208.00438802083332,37.46612371088808L209.73735677083332,37.13734567983541L210.53163411458334,36.975387699094426L210.7001171875,36.87759068497511L210.91673828125,36.834142190637046L212.12018880208336,36.91197490511377L212.19239583333334,36.97022027687509L212.69784505208335,36.99242668849721L212.98667317708336,37.0214740795046L213.44398437499999,37.04898652067865L213.90129557291667,37.06719276024102L210.17059895833333,36.57639520159917L212.12018880208336,36.69921280899216L212.1442578125,36.7659206186339L212.96260416666667,36.8978964319048L213.41991536458335,36.97973872473236L214.52708984375002,36.894877925002774L216.26005859375002,36.782183324603935L216.38040364583333,36.716640649947L217.00619791666665,36.71011522714861L218.11337239583332,36.72045190439994L218.47440755208333,36.729508247576035L213.44398437499999,36.45558247873028L214.47895182291668,36.18550791230919L214.96033203125,36.03097926354319L215.10474609375,35.90760511405631L215.41764322916666,35.82501761388832L216.09157552083332,35.7643243112307L217.12654296875002,35.6533795210424L219.70192708333335,35.64177591486264L220.30365234375,35.66850282697157L220.47213541666665,35.66132896891024L220.56841145833334,35.664807413306356L215.94716145833334,35.411890595888636L216.01936848958334,35.23092552852039L216.98212890624998,35.16572450656538L219.24461588541666,35.143354603619635L219.58158203125,35.12900426163912L219.99075520833335,35.11429031887979L220.01482421875002,35.10932370304663L221.02572265625,35.143914312381966L223.4085546875,35.1543673862573L220.56841145833334,35.098772220639354L221.84406901041666,35.09997333771031L224.44352213541666,35.069701243393204L224.70828125,35.04980958215097L220.6646875,34.88259471147099L222.08475911458333,34.64746997940394L222.9753125,34.49862225752873L223.48076171875002,34.37718505107264L224.37131510416668,34.264233615870864L225.23779947916668,34.21351963951543L225.26186848958335,34.18034555945499L225.86359375,34.15877196635478L227.35587239583333,34.183161350977656L222.06069010416667,34.35002298690054L222.686484375,34.35288510783635L223.64924479166666,34.293723030255805L224.75641927083333,34.159291901427615L226.32090494791666,34.123571745082444L226.48938802083333,34.093843308945765L226.68194010416667,34.06518149584331L227.83725260416668,34.00050760134123L228.05387369791666,33.97096751357465L229.4739453125,33.933638413862155L229.78684244791665,33.90021867065392L226.27276692708332,33.69613617398326L226.56159505208333,33.55694584235158L227.35587239583333,33.4606118191539L228.36677083333333,33.382258204773585L229.9312565104167,33.40653532059144L231.71236328125,33.44093379888894L232.84360677083333,33.45350370529216L226.70600911458334,33.44339616848775L227.40401041666667,33.41182039374177L228.10201171875,33.46538891149366L228.41490885416667,33.519130141995646L228.48711588541667,33.58980472315903L230.07567057291666,33.60819946209148L230.14787760416664,33.62229805083446L231.18284505208334,33.59244588039413L232.12153645833334,33.52370960476349L232.36222656249998,33.47776657873168L233.71009114583333,33.42034380732424L229.88311848958335,33.156308623705584L230.0516015625,32.99617886207849L230.07567057291666,32.89743432363913L230.24415364583334,32.8218319542687L231.80863932291666,32.80840157401722L232.48257161458332,32.78951859444585L232.77139973958333,32.76702825095016L233.084296875,32.75957852283572L233.25277994791665,32.76535071810485L235.99664713541668,32.80361916665836L236.09292317708335,32.827281474249276L236.74278645833334,32.84048132240466L236.79092447916665,32.84722591613459L231.39946614583334,33.08723447546198L231.95305338541667,33.15313547398459L233.63788411458333,33.120892958751526L233.87857421875,33.10324622446966L234.28774739583335,33.07156177054828L234.45623046875,33.046615262790624L234.52843750000002,33.02626461221983L234.86540364583334,33.023654275144395L235.13016276041668,33.01099665333239L238.40354817708334,32.994118078114475L239.2941015625,32.97554644168404L233.61381510416666,32.899346308724915L233.78229817708333,33.07405214336704L235.34678385416666,32.9714078263256L235.94850911458332,32.88540628581666L236.16513020833332,32.839237490417574L236.45395833333333,32.82027700241818L236.91126953125,32.793216671976495L237.32044270833333,32.76044704864044L237.68147786458331,32.746207526947046L238.62016927083334,32.74440953037276L238.90899739583335,32.74424925604327L239.51072265625,32.73706169407342L240.23279296875,32.72446269115998L240.40127604166668,32.717090944774085L241.79727864583333,32.71893953667981L235.90037109374998,32.57681826746243L236.35768229166666,32.5926818695684L236.52616536458333,32.613439599368874L237.63333984375,32.58279276352757L238.88492838541666,32.60031597239213L238.9571354166667,32.60836074820803L239.79955078125002,32.60975055758961L242.03796875,32.61007086012196L242.85631510416667,32.61263342516411L242.92852213541664,32.61313392139818L244.18011067708335,32.60714282620538L244.20417968750002,32.60328150094342L244.70962890624997,32.59836716050919L239.02934244791666,32.6349743312842L239.67920572916665,32.63106194695944L241.12334635416667,32.652655389944115L241.14741536458334,32.664534906551665L241.77320963541666,32.65577117031595L242.06203776041664,32.64198942449074L242.42307291666668,32.63060924862202L242.904453125,32.62917376561495L243.12107421875,32.62359146196128L243.33769531250002,32.620745786267676L244.05976562499998,32.614821073500664L245.23914713541666,32.598337779043575L246.56294270833334,32.592655233122194L247.33315104166664,32.59250498291308L240.85858723958333,32.78991716322088L242.615625,32.7078991615689L246.27411458333333,32.631221541508076L247.45349609375,32.58537299503977L248.31998046875,32.56049104222984L249.81225911458333,32.54578903229813L244.66149088541667,32.5507259273689L244.73369791666667,32.550251008303455L246.56294270833334,32.524770855337174L247.06839192708335,32.50322100041821L247.26094401041667,32.48830589126654L247.5738411458333,32.47650248895025L247.62197916666665,32.46901550704204L247.76639322916668,32.46335787933175L249.3068098958333,32.470511509381716L250.12515625,32.47625554731938L250.17329427083334,32.479366165749575L250.19736328124998,32.48107451123954L252.26729817708332,32.48453903824233L252.33950520833335,32.486222690523554L245.98528645833335,32.43718815976869L250.10108723958334,32.43424660058421L250.2695703125,32.43664958943431L251.858125,32.445755622801215L251.9784700520833,32.45050812776454L252.98936848958334,32.45153246011044L254.48164713541667,32.454329787678475L254.89082031249998,32.45435879235137L254.91488932291668,32.45431693556706L249.49936197916668,32.448691790424014L249.98074218750003,32.44994882780556L250.87129557291667,32.45654011965915L250.89536458333333,32.46015909043894L250.96757161458333,32.4613625663017L252.55612630208333,32.46943284073984L253.80771484375,32.46839842958596L254.16875,32.465387646174825L254.52978515625,32.46881577307423L254.91488932291668,32.468452882701044L255.22778645833336,32.466447484237115L256.07020182291666,32.464108436387434L256.52751302083334,32.46064079869328L256.69599609375,32.46063430165915L255.29999348958333,32.46091682478101L256.74413411458335,32.45230604302205L257.4662044270833,32.44748525489698L257.923515625,32.44595575254754L253.06157552083332,32.48526543483819L254.00026692708332,32.53202174314722L254.09654296875001,32.553379194680964L254.3131640625,32.55410470963525L254.457578125,32.56219438206667L255.05930338541665,32.555759233998565L256.43123697916667,32.538011648353674L257.4662044270833,32.51446425996388L259.9453125,32.484474010523805L261.41352213541666,32.4725638452347L255.73323567708331,32.4694473980499L256.52751302083334,32.46199725186263L257.41806640625,32.45459381454088L259.15103515625,32.44243812910092L259.29544921875004,32.44015215302876L259.5120703125,32.43732870747776L260.811796875,32.446419885175594L262.61697265625,32.45883759339229L262.85766276041664,32.4680166229743L263.43531901041666,32.47316848319509L258.16420572916667,32.42935563537161L260.28227864583334,32.42968535831811L261.12469401041665,32.423631305544845L262.59290364583336,32.41889269490365L263.05021484375,32.418874235550135L264.0851822916667,32.422803922544595L265.7459440104167,32.425833343406026L260.30634765625,32.40095455149818L260.8358658854167,32.44069424634636L263.91669921875,32.4343848095266L266.34766927083336,32.428900372576734L267.67146484375,32.42484921235996L268.0325,32.42143085642875L262.6891796875,32.39831305931182L263.50752604166667,32.447652608314364L265.2886328125,32.472071123759946L265.6737369791667,32.47999626978155L265.93849609374996,32.48096862035613L266.75684244791665,32.47825324696508L268.68236328125,32.467014093065394L270.15057291666665,32.453752046038076L270.1746419270833,32.44571580503762L270.5356770833333,32.439659485685894L271.57064453125,32.43301333168141L265.0479427083333,32.405262544463376L266.08291015625,32.407002297629745L266.2032552083333,32.4065152768378L267.9362239583333,32.42001079518648L271.32995442708335,32.42339696894423L271.40216145833335,32.425142251856606L271.88354166666664,32.42446101695204L271.9076106770833,32.42396338662719L271.9798177083333,32.42342777008002L268.1769140625,32.447669499405954L270.4875390625,32.436041552271384L270.96891927083334,32.43267961886284L271.9076106770833,32.43073159500376L272.17236979166665,32.42820968676081L276.5769986979167,32.420503914861904" style="fill: none;" fill="none"></path></g></g></g></g><g opacity="0.2"><g><g><g><path stroke="rgb(187, 187, 187)" stroke-width="2px" d="M39.06400390625,192.9763176657937L33.88916666666667,176.48295454545453L35.838756510416665,172.30682026256213L37.16255208333334,169.9336712923917L37.23475911458334,169.94693062522194L37.57172526041666,168.7878007368608L37.66800130208333,168.88240620006215L38.823313802083334,166.93909912109373L38.991796875000006,166.86350610906428L40.05083333333333,165.59356079101562L40.77290364583333,164.73530911532316L42.14483723958333,162.86123698841442L42.84283854166667,162.190788823908L36.22386067708334,152.21022727272728L36.60896484375,152.6436741222035L37.95682942708333,148.0793895374645L39.18434895833333,145.98401988636363L39.61759114583333,146.09009454900567L39.83421223958333,145.8484141956676L40.21931640625,146.0681191184304L40.291523437500004,146.3309600830078L41.350559895833335,145.8752785422585L42.86690755208333,144.75635875355113L43.396425781249995,143.830600530451L43.4686328125,143.86978593306108L43.66118489583334,143.72637772993608L44.6239453125,142.99938604181463L45.03311848958334,142.85716303045098L45.346015625,142.50745738636363L40.48407552083333,132.42080882679332L41.92821614583333,130.63329273570668L44.11849609375,129.5500274658203L44.40732421875,129.41326127485797L45.177532552083335,129.08212363503196L45.32194661458334,128.79162819602274L45.80332682291667,128.40145319158378L45.923671875000004,128.27900806773792L47.00677734375,127.71974570534445L47.295605468750004,127.37641046697443L41.133938802083335,116.08207619406959L41.97635416666667,115.74367925470526L42.000423177083334,115.57639437588777L43.10759765625,115.52328297008168L43.51677083333333,114.6539941961115L43.56490885416667,114.72080938165838L43.68525390625,114.56991965553976L44.28697916666666,114.24796725186435L44.311048177083336,114.40243724476207L44.59987630208334,114.82611860795453L44.72022135416666,114.90498324307529L45.41822265625,114.55720353560014L45.7792578125,114.81229137073863L45.923671875000004,114.78004427823154L49.100781250000004,113.27272727272727L43.42049479166667,94.30965909090908L44.59987630208334,106.4507881858132L47.17526041666667,104.64453125L48.884160156250005,103.92526799982245L50.593059895833335,103.56934009898794L50.66526692708333,103.53213001598012L52.06126953125,103.25659762295808L46.549466145833335,92.97108376242896L48.21022786458333,95.9420879017223L48.54719401041667,95.63870350230823L48.59533203125,95.637617076527L48.61940104166667,95.70028409090908L50.01540364583333,96.62500527121804L54.22748046875,97.09950173117896L50.11167968749999,92.70626747824927L50.544921875,93.07073863636364L50.593059895833335,93.09503506747158L51.79651041666667,94.19321400035511L53.50541015625,93.907163030451L54.756998697916664,93.45L55.262447916666666,93.1564921985973L55.43093098958334,93.33750554865057L51.00223307291667,85.7263768976385L51.67616536458333,89.54871909401632L52.35009765625,89L53.60168619791666,90.0790430242365L55.09396484375,90.06220342462713L57.45272786458333,90.57872480912643L58.19886718750001,90.07178372469816L58.31921223958333,90.00822781649502L53.048098958333334,100.63068181818183L53.360996093749996,89.92212857333098L53.40913411458334,89.31938448819248L55.358723958333336,87.35653409090908L57.57307291666667,86.63225846724076L57.98224609375001,86.70628356933594L58.4876953125,86.88932162198152L60.84645833333333,86.82465459650213L61.71294270833334,87.00922352183949L61.80921875,87.06110035289417L62.00177083333333,87.02031000310724L57.693417968750005,82.46263039328836L58.030384114583335,82.90902793190695L58.94500651041667,83.79725508256392L59.23383463541667,83.96831776012074L60.24473307291667,84.3766163219105L61.88142578125,84.0887381813743L62.098046875,84.06960227272727L62.17025390625,84.15582497336648L63.999498697916664,83.98120672052556L64.04763671875,84.01041675914418L58.343281250000004,80.29805048162287L59.01721354166667,78.94470963911576L61.54445963541667,81.59514409845525L63.71067057291666,81.99005986993963L64.09577473958333,81.69163846102627L64.43274088541666,81.88210865367543L65.90095052083333,82.31840737082742L61.231562499999995,78.04739601828835L62.00177083333333,77.3094413063743L64.76970703125001,79.5429598721591L65.1307421875,79.94928311434658L66.18977864583333,80.00898714932529L68.23564453125,79.81471446644176L68.64481770833333,79.87187527743252L68.71702473958334,79.9831845370206L69.58350911458334,79.9381719415838L62.74791015625,75.34659090909092L63.61439453125,78.87461048473011L64.11984375,77.875L65.61212239583332,77.79472794966264L66.09350260416667,77.4766768022017L68.76516276041667,78.78011613325639L69.00585286458333,78.66097966974432L70.66661458333334,78.83068431507458L70.97951171875,78.75885675603693L71.12392578125,78.90061062899504L71.43682291666666,78.92621570933949L65.80467447916666,75.12350325150923L66.35826171875,74.99172474254262L66.47860677083334,75.79518599076705L67.89867838541667,76.91378479003906L71.36461588541667,77.5315166126598L72.66434244791667,77.61344299316406L73.36234375000001,77.7514931418679L67.65798828125,74.65703152743252L68.5966796875,74.79034090909092L68.66888671875,74.48789478648793L68.95771484375,74.10184326171876L69.70385416666667,73.23959156383168L72.20703125,75.68792613636363L72.39958333333333,76.00301430442117L72.76061848958334,75.91350763494319L75.0953125,76.35005326704545L75.72110677083333,76.31118885387075L76.250625,76.43215248801492L71.46089192708334,71.79215143377131L71.65344401041666,72.42415494051848L72.6402734375,74.27522693980823L74.85462239583333,74.84090909090908L76.3950390625,76.02943420410156L77.06897135416666,76.29264554110439L77.09304036458335,76.29788013805043L77.5503515625,76.33597911487927L78.10393880208333,76.20405245694248L78.56125,76.02731073552913L72.73654947916667,71.09427101828835L72.97723958333333,72.34410511363636L73.04944661458333,72.09578274813565L73.41048177083333,71.09886363636363L74.20475911458334,70.71624422940342L78.44090494791666,73.47225952148438L78.58531901041667,73.4669755415483L80.19794270833333,74.34893105246805L80.871875,74.26500466086648L81.11256510416666,74.30105424360795L74.9508984375,67.94195723100142L76.56352213541666,71.03893737792968L77.33373046874999,71.11765386408025L78.75380208333334,72.3624755859375L79.59621744791667,72.75711975097656L80.55897786458333,73.03314597389914L83.30284505208333,73.48354353471237L77.14117838541667,70.79545454545455L77.28559244791667,69.37036021839488L78.94635416666667,70.13174715909092L80.005390625,70.5140702681108L80.70339192708333,71.5622489235618L80.82373697916667,71.52197709517046L81.04035807291667,71.54639698375355L83.20656901041667,72.1590176669034L83.27877604166666,72.21526489257812L83.95270833333333,72.44946372292257L84.1933984375,72.71637878417968L85.58940104166666,72.85368818803268L86.43181640625001,72.76640375310724L80.24608072916666,71.18214804909445L81.69022135416667,70.88152909712358L84.67477864583334,71.26402504660867L84.74698567708333,71.23935824307527L86.09485026041666,71.4490137273615L86.72064453125,71.51642150878907L86.79285156249999,71.53745866255326L87.29830078125,71.758867298473L87.46678385416666,71.8794852516868L81.85870442708332,80.40340909090908L82.00311848958333,66.31656549627131L83.35098307291668,71.3332353071733L87.46678385416666,71.07854253595525L87.63526692708334,71.08711048473012L88.28513020833333,70.89357854669744L89.63299479166668,71.07794994007457L90.403203125,71.26279047185724L84.93953776041666,71.16162941672586L85.01174479166667,71.55397727272727L85.49312499999999,71.74847217906606L86.28740234375,71.15239479758523L88.18885416666667,71.4922979181463L88.35733723958333,71.44308776855469L88.67023437499999,71.22417297363282L90.114375,70.65246609774502L90.8364453125,70.72347883744673L91.39003255208334,70.80908425071023L91.82327473958334,70.56268782182174L93.50810546874999,71.03844354802912L88.30919921875001,69.1904579856179L89.84961588541667,68.33168778852982L91.41410156250001,68.97448147860442L93.48403645833334,69.45290388627487L94.10983072916666,69.76776983087713L89.12754557291666,71.97538701837713L91.72699869791667,66.30355307839133L91.89548177083333,66.62572770552201L94.61527994791666,67.32353404651988L94.68748697916666,67.36158364035867L95.19293619791667,67.53331298828125L96.6130078125,67.954623967951L96.85369791666666,68.03450095436789L97.64797526041667,68.55457791415127L92.68975911458334,65.92703247070312L93.09893229166667,67.31516362970525L93.4358984375,67.91553733132102L93.82100260416667,68.01936506791549L94.23017578125,68.64080061479049L95.19293619791667,68.15284729003906L96.30011067708332,68.60415843616832L96.3241796875,68.62502274946732L96.85369791666666,68.82238186922942L97.69611328124999,69.13784040971237L98.32190755208333,69.29616227583452L98.53852864583334,69.28356961337002L99.79011718749999,69.17902582341975L99.86232421875,69.21754455566406L100.68067057291667,69.25332253196024L100.77694661458332,69.22482854669744L94.32645182291667,65.63216663707387L94.47086588541667,64.72727272727273L94.51900390624999,64.01556507457387L95.48176432291667,66.13866327459162L95.62617838541667,66.68765397505327L95.93907552083333,66.76175315163351L96.05942057291666,66.7611111727628L97.59983723958332,66.52162836248225L98.0571484375,66.77325938831676L98.27376953125,66.78039523037998L99.91046223958332,66.96558144309304L99.95860026041667,67.01182861328125L99.98266927083334,66.98491488370027L101.40274088541668,67.72096835049715L98.22563151041668,66.6376290061257L99.50128906249999,66.81792630282317L99.98266927083334,66.64491299715908L100.72880859375,66.98234696821733L100.9454296875,66.95330977006392L101.35460286458333,66.94651960893111L101.76377604166666,67.07380426580256L102.50991536458334,66.99990262118254L103.73743489583335,67.59825162020596L104.29102213541665,67.63227650035512L104.62798828125,67.75407964533025L99.40501302083334,66.49715909090908L102.14888020833334,66.49715909090908L104.45950520833334,67.39264554110441L104.57985026041666,67.25568181818181L105.44633463541666,67.16750848943538L106.19247395833332,67.3075586492365L101.5230859375,64.53062966086648L102.14888020833334,63.279190618341616L102.24515625,63.178622159090914L102.63026041666667,64.32430752840908L103.64115885416666,64.398110407049L105.18157552083333,65.30732532848012L105.25378255208334,65.37910350452769L105.63888671875,65.58078363591974L107.94951171875,66.78548167835582L109.22516927083333,66.5046406139027L104.50764322916667,63.96875L107.34778645833333,66.37073863636364L108.02171875,66.29542957652698L109.44179036458334,66.31802229447798L110.57303385416668,66.71214793812145L112.30600260416666,66.57315951260652L112.76331380208335,66.34283724698155L106.79419921875001,63.38790727095171L108.67158203125,62.57261879660866L109.08075520833333,62.81948436390271L109.73061848958334,63.22931379838424L110.23606770833332,63.33664772727273L110.52489583333333,63.46832747025924L110.88593098958334,63.559562544389195L110.98220703125,63.45946322354403L111.39138020833333,63.558426735617886L112.25786458333333,63.604822054776285L113.220625,64.16835604580965L114.01490234375,64.50519742098723L109.65841145833333,60.89853543368253L110.93406901041666,62.93649735884234L111.03034505208333,62.883558793501415L111.51172526041667,63.25585715553978L112.69110677083333,64.09378773082386L113.38910807291667,64.39413507634943L114.40000651041667,64.2535663951527L115.62752604166666,64.16835604580965L116.18111328124999,64.49840725985442L117.60118489583334,64.64342041015625L117.67339192708333,64.54398775967685L112.23379557291666,61.0992032137784L112.931796875,61.550267444957385L113.75014322916667,61.560736638849434L114.59255859375,62.67313787286932L115.14614583333334,62.81447199041193L115.53125,62.89417613636365L117.28828776041667,64.30680125843395L117.74559895833333,64.34973976828836L118.27511718749999,64.36332009055398L113.24469401041667,63.21022727272727L116.63842447916666,62.133060802112915L118.22697916666667,62.41832164417613L118.39546223958332,62.346642234108664L118.61208333333333,62.438395829634224L119.02125651041668,62.69422440962357L119.31008463541667,62.655359996448865L119.45449869791668,62.54111244895241L120.8745703125,62.649582186612214L122.07802083333334,63.03758433948863L116.20518229166666,63.42694452459162L117.07166666666666,62.86257102272727L117.64932291666666,62.84820057262074L117.72152994791668,62.78790394176137L119.52670572916666,63.024399081143464L119.67111979166667,63.07205366654829L120.39319010416666,63.00494218306108L120.60981119791666,62.99212729714132L120.70608723958333,62.89269464666194L120.85050130208333,63.11642428311435L123.06485026041666,63.38309242942116L123.08891927083334,63.38899369673296L123.28147135416667,63.379833152077424L123.37774739583332,63.32501803311434L123.78692057291666,63.30163518732245L118.32325520833334,62.54651988636365L118.78056640625,61.11525268554688L119.59891276041668,61.16552456942471L122.02988281249999,62.005504538796174L123.54623046875001,61.69535466974432L124.65340494791666,61.834565318714496L125.71244140625001,62.015702126242886L126.16975260416667,61.89871382279829L120.77829427083334,59.754726617986506L122.174296875,60.80823863636365L122.72788411458333,60.457076194069614L125.76057942708333,61.34483420632101L125.80871744791666,61.32337729714134L126.57892578124999,61.51355119185015L127.32506510416667,61.69318181818181L128.74513671875,62.16118441495028L125.18292317708334,60.75191733620384L125.76057942708333,61.167277665571724L125.97720052083332,61.553551413796164L127.2287890625,62.147209028764195L127.30099609374999,62.07577653364702L130.93541666666667,63.03175714666193L131.2723828125,62.97595436789772L126.72333984375,59.47595963911576L127.2287890625,58.91193181818181L130.42996744791668,60.30312472256747L132.16293619791668,60.69744789817118L132.69245442708333,60.82238686301493L133.10162760416665,60.865695745294744L134.20880208333332,60.90910339355469L128.02306640625,56.98236555619674L129.58755208333332,58.49052207253197L130.88727864583333,58.87528963955966L131.51307291666666,59.559441583806816L131.63341796875,59.75722045898438L133.34231770833333,60.08132102272727L134.20880208333332,60.542582841352974L135.38818359375,61.02411637739701L136.88046223958332,61.05814125754616L136.90453125,61.06238819469105L130.71879557291666,56.832117808948865L131.05576171875,56.973476617986506L132.06666015625,56.68868491432884L136.08618489583333,58.19521179199219L136.83232421875,58.543756935813214L137.65067057291668,58.543361871892756L139.35957031249998,59.19069879705256L133.24604166666666,56.87515508478337L134.04031901041668,57.64772727272727L134.47356119791667,57.88022238991476L134.52169921875,57.87498779296875L135.07528645833332,58.12180397727273L135.09935546875,58.207113092595876L135.12342447916666,58.357459605823855L135.19563151041666,58.44731195623224L135.65294270833334,58.93052451393822L136.49535807291667,58.50531227805397L137.24149739583333,58.36118802157315L138.18018880208334,58.68637501109729L138.42087890625,58.64499206542969L140.56302083333335,59.24657565030184L140.89998697916667,59.36190962357954L141.59798828125,59.61499744762073L141.76647135416667,59.54726867675781L141.79054036458334,59.58146639737216L135.48445963541667,57.734912941672576L136.20652994791666,57.39059004350141L137.86729166666666,57.48970170454546L139.04667317708333,57.73343145197087L139.84095052083333,57.85241976651279L140.75557291666667,58.147285600142055L143.42723307291666,58.457657692649136L144.02895833333332,58.75390625L144.10116536458332,58.778005149147724L137.31370442708334,56.13068181818181L137.98763671875,53.970052545720876L138.83005208333333,55.305220447887066L139.11888020833334,55.15092329545454L140.659296875,56.19038585316051L141.06847005208334,56.030162741921174L142.70516276041667,56.73132712624289L143.23468098958332,56.79150029962713L143.90861328125,56.67804287997159L145.20833984375,57.01752624511718L141.40543619791666,56.7375L141.42950520833332,56.716215931285504L143.71606119791667,56.43527610085226L144.79916666666665,56.9336739280007L147.71151692708332,57.955333917791194L147.88,58.00787741921164L143.88454427083332,55.54072792746803L145.03985677083332,55.279862282492886L146.60434244791668,55.23845464533025L147.06165364583333,55.50460427024149L147.18199869791667,55.577962701970876L147.7355859375,55.61862959428268L148.26510416666665,55.64445689808238L148.77055338541666,55.60519742098722L150.40724609375002,56.22776877663351L144.67882161458334,50.292353127219464L146.07482421875,51.89468300559305L147.13386067708333,53.664915050159806L147.8318619791667,54.407092007723726L152.28462890625,55.691494196111506L152.6456640625,55.8438407204368L152.71787109375,55.90349537242542L153.24738932291666,56.02873063520952L153.39180338541667,56.081866732510655L147.54303385416668,55.03504610928622L147.90406901041666,54.95074934525924L149.01124348958334,54.53583346280184L149.34820963541668,54.39691911177201L149.61296875,54.24746149236506L150.93676432291664,53.448494096235805L151.2015234375,53.60506286621094L151.34593750000002,53.54577858664772L152.76600911458334,53.68622381036931L153.41587239583333,53.928941206498585L153.96945963541668,54.17434997558594L155.65429036458335,54.685291082208806L156.18380859374997,54.93731717196378L149.97400390625,52.10154835094106L150.38317708333335,52.32752491344105L150.55166015625,52.31508039994673L151.51442057291666,52.91029357910156L151.94766276041668,52.97128157182173L152.09207682291665,52.845873468572435L152.16428385416668,53.02612138227983L153.99352864583332,54.02111455743963L154.01759765625,54.090176669034086L154.06573567708332,54.0752383145419L155.14884114583333,54.09151000976563L155.89498046875,54.18827597878197L156.54484375,54.28760986328125L156.61705078125001,54.23807872425427L156.73739583333332,54.25220225941051L158.08526041666667,54.63837724165482L158.44629557291665,54.617587002840914L151.65883463541667,57.64772727272727L151.70697265625,51.74811429110441L152.88635416666668,50.35423001376065L154.25828776041666,50.99035700017755L155.34139322916667,51.967004394531244L156.32822265625,52.55201998623935L156.64111979166665,52.50582219904119L156.66518880208332,52.51831609552556L157.19470703125,52.623748779296875L157.3150520833333,52.63377352627841L157.57981119791665,52.61137834028765L160.25147135416665,53.60792707963423L160.75692057291667,53.67165582830256L155.41360026041667,51.83683083274148L155.48580729166667,51.57954545454546L155.50987630208334,51.55468111905184L156.66518880208332,51.3383095481179L157.24284505208334,51.41226057572798L158.63884765625,51.75692915482954L160.41995442708333,52.84851545854049L161.38271484375,52.94738020463424L161.57526692708333,52.98673844770952L162.3454752604167,52.96466425115412L162.65837239583334,52.95817038796165L157.19470703125,50.87810946377841L158.75919270833333,49.930820257013494L159.31277994791665,50.65741688121448L161.33457682291666,51.46993990811435L161.40678385416666,51.49853265935725L161.52712890625,51.53640941273082L163.13975260416666,52.117968195134935L163.57299479166667,52.3175742409446L165.37817057291667,52.67950217507103L159.31277994791665,49.13098865855823L159.33684895833332,48.924715909090914L163.11568359375,50.21963667436079L164.12658203125,50.66284901012073L164.15065104166666,50.77504716352982L165.71513671875,51.68601518110795L165.85955078125002,51.687274447354405L166.3409309895833,51.77791692560369L166.48534505208335,51.920930064808246L166.99079427083336,52.00742437189275L167.13520833333334,51.98085632324219L161.57526692708333,51.81292946555397L162.99533854166668,50.23808122114702L163.76554687499998,49.697831309925434L163.93402994791666,49.7436093417081L169.08479817708334,51.65734835537997L169.6865234375,51.71680547540838L169.99942057291668,51.80381830388849L170.64928385416667,51.825892500443885L163.81368489583335,44.58427207253197L164.1987890625,46.84453152743253L164.39134114583334,46.944137018377134L164.72830729166668,47.59154801802201L165.40223958333334,48.48224431818181L167.06300130208334,50.18803156072444L167.13520833333334,50.27319252707743L168.14610677083334,50.30719271573154L168.98852213541664,50.176895696466616L169.8790755208333,50.31729153719815L172.06935546875,50.468205954811786L172.45445963541667,50.60282398570668L168.02576171875,48.87632057883523L168.19424479166668,48.74083834561434L168.48307291666669,48.87414772727272L169.71059244791667,48.97412359064275L169.99942057291668,48.96116055575285L172.16563151041666,49.85262229225852L172.2378385416667,49.815585049715914L168.77190104166667,46.05919383655895L168.86817708333334,46.5859375L168.89224609375,46.1955155806108L169.30141927083332,47.83154934969816L169.90314453125,48.648294622247874L170.16790364583332,48.61770185990766L170.28824869791666,48.781431163441056L170.40859375,48.95632102272727L171.22694010416666,48.79829545454546L171.46763020833333,49.00219782049005L172.09342447916666,49.06800065474076L173.17652994791666,49.03817332874646L173.7301171875,49.29701427112926L174.95763671875,49.554941628196026L175.53529296875,49.51884266246449L175.99260416666664,49.60869501287287L176.3295703125,49.69022632945668L177.12384765624998,49.75965881347656L172.83956380208335,48.03352577903053L174.01894531250002,47.57298001376065L175.96853515625,47.76177118474787L176.2332942708333,47.68214111328125L176.71467447916666,47.826635742187506L178.15881510416668,48.11177312677556L178.47171223958333,48.23241577148437L179.362265625,48.676196011629976L179.84364583333334,48.839085804332385L180.10840494791668,48.91382695978338L175.41494791666665,46.7870497270064L178.80867838541667,46.6066289728338L179.74736979166664,46.769913829456684L180.44537109375,46.929667802290474L181.3840625,47.07507601651279L182.539375,47.50117714621803L176.69060546875,45.74571061567827L176.73874348958333,46.064082752574585L176.93129557291667,46.59213506525212L177.65336588541666,46.254281338778405L178.20695312499998,46.07539145729759L178.54391927083333,46.22702192826704L179.91585286458334,46.06037902832031L182.22647786458333,46.638406926935374L183.30958333333334,46.93398881392046L183.405859375,47.028409090909086L184.85,47.51414018110795L178.95309244791667,46.45047995827415L179.67516276041667,46.09484835537997L180.20468098958332,45.96472417658025L180.3972330729167,46.07028031782671L183.33365234375,45.3435849276456L184.05572265625,45.44585710005326L184.58524088541668,45.503832730379976L185.37951822916668,45.893143532492886L187.160625,46.121959616921174L181.095234375,45.74314270019531L183.16516927083333,44.93671847256747L184.92220703125,44.522098888050415L185.52393229166665,44.62884022105824L185.83682942708333,44.731112393465914L186.05345052083334,44.708865356445315L187.95490234375,45.29207846901634L189.37497395833333,45.65840148925781L185.11475911458334,44.283282748135655L185.47579427083332,43.97999711470171L187.37724609375002,44.63666742498225L188.86952473958334,44.78047069202769L189.47125,44.82906355424362L191.61339192708334,45.1947939786044L185.49986328125,44.64446993741122L186.34227864583335,43.07927606756037L187.13655598958334,42.54470520019531L188.12338541666665,42.629841475053276L190.72283854166668,42.759471823952424L191.10794270833333,42.97241127707743L191.61339192708334,43.03915238813921L191.83001302083335,42.945497547496444L192.2151171875,42.95465809215198L193.73146484375,43.462562144886355L193.75553385416666,43.459747314453125L194.0925,43.54004405628551L189.73600911458334,42.50774203213778L190.04890625000002,42.45092690207743L190.31366536458336,42.43001320578835L192.72056640625001,42.465050437233664L194.33319010416665,42.93865800337358L195.34408854166668,43.3494257146662L192.14291015625,41.10645030628551L194.16470703125,41.765688532049L194.21284505208334,41.7741083318537L195.19967447916665,41.81507152210583L195.22374348958334,41.81820734197443L195.60884765625,41.842380315607244L195.92174479166667,41.91892395019531L195.9698828125,41.89218306107954L198.35271484375,42.24001215154475L194.958984375,40.02471590909091L196.49940104166666,40.88931329900568L196.64381510416666,40.91560974121094L196.78822916666667,40.95447415438566L196.88450520833334,41.030449884588066L196.90857421875,41.03844992897728L198.71374999999998,41.33158735795454L199.67651041666667,41.38390863591975L201.00030598958332,41.43277310458097L196.61974609375,41.561193570223715L196.88450520833334,41.465909090909086L197.07705729166668,41.47166220925072L198.23236979166668,40.76686817515979L199.77278645833334,41.010795454545445L199.84499348958332,41.00756086869674L200.5911328125,41.14822831587359L200.83182291666668,41.25452520197088L201.00030598958332,41.27855002663351L201.43354817708334,41.35874800248579L202.80548177083335,41.62413219105113L203.28686197916667,41.60037897283381L203.35906901041665,41.60790987881747L203.86451822916666,41.49324257590553L198.93037109374998,40.921338168057524L201.12065104166666,39.88402377041903L201.1687890625,39.85283841219816L201.93899739583335,39.6560965798118L202.37223958333334,39.68143005371094L202.1796875,38.73522727272728L202.80548177083335,39.0257967862216L203.86451822916666,39.24982272061434L205.18831380208334,39.027401733398435L206.68059244791667,39.05908092151988L206.99348958333334,39.055500654740776L202.20375651041664,39.94886363636365L202.9017578125,38.9375L203.84044921875,38.77626453746448L205.40493489583332,38.85448719371449L210.57977213541665,38.811449917879976L205.47714192708335,37.830456820401274L206.10293619791668,37.58099864612926L206.63245442708333,37.98561817515979L207.08976562499998,38.10117437189275L207.57114583333333,38.093347167968744L207.69149088541667,38.0476679021662L208.07659505208335,38.39695379083807L208.36542317708336,38.3384102561257L208.75052734375,38.341200395063915L209.400390625,38.44446022727272L211.03708333333333,38.316731123490776L212.21646484375,38.25794067382813L212.52936197916668,38.24026156338778L212.72191406250002,38.228360262784086L208.00438802083332,36.27664572975851L209.73735677083332,36.644178633256395L210.53163411458334,36.73245072798296L210.7001171875,36.73089516379618L210.91673828125,36.768969449129976L212.12018880208336,37.028723976828836L212.19239583333334,37.05758833451704L212.69784505208335,37.0257363059304L212.98667317708336,37.06504516601562L213.44398437499999,37.090255182439634L213.90129557291667,37.094502119584526L210.17059895833333,35.84019886363635L212.12018880208336,36.883439220081684L212.1442578125,36.86598233309659L212.96260416666667,37.09586015181109L213.41991536458335,37.10250216397372L214.52708984375002,36.76758672540838L216.26005859375002,36.61314142400569L216.38040364583333,36.61832663796165L217.00619791666665,36.700327092951L218.11337239583332,36.73595692027699L218.47440755208333,36.7430927623402L213.44398437499999,36.044693825461636L214.47895182291668,35.78039606267755L214.96033203125,35.79918629039417L215.10474609375,35.722543889826L215.41764322916666,35.701136363636365L216.09157552083332,35.67328435724431L217.12654296875002,35.48696233575994L219.70192708333335,35.62437050559305L220.30365234375,35.70859319513494L220.47213541666665,35.65056818181819L220.56841145833334,35.67002507990057L215.94716145833334,35.032515369762066L216.01936848958334,34.959477927468036L216.98212890624998,35.06792297363282L219.24461588541666,35.109799749201L219.58158203125,35.107478748668335L219.99075520833335,35.09221940474076L220.01482421875002,35.10187377929688L221.02572265625,35.19580022638495L223.4085546875,35.170046997070315L220.56841145833334,35.01537947221235L221.84406901041666,35.101775013316754L224.44352213541666,35.02429310191762L224.70828125,35.019972090287645L220.6646875,34.631772405451L222.08475911458333,34.29478288130327L222.9753125,34.2753506747159L223.48076171875002,34.1950292413885L224.37131510416668,34.09480646306818L225.23779947916668,34.13744867498225L225.26186848958335,34.13058443936435L225.86359375,34.126411576704555L227.35587239583333,34.21974542791193L222.06069010416667,34.60031544078479L222.686484375,34.35717828924005L223.64924479166666,34.20497991388494L224.75641927083333,33.95764520818537L226.32090494791666,34.069991510564634L226.48938802083333,34.04925065474076L226.68194010416667,34.02218877618962L227.83725260416668,33.903496759588066L228.05387369791666,33.92665738192472L229.4739453125,33.87764476429332L229.78684244791665,33.85008905584162L226.27276692708332,33.39001242897728L226.56159505208333,33.348160344904116L227.35587239583333,33.31611078435725L228.36677083333333,33.26472778320313L229.9312565104167,33.44295099431818L231.71236328125,33.49253151633523L232.84360677083333,33.47235856489701L226.70600911458334,33.42823486328125L227.40401041666667,33.364456731622866L228.10201171875,33.54574168812146L228.41490885416667,33.59974198774857L228.48711588541667,33.695816594904116L230.07567057291666,33.635791570490056L230.14787760416664,33.64344593394887L231.18284505208334,33.54766762473368L232.12153645833334,33.42060519131747L232.36222656249998,33.40885203968396L233.71009114583333,33.33420965021307L229.88311848958335,32.760255848277694L230.0516015625,32.75598421963779L230.07567057291666,32.7493175159801L230.24415364583334,32.708428400213066L231.80863932291666,32.78825600363991L232.48257161458332,32.761194125088785L232.77139973958333,32.733292735706684L233.084296875,32.74840393066407L233.25277994791665,32.77400901100852L235.99664713541668,32.86102183948863L236.09292317708335,32.86277493563565L236.74278645833334,32.86028109463778L236.79092447916665,32.8573428067294L231.39946614583334,33.44724731445312L231.95305338541667,33.25198697176847L233.63788411458333,33.07252918590198L233.87857421875,33.07677612304687L234.28774739583335,33.024035089666185L234.45623046875,33.009195501154124L234.52843750000002,32.99573863636365L234.86540364583334,33.019738769531244L235.13016276041668,32.99201022061434L238.40354817708334,32.96880021528765L239.2941015625,32.94768898703836L233.61381510416666,32.78504610928622L233.78229817708333,33.33611089533025L235.34678385416666,32.8174413507635L235.94850911458332,32.75640397505326L236.16513020833332,32.769984297318885L236.45395833333333,32.79183627041903L236.91126953125,32.75262617631392L237.32044270833333,32.71129261363635L237.68147786458331,32.724848244406964L238.62016927083334,32.74171253551137L238.90899739583335,32.744008844549L239.51072265625,32.72628035111862L240.23279296875,32.70556418678978L240.40127604166668,32.70603332519531L241.79727864583333,32.721712424538346L235.90037109374998,32.36363636363635L236.35768229166666,32.61647727272727L236.52616536458333,32.644576194069614L237.63333984375,32.53682250976563L238.88492838541666,32.626600785688915L238.9571354166667,32.62042791193181L239.79955078125002,32.61183527166193L242.03796875,32.61055131392046L242.85631510416667,32.61647727272727L242.92852213541664,32.61388466574929L244.18011067708335,32.598156183416194L244.20417968750002,32.597489513050434L244.70962890624997,32.590995649857945L239.02934244791666,32.68988508744674L239.67920572916665,32.6251933704723L241.12334635416667,32.68504555442116L241.14741536458334,32.68235418146307L241.77320963541666,32.642625565962355L242.06203776041664,32.62131680575285L242.42307291666668,32.613538984818895L242.904453125,32.62702054110441L243.12107421875,32.615218006480816L243.33769531250002,32.61647727272727L244.05976562499998,32.60593400435013L245.23914713541666,32.57361283735796L246.56294270833334,32.58413141424006L247.33315104166664,32.59227960759944L240.85858723958333,33.08603543368253L242.615625,32.584872159090914L246.27411458333333,32.5162051114169L247.45349609375,32.51660017533735L248.31998046875,32.52316811301491L249.81225911458333,32.523736017400566L244.66149088541667,32.558131269975135L244.73369791666667,32.54953862970525L246.56294270833334,32.48655062588778L247.06839192708335,32.470896218039776L247.26094401041667,32.46593322753907L247.5738411458333,32.45879738547586L247.62197916666665,32.45778503417969L247.76639322916668,32.454871437766336L249.3068098958333,32.48124195445668L250.12515625,32.48487160422585L250.17329427083334,32.484032093394895L250.19736328124998,32.48363702947444L252.26729817708332,32.48973582874645L252.33950520833335,32.48874816894531L245.98528645833335,32.36363636363635L250.10108723958334,32.429834261807535L250.2695703125,32.44025407270951L251.858125,32.459414672851565L251.9784700520833,32.45763688520951L252.98936848958334,32.45306895862926L254.48164713541667,32.45852577903055L254.89082031249998,32.45440229936079L254.91488932291668,32.454254150390625L249.49936197916668,32.44025407270951L249.98074218750003,32.451834383877845L250.87129557291667,32.46642705743963L250.89536458333333,32.465587546608674L250.96757161458333,32.46316778009587L252.55612630208333,32.48153825239702L253.80771484375,32.4668468128551L254.16875,32.46087147105824L254.52978515625,32.4739579634233L254.91488932291668,32.46790854714134L255.22778645833336,32.4634393865412L256.07020182291666,32.46059986461293L256.52751302083334,32.45543934215199L256.69599609375,32.460624556107945L255.29999348958333,32.46134060946378L256.74413411458335,32.43938987038353L257.4662044270833,32.44025407270951L257.923515625,32.443661499023435L253.06157552083332,32.54422995827415L254.00026692708332,32.60215620561079L254.09654296875001,32.58541537198153L254.3131640625,32.55519298206676L254.457578125,32.57432889071378L255.05930338541665,32.54610651189631L256.43123697916667,32.511390269886355L257.4662044270833,32.47914317737926L259.9453125,32.439488636363635L261.41352213541666,32.45469859730113L255.73323567708331,32.464772727272724L256.52751302083334,32.450822032581684L257.41806640625,32.44348865855823L259.15103515625,32.42420460094105L259.29544921875004,32.43672318892046L259.5120703125,32.43309353915128L260.811796875,32.46005665172229L262.61697265625,32.477464155717335L262.85766276041664,32.48178516734729L263.43531901041666,32.48089627352628L258.16420572916667,32.36363636363635L260.28227864583334,32.430179942737915L261.12469401041665,32.41455022638495L262.59290364583336,32.41178477894177L263.05021484375,32.418846546519895L264.0851822916667,32.428698453036226L265.7459440104167,32.430377474698155L260.30634765625,32.36363636363635L260.8358658854167,32.5003037886186L263.91669921875,32.42492065429687L266.34766927083336,32.42067371715198L267.67146484375,32.4187724720348L268.0325,32.41630332253197L262.6891796875,32.36363636363635L263.50752604166667,32.52166193181819L265.2886328125,32.50869889692827L265.6737369791667,32.49188398881392L265.93849609374996,32.482427146218036L266.75684244791665,32.474180186878556L268.68236328125,32.4501553622159L270.15057291666665,32.43385897549715L270.1746419270833,32.433661443536934L270.5356770833333,32.43057500665837L271.57064453125,32.42304410067472L265.0479427083333,32.36363636363635L266.08291015625,32.40961192737926L266.2032552083333,32.40578474564987L267.9362239583333,32.44025407270951L271.32995442708335,32.42847622958097L271.40216145833335,32.427760176225135L271.88354166666664,32.42343916459518L271.9076106770833,32.42321694113993L271.9798177083333,32.42262434525923L268.1769140625,32.484032093394895L270.4875390625,32.4185996315696L270.96891927083334,32.427636718749994L271.9076106770833,32.42780955921519L272.17236979166665,32.424426824396306L276.5769986979167,32.4089452570135" style="fill: none;" fill="none"></path></g></g></g></g></g></g><g transform="translate(41, 178)" clip-path="url(#clip_1)"><clipPath id="clip_1"><rect width="288" height="22"></rect></clipPath><g><g><line x1="0" y1="0" x2="0" y2="5" style="visibility: inherit;" fill="rgb(0, 0, 0)" stroke="rgb(204, 204, 204)" stroke-width="1px"></line><line x1="24.069010416666664" y1="0" x2="24.069010416666664" y2="5" style="visibility: inherit;" fill="rgb(0, 0, 0)" stroke="rgb(204, 204, 204)" stroke-width="1px"></line><line x1="48.13802083333333" y1="0" x2="48.13802083333333" y2="5" style="visibility: inherit;" fill="rgb(0, 0, 0)" stroke="rgb(204, 204, 204)" stroke-width="1px"></line><line x1="72.20703125" y1="0" x2="72.20703125" y2="5" style="visibility: inherit;" fill="rgb(0, 0, 0)" stroke="rgb(204, 204, 204)" stroke-width="1px"></line><line x1="96.27604166666666" y1="0" x2="96.27604166666666" y2="5" style="visibility: inherit;" fill="rgb(0, 0, 0)" stroke="rgb(204, 204, 204)" stroke-width="1px"></line><line x1="120.34505208333334" y1="0" x2="120.34505208333334" y2="5" style="visibility: inherit;" fill="rgb(0, 0, 0)" stroke="rgb(204, 204, 204)" stroke-width="1px"></line><line x1="144.4140625" y1="0" x2="144.4140625" y2="5" style="visibility: inherit;" fill="rgb(0, 0, 0)" stroke="rgb(204, 204, 204)" stroke-width="1px"></line><line x1="168.48307291666669" y1="0" x2="168.48307291666669" y2="5" style="visibility: inherit;" fill="rgb(0, 0, 0)" stroke="rgb(204, 204, 204)" stroke-width="1px"></line><line x1="192.55208333333331" y1="0" x2="192.55208333333331" y2="5" style="visibility: inherit;" fill="rgb(0, 0, 0)" stroke="rgb(204, 204, 204)" stroke-width="1px"></line><line x1="216.62109375" y1="0" x2="216.62109375" y2="5" style="visibility: inherit;" fill="rgb(0, 0, 0)" stroke="rgb(204, 204, 204)" stroke-width="1px"></line><line x1="240.69010416666669" y1="0" x2="240.69010416666669" y2="5" style="visibility: inherit;" fill="rgb(0, 0, 0)" stroke="rgb(204, 204, 204)" stroke-width="1px"></line><line x1="264.7591145833333" y1="0" x2="264.7591145833333" y2="5" style="visibility: inherit;" fill="rgb(0, 0, 0)" stroke="rgb(204, 204, 204)" stroke-width="1px"></line><line x1="288.828125" y1="0" x2="288.828125" y2="5" style="visibility: inherit;" fill="rgb(0, 0, 0)" stroke="rgb(204, 204, 204)" stroke-width="1px"></line></g><g transform="translate(0, 8)"><text x="0" y="0" dx="0em" dy="0.95em" style="text-anchor: middle; visibility: hidden; font-family: Roboto, sans-serif; font-size: 12px; font-weight: 200;" fill="rgb(50, 49, 63)" stroke="none" stroke-width="1px">-1k</text><text x="24.069010416666664" y="0" dx="0em" dy="0.95em" style="text-anchor: middle; visibility: inherit; font-family: Roboto, sans-serif; font-size: 12px; font-weight: 200;" fill="rgb(50, 49, 63)" stroke="none" stroke-width="1px">0</text><text x="48.13802083333333" y="0" dx="0em" dy="0.95em" style="text-anchor: middle; visibility: inherit; font-family: Roboto, sans-serif; font-size: 12px; font-weight: 200;" fill="rgb(50, 49, 63)" stroke="none" stroke-width="1px">1k</text><text x="72.20703125" y="0" dx="0em" dy="0.95em" style="text-anchor: middle; visibility: inherit; font-family: Roboto, sans-serif; font-size: 12px; font-weight: 200;" fill="rgb(50, 49, 63)" stroke="none" stroke-width="1px">2k</text><text x="96.27604166666666" y="0" dx="0em" dy="0.95em" style="text-anchor: middle; visibility: inherit; font-family: Roboto, sans-serif; font-size: 12px; font-weight: 200;" fill="rgb(50, 49, 63)" stroke="none" stroke-width="1px">3k</text><text x="120.34505208333334" y="0" dx="0em" dy="0.95em" style="text-anchor: middle; visibility: inherit; font-family: Roboto, sans-serif; font-size: 12px; font-weight: 200;" fill="rgb(50, 49, 63)" stroke="none" stroke-width="1px">4k</text><text x="144.4140625" y="0" dx="0em" dy="0.95em" style="text-anchor: middle; visibility: inherit; font-family: Roboto, sans-serif; font-size: 12px; font-weight: 200;" fill="rgb(50, 49, 63)" stroke="none" stroke-width="1px">5k</text><text x="168.48307291666669" y="0" dx="0em" dy="0.95em" style="text-anchor: middle; visibility: inherit; font-family: Roboto, sans-serif; font-size: 12px; font-weight: 200;" fill="rgb(50, 49, 63)" stroke="none" stroke-width="1px">6k</text><text x="192.55208333333331" y="0" dx="0em" dy="0.95em" style="text-anchor: middle; visibility: inherit; font-family: Roboto, sans-serif; font-size: 12px; font-weight: 200;" fill="rgb(50, 49, 63)" stroke="none" stroke-width="1px">7k</text><text x="216.62109375" y="0" dx="0em" dy="0.95em" style="text-anchor: middle; visibility: inherit; font-family: Roboto, sans-serif; font-size: 12px; font-weight: 200;" fill="rgb(50, 49, 63)" stroke="none" stroke-width="1px">8k</text><text x="240.69010416666669" y="0" dx="0em" dy="0.95em" style="text-anchor: middle; visibility: inherit; font-family: Roboto, sans-serif; font-size: 12px; font-weight: 200;" fill="rgb(50, 49, 63)" stroke="none" stroke-width="1px">9k</text><text x="264.7591145833333" y="0" dx="0em" dy="0.95em" style="text-anchor: middle; visibility: inherit; font-family: Roboto, sans-serif; font-size: 12px; font-weight: 200;" fill="rgb(50, 49, 63)" stroke="none" stroke-width="1px">10k</text><text x="288.828125" y="0" dx="0em" dy="0.95em" style="text-anchor: middle; visibility: hidden; font-family: Roboto, sans-serif; font-size: 12px; font-weight: 200;" fill="rgb(50, 49, 63)" stroke="none" stroke-width="1px">11k</text></g><line x1="0" y1="0" x2="288.828125" y2="0" fill="rgb(0, 0, 0)" stroke="rgb(204, 204, 204)" stroke-width="1px"></line></g></g></g></g></svg>