<svg viewBox="0 0 330 200" xmlns="http://www.w3.org/2000/svg"><g><g><g><g><g><line x1="51.5625" y1="178" x2="46.5625" y2="178" style="visibility: inherit;" fill="rgb(0, 0, 0)" stroke="rgb(204, 204, 204)" stroke-width="1px"></line><line x1="51.5625" y1="160.20000000000002" x2="46.5625" y2="160.20000000000002" style="visibility: inherit;" fill="rgb(0, 0, 0)" stroke="rgb(204, 204, 204)" stroke-width="1px"></line><line x1="51.5625" y1="142.4" x2="46.5625" y2="142.4" style="visibility: inherit;" fill="rgb(0, 0, 0)" stroke="rgb(204, 204, 204)" stroke-width="1px"></line><line x1="51.5625" y1="124.6" x2="46.5625" y2="124.6" style="visibility: inherit;" fill="rgb(0, 0, 0)" stroke="rgb(204, 204, 204)" stroke-width="1px"></line><line x1="51.5625" y1="106.8" x2="46.5625" y2="106.8" style="visibility: inherit;" fill="rgb(0, 0, 0)" stroke="rgb(204, 204, 204)" stroke-width="1px"></line><line x1="51.5625" y1="89" x2="46.5625" y2="89" style="visibility: inherit;" fill="rgb(0, 0, 0)" stroke="rgb(204, 204, 204)" stroke-width="1px"></line><line x1="51.5625" y1="71.2" x2="46.5625" y2="71.2" style="visibility: inherit;" fill="rgb(0, 0, 0)" stroke="rgb(204, 204, 204)" stroke-width="1px"></line><line x1="51.5625" y1="53.400000000000006" x2="46.5625" y2="53.400000000000006" style="visibility: inherit;" fill="rgb(0, 0, 0)" stroke="rgb(204, 204, 204)" stroke-width="1px"></line><line x1="51.5625" y1="35.60000000000001" x2="46.5625" y2="35.60000000000001" style="visibility: inherit;" fill="rgb(0, 0, 0)" stroke="rgb(204, 204, 204)" stroke-width="1px"></line><line x1="51.5625" y1="17.799999999999997" x2="46.5625" y2="17.799999999999997" style="visibility: inherit;" fill="rgb(0, 0, 0)" stroke="rgb(204, 204, 204)" stroke-width="1px"></line><line x1="51.5625" y1="0" x2="46.5625" y2="0" style="visibility: inherit;" fill="rgb(0, 0, 0)" stroke="rgb(204, 204, 204)" stroke-width="1px"></line></g><g transform="translate(41.5625, 0)"><text x="0" y="178" dx="0em" dy="0.3em" style="text-anchor: end; visibility: hidden; font-family: Roboto, sans-serif; font-size: 12px; font-weight: 200;" fill="rgb(50, 49, 63)" stroke="none" stroke-width="1px">-0.1</text><text x="0" y="160.20000000000002" dx="0em" dy="0.3em" style="text-anchor: end; visibility: inherit; font-family: Roboto, sans-serif; font-size: 12px; font-weight: 200;" fill="rgb(50, 49, 63)" stroke="none" stroke-width="1px">0</text><text x="0" y="142.4" dx="0em" dy="0.3em" style="text-anchor: end; visibility: hidden; font-family: Roboto, sans-serif; font-size: 12px; font-weight: 200;" fill="rgb(50, 49, 63)" stroke="none" stroke-width="1px">0.1</text><text x="0" y="124.6" dx="0em" dy="0.3em" style="text-anchor: end; visibility: inherit; font-family: Roboto, sans-serif; font-size: 12px; font-weight: 200;" fill="rgb(50, 49, 63)" stroke="none" stroke-width="1px">0.2</text><text x="0" y="106.8" dx="0em" dy="0.3em" style="text-anchor: end; visibility: hidden; font-family: Roboto, sans-serif; font-size: 12px; font-weight: 200;" fill="rgb(50, 49, 63)" stroke="none" stroke-width="1px">0.3</text><text x="0" y="89" dx="0em" dy="0.3em" style="text-anchor: end; visibility: inherit; font-family: Roboto, sans-serif; font-size: 12px; font-weight: 200;" fill="rgb(50, 49, 63)" stroke="none" stroke-width="1px">0.4</text><text x="0" y="71.2" dx="0em" dy="0.3em" style="text-anchor: end; visibility: hidden; font-family: Roboto, sans-serif; font-size: 12px; font-weight: 200;" fill="rgb(50, 49, 63)" stroke="none" stroke-width="1px">0.5</text><text x="0" y="53.400000000000006" dx="0em" dy="0.3em" style="text-anchor: end; visibility: inherit; font-family: Roboto, sans-serif; font-size: 12px; font-weight: 200;" fill="rgb(50, 49, 63)" stroke="none" stroke-width="1px">0.6</text><text x="0" y="35.60000000000001" dx="0em" dy="0.3em" style="text-anchor: end; visibility: hidden; font-family: Roboto, sans-serif; font-size: 12px; font-weight: 200;" fill="rgb(50, 49, 63)" stroke="none" stroke-width="1px">0.7</text><text x="0" y="17.799999999999997" dx="0em" dy="0.3em" style="text-anchor: end; visibility: inherit; font-family: Roboto, sans-serif; font-size: 12px; font-weight: 200;" fill="rgb(50, 49, 63)" stroke="none" stroke-width="1px">0.8</text><text x="0" y="0" dx="0em" dy="0.3em" style="text-anchor: end; visibility: hidden; font-family: Roboto, sans-serif; font-size: 12px; font-weight: 200;" fill="rgb(50, 49, 63)" stroke="none" stroke-width="1px">0.9</text></g><line x1="51.5625" y1="0" x2="51.5625" y2="178" fill="rgb(0, 0, 0)" stroke="rgb(204, 204, 204)" stroke-width="1px"></line></g></g><g transform="translate(51, 0)" clip-path="url(#clip_0)"><clipPath id="clip_0"><rect width="278" height="178"></rect></clipPath><g><g><g><line x1="0" y1="0" x2="0" y2="178" fill="rgb(0, 0, 0)" stroke="rgb(60, 60, 60)" stroke-width="1px" opacity="0.25"></line><line x1="23.203125" y1="0" x2="23.203125" y2="178" fill="rgb(0, 0, 0)" stroke="rgb(60, 60, 60)" stroke-width="1px" opacity="0.25"></line><line x1="46.40625" y1="0" x2="46.40625" y2="178" fill="rgb(0, 0, 0)" stroke="rgb(60, 60, 60)" stroke-width="1px" opacity="0.25"></line><line x1="69.609375" y1="0" x2="69.609375" y2="178" fill="rgb(0, 0, 0)" stroke="rgb(60, 60, 60)" stroke-width="1px" opacity="0.25"></line><line x1="92.8125" y1="0" x2="92.8125" y2="178" fill="rgb(0, 0, 0)" stroke="rgb(60, 60, 60)" stroke-width="1px" opacity="0.25"></line><line x1="116.015625" y1="0" x2="116.015625" y2="178" fill="rgb(0, 0, 0)" stroke="rgb(60, 60, 60)" stroke-width="1px" opacity="0.25"></line><line x1="139.21875" y1="0" x2="139.21875" y2="178" fill="rgb(0, 0, 0)" stroke="rgb(60, 60, 60)" stroke-width="1px" opacity="0.25"></line><line x1="162.421875" y1="0" x2="162.421875" y2="178" fill="rgb(0, 0, 0)" stroke="rgb(60, 60, 60)" stroke-width="1px" opacity="0.25"></line><line x1="185.625" y1="0" x2="185.625" y2="178" fill="rgb(0, 0, 0)" stroke="rgb(60, 60, 60)" stroke-width="1px" opacity="0.25"></line><line x1="208.828125" y1="0" x2="208.828125" y2="178" fill="rgb(0, 0, 0)" stroke="rgb(60, 60, 60)" stroke-width="1px" opacity="0.25"></line><line x1="232.03125" y1="0" x2="232.03125" y2="178" fill="rgb(0, 0, 0)" stroke="rgb(60, 60, 60)" stroke-width="1px" opacity="0.25"></line><line x1="255.234375" y1="0" x2="255.234375" y2="178" fill="rgb(0, 0, 0)" stroke="rgb(60, 60, 60)" stroke-width="1px" opacity="0.25"></line><line x1="278.4375" y1="0" x2="278.4375" y2="178" fill="rgb(0, 0, 0)" stroke="rgb(60, 60, 60)" stroke-width="1px" opacity="0.25"></line></g><g><line x1="0" y1="178" x2="278.4375" y2="178" fill="rgb(0, 0, 0)" stroke="rgb(60, 60, 60)" stroke-width="1px" opacity="0.25"></line><line x1="0" y1="160.20000000000002" x2="278.4375" y2="160.20000000000002" fill="rgb(0, 0, 0)" stroke="rgb(60, 60, 60)" stroke-width="1px" opacity="0.25"></line><line x1="0" y1="142.4" x2="278.4375" y2="142.4" fill="rgb(0, 0, 0)" stroke="rgb(60, 60, 60)" stroke-width="1px" opacity="0.25"></line><line x1="0" y1="124.6" x2="278.4375" y2="124.6" fill="rgb(0, 0, 0)" stroke="rgb(60, 60, 60)" stroke-width="1px" opacity="0.25"></line><line x1="0" y1="106.8" x2="278.4375" y2="106.8" fill="rgb(0, 0, 0)" stroke="rgb(60, 60, 60)" stroke-width="1px" opacity="0.25"></line><line x1="0" y1="89" x2="278.4375" y2="89" fill="rgb(0, 0, 0)" stroke="rgb(60, 60, 60)" stroke-width="1px" opacity="0.25"></line><line x1="0" y1="71.2" x2="278.4375" y2="71.2" fill="rgb(0, 0, 0)" stroke="rgb(60, 60, 60)" stroke-width="1px" opacity="0.25"></line><line x1="0" y1="53.400000000000006" x2="278.4375" y2="53.400000000000006" fill="rgb(0, 0, 0)" stroke="rgb(60, 60, 60)" stroke-width="1px" opacity="0.25"></line><line x1="0" y1="35.60000000000001" x2="278.4375" y2="35.60000000000001" fill="rgb(0, 0, 0)" stroke="rgb(60, 60, 60)" stroke-width="1px" opacity="0.25"></line><line x1="0" y1="17.799999999999997" x2="278.4375" y2="17.799999999999997" fill="rgb(0, 0, 0)" stroke="rgb(60, 60, 60)" stroke-width="1px" opacity="0.25"></line><line x1="0" y1="0" x2="278.4375" y2="0" fill="rgb(0, 0, 0)" stroke="rgb(60, 60, 60)" stroke-width="1px" opacity="0.25"></line></g></g></g><g><g><line x1="0" y1="160.20000000000002" x2="278.4375" y2="160.20000000000002" fill="rgb(0, 0, 0)" stroke="rgb(153, 153, 153)" stroke-width="1.5px"></line></g></g><g><g><line x1="23.203125" y1="0" x2="23.203125" y2="178" fill="rgb(0, 0, 0)" stroke="rgb(153, 153, 153)" stroke-width="1.5px"></line></g></g><g><g><g><g><g><path stroke="rgb(0, 153, 136)" stroke-width="2px" d="M31.115390625,-3.4350289206351268L31.811484375000003,1.1709058334023783L33.0064453125,4.624223981860862L33.73734375,7.3459102182155815L34.2594140625,9.137654707267602L31.834687499999998,14.805965313364402L32.3799609375,19.329008828305096L32.9484375,21.95019167600703L32.9600390625,23.557671253375535L33.0992578125,24.66085228474967L33.493710937500005,25.916331326692543L35.268750000000004,27.739642050119603L32.53078125,33.28920490401839L35.1643359375,38.212096903683275L35.988046875,41.25725737927582L34.038984375,45.649990585559614L34.8394921875,48.428661009739L35.0251171875,50.19521180932002L35.03671875,51.296439200307844L35.709609375,52.06491427282459L35.96484375000001,55.20881744301324L35.988046875,56.997079711413505L36.568125,57.84221019104491L37.3918359375,58.766013399096586L38.23875,59.16351899107232L38.3199609375,59.419048675298306L36.1852734375,61.960122404336694L36.5101171875,63.96661769499765L37.4382421875,65.07973890274995L38.1575390625,65.33666683179278L39.2944921875,65.36347411717261L39.7121484375,65.51960980561543L37.3222265625,70.11592557708722L38.28515625,70.29692740130604L39.3525,69.94180717282404L39.549726562500005,69.67432038195678L41.394375000000004,69.30055359010547L41.4871875,69.04162125471025L39.4105078125,70.78169501711601L39.5729296875,72.25092006736799L41.53359375,73.28421095498683L39.72375,75.0034892337816L40.04859375,77.12628814323527L42.4965234375,77.39654718365539L42.6589453125,77.58885941103856L41.4871875,77.2019806503997L42.995390625,77.63259221790706L43.505859375,77.61568178223654L44.4919921875,77.71311289243152L45.141679687499995,77.81106058938653L41.846835937499996,83.08876615156741L42.2644921875,83.17009092682605L43.227421875,81.91204077073338L45.66375,81.40224849503281L45.8841796875,81.06157991958284L43.320234375,80.37839178128615L44.3295703125,81.46389942576633L46.626679687499994,82.09519850021688L46.963125,82.40393531087689L44.7008203125,83.44100523330958L44.8400390625,83.86537340365761L46.4990625,83.97411830355475L47.7984375,84.38188855606167L46.1394140625,85.29251697991995L46.615078125,86.01232535919375L49.2486328125,86.04568097639576L46.7775,86.59221405058202L46.812304687499996,86.84247991483865L46.986328125,87.45841902399933L47.3691796875,87.41798195066973L50.5828125,87.44361041559532L50.698828125000006,87.43717197998616L47.728828125,88.49820140137824L49.561875,88.57694365939231L50.4319921875,88.84951414561708L51.7545703125,88.78504494843745L48.8541796875,90.6689572383038L50.5016015625,90.31701668078135L50.559609375,90.17033977970142L50.6640234375,89.9154145030061L52.0678125,89.88523181604621L52.183828125000005,89.86758690552281L53.2627734375,89.782632841327L53.1003515625,90.69066881040227L53.6804296875,91.0657745581835L53.761640625,91.23052440059004L51.058476562500005,85.02784589989078L54.156093750000004,88.30203147448951L53.1931640625,91.62898652862224L54.190898437499996,92.48981703466602L54.34171875,92.67269986835973L55.6526953125,93.09508465986167L55.8615234375,93.33685767686792L54.1676953125,94.75359135172624L54.9101953125,94.74315687478698L55.8151171875,96.76823654926488L55.896328125000004,97.96491696808737L57.242109375000005,97.36570186122658L58.170234375,96.8792010277772L58.669101562499996,96.54015771211766L56.2791796875,98.21591730392925L56.824453125,98.48548510239691L58.019414062500005,97.93659510234694L58.031015625,97.63693410646736L58.28625,97.60331270272626L59.098359375,97.0999583600467L59.701640625,96.87934705486927L59.736445312499995,96.71568823856732L60.177304687500005,96.61427823187483L57.0680859375,99.34232752490982L57.1608984375,100.92781499486533L57.6945703125,99.98411567366938L58.6458984375,99.13583490942014L58.866328125,98.41287452277L58.9475390625,98.9838235801247L59.562421875,98.53035271798296L59.794453125,98.370617660491L60.154101562499996,98.2627198461344L60.258515625,98.23743199370205L60.65296875,98.20933039106072L62.0335546875,97.92104971359457L59.516015625,98.19973099678924L61.952343750000004,97.87769804746013L62.010351562500006,97.68946692436995L60.536953125000004,98.29889742070473L60.83859375,98.21618015965245L62.300390625,97.82904696583999L63.34453125,98.42886097979697L65.734453125,98.71035697789284L63.0776953125,99.75910243708665L64.17984375,100.92018483947977L64.4930859375,101.14615728659192L64.73671875000001,101.17891649605488L64.8759375,101.17086392046006L65.0499609375,101.14460305095311L65.0731640625,101.19375834775326L66.2565234375,100.60606619544241L66.7437890625,100.55738700406201L67.33546875,100.40551310644418L67.6023046875,100.42101976076287L68.286796875,100.3332499122591L66.430546875,101.11072339629956L67.2890625,100.74447910079854L66.1869140625,101.04666886859832L67.82273437500001,101.89607092698633L68.6696484375,102.17665668583047L68.9712890625,102.36328640613635L69.1801171875,102.29447195430802L69.864609375,101.96040002286557L70.4446875,101.59871175634935L69.214921875,101.57961501805826L69.28453125,101.63488516169099L69.632578125,101.63432348821942L69.73699218750001,101.68218177470197L69.85300781250001,101.85441528983492L70.92035156249999,101.72652919308888L71.024765625,101.61355504999487L71.2683984375,101.4546147728558L68.63484375,104.30054470447276L68.8552734375,105.29787515012964L71.1523828125,104.04433972363796L72.19652343749999,103.16020288184362L69.818203125,103.35503942319798L70.49109374999999,102.40985405057101L72.2197265625,102.76067075973408L72.24292968750001,103.00212604192292L72.6141796875,103.12978403083918L71.9412890625,103.11863296695016L72.2197265625,102.7069219485966L74.876484375,102.59114278650569L72.6837890625,103.85432928857975L72.92742187500001,103.75682305608852L74.4704296875,103.00366036960281L75.3057421875,102.51845701735495L75.56097656249999,102.29594109655189L76.291875,102.47809128165703L74.064375,104.13195844292915L76.291875,104.03880994677709L77.59125,103.41587237095932L74.7720703125,104.17461321578085L75.2593359375,104.12431961670912L77.196796875,103.6547691057646L77.5564453125,103.56355374518178L75.8278125,103.43115145124877L76.4426953125,103.98878421162298L76.732734375,104.38201388463219L76.98796875000001,104.77603088346027L78.2061328125,104.66093990401566L79.3546875,104.3841000199088L79.517109375,104.11577657936623L79.8535546875,103.86276310013896L79.9463671875,103.67236567811467L76.9067578125,106.27553485677421L78.0553125,107.22164513853657L80.7352734375,106.36670040480774L78.11332031250001,107.72879412288952L78.65859375,108.12347740719014L80.9673046875,106.84836675875958L81.5937890625,105.84230906339631L79.7607421875,106.28281874282446L81.3965625,105.95871252789073L80.955703125,107.63242583140118L82.2666796875,107.26213422694434L84.0997265625,106.77669198559897L81.33855468750001,105.32791423825728L82.5219140625,106.54352837102596L85.5383203125,106.1609124785482L83.42683593749999,106.75001781736727L83.58925781250001,107.30526763412304L84.482578125,107.64809350379078L85.81675781249999,107.21297605638365L86.88410156249999,106.75568478467858L84.16933593750001,108.91759649492977L84.6333984375,109.87885759101914L84.8422265625,110.11306122914915L84.946640625,110.15813708767868L85.828359375,109.75479672709452L87.05812499999999,108.91896957850068L87.0929296875,108.40142728981738L87.1509375,108.07691206274846L87.97464843750001,107.56725191198836L85.9559765625,107.76658863975437L86.478046875,107.91257894011636L87.10453125000001,107.89530332548797L87.1161328125,107.86631806172956L87.37136718750001,107.73652215169686L87.5569921875,107.55540020565283L86.51285156249999,109.06328616201932L86.54765625,109.87755369222197L87.1161328125,110.68441786692162L87.39457031250001,110.7501266427375L90.004921875,109.34744687721354L87.37136718750001,110.24455101874604L88.12546875,109.9077420973011L88.3923046875,109.528087665035L89.3668359375,109.07850075804811L89.401640625,108.75047417785896L89.4596484375,108.46365676585539L90.236953125,108.04130007662596L90.44578125,107.79340731285942L88.3923046875,110.12270700921376L90.2253515625,110.0813307332382L91.5479296875,109.91491101070557L91.84957031249999,109.80061098745057L92.093203125,109.47356136805169L92.1628125,109.28369100669833L90.61980468750001,109.86708863127119L93.39257812499999,109.14107127396993L90.561796875,108.99276955252131L91.00265624999999,110.8325762279346L91.3275,111.80394387289968L92.650078125,111.44579666164569L93.485390625,110.97824431721601L92.67328124999999,111.73896502294679L93.5433984375,111.99881803773962L94.5875390625,111.67270267357303L93.62460937499999,111.84712694376633L93.740625,111.7862246459122L94.135078125,111.10057993563386L94.25109375000001,110.97617714781983L94.552734375,110.90850387799395L95.07480468749999,110.904467055724L95.341640625,110.81919863076564L96.21175781250001,110.45493688018058L96.9774609375,109.95514196533522L94.9123828125,110.9122108410511L96.4205859375,110.92998785201988L96.548203125,110.99923405184914L96.780234375,110.91292728146654L96.15375,110.9623484489962L97.7895703125,111.05495655284193L98.24203125,110.94011171189467L98.5784765625,110.74279649452878L99.58781250000001,110.59634490130254L96.7686328125,110.84758308004086L96.79183593750001,110.90780040783135L97.2326953125,110.7470925209668L97.49953125,110.50521829353254L99.9590625,110.37244336263227L100.70156250000001,110.2009011581891L98.46246093750001,111.98958528967817L98.55527343749999,113.17157414991928L100.5739453125,112.99401698255105L100.956796875,112.89180928792693L101.81531249999999,112.60083505586466L98.89171875000001,113.56883093044569L99.889453125,113.84928265288715L101.02640625000001,113.43957092687634L101.28164062500001,113.12319199517457L102.1981640625,112.38473447009974L102.88265625,111.78250282195242L100.82917968749999,112.73922110788246L101.003203125,113.30327903027666L102.9290625,113.133385345908L101.0148046875,115.87083670709848L101.420859375,116.57072387942267L102.279375,116.53128905063028L103.96160156250001,115.56546995499822L104.25164062500001,114.89825598155912L104.994140625,114.45126009318503L105.15656249999999,114.07559340675637L103.33511718749999,112.89615029263474L104.4952734375,112.37061776499735L105.272578125,111.8959565078067L105.690234375,111.9838250157146L105.7018359375,111.98933328133275L106.03828125000001,112.08400198067098L106.061484375,112.12979677346272L107.2100390625,112.30934142963244L106.31671875,113.4939623158941L106.386328125,114.19784919987734L106.4559375,114.59254325253139L106.50234375000001,114.76960202230435L106.5139453125,114.85045056923282L107.848125,114.47491837849648L107.15203125000001,115.83714510268231L108.28898437500001,116.1888999466077L108.40499999999999,116.28991616988037L108.4862109375,116.36212859167966L108.6950390625,116.34785956391282L107.4884765625,116.1954337301766L108.54421875,116.2344872488329L108.938671875,116.21511906467373L109.14750000000001,116.12300397683677L109.0546875,116.18156136589943L109.866796875,115.89973532150803L111.22417968750001,115.38038620823991L111.375,115.05812891885263L109.0662890625,119.47066603520287L109.40273437500001,118.47727525960669L109.8551953125,118.19773126561203L110.6441015625,119.03623566459869L110.9457421875,119.5044570340589L111.42140625,119.5550866874382L111.7114453125,119.13118784620315L111.89707031249999,118.74011061068745L113.3240625,117.67677284643871L114.04335937500001,116.86856206754341L113.0804296875,117.36408606350119L113.2660546875,117.48898978221234L114.1245703125,117.51049132339845L114.7046484375,117.09631021018438L112.90640625,117.93298705813655L113.8461328125,117.88342095135076L113.85773437499999,117.86524259757054L115.84160156249999,117.06806781596573L115.899609375,116.57903237048765L116.20125,116.21201212229717L116.9089453125,116.11421490801803L114.48421875000001,116.88544598754305L115.2847265625,116.86855735979115L115.760390625,117.12283305765173L116.2592578125,117.18907218719113L117.7906640625,116.88338000979775L117.91828124999999,116.6104491603777L116.1896484375,117.54953376843959L117.2801953125,118.27621470209617L117.4426171875,118.71408843467628L117.6514453125,118.97627900999781L118.5331640625,118.8747163400769L118.6491796875,118.67431201134443L119.07843749999999,118.4520620965619L118.63757812499999,119.18608414790982L119.936953125,119.64723707712861L120.6910546875,119.7125341431926L120.772265625,119.80422154764118L120.865078125,119.79980416595807L121.421953125,119.45133083045405L121.5263671875,119.18731866943789L122.210859375,118.79967977683516L122.3616796875,118.62493800449832L120.8070703125,118.79195720033921L121.18992187500001,119.1710989885156L123.835078125,118.70626347617058L121.700390625,120.18031016681044L123.03457031250001,120.30055541094214L123.603046875,120.27308877167744L124.25273437499999,120.0052964368918L122.40808593749999,122.18594286200157L122.5008984375,123.57264355514498L123.6610546875,123.27419975098402L124.0323046875,122.6666180699851L125.40128906250001,121.4677099758259L125.71453125000001,120.83279440724084L125.737734375,120.40921770765323L123.4058203125,121.62272151728831L124.2179296875,122.5908231092713L124.6123828125,122.62718634803426L124.9372265625,122.45330760359366L126.5150390625,121.6005093829608L124.206328125,124.49148522953843L125.3316796875,124.10521271193419L125.43609375,123.88436756828065L125.57531250000001,123.64745326697015L125.7957421875,123.13499370014179L125.99296875,122.64776223656838L126.61945312499999,122.39193744991603L126.75867187499999,122.17505536278715L127.04871093749999,121.85449922442811L127.47796874999999,121.70328845477329L125.3084765625,120.51219410119191L125.52890624999999,122.71690361033521L126.7470703125,122.75355821329738L129.31101562499998,121.897067512741L129.5546484375,121.3050735078277L126.8166796875,122.08030737412106L127.826015625,122.33996574742872L127.8376171875,122.48206162132787L128.2784765625,122.45321897553187L128.68453125,122.28619351796377L130.81921875,121.68493649728339L131.29488281250002,121.25399005512739L132.01417968750002,121.04110405981747L129.5314453125,122.73191023433331L130.44796875,123.66372160532548L130.69160156249998,123.95472756158398L130.7844140625,124.07537375647476L130.9584375,124.14221157764584L132.165,123.64816412291044L132.188203125,123.31267418719001L133.23234374999998,122.87028176222246L132.15339843750002,123.6382526006341L132.234609375,124.1781012252593L133.0003125,123.86713457796718L133.0583203125,123.67830110486594L134.2648828125,123.08858209667353L134.462109375,122.6426782287225L131.86335937500002,124.31586793405204L134.2880859375,124.14086549366944L134.4737109375,123.9781190138187L134.62453125,123.8974316752628L135.0305859375,123.7156382272646L135.33222656249998,123.41652358472379L134.6593359375,123.78503459513206L135.3554296875,123.91643044126045L135.70347656250001,123.92420785171993L135.92390625000002,123.81683451737884L133.580390625,126.83596485618307L134.183671875,127.64720670320722L134.54332031250001,127.58296949111303L135.204609375,127.29574600006866L136.8984375,126.02524869409638L134.8681640625,123.66797859410903L135.251015625,122.53883194768704L138.1862109375,122.87056348707841L138.5806640625,123.03503518573383L138.3950390625,123.84996243758165L139.6944140625,124.37450453783967L139.98445312500002,124.8862802740687L140.6225390625,124.84775940398896L140.79656250000002,124.77137382400348L138.61546875,125.47448239548393L139.47398437500001,126.15959253682726L139.659609375,126.4037575219514L139.78722656250002,126.61080883589041L141.1098046875,126.59420425562054L141.8175,126.63408235113616L141.8291015625,126.64638636231895L142.5019921875,126.53630428624437L139.35796875,128.5955404634016L140.75015624999997,127.70388701407535L142.38597656250002,127.09973078756585L142.66441406250001,126.80412650459441L140.866171875,127.87095380516905L141.979921875,128.10323629076515L142.66441406250001,127.89462275561831L142.79203125,127.75764399800981L142.7108203125,127.87443074485233L143.99859375,127.5822243553434L144.32343749999998,127.45550003898347L144.91511718750002,127.4234763029349L146.04046875,127.19576910276008L143.0240625,128.88150626384493L143.08207031249998,129.38072320677801L143.27929687499997,130.02395859752875L144.3118359375,130.11227327701317L144.13781250000002,129.24918871472397L146.3653125,129.18103655666187L146.50453125,129.15843413645072L148.20996093750003,128.7404114316347L148.3259765625,128.4310305470492L148.3955859375,128.21851510013732L145.06593750000002,127.31179876926896L145.42558593750002,127.44242983224008L145.4487890625,127.75102994419345L145.6112109375,128.12006120906597L145.6808203125,128.1441684950967L146.527734375,128.46038868842L149.3933203125,128.18621381293224L147.038203125,129.1428801355987L147.33984375,129.6658741485017L148.383984375,129.97170484846458L148.6972265625,129.97392081967368L149.5093359375,129.5845636281453L150.2982421875,129.27399556833998L147.873515625,131.16530717491207L148.430390625,131.64632469343601L148.616015625,132.1055051131693L148.9060546875,133.02741230271144L150.472265625,132.72371573175124L150.5534765625,132.54627106025893L151.957265625,131.85884019276546L152.235703125,131.34169966781764L152.51414062499998,130.94450659516232L149.8573828125,131.62084879733786L150.95953125,131.7146440926651L152.2473046875,131.54740295788406L152.45613281250002,131.4137429879949L151.51640625000002,131.18999557297502L152.653359375,130.87760618568106L154.834453125,130.7291077616253L155.0316796875,130.5790415479206L152.1080859375,132.13916587552208L155.1012890625,132.43599984956253L153.99914062500002,133.1913859409837L154.509609375,133.36480354325462L154.91566406249999,133.52900220070177L155.5421484375,133.35187056013282L155.9133984375,132.8701476523181L156.7487109375,132.4474188178122L157.061953125,132.11605008657816L157.10835937500002,131.92116714129472L157.5840234375,131.60619595891015L154.46320312499998,131.00517884520158L156.44707031250002,131.59548714415706L156.4934765625,131.93926832351968L156.644296875,132.207954526388L157.57242187499997,132.53667421844204L157.61882812500002,132.72571009699465L158.036484375,132.64278881015753L155.66976562500003,131.77823261655791L155.7509765625,131.51251515768422L156.2614453125,132.8940480936912L156.87632812500001,134.1359040778486L156.7603125,135.76426432261516L157.45640625000001,137.1191927226165L158.4309375,137.23589937161083L159.2778515625,136.40862478655978L159.44027343750003,135.7482245960379L161.15730468750002,134.7050041364756L159.40546875,135.5654625348524L161.79539062499998,135.14858164383625L161.8998046875,134.8965317058185L159.1386328125,134.18962360189076L160.70484375,134.79219354132243L161.1225,134.93158901774544L162.45667968749999,135.04065227415356L161.1805078125,135.3005371016633L161.5865625,135.57646393790077L163.4312109375,135.6225789833917L164.0925,135.45022577815377L164.48695312499999,135.27839661582183L161.63296875,134.6074655279152L162.050625,135.03537328866912L163.36160156250003,135.91974208729144L163.5472265625,136.4263198302786L164.46375,136.6815704111219L165.461484375,136.52477854990724L164.37093750000003,136.51847157063344L166.81886718750002,136.8712631462947L167.317734375,136.8994520234427L168.013828125,136.7517410759545L164.8698046875,137.46817988302806L165.1714453125,137.84362745253145L166.2155859375,138.59596368532124L166.81886718750002,138.77174270546877L167.51496093749998,138.5244198691633L167.9326171875,138.2564763624541L168.54749999999999,138.16098333472442L168.59390625,138.08844360634345L168.7447265625,137.99130561187658L168.90714843749998,137.89021191021678L169.18558593749998,137.75997563493775L165.94875,138.29799165780858L166.4012109375,137.95332790169425L166.5636328125,138.15684264036005L168.0022265625,138.62114324529162L168.0718359375,138.9049032280397L168.54749999999999,138.99530427035998L168.75632812499998,138.8782864223558L169.0231640625,138.77892417255867L170.2529296875,138.56012475695508L168.09503906249998,138.1662435830015L168.2806640625,137.91777640464173L168.6287109375,138.0654192428724L168.5823046875,139.2738627219758L168.67511718749998,139.81266938475142L170.16011718750002,139.92899510638338L172.41082031250002,139.702369768479L170.63578125,139.78657296720655L170.62417968749997,138.51918455495544L171.25066406250002,138.5746487816221L171.540703125,139.15755213618556L173.0025,139.5118435568826L173.9422265625,139.64235825104814L174.649921875,139.7665717396933L174.87035156250002,139.8096576734661L175.763671875,139.87016557957404L172.9676953125,140.48206750813526L174.046640625,140.94986909069658L174.232265625,141.34808613799837L174.5803125,141.65621977891223L175.4272265625,141.43376562384188L176.7498046875,141.12617377154479L174.3946875,141.50536223955422L175.18359375,141.66112665836496L176.2393359375,141.82084773364355L176.2625390625,141.91617217768842L176.3321484375,141.9979111546851L178.4436328125,141.8578379437075L176.923828125,142.77956488518393L177.341484375,143.1157063280849L178.7220703125,142.87755214067153L176.4249609375,141.9468476277104L177.063046875,142.64221119770474L177.759140625,143.19477157407442L178.86128906250002,143.34026481159592L179.1165234375,143.60022765545884L179.62699218749998,143.73037145107293L179.6733984375,143.81952728253185L179.7662109375,143.8549112094735L181.4832421875,143.76320580204097L182.028515625,143.56831743931633L179.4181640625,143.0039695645324L179.4413671875,142.7478055968852L181.39042968750002,142.98156919449394L182.028515625,143.25836210948125L182.353359375,143.40029830516514L182.7362109375,143.28752947796067L183.1306640625,143.08204806893278L181.1816015625,143.7835935166431L181.39042968750002,144.25800126141027L182.70140625,144.33253498164245L183.1770703125,144.31990275435106L181.19320312500003,145.1908588674811L182.39976562500001,145.6650149731128L182.78261718750002,145.86204393436245L183.5251171875,146.08932986575203L183.64113281250002,146.21149566482208L184.55765625,145.96186569041433L184.73167968750002,145.75315759483826L185.16093750000002,145.5300080043307L184.766484375,145.91722916616388L184.859296875,146.12590133460395L185.54378906250003,146.0292806810858L185.7062109375,145.91264129678737L184.25601562499997,146.49615603566366L184.92890625,146.97416286873937L185.01011718750001,147.21694921856L185.0565234375,147.39612357738537L185.1029296875,147.494053535002L186.73874999999998,147.38223841806501L187.1216015625,147.18686198485048L187.24921874999998,146.96951148564904L185.79902343749998,146.51508636745984L185.97304687500002,146.16430253549322L186.2166796875,145.9750058684582L186.390703125,145.9306800850531L187.7596875,145.94384790470008L185.85703125,147.12031994348646L186.993984375,148.05524405471016L188.83863281249998,147.70940353531557L189.0938671875,147.53924033557723L189.6043359375,147.37352815458385L189.92917968749998,147.21481372111566L187.5740625,148.65738600786642L189.08226562500002,148.9725491559274L189.6043359375,149.0719476899962L188.6762109375,148.7122519219792L189.9059765625,149.01314689128853L189.94078125000001,149.1802459848479L190.24242187500002,149.1870935125682L190.60207031250002,148.95829313656884L189.3026953125,148.74075267589808L189.36070312500001,148.4998994211955L189.453515625,148.19816022638102L191.33296875000002,148.27434445812474L191.94785156249998,148.15283083435398L192.284296875,148.10680321047607L193.15441406250002,148.0441250025624L190.85730468749998,147.77945137616362L190.892109375,147.64662062762002L192.34230468750002,148.0656552698482L191.4373828125,146.12461153663807L191.82023437499998,148.19944624482164L192.3075,149.5357307027493L192.92238281250002,150.08785977725472L193.7925,150.2054070863979L193.954921875,150.25995578252417L194.0361328125,150.29829590131726L194.9642578125,150.1013711625927L193.6648828125,150.2013014414664L194.04773437499998,150.39302427701685L194.465390625,150.58087635596118L196.1244140625,150.38096301471901L196.553671875,150.1807396561844L195.50953125,150.51707687562364L195.78796875,150.75813190868888L196.228828125,150.99768528062936L196.29843749999998,151.10769195269845L198.20109374999998,150.66026190049232L194.9990625,150.81895062581765L195.393515625,150.8803218040232L198.20109374999998,151.0115327902653L196.10121093749999,150.8614733903419L198.6535546875,150.9174843024499L197.6558203125,151.72628747351686L198.2475,151.86908717589213L199.338046875,152.09934968612572L200.683828125,152.19526124991168L201.3219140625,152.29815691588632L201.6699609375,152.3300786118407L201.7163671875,152.36430419568413L199.198828125,152.41380992760773L199.5120703125,152.50561204272813L199.709296875,152.56385630678125L199.9993359375,152.6525217927157L200.97386718750002,152.77839092711562L202.62128906249998,152.68354434728596L202.8069140625,152.65832178449614L202.8765234375,152.6412169781684L202.145625,152.72568214698785L202.6908984375,152.72697078325842L200.7186328125,154.47952861749226L202.3892578125,154.19330900587497L202.94613281250003,154.02824114547883L203.13175781249998,153.9169571851892L203.47980468749998,153.8051895251991L204.257109375,153.67763071543703L204.41953124999998,153.57751871697147L202.6444921875,154.15502934665702L204.025078125,154.47239996529353L204.93,154.40423377058943L206.00894531249997,154.1523109644773L206.0785546875,154.0058042973353L206.33378906250002,153.91295117140254L204.001875,154.35908631265426L205.1736328125,154.56302860576073L206.066953125,154.57856074272487L206.39179687499998,154.58159912585555L207.4707421875,154.45912056421838L204.581953125,154.72290404621126L204.96480468750002,154.8555635573468L205.71890625,154.91472140949975L207.2851171875,155.07220574201352L205.66089843749998,155.27787714023117L206.82105468749998,155.3647856480999L207.783984375,155.4368239356353L208.6076953125,155.4608838002845L209.73304687499999,155.35987623756913L209.872265625,155.30997641548984L206.82105468749998,155.25694665888233L207.11109375,155.14496962654164L208.22484375,154.97040403769952L209.918671875,154.95773621908748L210.6959765625,155.0525633845444L211.867734375,155.37879871926995L212.169375,155.57222848029312L209.4198046875,156.04353231603727L211.33406250000002,156.34288380423084L212.86546875,156.53901561009226L213.2251171875,156.683920587345L213.3179296875,156.77479430779456L213.6427734375,156.77889761504318L214.32726562500002,156.8042201621937L211.2760546875,156.66048559269947L212.006953125,156.83672436488652L214.28085937499998,157.05032947041383L212.50582031250002,157.17805568234795L213.3179296875,157.14465578738853L213.32953125,157.1059902527571L214.30406250000001,157.2177366315508L215.4758203125,157.3092336143067L216.10230468749998,157.40346812248293L216.137109375,157.4510507879559L214.0372265625,157.74714122357392L214.6405078125,157.90221654142394L215.0117578125,157.98482868933948L216.43875,158.11489121639295L217.5176953125,158.19991059645153L217.71492187500002,158.24486028161132L214.698515625,158.5608973975866L215.208984375,158.5357610609167L215.510625,158.5476200852414L215.812265625,158.5132407853675L219.1303125,158.51235931230616L215.8702734375,158.35748867340703L215.8934765625,158.32179899333607L217.7961328125,158.3570379398387L220.1396484375,158.30038257238994L217.92374999999998,158.41714359431106L218.05136718749998,158.47598245014927L218.37621093750002,158.52638518554082L218.67785156250002,158.57942008475726L220.89375,158.63278632491986L221.2301953125,158.66130117881391L221.4390234375,158.67782510285434L218.735859375,158.76306230360183L219.02589843750002,158.8487706886018L219.896015625,158.8891864414534L220.2556640625,158.8961133566064L220.499296875,158.9162396795489L220.7893359375,158.92443055954203L221.6478515625,158.969843193347L222.13511718750001,158.99903286581025L219.524765625,158.82486237665884L220.53410156249998,158.93828785124938L221.82187499999998,159.04162021132424L222.2975390625,159.11823216685423L223.36488281249999,159.17133371738353L223.469296875,159.20756979254043L222.98203124999998,159.21245572465455L222.3439453125,159.2841703231501L223.654921875,159.32727573680089L225.27914062500003,159.32274757648827L223.7709375,159.36857860833598L224.09578125,159.40538054391857L224.18859375,159.43196990145813L224.61785156250002,159.47301907955003L224.118984375,159.52033821817272L226.1028515625,159.61014647670706L226.4973046875,159.66545519400756L226.94976562500003,159.69273505639507L225.8708203125,159.68274869408592L226.71773437500002,159.64688172600498L228.89882812500002,159.6498642792513L228.9104296875,159.6521750256917L229.10765625,159.65436293139314L229.7921484375,159.6518765332431L230.2330078125,159.65487807022066L227.4486328125,159.54784797736426L228.4115625,159.6360119957606L229.316484375,159.70017550957232L230.48824218750002,159.73316088894475L231.91523437499998,159.75345115030984L229.873359375,159.7729826357003L230.5578515625,159.78177169507956L232.6809375,159.77936306466887L232.6925390625,159.77776930191504L232.843359375,159.77814766900025L231.10312499999998,159.79220581314732L231.68320312499998,159.79703561476927L232.5997265625,159.80049326959735L232.843359375,159.80510381195538L231.14953125000002,159.82624368179123L231.6251953125,159.831772943859L231.9384375,159.82783174259197L232.28648437500001,159.82216124448317L233.20300781249998,159.82004753452176L234.2703515625,159.8235130919241L234.560390625,159.8246850048809L233.65546874999998,159.8024294839611L233.7598828125,159.80512770783514L234.10792968750002,159.80484712110675L234.1543359375,159.80623888153116L234.4327734375,159.80315021598804L234.513984375,159.79961139563153L234.931640625,159.79488937480556L235.5233203125,159.7946393246103L236.06859375,159.79792605099968L236.4050390625,159.80242578067865L237.2635546875,159.80153351383498L236.03378906249998,159.81482102200889L236.973515625,159.8258117999539L236.7994921875,159.85181005563396L237.2867578125,159.85409803867597L238.60933593750002,159.8523942605347L238.9341796875,159.85342875268702L239.061796875,159.85313611660015L236.69507812499998,159.81892646858012L236.99671874999999,159.85312331940705L238.3425,159.84723545309737L239.18941406250002,159.83953711202344L240.12914062500002,159.8433262200168L240.77882812500002,159.84278387329047L241.01085937500002,159.84035139337817L237.994453125,159.869214309916L238.2496875,159.86623043954899L238.6325390625,159.86587664421592L238.922578125,159.87059359961341L238.95738281250001,159.87412380928822L240.77882812500002,159.8772917079294L241.68375,159.8786050799408L241.92738281249999,159.87902059749402L241.938984375,159.87936993691332L241.9621875,159.87958322077918L239.76949218750002,159.86228528527874L239.80429687499998,159.8544513092694L240.268359375,159.8573265204397L241.5909375,159.86120674415704L241.67214843750003,159.85897723139018L243.5051953125,159.86542247239913L241.86937500000002,159.8538557929421L242.7394921875,159.85603955867515L243.44718749999998,159.86021013204828L242.0433984375,159.858329655831L243.656015625,159.8580775926515L244.35210937500003,159.8617583115588L245.2686328125,159.86920331483722L245.62828125,159.87452803052972L245.744296875,159.87508664951108L245.8023046875,159.87608764957864L246.347578125,159.87556147410112L246.950859375,159.8732745416046L243.6676171875,159.9066922186065L243.934453125,159.90856387586135L244.2825,159.9092433049276L244.9437890625,159.9049978287291L245.326640625,159.90630212763455L246.3591796875,159.90269942497167L246.88125000000002,159.89668418800056L246.98566406249998,159.89314244181423L247.06687499999998,159.89109552405705L246.12714843749998,159.88277972828183L247.2873046875,159.88804297139993L248.0994140625,159.8895302160278L248.5170703125,159.89350248772323L249.66562499999998,159.89342401946885L247.3337109375,159.87397282634112L247.9137890625,159.87460838233042L248.27343750000003,159.88465413270285L251.42906250000001,159.8867535178126L248.3546484375,159.91248913510955L248.5634765625,159.9241645604443L249.4916015625,159.91452538343572L250.2108984375,159.90896803634496L250.99980468750002,159.90523684462684L250.0252734375,159.83327879080642L250.3037109375,159.8180100951014L250.32691406249998,159.81099223779398L250.7677734375,159.81662790357623L251.7887109375,159.83084373786036L252.0207421875,159.84057977679137L252.287578125,159.84727746440998L253.66816406249998,159.85472205808557L252.7632421875,159.86241565767403L253.354921875,159.86744384394052L255.025546875,159.8749705184681L252.12515625,159.88726811249526L252.194765625,159.88567037760524L252.566015625,159.86848717215244L253.5521484375,159.87359587962604L254.8979296875,159.88082132940843L254.97914062499999,159.88509576798816L255.10675781249998,159.88868007428997L253.45933593750001,159.88966433682697L254.90953125,159.89279923204649L255.814453125,159.8975788352546L256.371328125,159.8998791562114L257.27625,159.89879488168472L254.5730859375,159.91054707841687L254.8515234375,159.91374952225976L255.1415625,159.91554942545127L255.3851953125,159.9114875775275L256.696171875,159.91015124241693L258.5408203125,159.90890757526196L255.6636328125,159.88715249043472L256.3133203125,159.8754904527844L258.5408203125,159.88249055223577L258.645234375,159.88555044173472L259.0280859375,159.88882411248176L259.7705859375,159.89172874230036" style="fill: none;" fill="none"></path></g></g></g></g><g opacity="0.2"><g><g><g><path stroke="rgb(0, 153, 136)" stroke-width="2px" d="M33.110859375000004,-5.943179774284379L31.115390625,4.839617323875431L31.811484375000003,8.079807949066167L33.0064453125,9.804201197624211L33.73734375,11.428439569473271L34.2594140625,11.825271439552312L31.834687499999998,23.30843122005463L32.3799609375,26.113574099540713L32.9484375,25.881965947151187L32.9600390625,25.968890619277957L33.0992578125,26.315623831748965L33.493710937500005,27.799549889564517L35.268750000000004,30.47460813522339L32.53078125,41.6135491847992L35.1643359375,45.59643490314484L35.988046875,45.82499809265137L34.038984375,52.23909039497376L34.8394921875,52.596666646003726L35.0251171875,52.84503800868988L35.03671875,52.94828028678894L35.709609375,53.21762688159943L35.96484375000001,59.924672198295596L35.988046875,59.679473114013675L36.568125,59.109905910491946L37.3918359375,60.151718211174014L38.23875,59.75977737903595L38.3199609375,59.80234320163727L36.1852734375,65.77173299789429L36.5101171875,66.97636063098908L37.4382421875,66.74942071437836L38.1575390625,65.72205872535706L39.2944921875,65.40368504524231L39.7121484375,65.75381333827973L37.3222265625,77.0103992342949L38.28515625,70.56843013763428L39.3525,69.40912683010102L39.549726562500005,69.27309019565583L41.394375000000004,68.7399034023285L41.4871875,68.65322275161743L39.4105078125,73.39180566072464L39.5729296875,74.45475764274597L41.53359375,74.8341472864151L39.72375,77.58240665197373L40.04859375,80.31048650741577L42.4965234375,77.80193574428559L42.6589453125,77.87732775211335L41.4871875,76.62166250944138L42.995390625,78.2785095691681L43.505859375,77.59031612873078L44.4919921875,77.859259557724L45.141679687499995,77.95798213481903L41.846835937499996,91.00532449483872L42.2644921875,83.29207808971405L43.227421875,80.0249655365944L45.66375,80.63756008148194L45.8841796875,80.55057705640793L43.320234375,79.3536095738411L44.3295703125,83.09216089248658L46.626679687499994,83.0421471118927L46.963125,82.86704052686692L44.7008203125,84.99661011695862L44.8400390625,84.50192565917969L46.4990625,84.13723565340042L47.7984375,84.99354393482209L46.1394140625,86.6584596157074L46.615078125,87.0920379281044L49.2486328125,86.0957144021988L46.7775,87.41201366186142L46.812304687499996,87.2178787112236L46.986328125,88.38232768774033L47.3691796875,87.35732634067536L50.5828125,87.4820531129837L50.698828125000006,87.42751432657242L47.728828125,90.08974553346634L49.561875,88.69505704641342L50.4319921875,89.25836987495423L51.7545703125,88.688341152668L48.8541796875,93.49482567310334L50.5016015625,89.78910584449768L50.559609375,89.95032442808152L50.6640234375,89.5330265879631L52.0678125,89.83995778560639L52.183828125000005,89.8411195397377L53.2627734375,89.65520174503327L53.1003515625,92.0527227640152L53.6804296875,91.62843317985535L53.761640625,91.47764916419983L51.058476562500005,75.72382814884186L54.156093750000004,93.21330983638764L53.1931640625,96.61941910982132L54.190898437499996,93.78106279373169L54.34171875,92.9470241189003L55.6526953125,93.72866184711457L55.8615234375,93.69951720237732L54.1676953125,96.87869186401367L54.9101953125,94.72750515937805L55.8151171875,99.80585606098175L55.896328125000004,99.75993759632111L57.242109375000005,96.46687920093537L58.170234375,96.14944977760315L58.669101562499996,96.03159273862839L56.2791796875,100.72955669164658L56.824453125,98.88983680009842L58.019414062500005,97.11326010227204L58.031015625,97.18744261264801L58.28625,97.55288059711457L59.098359375,96.34492684602738L59.701640625,96.54843009710312L59.736445312499995,96.47020001411438L60.177304687500005,96.4621632218361L57.0680859375,103.43440146446228L57.1608984375,103.30604619979859L57.6945703125,98.56856669187546L58.6458984375,97.86341376304627L58.866328125,97.3284339427948L58.9475390625,99.84024716615677L59.562421875,97.85014642477036L59.794453125,98.13101507425309L60.154101562499996,98.10087312459946L60.258515625,98.19950021505356L60.65296875,98.1671779870987L62.0335546875,97.48862869739533L59.516015625,98.61775292158127L61.952343750000004,97.3946486234665L62.010351562500006,97.40712023973465L60.536953125000004,99.21304316520691L60.83859375,98.09210426807404L62.300390625,97.24834717512131L63.34453125,99.32858200073242L65.734453125,99.13260097503662L63.0776953125,101.33222062587738L64.17984375,102.66180844306946L64.4930859375,101.48511595726013L64.73671875000001,101.22805531024933L64.8759375,101.15878505706787L65.0499609375,101.10521174669266L65.0731640625,101.2674912929535L66.2565234375,99.72452796697617L66.7437890625,100.48436821699143L67.33546875,100.1777022600174L67.6023046875,100.44427974224091L68.286796875,100.20159513950348L66.430546875,102.27693362236023L67.2890625,100.195112657547L66.1869140625,101.499953520298L67.82273437500001,103.17017401456833L68.6696484375,102.59753532409668L68.9712890625,102.64323098659516L69.1801171875,102.19125027656555L69.864609375,101.45929212570191L70.4446875,101.05617935657502L69.214921875,101.55096991062165L69.28453125,101.71779037714005L69.632578125,101.63348097801209L69.73699218750001,101.75396920442581L69.85300781250001,102.11276556253434L70.92035156249999,101.53470004796982L71.024765625,101.44409383535385L71.2683984375,101.21620435714722L68.63484375,108.5694396018982L68.8552734375,106.79387081861496L71.1523828125,102.16403658390045L72.19652343749999,101.83399761915207L69.818203125,103.6472942352295L70.49109374999999,100.99207599163056L72.2197265625,103.2868958234787L72.24292968750001,103.36430896520615L72.6141796875,103.32127101421356L71.9412890625,103.10190637111664L72.2197265625,102.08935542106629L74.876484375,102.4174740433693L72.6837890625,105.74910904169083L72.92742187500001,103.61056370735169L74.4704296875,101.87391633987427L75.3057421875,101.79065198898316L75.56097656249999,101.96216721534729L76.291875,102.75131655931473L74.064375,106.61275918483734L76.291875,103.89908720254898L77.59125,102.48146600723267L74.7720703125,105.31272448301316L75.2593359375,104.0488792181015L77.196796875,102.95044333934784L77.5564453125,103.42673070430756L75.8278125,103.23254801034928L76.4426953125,104.8252333521843L76.732734375,104.97185839414597L76.98796875000001,105.36705638170243L78.2061328125,104.48830343484879L79.3546875,103.96884019374848L79.517109375,103.7132914185524L79.8535546875,103.48324288129807L79.9463671875,103.38676954507828L76.9067578125,110.18028862476349L78.0553125,108.64081056118012L80.7352734375,105.08428330421448L78.11332031250001,109.77193470001221L78.65859375,108.71550233364106L80.9673046875,104.93570078611374L81.5937890625,104.33322252035141L79.7607421875,106.94358326196671L81.3965625,105.47255320549012L80.955703125,110.14299578666687L82.2666796875,106.7066968202591L84.0997265625,106.04852862358094L81.33855468750001,103.15474761724472L82.5219140625,108.36694957017899L85.5383203125,105.58698863983155L83.42683593749999,107.63367582559586L83.58925781250001,108.13814235925675L84.482578125,108.16233230829239L85.81675781249999,106.56029988527298L86.88410156249999,106.06974787712097L84.16933593750001,112.16046406030655L84.6333984375,111.3207492351532L84.8422265625,110.46436668634415L84.946640625,110.22575087547303L85.828359375,109.14978618621826L87.05812499999999,107.6652288556099L87.0929296875,107.62511385679245L87.1509375,107.59013922214508L87.97464843750001,106.80276168584824L85.9559765625,108.06559373140335L86.478046875,108.13156439065934L87.10453125000001,107.86938990354538L87.1161328125,107.82284016609192L87.37136718750001,107.5418282866478L87.5569921875,107.28371728658676L86.51285156249999,111.32511509656906L86.54765625,111.09895498752594L87.1161328125,111.8947141289711L87.39457031250001,110.84868980646134L90.004921875,107.24342722892762L87.37136718750001,111.59020723104477L88.12546875,109.40252871513367L88.3923046875,108.9586060166359L89.3668359375,108.40412039756775L89.401640625,108.25843430757523L89.4596484375,108.03343064785004L90.236953125,107.40776504278183L90.44578125,107.42156816720963L88.3923046875,113.61665655374527L90.2253515625,110.0192663192749L91.5479296875,109.66528142690659L91.84957031249999,109.62916095256806L92.093203125,108.9829869389534L92.1628125,108.99888546466828L90.61980468750001,110.7421850681305L93.39257812499999,108.05204523801804L90.561796875,108.77031697034836L91.00265624999999,113.59228624105454L91.3275,113.26099534034729L92.650078125,110.90857584476471L93.485390625,110.27691580057144L92.67328124999999,112.88004608154297L93.5433984375,112.3885975599289L94.5875390625,111.18352962732315L93.62460937499999,112.10876334905625L93.740625,111.69487119913101L94.135078125,110.07211287021637L94.25109375000001,110.78957296609879L94.552734375,110.80699397325516L95.07480468749999,110.89841182231903L95.341640625,110.6912959933281L96.21175781250001,109.90854425430298L96.9774609375,109.20544959306717L94.9123828125,112.34781415462494L96.4205859375,110.95665336847306L96.548203125,111.10310335159302L96.780234375,110.78346712589264L96.15375,111.03648020029068L97.7895703125,111.19386870861054L98.24203125,110.76784445047379L98.5784765625,110.44682366847992L99.58781250000001,110.37666751146317L96.7686328125,111.22444034814835L96.79183593750001,110.99812639951706L97.2326953125,110.50603069067002L97.49953125,110.14240695238114L99.9590625,110.1732809662819L100.70156250000001,109.94358785152436L98.46246093750001,114.67261148691178L98.55527343749999,114.94455744028092L100.5739453125,112.72768123149872L100.956796875,112.73849774599076L101.81531249999999,112.1643737077713L98.89171875000001,115.0208247423172L99.889453125,114.26996023654938L101.02640625000001,112.82500333786011L101.28164062500001,112.64862359762192L102.1981640625,111.27704818248749L102.88265625,110.87915534973145L100.82917968749999,114.1742985367775L101.003203125,114.14936591386795L102.9290625,112.87854481935501L101.0148046875,119.9770137488842L101.420859375,117.62055463790894L102.279375,116.47213680744171L103.96160156250001,114.11674131155014L104.25164062500001,113.89743502140045L104.994140625,113.78076626062393L105.15656249999999,113.51209337711335L103.33511718749999,111.12698562145233L104.4952734375,111.58231897354126L105.272578125,111.18396462202072L105.690234375,112.11562777757645L105.7018359375,111.99759567975998L106.03828125000001,112.22600502967835L106.061484375,112.1984889626503L107.2100390625,112.57865841388703L106.31671875,115.27089364528656L106.386328125,115.2536795258522L106.4559375,115.18458433151245L106.50234375000001,115.03519017696381L106.5139453125,114.97172338962555L107.848125,113.91162009239197L107.15203125000001,117.88048518896103L108.28898437500001,116.7165322124958L108.40499999999999,116.44144050478936L108.4862109375,116.47044722437859L108.6950390625,116.32645602226258L107.4884765625,115.9667949795723L108.54421875,116.29306752681732L108.938671875,116.18606678843499L109.14750000000001,115.98483134508133L109.0546875,116.26939744949341L109.866796875,115.47699625492096L111.22417968750001,114.60136253833771L111.375,114.57474298477173L109.0662890625,126.08947170972824L109.40273437500001,116.98718909621239L109.8551953125,117.77841527462006L110.6441015625,120.29399226307869L110.9457421875,120.20678908824921L111.42140625,119.63103116750717L111.7114453125,118.49533958435059L111.89707031249999,118.15349475741387L113.3240625,116.08176620006562L114.04335937500001,115.65624589920044L113.0804296875,118.1073720574379L113.2660546875,117.67634536027909L114.1245703125,117.54274363517762L114.7046484375,116.47503854036331L112.90640625,119.18800233006478L113.8461328125,117.80907179117203L113.85773437499999,117.83797506690026L115.84160156249999,115.8723056435585L115.899609375,115.84547920227051L116.20125,115.66148175001145L116.9089453125,115.96751908659935L114.48421875000001,118.0422926068306L115.2847265625,116.8432244181633L115.760390625,117.5042466044426L116.2592578125,117.28843088150025L117.7906640625,116.42484174370766L117.91828124999999,116.20105288624764L116.1896484375,118.95816068053246L117.2801953125,119.36623610258103L117.4426171875,119.37089903354645L117.6514453125,119.36956487298012L118.5331640625,118.72237233519554L118.6491796875,118.3737055182457L119.07843749999999,118.11868722438813L118.63757812499999,120.28711722493172L119.936953125,120.3389664709568L120.6910546875,119.81047974228859L120.772265625,119.94175265431404L120.865078125,119.79317809343338L121.421953125,118.92862082719803L121.5263671875,118.79130042791367L122.210859375,118.21822143793106L122.3616796875,118.36282534599304L120.8070703125,119.04248599410057L121.18992187500001,119.73981167078018L123.835078125,118.00901020765305L121.700390625,122.39138020277024L123.03457031250001,120.48092327713967L123.603046875,120.23188881278038L124.25273437499999,119.60360793471337L122.40808593749999,125.45691249966622L122.5008984375,125.65269459486008L123.6610546875,122.82653404474259L124.0323046875,121.75524554848671L125.40128906250001,119.6693478345871L125.71453125000001,119.88042105436325L125.737734375,119.77385265827179L123.4058203125,123.44297723174095L124.2179296875,124.04297549724579L124.6123828125,122.68173120617867L124.9372265625,122.19248948693276L126.5150390625,120.32131205201149L124.206328125,128.82794899940492L125.3316796875,123.5258039355278L125.43609375,123.55309985280037L125.57531250000001,123.29208181500435L125.7957421875,122.3663043498993L125.99296875,121.91691504120827L126.61945312499999,122.00820026993752L126.75867187499999,121.84973223209381L127.04871093749999,121.37366501688957L127.47796874999999,121.47647230029106L125.3084765625,118.72555257081986L125.52890624999999,126.02396787405014L126.7470703125,122.80854011774063L129.31101562499998,120.61233146190644L129.5546484375,120.41708250045777L126.8166796875,123.2431581735611L127.826015625,122.72945330739022L127.8376171875,122.69520543217659L128.2784765625,122.40995500683785L128.68453125,122.03565533161164L130.81921875,120.78305096626282L131.29488281250002,120.60757039189339L132.01417968750002,120.72177506685257L129.5314453125,125.2681194961071L130.44796875,125.06143866181374L130.69160156249998,124.39123649597168L130.7844140625,124.25634304881096L130.9584375,124.24246830940247L132.165,122.90709294080735L132.188203125,122.8094392836094L133.23234374999998,122.20669312477112L132.15339843750002,124.79020885825157L132.234609375,124.98787416219712L133.0003125,123.40068460702896L133.0583203125,123.39505089521408L134.2648828125,122.20400358438492L134.462109375,121.97382242679596L131.86335937500002,126.82565249204636L134.2880859375,123.87836183309555L134.4737109375,123.73399929404259L134.62453125,123.77640066742897L135.0305859375,123.44294805526734L135.33222656249998,122.96785162091255L134.6593359375,124.33780111074448L135.3554296875,124.11352421045304L135.70347656250001,123.93587396740914L135.92390625000002,123.65577451586724L133.580390625,131.36466036438944L134.183671875,128.86406947374346L134.54332031250001,127.48661367297173L135.204609375,126.86491076350212L136.8984375,124.11950273513794L134.8681640625,120.13207344412804L135.251015625,120.84511197805405L138.1862109375,123.36816079616547L138.5806640625,123.28174273371697L138.3950390625,125.0723533153534L139.6944140625,125.1613176882267L139.98445312500002,125.65394387841225L140.6225390625,124.78997809886933L140.79656250000002,124.65679545402527L138.61546875,126.52914525270462L139.47398437500001,127.18725774884224L139.659609375,126.7700049996376L139.78722656250002,126.92138580679894L141.1098046875,126.56929738521576L141.8175,126.69389949440956L141.8291015625,126.66484237909317L142.5019921875,126.3711811721325L139.35796875,131.68439472913744L140.75015624999997,126.36640684008599L142.38597656250002,126.19349644780159L142.66441406250001,126.36072008013726L140.866171875,129.47119475603105L141.979921875,128.45166001915933L142.66441406250001,127.58170245289803L142.79203125,127.55217586159706L142.7108203125,128.04961086511614L143.99859375,127.14391477108002L144.32343749999998,127.26541356444359L144.91511718750002,127.37544069886208L146.04046875,126.85420830249787L143.0240625,131.4101120054722L143.08207031249998,130.1295486211777L143.27929687499997,130.9888116836548L144.3118359375,130.24474529623987L144.13781250000002,127.95456187129021L146.3653125,129.07880831956865L146.50453125,129.12453050613405L148.20996093750003,128.11337737441065L148.3259765625,127.96695922017098L148.3955859375,127.89974192976952L145.06593750000002,125.95172427296639L145.42558593750002,127.63837642669678L145.4487890625,128.2139301121235L145.6112109375,128.67360810637476L145.6808203125,128.18032942414285L146.527734375,128.93471897840502L149.3933203125,127.77495149970055L147.038203125,130.5778796195984L147.33984375,130.45036516785623L148.383984375,130.4304508984089L148.6972265625,129.97724477648737L149.5093359375,129.00052784085275L150.2982421875,128.808143478632L147.873515625,134.00227458477022L148.430390625,132.36785097122194L148.616015625,132.79427574276926L148.9060546875,134.4102730870247L150.472265625,132.26817087531091L150.5534765625,132.2801040530205L151.957265625,130.82769389152529L152.235703125,130.5659888803959L152.51414062499998,130.34871698617937L149.8573828125,132.6353621006012L150.95953125,131.855337035656L152.2473046875,131.29654125571253L152.45613281250002,131.21325303316118L151.51640625000002,130.8543744504452L152.653359375,130.40902210474016L154.834453125,130.5063601255417L155.0316796875,130.3539422273636L152.1080859375,134.4793523669243L155.1012890625,132.8812508106232L153.99914062500002,134.32446507811548L154.509609375,133.624929946661L154.91566406249999,133.7753001868725L155.5421484375,133.08617309927942L155.9133984375,132.14756329059603L156.7487109375,131.8133255660534L157.061953125,131.61899698972704L157.10835937500002,131.62884272336962L157.5840234375,131.13373918533327L154.46320312499998,130.10365317463877L156.44707031250002,132.48094959259035L156.4934765625,132.45494009256365L156.644296875,132.6109838306904L157.57242187499997,133.02975375652315L157.61882812500002,133.00926391482355L158.036484375,132.5184068799019L155.66976562500003,130.48139832615854L155.7509765625,131.11393896937372L156.2614453125,134.96634749770166L156.87632812500001,135.9986880540848L156.7603125,138.206804689765L157.45640625000001,139.1515853226185L158.4309375,137.41095934510233L159.2778515625,135.16771290898325L159.44027343750003,134.75762431025507L161.15730468750002,133.14017344713213L159.40546875,136.8561501324177L161.79539062499998,134.52326030731203L161.8998046875,134.5184567987919L159.1386328125,133.12926144599916L160.70484375,135.69604845047L161.1225,135.14068223237993L162.45667968749999,135.2042471587658L161.1805078125,135.69036434292795L161.5865625,135.99035419225694L163.4312109375,135.69175155162813L164.0925,135.19169597029688L164.48695312499999,135.020652872324L161.63296875,133.60106889605524L162.050625,135.67723492980005L163.36160156250003,137.24629528522493L163.5472265625,137.1861864447594L164.46375,137.0644462823868L165.461484375,136.28959075808527L164.37093750000003,136.50901110172273L166.81886718750002,137.40045050978662L167.317734375,136.94173533916475L168.013828125,136.53017465472223L164.8698046875,138.54283809363844L165.1714453125,138.40679880678655L166.2155859375,139.72446803450586L166.81886718750002,139.03541123569013L167.51496093749998,138.1534356147051L167.9326171875,137.8545611023903L168.54749999999999,138.01774379312994L168.59390625,137.97963401377203L168.7447265625,137.84559862017633L168.90714843749998,137.73857135772707L169.18558593749998,137.5646212220192L165.94875,139.10501569211485L166.4012109375,137.43633226752283L166.5636328125,138.46211474835874L168.0022265625,139.317594152689L168.0718359375,139.3305432021618L168.54749999999999,139.1309058338404L168.75632812499998,138.70275965034963L169.0231640625,138.62988079786302L170.2529296875,138.2319256335497L168.09503906249998,137.5754218220711L168.2806640625,137.54507563710214L168.6287109375,138.2868835002184L168.5823046875,141.08652794063093L168.67511718749998,140.62087937891485L170.16011718750002,140.10348368883135L172.41082031250002,139.36243176162245L170.63578125,139.9128777652979L170.62417968749997,136.61810193657877L171.25066406250002,138.6578451216221L171.540703125,140.03190716803076L173.0025,140.04328068792822L173.9422265625,139.83813029229643L174.649921875,139.95289197266104L174.87035156250002,139.8742865741253L175.763671875,139.96092743873598L172.9676953125,141.39992040097715L174.046640625,141.6515714645386L174.232265625,141.945411708951L174.5803125,142.11842024028303L175.4272265625,141.10008439123632L176.7498046875,140.66478599309923L174.3946875,142.0741449415684L175.18359375,141.89477328658106L176.2393359375,142.06042934656145L176.2625390625,142.05915884375574L176.3321484375,142.12051962018015L178.4436328125,141.64772812724115L176.923828125,144.16215529739858L177.341484375,143.61991849243643L178.7220703125,142.52032085955145L176.4249609375,140.55079085826875L177.063046875,143.68525655269625L177.759140625,144.02361213862898L178.86128906250002,143.55850466787817L179.1165234375,143.99017192125322L179.62699218749998,143.92558714449407L179.6733984375,143.95326102972032L179.7662109375,143.90798709988596L181.4832421875,143.62564769089224L182.028515625,143.27598489522936L179.4181640625,142.15744775235655L179.4413671875,142.36355964541437L181.39042968750002,143.3322145909071L182.028515625,143.67355148196222L182.353359375,143.613202598691L182.7362109375,143.11837623715402L183.1306640625,142.77382595539095L181.1816015625,144.8359116882086L181.39042968750002,144.96961287856104L182.70140625,144.44433556199075L183.1770703125,144.30095441341402L181.19320312500003,146.49729303717615L182.39976562500001,146.37624913156034L182.78261718750002,146.15758737623693L183.5251171875,146.43025876283647L183.64113281250002,146.39474436342718L184.55765625,145.5874207288027L184.73167968750002,145.4400954514742L185.16093750000002,145.1952836185694L184.766484375,146.49806090891363L184.859296875,146.43890958726408L185.54378906250003,145.88434970080854L185.7062109375,145.7376822203398L184.25601562499997,147.37142814397814L184.92890625,147.6911731183529L185.01011718750001,147.58112874329092L185.0565234375,147.6648851156235L185.1029296875,147.64094847142698L186.73874999999998,147.2145157426596L187.1216015625,146.89379733502867L187.24921874999998,146.64348573684694L185.79902343749998,145.83344869017603L185.97304687500002,145.6381267875433L186.2166796875,145.69106086790563L186.390703125,145.8641914099455L187.7596875,145.96359963417055L185.85703125,148.8850280016661L186.993984375,149.4576302215457L188.83863281249998,147.1906427562237L189.0938671875,147.28399553596975L189.6043359375,147.12495988309385L189.92917968749998,146.97674207091333L187.5740625,150.8212444379926L189.08226562500002,149.44529387801887L189.6043359375,149.22104549109937L188.6762109375,148.17270826995374L189.9059765625,149.46448934525253L189.94078125000001,149.43089462518694L190.24242187500002,149.1973648041487L190.60207031250002,148.61509257256986L189.3026953125,148.4144419848919L189.36070312500001,148.13861953914167L189.453515625,147.7455514341593L191.33296875000002,148.38862080574037L191.94785156249998,147.97056039869787L192.284296875,148.03776177465917L193.15441406250002,147.95010769069196L190.85730468749998,147.38244093656542L190.892109375,147.44737450480463L192.34230468750002,148.69420723319055L191.4373828125,143.2130459368229L191.82023437499998,151.31169830709698L192.3075,151.54015738964083L192.92238281250002,150.91605338901283L193.7925,150.38172805011274L193.954921875,150.34177882671358L194.0361328125,150.3558060795069L194.9642578125,149.80598405450584L193.6648828125,150.351196859777L194.04773437499998,150.6806085303426L194.465390625,150.86265447437765L196.1244140625,150.0810930028558L196.553671875,149.88040461838247L195.50953125,151.0215827047825L195.78796875,151.11971445828678L196.228828125,151.3570153385401L196.29843749999998,151.2727019608021L198.20109374999998,149.98911682218315L194.9990625,151.0569837138057L195.393515625,150.97237857133152L198.20109374999998,151.20834926962854L196.10121093749999,150.6363842904568L198.6535546875,151.00150067061188L197.6558203125,152.93949223011734L198.2475,152.083286729455L199.338046875,152.4447434514761L200.683828125,152.3391285955906L201.3219140625,152.45250041484834L201.6699609375,152.37796115577223L201.7163671875,152.4156425714493L199.198828125,152.48806852549316L199.5120703125,152.64331521540882L199.709296875,152.65122270286085L199.9993359375,152.78552002161743L200.97386718750002,152.96719462871553L202.62128906249998,152.54127447754146L202.8069140625,152.62048794031145L202.8765234375,152.61555976867677L202.145625,152.85237990021707L202.6908984375,152.72890373766424L200.7186328125,157.1083653688431L202.3892578125,153.76397958844902L202.94613281250003,153.78063935488464L203.13175781249998,153.7500312447548L203.47980468749998,153.63753803521396L204.257109375,153.48629250079395L204.41953124999998,153.4273507192731L202.6444921875,155.0212952911854L204.025078125,154.94845589324834L204.93,154.30198447853329L206.00894531249997,153.77442675530912L206.0785546875,153.7860442966223L206.33378906250002,153.77367148250343L204.001875,155.02828902453186L205.1736328125,154.86894204542043L206.066953125,154.60185894817116L206.39179687499998,154.58615670055153L207.4707421875,154.27540272176267L204.581953125,155.11857926920058L204.96480468750002,155.0545528240502L205.71890625,155.00345818772914L207.2851171875,155.30843224078419L205.66089843749998,155.58638423755767L206.82105468749998,155.49514840990307L207.783984375,155.54488136693837L208.6076953125,155.49697359725835L209.73304687499999,155.20836489349605L209.872265625,155.23512668237092L206.82105468749998,155.1774020239711L207.11109375,154.9770040780306L208.22484375,154.70855565443637L209.918671875,154.93873449116947L210.6959765625,155.1948041327298L211.867734375,155.86815172135832L212.169375,155.86237312182786L209.4198046875,156.75048806965353L211.33406250000002,156.7919110365212L212.86546875,156.8332133188844L213.2251171875,156.9012780532241L213.3179296875,156.911104888469L213.6427734375,156.78505257591607L214.32726562500002,156.84220398291947L211.2760546875,156.44488373845817L212.006953125,157.10108252316715L214.28085937499998,157.3707371287048L212.50582031250002,157.36964500024916L213.3179296875,157.0945559449494L213.32953125,157.04799195080997L214.30406250000001,157.38535619974138L215.4758203125,157.44647908844055L216.10230468749998,157.54481988474728L216.137109375,157.52242478616537L214.0372265625,158.19127687700094L214.6405078125,158.13482951819898L215.0117578125,158.10874691121282L216.43875,158.30998500697316L217.5176953125,158.32743966653945L217.71492187500002,158.31228480935098L214.698515625,159.03495307154955L215.208984375,158.49805655591192L215.510625,158.56540862172844L215.812265625,158.46167183555664L219.1303125,158.5110371027142L215.8702734375,158.12518271505834L215.8934765625,158.26826447322966L217.7961328125,158.4098963595927L220.1396484375,158.21539952121677L217.92374999999998,158.59228512719275L218.05136718749998,158.56424073390664L218.37621093750002,158.60198928862812L218.67785156250002,158.65897243358197L220.89375,158.71283568516375L221.2301953125,158.70407345965506L221.4390234375,158.70261098891498L218.735859375,158.8909181047231L219.02589843750002,158.9773332661018L219.896015625,158.94981007073076L220.2556640625,158.90650372933598L220.499296875,158.94642916396262L220.7893359375,158.93671687953176L221.6478515625,159.0379621440545L222.13511718750001,159.04281737450512L219.524765625,158.56360664293172L220.53410156249998,159.10842606313528L221.82187499999998,159.1966187514365L222.2975390625,159.23315010014923L223.36488281249999,159.25098604317756L223.469296875,159.26192390527578L222.98203124999998,159.2197846228257L222.3439453125,159.39174222089352L223.654921875,159.39193385727705L225.27914062500003,159.3159553360194L223.7709375,159.43732515610756L224.09578125,159.46058344729246L224.18859375,159.47185393776746L224.61785156250002,159.5345928466879L224.118984375,159.59131692610683L226.1028515625,159.7448588645086L226.4973046875,159.74841826995836L226.94976562500003,159.73365484997632L225.8708203125,159.6677691506222L226.71773437500002,159.5930812738836L228.89882812500002,159.65433810912074L228.9104296875,159.6556411453523L229.10765625,159.65764478994535L229.7921484375,159.64814693601804L230.2330078125,159.65938037568705L227.4486328125,159.38730283807965L228.4115625,159.76825802335517L229.316484375,159.79642078028994L230.48824218750002,159.7826389580034L231.91523437499998,159.78388654235752L229.873359375,159.80227986378597L230.5578515625,159.79495528414847L232.6809375,159.77575011905284L232.6925390625,159.77537865778433L232.843359375,159.77871521962808L231.10312499999998,159.81329302936794L231.68320312499998,159.80428031720223L232.5997265625,159.8056797518395L232.843359375,159.8120196254924L231.14953125000002,159.85795348654503L231.6251953125,159.84006683696063L231.9384375,159.82191994069146L232.28648437500001,159.81365549732L233.20300781249998,159.81687696957962L234.2703515625,159.82871142802762L234.560390625,159.82644287431614L233.65546874999998,159.7690462025814L233.7598828125,159.80917504364626L234.10792968750002,159.80442624101417L234.1543359375,159.8083265221678L234.4327734375,159.79851721767338L234.513984375,159.7943031650968L234.931640625,159.78780634356664L235.5233203125,159.79426424931737L236.06859375,159.80285614058377L236.4050390625,159.8091753751971L237.2635546875,159.80019511356952L236.03378906249998,159.8347522842698L236.973515625,159.84229796687143L236.7994921875,159.89080743915403L237.2867578125,159.85753001323903L238.60933593750002,159.8498385933228L238.9341796875,159.8549804909155L239.061796875,159.85269716246987L236.69507812499998,159.76761199655013L236.99671874999999,159.90441859564746L238.3425,159.83840365363287L239.18941406250002,159.82798960041256L240.12914062500002,159.8490098820068L240.77882812500002,159.84197035320105L241.01085937500002,159.83670267350973L237.994453125,159.91250868472272L238.2496875,159.86175463399852L238.6325390625,159.8653459512163L238.922578125,159.8776690327097L238.95738281250001,159.8794191238005L240.77882812500002,159.88204355589116L241.68375,159.88057513795795L241.92738281249999,159.87964387382382L241.938984375,159.8798939460423L241.9621875,159.87990314657802L239.76949218750002,159.83633838202806L239.80429687499998,159.84270034525545L240.268359375,159.8616393371951L241.5909375,159.8670270797331L241.67214843750003,159.85563296223992L243.5051953125,159.87509033391254L241.86937500000002,159.83650577375667L242.7394921875,159.85931520727465L243.44718749999998,159.866465992108L242.0433984375,159.85550894150512L243.656015625,159.8576994978823L244.35210937500003,159.86727938991973L245.2686328125,159.88037081975492L245.62828125,159.88251510406846L245.744296875,159.8759245779831L245.8023046875,159.87758914968L246.347578125,159.87477221088486L246.950859375,159.86984414285982L243.6676171875,159.95681873410942L243.934453125,159.91137136174368L244.2825,159.91026244852694L244.9437890625,159.89862961443143L245.326640625,159.90825857599268L246.3591796875,159.8972953709774L246.88125000000002,159.88766133254396L246.98566406249998,159.8878298225347L247.06687499999998,159.8880251474213L246.12714843749998,159.870306034619L247.2873046875,159.89593783607708L248.0994140625,159.89176108296962L248.5170703125,159.8994608952664L249.66562499999998,159.89330631708728L247.3337109375,159.8447960366495L247.9137890625,159.87556171631442L248.27343750000003,159.8997227582615L251.42906250000001,159.8899025954772L248.3546484375,159.951092561055L248.5634765625,159.94167769844645L249.4916015625,159.90006661792287L250.2108984375,159.90063201570885L250.99980468750002,159.8996400570497L250.0252734375,159.72534171007575L250.3037109375,159.7951070515439L250.32691406249998,159.80046545183288L250.7677734375,159.82508140224965L251.7887109375,159.85216748928653L252.0207421875,159.85518383518794L252.287578125,159.85732399583796L253.66816406249998,159.8658889485989L252.7632421875,159.8739560570568L253.354921875,159.87498612334022L255.025546875,159.88626053025948L252.12515625,159.90571450353602L252.194765625,159.88327377527023L252.566015625,159.84271236397328L253.5521484375,159.88125894083643L254.8979296875,159.89165950408207L254.97914062499999,159.89150742585772L255.10675781249998,159.8940565337427L253.45933593750001,159.8911407306325L254.90953125,159.8975015748758L255.814453125,159.9047482400667L256.371328125,159.9033296376467L257.27625,159.8971684698947L254.5730859375,159.92817537351513L254.8515234375,159.9185531880241L255.1415625,159.91824928023854L255.3851953125,159.90539480564186L256.696171875,159.90814673975112L258.5408203125,159.90704207452947L255.6636328125,159.85451986319387L256.3133203125,159.85799739630895L258.5408203125,159.8929907014128L258.645234375,159.89014027598316L259.0280859375,159.89373461860234L259.7705859375,159.89608568702826" style="fill: none;" fill="none"></path></g></g></g></g></g></g><g transform="translate(51, 178)" clip-path="url(#clip_1)"><clipPath id="clip_1"><rect width="278" height="22"></rect></clipPath><g><g><line x1="0" y1="0" x2="0" y2="5" style="visibility: inherit;" fill="rgb(0, 0, 0)" stroke="rgb(204, 204, 204)" stroke-width="1px"></line><line x1="23.203125" y1="0" x2="23.203125" y2="5" style="visibility: inherit;" fill="rgb(0, 0, 0)" stroke="rgb(204, 204, 204)" stroke-width="1px"></line><line x1="46.40625" y1="0" x2="46.40625" y2="5" style="visibility: inherit;" fill="rgb(0, 0, 0)" stroke="rgb(204, 204, 204)" stroke-width="1px"></line><line x1="69.609375" y1="0" x2="69.609375" y2="5" style="visibility: inherit;" fill="rgb(0, 0, 0)" stroke="rgb(204, 204, 204)" stroke-width="1px"></line><line x1="92.8125" y1="0" x2="92.8125" y2="5" style="visibility: inherit;" fill="rgb(0, 0, 0)" stroke="rgb(204, 204, 204)" stroke-width="1px"></line><line x1="116.015625" y1="0" x2="116.015625" y2="5" style="visibility: inherit;" fill="rgb(0, 0, 0)" stroke="rgb(204, 204, 204)" stroke-width="1px"></line><line x1="139.21875" y1="0" x2="139.21875" y2="5" style="visibility: inherit;" fill="rgb(0, 0, 0)" stroke="rgb(204, 204, 204)" stroke-width="1px"></line><line x1="162.421875" y1="0" x2="162.421875" y2="5" style="visibility: inherit;" fill="rgb(0, 0, 0)" stroke="rgb(204, 204, 204)" stroke-width="1px"></line><line x1="185.625" y1="0" x2="185.625" y2="5" style="visibility: inherit;" fill="rgb(0, 0, 0)" stroke="rgb(204, 204, 204)" stroke-width="1px"></line><line x1="208.828125" y1="0" x2="208.828125" y2="5" style="visibility: inherit;" fill="rgb(0, 0, 0)" stroke="rgb(204, 204, 204)" stroke-width="1px"></line><line x1="232.03125" y1="0" x2="232.03125" y2="5" style="visibility: inherit;" fill="rgb(0, 0, 0)" stroke="rgb(204, 204, 204)" stroke-width="1px"></line><line x1="255.234375" y1="0" x2="255.234375" y2="5" style="visibility: inherit;" fill="rgb(0, 0, 0)" stroke="rgb(204, 204, 204)" stroke-width="1px"></line><line x1="278.4375" y1="0" x2="278.4375" y2="5" style="visibility: inherit;" fill="rgb(0, 0, 0)" stroke="rgb(204, 204, 204)" stroke-width="1px"></line></g><g transform="translate(0, 8)"><text x="0" y="0" dx="0em" dy="0.95em" style="text-anchor: middle; visibility: hidden; font-family: Roboto, sans-serif; font-size: 12px; font-weight: 200;" fill="rgb(50, 49, 63)" stroke="none" stroke-width="1px">-2k</text><text x="23.203125" y="0" dx="0em" dy="0.95em" style="text-anchor: middle; visibility: inherit; font-family: Roboto, sans-serif; font-size: 12px; font-weight: 200;" fill="rgb(50, 49, 63)" stroke="none" stroke-width="1px">0</text><text x="46.40625" y="0" dx="0em" dy="0.95em" style="text-anchor: middle; visibility: hidden; font-family: Roboto, sans-serif; font-size: 12px; font-weight: 200;" fill="rgb(50, 49, 63)" stroke="none" stroke-width="1px">2k</text><text x="69.609375" y="0" dx="0em" dy="0.95em" style="text-anchor: middle; visibility: inherit; font-family: Roboto, sans-serif; font-size: 12px; font-weight: 200;" fill="rgb(50, 49, 63)" stroke="none" stroke-width="1px">4k</text><text x="92.8125" y="0" dx="0em" dy="0.95em" style="text-anchor: middle; visibility: hidden; font-family: Roboto, sans-serif; font-size: 12px; font-weight: 200;" fill="rgb(50, 49, 63)" stroke="none" stroke-width="1px">6k</text><text x="116.015625" y="0" dx="0em" dy="0.95em" style="text-anchor: middle; visibility: inherit; font-family: Roboto, sans-serif; font-size: 12px; font-weight: 200;" fill="rgb(50, 49, 63)" stroke="none" stroke-width="1px">8k</text><text x="139.21875" y="0" dx="0em" dy="0.95em" style="text-anchor: middle; visibility: hidden; font-family: Roboto, sans-serif; font-size: 12px; font-weight: 200;" fill="rgb(50, 49, 63)" stroke="none" stroke-width="1px">10k</text><text x="162.421875" y="0" dx="0em" dy="0.95em" style="text-anchor: middle; visibility: inherit; font-family: Roboto, sans-serif; font-size: 12px; font-weight: 200;" fill="rgb(50, 49, 63)" stroke="none" stroke-width="1px">12k</text><text x="185.625" y="0" dx="0em" dy="0.95em" style="text-anchor: middle; visibility: hidden; font-family: Roboto, sans-serif; font-size: 12px; font-weight: 200;" fill="rgb(50, 49, 63)" stroke="none" stroke-width="1px">14k</text><text x="208.828125" y="0" dx="0em" dy="0.95em" style="text-anchor: middle; visibility: inherit; font-family: Roboto, sans-serif; font-size: 12px; font-weight: 200;" fill="rgb(50, 49, 63)" stroke="none" stroke-width="1px">16k</text><text x="232.03125" y="0" dx="0em" dy="0.95em" style="text-anchor: middle; visibility: hidden; font-family: Roboto, sans-serif; font-size: 12px; font-weight: 200;" fill="rgb(50, 49, 63)" stroke="none" stroke-width="1px">18k</text><text x="255.234375" y="0" dx="0em" dy="0.95em" style="text-anchor: middle; visibility: inherit; font-family: Roboto, sans-serif; font-size: 12px; font-weight: 200;" fill="rgb(50, 49, 63)" stroke="none" stroke-width="1px">20k</text><text x="278.4375" y="0" dx="0em" dy="0.95em" style="text-anchor: middle; visibility: hidden; font-family: Roboto, sans-serif; font-size: 12px; font-weight: 200;" fill="rgb(50, 49, 63)" stroke="none" stroke-width="1px">22k</text></g><line x1="0" y1="0" x2="278.4375" y2="0" fill="rgb(0, 0, 0)" stroke="rgb(204, 204, 204)" stroke-width="1px"></line></g></g></g></g></svg>