<svg viewBox="0 0 330 200" xmlns="http://www.w3.org/2000/svg"><g><g><g><g><g><line x1="51.5625" y1="178" x2="46.5625" y2="178" style="visibility: inherit;" fill="rgb(0, 0, 0)" stroke="rgb(204, 204, 204)" stroke-width="1px"></line><line x1="51.5625" y1="155.75" x2="46.5625" y2="155.75" style="visibility: inherit;" fill="rgb(0, 0, 0)" stroke="rgb(204, 204, 204)" stroke-width="1px"></line><line x1="51.5625" y1="133.5" x2="46.5625" y2="133.5" style="visibility: inherit;" fill="rgb(0, 0, 0)" stroke="rgb(204, 204, 204)" stroke-width="1px"></line><line x1="51.5625" y1="111.24999999999999" x2="46.5625" y2="111.24999999999999" style="visibility: inherit;" fill="rgb(0, 0, 0)" stroke="rgb(204, 204, 204)" stroke-width="1px"></line><line x1="51.5625" y1="88.99999999999999" x2="46.5625" y2="88.99999999999999" style="visibility: inherit;" fill="rgb(0, 0, 0)" stroke="rgb(204, 204, 204)" stroke-width="1px"></line><line x1="51.5625" y1="66.75" x2="46.5625" y2="66.75" style="visibility: inherit;" fill="rgb(0, 0, 0)" stroke="rgb(204, 204, 204)" stroke-width="1px"></line><line x1="51.5625" y1="44.5" x2="46.5625" y2="44.5" style="visibility: inherit;" fill="rgb(0, 0, 0)" stroke="rgb(204, 204, 204)" stroke-width="1px"></line><line x1="51.5625" y1="22.25" x2="46.5625" y2="22.25" style="visibility: inherit;" fill="rgb(0, 0, 0)" stroke="rgb(204, 204, 204)" stroke-width="1px"></line><line x1="51.5625" y1="0" x2="46.5625" y2="0" style="visibility: inherit;" fill="rgb(0, 0, 0)" stroke="rgb(204, 204, 204)" stroke-width="1px"></line></g><g transform="translate(41.5625, 0)"><text x="0" y="178" dx="0em" dy="0.3em" style="text-anchor: end; visibility: hidden; font-family: Roboto, sans-serif; font-size: 12px; font-weight: 200;" fill="rgb(50, 49, 63)" stroke="none" stroke-width="1px">-0.1</text><text x="0" y="155.75" dx="0em" dy="0.3em" style="text-anchor: end; visibility: inherit; font-family: Roboto, sans-serif; font-size: 12px; font-weight: 200;" fill="rgb(50, 49, 63)" stroke="none" stroke-width="1px">0</text><text x="0" y="133.5" dx="0em" dy="0.3em" style="text-anchor: end; visibility: hidden; font-family: Roboto, sans-serif; font-size: 12px; font-weight: 200;" fill="rgb(50, 49, 63)" stroke="none" stroke-width="1px">0.1</text><text x="0" y="111.24999999999999" dx="0em" dy="0.3em" style="text-anchor: end; visibility: inherit; font-family: Roboto, sans-serif; font-size: 12px; font-weight: 200;" fill="rgb(50, 49, 63)" stroke="none" stroke-width="1px">0.2</text><text x="0" y="88.99999999999999" dx="0em" dy="0.3em" style="text-anchor: end; visibility: hidden; font-family: Roboto, sans-serif; font-size: 12px; font-weight: 200;" fill="rgb(50, 49, 63)" stroke="none" stroke-width="1px">0.3</text><text x="0" y="66.75" dx="0em" dy="0.3em" style="text-anchor: end; visibility: inherit; font-family: Roboto, sans-serif; font-size: 12px; font-weight: 200;" fill="rgb(50, 49, 63)" stroke="none" stroke-width="1px">0.4</text><text x="0" y="44.5" dx="0em" dy="0.3em" style="text-anchor: end; visibility: hidden; font-family: Roboto, sans-serif; font-size: 12px; font-weight: 200;" fill="rgb(50, 49, 63)" stroke="none" stroke-width="1px">0.5</text><text x="0" y="22.25" dx="0em" dy="0.3em" style="text-anchor: end; visibility: inherit; font-family: Roboto, sans-serif; font-size: 12px; font-weight: 200;" fill="rgb(50, 49, 63)" stroke="none" stroke-width="1px">0.6</text><text x="0" y="0" dx="0em" dy="0.3em" style="text-anchor: end; visibility: hidden; font-family: Roboto, sans-serif; font-size: 12px; font-weight: 200;" fill="rgb(50, 49, 63)" stroke="none" stroke-width="1px">0.7</text></g><line x1="51.5625" y1="0" x2="51.5625" y2="178" fill="rgb(0, 0, 0)" stroke="rgb(204, 204, 204)" stroke-width="1px"></line></g></g><g transform="translate(51, 0)" clip-path="url(#clip_0)"><clipPath id="clip_0"><rect width="278" height="178"></rect></clipPath><g><g><g><line x1="0" y1="0" x2="0" y2="178" fill="rgb(0, 0, 0)" stroke="rgb(60, 60, 60)" stroke-width="1px" opacity="0.25"></line><line x1="39.776785714285715" y1="0" x2="39.776785714285715" y2="178" fill="rgb(0, 0, 0)" stroke="rgb(60, 60, 60)" stroke-width="1px" opacity="0.25"></line><line x1="79.55357142857143" y1="0" x2="79.55357142857143" y2="178" fill="rgb(0, 0, 0)" stroke="rgb(60, 60, 60)" stroke-width="1px" opacity="0.25"></line><line x1="119.33035714285714" y1="0" x2="119.33035714285714" y2="178" fill="rgb(0, 0, 0)" stroke="rgb(60, 60, 60)" stroke-width="1px" opacity="0.25"></line><line x1="159.10714285714286" y1="0" x2="159.10714285714286" y2="178" fill="rgb(0, 0, 0)" stroke="rgb(60, 60, 60)" stroke-width="1px" opacity="0.25"></line><line x1="198.88392857142858" y1="0" x2="198.88392857142858" y2="178" fill="rgb(0, 0, 0)" stroke="rgb(60, 60, 60)" stroke-width="1px" opacity="0.25"></line><line x1="238.66071428571428" y1="0" x2="238.66071428571428" y2="178" fill="rgb(0, 0, 0)" stroke="rgb(60, 60, 60)" stroke-width="1px" opacity="0.25"></line><line x1="278.4375" y1="0" x2="278.4375" y2="178" fill="rgb(0, 0, 0)" stroke="rgb(60, 60, 60)" stroke-width="1px" opacity="0.25"></line></g><g><line x1="0" y1="178" x2="278.4375" y2="178" fill="rgb(0, 0, 0)" stroke="rgb(60, 60, 60)" stroke-width="1px" opacity="0.25"></line><line x1="0" y1="155.75" x2="278.4375" y2="155.75" fill="rgb(0, 0, 0)" stroke="rgb(60, 60, 60)" stroke-width="1px" opacity="0.25"></line><line x1="0" y1="133.5" x2="278.4375" y2="133.5" fill="rgb(0, 0, 0)" stroke="rgb(60, 60, 60)" stroke-width="1px" opacity="0.25"></line><line x1="0" y1="111.24999999999999" x2="278.4375" y2="111.24999999999999" fill="rgb(0, 0, 0)" stroke="rgb(60, 60, 60)" stroke-width="1px" opacity="0.25"></line><line x1="0" y1="88.99999999999999" x2="278.4375" y2="88.99999999999999" fill="rgb(0, 0, 0)" stroke="rgb(60, 60, 60)" stroke-width="1px" opacity="0.25"></line><line x1="0" y1="66.75" x2="278.4375" y2="66.75" fill="rgb(0, 0, 0)" stroke="rgb(60, 60, 60)" stroke-width="1px" opacity="0.25"></line><line x1="0" y1="44.5" x2="278.4375" y2="44.5" fill="rgb(0, 0, 0)" stroke="rgb(60, 60, 60)" stroke-width="1px" opacity="0.25"></line><line x1="0" y1="22.25" x2="278.4375" y2="22.25" fill="rgb(0, 0, 0)" stroke="rgb(60, 60, 60)" stroke-width="1px" opacity="0.25"></line><line x1="0" y1="0" x2="278.4375" y2="0" fill="rgb(0, 0, 0)" stroke="rgb(60, 60, 60)" stroke-width="1px" opacity="0.25"></line></g></g></g><g><g><line x1="0" y1="155.75" x2="278.4375" y2="155.75" fill="rgb(0, 0, 0)" stroke="rgb(153, 153, 153)" stroke-width="1.5px"></line></g></g><g><g><line x1="0" y1="0" x2="0" y2="178" fill="rgb(0, 0, 0)" stroke="rgb(153, 153, 153)" stroke-width="1.5px"></line></g></g><g><g><g><g><g><path stroke="rgb(238, 51, 119)" stroke-width="2px" d="M31.82142857142857,-0.3039117934058151L31.82142857142857,6.157001466646788L31.82142857142857,6.759163970407842L31.82142857142857,7.965491720829621L31.82142857142857,3.546070211407055L31.82142857142857,1.1434942086198783L31.82142857142857,4.320202434042608L31.82142857142857,4.732227470862573L31.82142857142857,2.8760097184107734L31.82142857142857,3.4474113916353044L31.82142857142857,5.180251427590576L31.82142857142857,6.486660246908518L31.82142857142857,7.9549909143804625L31.82142857142857,10.275063175508922L31.82142857142857,11.998699807256191L31.82142857142857,4.719379832225872L31.82142857142857,9.540605229066498L39.776785714285715,11.93793455477159L39.776785714285715,15.40781574079754L39.776785714285715,15.469034937795195L39.776785714285715,17.12450904117596L39.776785714285715,19.852711501518336L39.776785714285715,20.168347193479203L39.776785714285715,22.527466245698733L39.776785714285715,21.124150817518125L39.776785714285715,22.914871481016093L39.776785714285715,24.156219832274207L39.776785714285715,21.79604730139545L39.776785714285715,17.245982045712303L39.776785714285715,20.45136596845522L39.776785714285715,23.515990579646417L39.776785714285715,24.195684840990058L39.776785714285715,26.1582414094883L39.776785714285715,25.440455709950793L39.776785714285715,22.869626292620104L39.776785714285715,22.91000007929444L39.776785714285715,24.422510965717073L39.776785714285715,25.973825564415577L39.776785714285715,28.59987884189565L39.776785714285715,30.346797927772293L39.776785714285715,29.801744165751508L39.776785714285715,28.77550037070106L47.732142857142854,31.41228901960843L47.732142857142854,34.42631170522209L47.732142857142854,31.061710020131084L47.732142857142854,33.582283127442714L47.732142857142854,37.120614795765704L47.732142857142854,34.8405815535077L47.732142857142854,31.645079921083962L47.732142857142854,35.48249885463555L47.732142857142854,37.08122428073788L47.732142857142854,38.52900632509173L47.732142857142854,36.5946864264523L47.732142857142854,39.34168898924082L47.732142857142854,39.39120544114047L47.732142857142854,37.197477049340804L47.732142857142854,34.88022172850966L47.732142857142854,34.5581677699244L47.732142857142854,37.45493614340757L47.732142857142854,38.39026219645103L47.732142857142854,41.46370074152327L47.732142857142854,43.14888205527886L47.732142857142854,42.717397239205994L47.732142857142854,37.76343882465229L47.732142857142854,44.181228002213615L47.732142857142854,40.25364726799915L47.732142857142854,42.4732059122216L55.6875,44.42174501306363L55.6875,45.44926708988276L55.6875,45.008995199513016L55.6875,47.74415763873552L55.6875,50.52243468558009L55.6875,48.57001692292223L55.6875,49.0087070956059L55.6875,47.744397532595855L55.6875,47.725172812732254L55.6875,48.60954934656154L55.6875,47.12305445849617L55.6875,49.060058011887776L55.6875,50.07039659874338L55.6875,50.243350336889634L55.6875,49.11183312531722L55.6875,49.98618011472471L55.6875,51.327862189995344L55.6875,49.26817672061151L55.6875,47.62119996313586L55.6875,47.28321692803105L55.6875,49.18555476938842L55.6875,52.29581509038902L55.6875,51.14995659592805L55.6875,52.62266230108176L55.6875,50.141140219699345L63.64285714285714,54.5475562674588L63.64285714285714,53.14820975439466L63.64285714285714,54.789739986519294L63.64285714285714,58.84985579267757L63.64285714285714,57.67730475196608L63.64285714285714,56.865142159040985L63.64285714285714,57.548065216765536L63.64285714285714,58.26746100868327L63.64285714285714,56.47132618835892L63.64285714285714,55.164135197468546L63.64285714285714,57.59564091543433L63.64285714285714,59.8027935789828L63.64285714285714,61.498472509789764L63.64285714285714,61.93004280210035L63.64285714285714,60.99912594485579L63.64285714285714,60.2446160240668L63.64285714285714,59.07070742986786L63.64285714285714,57.895743101490645L63.64285714285714,59.1872522411663L63.64285714285714,57.97801428901665L63.64285714285714,59.33097166936105L63.64285714285714,59.69110754800145L63.64285714285714,57.46013701362791L63.64285714285714,58.59765591265787L63.64285714285714,62.227115750563335L71.59821428571428,64.14895111337434L71.59821428571428,66.22759373197037L71.59821428571428,66.76033234124826L71.59821428571428,66.82746904209522L71.59821428571428,68.01231229373973L71.59821428571428,69.46266944449641L71.59821428571428,66.25304989958704L71.59821428571428,68.60294980373918L71.59821428571428,66.1117193732675L71.59821428571428,66.55245819294551L71.59821428571428,65.56560740830957L71.59821428571428,66.06754043079887L71.59821428571428,65.3261850558369L71.59821428571428,63.128714536586315L71.59821428571428,63.607502999877276L71.59821428571428,64.00319054900129L71.59821428571428,65.99676685439658L71.59821428571428,68.52221929971641L71.59821428571428,66.76585586037795L71.59821428571428,65.0123886118326L71.59821428571428,67.74648619592153L71.59821428571428,68.45698178350902L71.59821428571428,70.09557487690435L71.59821428571428,66.37277773096552L71.59821428571428,66.65786992951865L79.55357142857143,69.10857596662422L79.55357142857143,71.0935054818796L79.55357142857143,76.44621395468752L79.55357142857143,76.3111171507838L79.55357142857143,76.47874341511742L79.55357142857143,78.15805550875673L79.55357142857143,79.24782493390087L79.55357142857143,74.46519182132151L79.55357142857143,75.14059063200037L79.55357142857143,74.71862914802955L79.55357142857143,74.12657016898588L79.55357142857143,70.16844345560907L79.55357142857143,69.82849914688609L79.55357142857143,68.63003919636455L79.55357142857143,69.90126555034665L79.55357142857143,68.33864967745033L79.55357142857143,70.43077578378609L79.55357142857143,73.97267269034919L79.55357142857143,74.48394602501232L79.55357142857143,72.78414314367677L79.55357142857143,73.31134658085288L79.55357142857143,72.82689910547127L79.55357142857143,74.46059676656837L79.55357142857143,72.9327659049613L79.55357142857143,73.14726048940315L87.50892857142857,76.44219080945192L87.50892857142857,75.77192511165343L87.50892857142857,76.54806288483263L87.50892857142857,79.2123758518846L87.50892857142857,80.50961309815354L87.50892857142857,80.81607638087813L87.50892857142857,80.12084598116245L87.50892857142857,78.46726448996165L87.50892857142857,78.11897140540658L87.50892857142857,82.46952244518982L87.50892857142857,82.17216284202807L87.50892857142857,81.0585084803538L87.50892857142857,82.95289084599234L87.50892857142857,79.49714066556585L87.50892857142857,79.58569908125098L87.50892857142857,78.74663082947073L87.50892857142857,79.62360046022974L87.50892857142857,78.753189323627L87.50892857142857,78.56731290118874L87.50892857142857,76.22146861253371L87.50892857142857,78.22133651076669L87.50892857142857,78.04868452965565L87.50892857142857,79.30454725753872L87.50892857142857,79.24811802942517L87.50892857142857,80.04195991539338L95.46428571428571,82.35022664894687L95.46428571428571,84.03742312687652L95.46428571428571,82.57825498162516L95.46428571428571,81.22352255808599L95.46428571428571,83.3020000244813L95.46428571428571,88.43680387053709L95.46428571428571,86.03235264607561L95.46428571428571,86.2043238758343L95.46428571428571,88.06726705308542L95.46428571428571,86.93350836202971L95.46428571428571,85.180794939789L95.46428571428571,86.3289775105672L95.46428571428571,86.31599127962332L95.46428571428571,87.11221031972252L95.46428571428571,85.9197371639519L95.46428571428571,86.99005769119911L95.46428571428571,85.50759532705695L95.46428571428571,85.38455734643787L95.46428571428571,87.05373709197909L95.46428571428571,88.2070686983828L95.46428571428571,83.81763996885802L95.46428571428571,84.70336037997356L95.46428571428571,83.51339659764739L95.46428571428571,82.10828071638566L95.46428571428571,83.40109881046189L103.41964285714286,85.5359650807546L103.41964285714286,88.66051703434982L103.41964285714286,90.83071570242522L103.41964285714286,88.67189242628264L103.41964285714286,88.0310638975325L103.41964285714286,89.35940349288121L103.41964285714286,90.46961404196819L103.41964285714286,90.71982708759548L103.41964285714286,88.96981319896842L103.41964285714286,91.42306118674554L103.41964285714286,90.2196201829164L103.41964285714286,89.59698900270755L103.41964285714286,89.56409601979429L103.41964285714286,87.60585410364253L103.41964285714286,86.46451229433885L103.41964285714286,85.71098865616719L103.41964285714286,88.41255154936553L103.41964285714286,88.7513344569745L103.41964285714286,87.91604905627622L103.41964285714286,90.13173268617662L103.41964285714286,90.6655269526331L103.41964285714286,89.38283744233182L103.41964285714286,90.56760982142288L103.41964285714286,91.23749091307164L103.41964285714286,90.72520129132174L111.375,92.9507645085329L111.375,94.92297711461032L111.375,94.80753252201825L111.375,95.84574635203808L111.375,95.53901406154709L111.375,95.01904472724006L111.375,93.84673910150173L111.375,94.6975254703119L111.375,94.44769287041153L111.375,95.54459420997694L111.375,90.62684831713912L111.375,93.55536100682784L111.375,95.41336351881722L111.375,94.01574440151632L111.375,93.17639842838156L111.375,93.83640431290928L111.375,91.57970142916479L111.375,89.50255406234048L111.375,89.7882639189564L111.375,91.28470490098016L111.375,92.11345307660115L111.375,91.00839636106498L111.375,90.92249685155873L111.375,90.61596537606431L111.375,89.98757739649128L119.33035714285714,93.88837795129959L119.33035714285714,97.91908588213651L119.33035714285714,99.5095870894368L119.33035714285714,97.02268056882475L119.33035714285714,97.45292410739096L119.33035714285714,98.10040639929669L119.33035714285714,98.0669509177965L119.33035714285714,96.75728279981386L119.33035714285714,95.36121354480609L119.33035714285714,95.29174875605119L119.33035714285714,97.91690964632042L119.33035714285714,97.44328592498785L119.33035714285714,98.03098960089494L119.33035714285714,100.14751000027543L119.33035714285714,97.45693609607628L119.33035714285714,95.62112640435939L119.33035714285714,99.75382568893103L119.33035714285714,97.97304883871834L119.33035714285714,97.28842045828317L119.33035714285714,95.19454284885296L119.33035714285714,97.19259993659715L119.33035714285714,93.33027884022749L119.33035714285714,94.52225364837858L119.33035714285714,94.19618058558592L119.33035714285714,96.39788536045724L127.28571428571428,100.54033820816143L127.28571428571428,99.38361124985373L127.28571428571428,101.63218290980433L127.28571428571428,98.5675819180952L127.28571428571428,101.26367950514236L127.28571428571428,100.6786562030034L127.28571428571428,103.14282446053721L127.28571428571428,100.87822787134111L127.28571428571428,100.86700922351037L127.28571428571428,102.20200326502894L127.28571428571428,101.79695965028151L127.28571428571428,101.55468809113708L127.28571428571428,99.68440673056725L127.28571428571428,98.99377122106242L127.28571428571428,97.98075498689468L127.28571428571428,99.39207657902989L127.28571428571428,99.73535388844937L127.28571428571428,98.94635080181197L127.28571428571428,99.70763365556381L127.28571428571428,102.0916951187228L127.28571428571428,104.77199642585367L127.28571428571428,102.09555370644718L127.28571428571428,100.72515017411702L127.28571428571428,99.99289095176216L127.28571428571428,100.23736432357403L135.24107142857142,99.93282224633556L135.24107142857142,102.83861240087904L135.24107142857142,103.63263895117613L135.24107142857142,105.61756874920945L135.24107142857142,107.62709116221681L135.24107142857142,107.98830749560125L135.24107142857142,107.74226394277052L135.24107142857142,105.81038372207425L135.24107142857142,106.11141475730385L135.24107142857142,104.80031985457684L135.24107142857142,103.49367582151858L135.24107142857142,104.9127134165142L135.24107142857142,104.17123180812442L135.24107142857142,105.22713688126707L135.24107142857142,102.82949629492464L135.24107142857142,101.34990308324636L135.24107142857142,100.46675969147765L135.24107142857142,102.76995168318798L135.24107142857142,101.75511505717306L135.24107142857142,101.40025131114882L135.24107142857142,102.79962101703025L135.24107142857142,106.081994024665L135.24107142857142,105.84389798507144L135.24107142857142,102.70485788980156L135.24107142857142,103.2857703024091L143.19642857142856,104.89771077954421L143.19642857142856,106.3959028001049L143.19642857142856,108.5693471715104L143.19642857142856,109.3134509554655L143.19642857142856,110.15902616567318L143.19642857142856,109.13055620185675L143.19642857142856,107.64109766240203L143.19642857142856,107.20324791225963L143.19642857142856,108.48218712063534L143.19642857142856,110.95084806294383L143.19642857142856,108.32815479046788L143.19642857142856,106.6972163397472L143.19642857142856,105.61217638125426L143.19642857142856,106.01213275057319L143.19642857142856,106.43991951145078L143.19642857142856,108.05436120627728L143.19642857142856,108.13555083691122L143.19642857142856,107.33890812110332L143.19642857142856,105.01644153005735L143.19642857142856,105.25012820426734L143.19642857142856,103.60303319969242L143.19642857142856,105.31448325799981L143.19642857142856,105.7055170344536L143.19642857142856,104.72809486432223L143.19642857142856,104.16956477369872L151.1517857142857,108.06101169291739L151.1517857142857,110.51564131142857L151.1517857142857,111.35154175437783L151.1517857142857,110.204612586959L151.1517857142857,110.30401166025625L151.1517857142857,111.60048028077975L151.1517857142857,112.89633536783633L151.1517857142857,114.88275571136342L151.1517857142857,113.2702713696281L151.1517857142857,110.67991236079455L151.1517857142857,109.25922043459843L151.1517857142857,109.95653091572065L151.1517857142857,108.6246430975338L151.1517857142857,109.80339548898577L151.1517857142857,107.92931677349117L151.1517857142857,106.9606692609054L151.1517857142857,107.04224424462691L151.1517857142857,108.02245187700494L151.1517857142857,107.44567789698067L151.1517857142857,106.51470478513492L151.1517857142857,108.40616489433438L151.1517857142857,109.96741533567423L151.1517857142857,108.80077128583142L151.1517857142857,109.33354391440122L151.1517857142857,107.67842837741594L159.10714285714286,110.65326398057114L159.10714285714286,112.36193650032504L159.10714285714286,112.79548489192379L159.10714285714286,114.08701155268702L159.10714285714286,115.5159871678564L159.10714285714286,115.18653857415991L159.10714285714286,113.48206104759025L159.10714285714286,113.39037591173437L159.10714285714286,114.6350454357516L159.10714285714286,114.60179423494644L159.10714285714286,116.29073211970035L159.10714285714286,114.81817707372964L159.10714285714286,111.98850429328239L159.10714285714286,112.99078963263011L159.10714285714286,111.70037685372337L159.10714285714286,111.27104947887604L159.10714285714286,109.73121997966015L159.10714285714286,111.10622947069193L159.10714285714286,110.68432286472434L159.10714285714286,109.33852526897974L159.10714285714286,110.76026589485875L159.10714285714286,110.79321131892726L159.10714285714286,113.12266116611792L159.10714285714286,111.48175386054893L159.10714285714286,109.11062276639687L167.0625,111.32813490496962L167.0625,114.90081439952188L167.0625,114.73590788865167L167.0625,116.97455652430105L167.0625,115.18823338076143L167.0625,114.88270122125546L167.0625,115.55178984293222L167.0625,115.46404771380948L167.0625,115.3142792604764L167.0625,115.9099870724916L167.0625,114.17488700767991L167.0625,112.99527452659987L167.0625,113.5326979265951L167.0625,111.44743244387764L167.0625,114.29985398672854L167.0625,113.43610780014296L167.0625,110.12563177689132L167.0625,110.49722696390282L167.0625,113.23230630485136L167.0625,112.56936205522966L167.0625,114.73091333268137L167.0625,112.68687395547657L167.0625,112.5801081138541L167.0625,112.52844861016807L167.0625,113.2743388495811L175.01785714285714,116.94367580902386L175.01785714285714,117.70325730020885L175.01785714285714,115.94449460670403L175.01785714285714,117.70821084478527L175.01785714285714,116.89491170882602L175.01785714285714,116.83735284948L175.01785714285714,116.24335599984913L175.01785714285714,115.89684738842362L175.01785714285714,117.0614366956217L175.01785714285714,115.76905642614739L175.01785714285714,115.7468428025602L175.01785714285714,115.87760131716482L175.01785714285714,117.37837370729298L175.01785714285714,117.15420344171434L175.01785714285714,118.66305952785913L175.01785714285714,117.53967859458034L175.01785714285714,116.94643571145L175.01785714285714,116.13873339990772L175.01785714285714,114.9335313606262L175.01785714285714,114.25705933976172L175.01785714285714,113.56884865407942L175.01785714285714,113.39823152986048L175.01785714285714,112.58621514956283L175.01785714285714,112.24672978591994L175.01785714285714,113.52761181278274L182.97321428571428,119.26299138416795L182.97321428571428,118.3465974125263L182.97321428571428,118.33948985594493L182.97321428571428,120.34513423656212L182.97321428571428,120.89636036941282L182.97321428571428,120.09366033785864L182.97321428571428,119.48156710751846L182.97321428571428,118.03431747429366L182.97321428571428,118.73737808211324L182.97321428571428,117.60127165403175L182.97321428571428,121.4988473742378L182.97321428571428,120.14896136457754L182.97321428571428,121.43621478936096L182.97321428571428,120.58236171281946L182.97321428571428,120.85942731783756L182.97321428571428,118.05426962367277L182.97321428571428,118.48789368684041L182.97321428571428,117.6681858308014L182.97321428571428,116.01639470797163L182.97321428571428,116.96578761542665L182.97321428571428,116.52650753322142L182.97321428571428,117.39619615771112L182.97321428571428,115.5357701545819L182.97321428571428,117.44135905896808L182.97321428571428,116.17898616251458L190.92857142857142,118.24359317753976L190.92857142857142,121.26023906847395L190.92857142857142,123.11391704607342L190.92857142857142,123.04233483271798L190.92857142857142,123.52768391249774L190.92857142857142,121.8792029343736L190.92857142857142,122.1055425806458L190.92857142857142,122.46364192090124L190.92857142857142,123.99805794013555L190.92857142857142,121.89488965483316L190.92857142857142,119.58168341941719L190.92857142857142,116.67841851548603L190.92857142857142,118.53309121928365L190.92857142857142,119.3360672158107L190.92857142857142,119.67611880970627L190.92857142857142,121.01754021568672L190.92857142857142,122.93555509998546L190.92857142857142,120.43095107349244L190.92857142857142,122.82263650579743L190.92857142857142,119.7644177799433L190.92857142857142,117.5498250290757L190.92857142857142,117.97503165692123L190.92857142857142,119.44311049753449L190.92857142857142,120.35576546295894L190.92857142857142,120.56698420408017L198.88392857142858,121.77054349638608L198.88392857142858,124.26108768318646L198.88392857142858,125.26628122469516L198.88392857142858,123.84408856177765L198.88392857142858,123.35608363297247L198.88392857142858,124.0826668777863L198.88392857142858,126.61813066833018L198.88392857142858,123.87170381505965L198.88392857142858,122.0421419302206L198.88392857142858,120.92075196263676L198.88392857142858,121.60334024046352L198.88392857142858,121.36197271176869L198.88392857142858,121.60494731502945L198.88392857142858,120.96009075425395L198.88392857142858,119.3441748933931L198.88392857142858,119.98696770470976L198.88392857142858,122.07006829501175L198.88392857142858,123.48612977874863L198.88392857142858,120.14356760270945L198.88392857142858,121.32618468157979L198.88392857142858,121.97979975731691L198.88392857142858,122.47943901712608L198.88392857142858,120.66952746626681L198.88392857142858,120.56529725800122L198.88392857142858,121.54706204360824L206.83928571428572,123.9943187977439L206.83928571428572,124.50011048290526L206.83928571428572,126.33446843369839L206.83928571428572,125.5932413872721L206.83928571428572,124.37810965696823L206.83928571428572,125.6257194657317L206.83928571428572,123.74622907812542L206.83928571428572,123.1066652064034L206.83928571428572,124.52753951993637L206.83928571428572,122.82900057045849L206.83928571428572,123.64615957324644L206.83928571428572,123.5572807543572L206.83928571428572,121.15855754036286L206.83928571428572,122.91319923769579L206.83928571428572,124.1003419171044L206.83928571428572,122.70242846073323L206.83928571428572,122.16482668555746L206.83928571428572,120.48715634606462L206.83928571428572,122.7194358048569L206.83928571428572,125.3569198288161L206.83928571428572,125.53686201200713L206.83928571428572,124.99488689080374L206.83928571428572,124.02167111978233L206.83928571428572,124.26132852342904L206.83928571428572,123.28776746992575L214.79464285714286,124.34606869819348L214.79464285714286,123.84955263318173L214.79464285714286,123.61435649801224L214.79464285714286,125.33666989808636L214.79464285714286,125.28818501296853L214.79464285714286,126.30628811575899L214.79464285714286,129.8502489343758L214.79464285714286,127.54028558525297L214.79464285714286,126.18741093750509L214.79464285714286,126.52918864295312L214.79464285714286,126.50272403362646L214.79464285714286,125.81660994710478L214.79464285714286,124.21017551017971L214.79464285714286,124.39298739488824L214.79464285714286,124.45201886269989L214.79464285714286,125.85093326463426L214.79464285714286,125.86988124307469L214.79464285714286,126.96726933006332L214.79464285714286,126.57978064050606L214.79464285714286,124.07771718043284L214.79464285714286,122.90507913850664L214.79464285714286,123.69381856455158L214.79464285714286,123.33811616619676L214.79464285714286,124.58986959588677L214.79464285714286,124.87156237502188L222.75,127.18130564444833L222.75,126.99057499321445L222.75,126.85418395848359L222.75,128.1052181819158L222.75,127.84973974520429L222.75,127.86258352395572L222.75,126.83129965124535L222.75,127.1465743443847L222.75,126.1345543510604L222.75,127.28715252708722L222.75,128.49638960409956L222.75,128.39473373233557L222.75,127.10132795297669L222.75,127.77994189842681L222.75,129.06989951243483L222.75,128.59885427242807L222.75,127.41008543006356L222.75,128.3767902242051L222.75,127.25138257067839L222.75,127.86801785601043L222.75,128.22347776366988L222.75,127.00712307854722L222.75,126.87549428680079L222.75,127.69275860213361L222.75,124.20254967643692L230.70535714285717,128.3770215066306L230.70535714285717,128.46456572276546L230.70535714285717,128.5749591461551L230.70535714285717,127.08522314558813L230.70535714285717,126.70924803751939L230.70535714285717,128.80865591995857L230.70535714285717,128.74671978493296L230.70535714285717,127.28797421300271L230.70535714285717,128.14312980886615L230.70535714285717,128.53819372097442L230.70535714285717,128.6043222537028L230.70535714285717,129.31641099395677L230.70535714285717,129.10638838584615L230.70535714285717,128.25602576181527L230.70535714285717,128.6161171975448L230.70535714285717,128.3682959680387L230.70535714285717,128.9758600789087L230.70535714285717,128.15242603705985L230.70535714285717,125.77264635733759L230.70535714285717,125.88662255985734L230.70535714285717,126.65148253550052L230.70535714285717,127.49269387608719L230.70535714285717,127.00280928305358L230.70535714285717,128.35089399183732L230.70535714285717,126.49600638011063L238.66071428571428,127.32968370502569L238.66071428571428,129.51704289546834L238.66071428571428,130.0319911183788L238.66071428571428,127.9104868585988L238.66071428571428,128.01116560042644L238.66071428571428,126.69034465933291L238.66071428571428,128.66582348367243L238.66071428571428,129.73967654210728L238.66071428571428,129.94355624587774L238.66071428571428,129.7295854235973L238.66071428571428,130.785280379372L238.66071428571428,129.48872269255946L238.66071428571428,129.25115560181757L238.66071428571428,129.40812776349674L238.66071428571428,128.55144514359645L238.66071428571428,128.65377995650536L238.66071428571428,129.08097491431576L238.66071428571428,126.91373351972307L238.66071428571428,127.02958818829659L238.66071428571428,127.64610416922928L238.66071428571428,128.09955064346767L238.66071428571428,128.26367154354082L238.66071428571428,128.08378593703642L238.66071428571428,126.64262500155293L238.66071428571428,126.5809087589283" style="fill: none;" fill="none"></path></g></g></g></g><g opacity="0.2"><g><g><g><path stroke="rgb(238, 51, 119)" stroke-width="2px" d="M23.866071428571427,-5.7760107815265656L31.82142857142857,6.555956274271011L31.82142857142857,-6.98455336689949L31.82142857142857,-5.681425958871841L31.82142857142857,0.0022571980953216553L31.82142857142857,0.137437105178833L31.82142857142857,-9.181488782167435L31.82142857142857,-3.0648002326488495L31.82142857142857,5.270162343978882L31.82142857142857,15.848371356725693L31.82142857142857,7.662407726049423L31.82142857142857,9.77498334646225L31.82142857142857,-3.0830620527267456L31.82142857142857,-2.460369795560837L31.82142857142857,9.085264772176743L31.82142857142857,5.350265026092529L31.82142857142857,0.09168308973312378L31.82142857142857,4.304513901472092L31.82142857142857,7.779511481523514L31.82142857142857,8.446273475885391L31.82142857142857,10.157486915588379L31.82142857142857,13.755171567201614L31.82142857142857,14.58415475487709L31.82142857142857,-6.199600130319595L31.82142857142857,16.77244332432747L39.776785714285715,15.533928543329239L39.776785714285715,20.612637519836426L39.776785714285715,15.560863733291626L39.776785714285715,19.6077201962471L39.776785714285715,23.94501519203186L39.776785714285715,20.641800731420517L39.776785714285715,26.066144824028015L39.776785714285715,19.019177675247192L39.776785714285715,25.600952476263046L39.776785714285715,26.018242359161377L39.776785714285715,18.255788505077362L39.776785714285715,10.420884162187576L39.776785714285715,25.25944185256958L39.776785714285715,28.112927496433258L39.776785714285715,25.215226233005524L39.776785714285715,29.10207626223564L39.776785714285715,24.36377716064453L39.776785714285715,19.01338216662407L39.776785714285715,22.970560759305954L39.776785714285715,26.69127729535103L39.776785714285715,28.30079746246338L39.776785714285715,32.53895875811577L39.776785714285715,32.96717655658722L39.776785714285715,28.984163522720337L39.776785714285715,27.23613467812538L47.732142857142854,35.36747199296951L47.732142857142854,38.94734573364258L47.732142857142854,26.014807492494583L47.732142857142854,37.36314278841019L47.732142857142854,42.4281122982502L47.732142857142854,31.420531690120697L47.732142857142854,26.85182747244835L47.732142857142854,41.23862725496292L47.732142857142854,39.47931241989136L47.732142857142854,40.70067939162254L47.732142857142854,33.69320657849312L47.732142857142854,43.462192833423615L47.732142857142854,39.465480118989944L47.732142857142854,33.90688446164131L47.732142857142854,31.404338747262955L47.732142857142854,34.07508683204651L47.732142857142854,41.800088703632355L47.732142857142854,39.793251276016235L47.732142857142854,46.07385855913162L47.732142857142854,45.676654025912285L47.732142857142854,42.070170015096664L47.732142857142854,30.33250120282173L47.732142857142854,53.80791176855564L47.732142857142854,34.362276166677475L47.732142857142854,45.8025438785553L55.6875,47.34455366432667L55.6875,46.990550205111504L55.6875,44.34858736395836L55.6875,51.846901297569275L55.6875,54.68985025584698L55.6875,45.64139027893543L55.6875,49.666742354631424L55.6875,45.84793318808079L55.6875,47.69633573293686L55.6875,49.93611414730549L55.6875,44.89331212639809L55.6875,51.96556334197521L55.6875,51.585904479026794L55.6875,50.50278094410896L55.6875,47.4145573079586L55.6875,51.297700598835945L55.6875,53.34038530290127L55.6875,46.17864851653576L55.6875,45.15073482692242L55.6875,46.77624237537384L55.6875,52.03906153142452L55.6875,56.96120557188988L55.6875,49.4311688542366L55.6875,54.83172085881233L55.6875,46.41885709762573L63.64285714285714,61.15718033909798L63.64285714285714,51.04918998479843L63.64285714285714,57.25203533470631L63.64285714285714,64.94002950191498L63.64285714285714,55.918478190898895L63.64285714285714,55.64689826965332L63.64285714285714,58.572449803352356L63.64285714285714,59.346554696559906L63.64285714285714,53.77712395787239L63.64285714285714,53.203348711133L63.64285714285714,61.242899492383L63.64285714285714,63.113522574305534L63.64285714285714,64.04199090600014L63.64285714285714,62.577398240566254L63.64285714285714,59.60275065898895L63.64285714285714,59.1128511428833L63.64285714285714,57.30984453856945L63.64285714285714,56.133296608924866L63.64285714285714,61.12451595067978L63.64285714285714,56.16415736079216L63.64285714285714,61.3604077398777L63.64285714285714,60.23131136596203L63.64285714285714,54.113681212067604L63.64285714285714,60.30393426120281L63.64285714285714,67.6713055074215L71.59821428571428,67.03170415759087L71.59821428571428,69.34555765986443L71.59821428571428,67.5594402551651L71.59821428571428,66.92817409336567L71.59821428571428,69.78957717120647L71.59821428571428,71.63820517063141L71.59821428571428,61.43862058222294L71.59821428571428,72.12779965996742L71.59821428571428,62.37487372756004L71.59821428571428,67.21356642246246L71.59821428571428,64.08533123135567L71.59821428571428,66.82043996453285L71.59821428571428,64.2141519933939L71.59821428571428,59.83250875771046L71.59821428571428,64.32568569481373L71.59821428571428,64.59672187268734L71.59821428571428,68.98713131248951L71.59821428571428,72.31039796769619L71.59821428571428,64.13131070137024L71.59821428571428,62.382187739014626L71.59821428571428,71.84763257205486L71.59821428571428,69.52272516489029L71.59821428571428,72.55346451699734L71.59821428571428,60.788582012057304L71.59821428571428,67.08550822734833L79.55357142857143,72.7846350222826L79.55357142857143,74.07089975476265L79.55357142857143,84.47527666389942L79.55357142857143,76.10847194492817L79.55357142857143,76.73018281161785L79.55357142857143,80.6770236492157L79.55357142857143,80.88247907161713L79.55357142857143,67.29124215245247L79.55357142857143,76.15368884801865L79.55357142857143,74.08568692207336L79.55357142857143,73.23848170042038L79.55357142857143,64.23125338554382L79.55357142857143,69.31858268380165L79.55357142857143,66.8323492705822L79.55357142857143,71.80810508131981L79.55357142857143,65.99472586810589L79.55357142857143,73.56896494328976L79.55357142857143,79.28551805019379L79.55357142857143,75.2508560270071L79.55357142857143,70.2344388216734L79.55357142857143,74.10215173661709L79.55357142857143,72.10022789239883L79.55357142857143,76.911143258214L79.55357142857143,70.64101961255074L79.55357142857143,73.46900236606598L87.50892857142857,81.38458628952503L87.50892857142857,74.76652656495571L87.50892857142857,77.71226954460144L87.50892857142857,83.20884530246258L87.50892857142857,82.45546896755695L87.50892857142857,81.27577130496502L87.50892857142857,79.07800038158894L87.50892857142857,75.98689225316048L87.50892857142857,77.59653177857399L87.50892857142857,88.99534900486469L87.50892857142857,81.72612343728542L87.50892857142857,79.38802693784237L87.50892857142857,85.79446439445019L87.50892857142857,74.31351539492607L87.50892857142857,79.71853670477867L87.50892857142857,77.48802845180035L87.50892857142857,80.93905490636826L87.50892857142857,77.44757261872292L87.50892857142857,78.2884982675314L87.50892857142857,72.70270217955112L87.50892857142857,81.22113835811615L87.50892857142857,77.78970655798912L87.50892857142857,81.18834134936333L87.50892857142857,79.1634741872549L87.50892857142857,81.23272274434566L95.46428571428571,85.81262674927711L95.46428571428571,86.56821784377098L95.46428571428571,80.38950276374817L95.46428571428571,79.19142392277718L95.46428571428571,86.41971622407436L95.46428571428571,96.13900963962078L95.46428571428571,82.42567580938339L95.46428571428571,86.46228072047234L95.46428571428571,90.8616818189621L95.46428571428571,85.23287032544613L95.46428571428571,82.55172480642796L95.46428571428571,88.0512513667345L95.46428571428571,86.29651193320751L95.46428571428571,88.30653887987137L95.46428571428571,84.13102743029594L95.46428571428571,88.59553848206997L95.46428571428571,83.28390178084373L95.46428571428571,85.20000037550926L95.46428571428571,89.55750671029091L95.46428571428571,89.93706610798836L95.46428571428571,77.23349687457085L95.46428571428571,86.03194099664688L95.46428571428571,81.7284509241581L95.46428571428571,80.0006068944931L95.46428571428571,85.34032595157623L103.41964285714286,88.73826448619366L103.41964285714286,93.34734496474266L103.41964285714286,94.08601370453835L103.41964285714286,85.43365751206875L103.41964285714286,87.06982110440731L103.41964285714286,91.35191288590431L103.41964285714286,92.13492986559868L103.41964285714286,91.09514665603638L103.41964285714286,86.34479236602783L103.41964285714286,95.10293316841125L103.41964285714286,88.41445867717266L103.41964285714286,88.66304223239422L103.41964285714286,89.51475654542446L103.41964285714286,84.66849122941494L103.41964285714286,84.7524995803833L103.41964285714286,84.58070319890976L103.41964285714286,92.46489588916302L103.41964285714286,89.25950881838799L103.41964285714286,86.6631209552288L103.41964285714286,93.45525813102722L103.41964285714286,91.46621835231781L103.41964285714286,87.45880317687988L103.41964285714286,92.34476839005947L103.41964285714286,92.24231255054474L103.41964285714286,89.95676685869694L111.375,96.28910933434963L111.375,97.88129602372646L111.375,94.63436563313007L111.375,97.40306709706783L111.375,95.07891562581062L111.375,94.23909072577953L111.375,92.08828066289425L111.375,95.97370502352715L111.375,94.07294397056103L111.375,97.18994621932507L111.375,83.25022947788239L111.375,97.94813004136086L111.375,98.20036728680134L111.375,91.91931572556496L111.375,91.91737946867943L111.375,94.82641313970089L111.375,88.19464710354805L111.375,86.38683301210403L111.375,90.21682870388031L111.375,93.52936637401581L111.375,93.35657534003258L111.375,89.35081128776073L111.375,90.79364758729935L111.375,90.15616816282272L111.375,89.04499542713165L119.33035714285714,99.73957878351212L119.33035714285714,103.96514777839184L119.33035714285714,101.89533890038729L119.33035714285714,93.29232078790665L119.33035714285714,98.09828941524029L119.33035714285714,99.07162983715534L119.33035714285714,98.01676769554615L119.33035714285714,94.79278062283993L119.33035714285714,93.26710966229439L119.33035714285714,95.18755157291889L119.33035714285714,101.85465098172426L119.33035714285714,96.73285034298897L119.33035714285714,98.91254511475563L119.33035714285714,103.32229059934616L119.33035714285714,93.42107523977757L119.33035714285714,92.8674118667841L119.33035714285714,105.95287461578846L119.33035714285714,95.30188356339931L119.33035714285714,96.26147788763046L119.33035714285714,92.05372643470764L119.33035714285714,100.18968556821346L119.33035714285714,87.53679719567299L119.33035714285714,96.31021586060524L119.33035714285714,93.7070709913969L119.33035714285714,99.7004425227642L127.28571428571428,106.75401747971773L127.28571428571428,97.64852081239223L127.28571428571428,105.0050403997302L127.28571428571428,93.9706804305315L127.28571428571428,105.3078258857131L127.28571428571428,99.80112124979496L127.28571428571428,106.839076846838L127.28571428571428,97.48133298754692L127.28571428571428,100.8501812517643L127.28571428571428,104.20449432730675L127.28571428571428,101.18939422816038L127.28571428571428,101.19128075242043L127.28571428571428,96.87898468971252L127.28571428571428,97.95781795680523L127.28571428571428,96.461230635643L127.28571428571428,101.5090589672327L127.28571428571428,100.25026985257864L127.28571428571428,97.76284617185593L127.28571428571428,100.84955793619156L127.28571428571428,105.6677873134613L127.28571428571428,108.79244838654995L127.28571428571428,98.08088962733746L127.28571428571428,98.6695448756218L127.28571428571428,98.89450211822987L127.28571428571428,100.60407438129187L135.24107142857142,99.4760091304779L135.24107142857142,107.19729763269424L135.24107142857142,104.82367877662182L135.24107142857142,108.5949634462595L135.24107142857142,110.64137478172779L135.24107142857142,108.53013199567795L135.24107142857142,107.37319861352444L135.24107142857142,102.91256339102983L135.24107142857142,106.56296131014824L135.24107142857142,102.83367750048637L135.24107142857142,101.53370977193117L135.24107142857142,107.04126980900764L135.24107142857142,103.05900939553976L135.24107142857142,106.8109944909811L135.24107142857142,99.233035415411L135.24107142857142,99.13051326572895L135.24107142857142,99.14204460382462L135.24107142857142,106.22473967075348L135.24107142857142,100.23286011815071L135.24107142857142,100.86795569211245L135.24107142857142,104.8986755758524L135.24107142857142,111.00555353611708L135.24107142857142,105.48675392568111L135.24107142857142,97.99629774689674L135.24107142857142,104.15713892132044L143.19642857142856,107.31562149524689L143.19642857142856,108.64319083094597L143.19642857142856,111.82951372861862L143.19642857142856,110.4296066313982L143.19642857142856,111.42738898098469L143.19642857142856,107.58785125613213L143.19642857142856,105.40690985321999L143.19642857142856,106.54647328704596L143.19642857142856,110.40059593319893L143.19642857142856,114.65383947640657L143.19642857142856,104.39411488175392L143.19642857142856,104.25080866366625L143.19642857142856,103.98461644351482L143.19642857142856,106.6120673045516L143.19642857142856,107.08159965276718L143.19642857142856,110.47602374851704L143.19642857142856,108.25733528286219L143.19642857142856,106.14394404739141L143.19642857142856,101.53274164348841L143.19642857142856,105.60065821558237L143.19642857142856,101.13239069283009L143.19642857142856,107.88165834546089L143.19642857142856,106.29206769913435L143.19642857142856,103.26196160912514L143.19642857142856,103.3317696377635L151.1517857142857,113.8981820717454L151.1517857142857,114.19758573919535L151.1517857142857,112.60539241880178L151.1517857142857,108.48421883583069L151.1517857142857,110.45311027020216L151.1517857142857,113.54518321156502L151.1517857142857,114.84011799842119L151.1517857142857,117.86238622665405L151.1517857142857,110.85154485702515L151.1517857142857,106.7943738475442L151.1517857142857,107.1281825453043L151.1517857142857,111.00249663740396L151.1517857142857,106.62681137025356L151.1517857142857,111.57152407616377L151.1517857142857,105.1181987002492L151.1517857142857,105.5076979920268L151.1517857142857,107.16460672020912L151.1517857142857,109.49276332557201L151.1517857142857,106.58051692694426L151.1517857142857,105.11824511736631L151.1517857142857,111.2433550581336L151.1517857142857,112.309290997684L151.1517857142857,107.0508052110672L151.1517857142857,110.13270285725594L151.1517857142857,105.19575507193804L159.10714285714286,115.11551738530397L159.10714285714286,114.92494527995586L159.10714285714286,113.44580747932196L159.10714285714286,116.02430154383183L159.10714285714286,117.6594505906105L159.10714285714286,114.69236568361521L159.10714285714286,110.92534475773573L159.10714285714286,113.25284820795059L159.10714285714286,116.50204972177744L159.10714285714286,114.55191743373871L159.10714285714286,118.82413894683123L159.10714285714286,112.60934450477362L159.10714285714286,107.74399512261152L159.10714285714286,114.49421764165163L159.10714285714286,109.76475768536329L159.10714285714286,110.627058416605L159.10714285714286,107.42147573083639L159.10714285714286,113.16874370723963L159.10714285714286,110.05146295577288L159.10714285714286,107.31982887536287L159.10714285714286,112.89287683367729L159.10714285714286,110.84262945502996L159.10714285714286,116.61683593690395L159.10714285714286,109.02039290219545L159.10714285714286,105.5539261251688L167.0625,114.65440311282873L167.0625,120.25983364135027L167.0625,114.4885481223464L167.0625,120.3325294777751L167.0625,112.508748665452L167.0625,114.42440298199654L167.0625,116.55542277544737L167.0625,115.33243452012539L167.0625,115.08962658047676L167.0625,116.80354879051447L167.0625,111.57223691046238L167.0625,111.2258558049798L167.0625,114.33883302658796L167.0625,108.31953421980143L167.0625,118.57848630100489L167.0625,112.14048852026463L167.0625,105.15991774201393L167.0625,111.05461974442005L167.0625,117.33492531627417L167.0625,111.5749456807971L167.0625,117.97324024885893L167.0625,109.62081488966942L167.0625,112.4199593514204L167.0625,112.45095935463905L167.0625,114.39317420870066L175.01785714285714,122.44768124818802L175.01785714285714,118.84262953698635L175.01785714285714,113.30635056644678L175.01785714285714,120.35378520190716L175.01785714285714,115.6749630048871L175.01785714285714,116.75101456046104L175.01785714285714,115.35236072540283L175.01785714285714,115.37708447128534L175.01785714285714,118.8083206564188L175.01785714285714,113.83048602193594L175.01785714285714,115.7135223671794L175.01785714285714,116.07373908907175L175.01785714285714,119.62953229248524L175.01785714285714,116.8179480433464L175.01785714285714,120.92634365707636L175.01785714285714,115.8546071946621L175.01785714285714,116.05657138675451L175.01785714285714,114.9271799325943L175.01785714285714,113.12572830170393L175.01785714285714,113.242351308465L175.01785714285714,112.53653262555599L175.01785714285714,113.14230584353209L175.01785714285714,111.36819057911634L175.01785714285714,111.73750174045563L175.01785714285714,115.44893485307693L182.97321428571428,127.86606074124575L182.97321428571428,116.97200645506382L182.97321428571428,118.32882852107286L182.97321428571428,123.35360080748796L182.97321428571428,121.72319956868887L182.97321428571428,118.88961029052734L182.97321428571428,118.56342726200819L182.97321428571428,115.8634430244565L182.97321428571428,119.7919689938426L182.97321428571428,115.89711201190948L182.97321428571428,127.34521095454693L182.97321428571428,118.12413235008717L182.97321428571428,123.36709492653608L182.97321428571428,119.3015820980072L182.97321428571428,121.27502572536469L182.97321428571428,113.8465330824256L182.97321428571428,119.13832978159189L182.97321428571428,116.43862404674292L182.97321428571428,113.53870802372694L182.97321428571428,118.38987697660923L182.97321428571428,115.86758740991354L182.97321428571428,118.7007290944457L182.97321428571428,112.74513114988804L182.97321428571428,120.29974241554737L182.97321428571428,114.28542681783438L190.92857142857142,121.34050370007753L190.92857142857142,125.78520790487528L190.92857142857142,125.89443401247263L190.92857142857142,122.93496151268482L190.92857142857142,124.25570753216743L190.92857142857142,119.4064814671874L190.92857142857142,122.44505205005407L190.92857142857142,123.00079093128443L190.92857142857142,126.29968196898699L190.92857142857142,118.7401372268796L190.92857142857142,116.11187406629324L190.92857142857142,112.32352115958929L190.92857142857142,121.31510027498007L190.92857142857142,120.54053121060133L190.92857142857142,120.1861962005496L190.92857142857142,123.02967232465744L190.92857142857142,125.81257742643356L190.92857142857142,116.67404503375292L190.92857142857142,126.41016465425491L190.92857142857142,115.17708969116211L190.92857142857142,114.22793590277433L190.92857142857142,118.61284159868956L190.92857142857142,121.64522875845432L190.92857142857142,121.72474791109562L190.92857142857142,120.88381231576204L198.88392857142858,123.57588243484497L198.88392857142858,127.99690396338701L198.88392857142858,126.77407153695822L198.88392857142858,121.71079956740141L198.88392857142858,122.62407623976469L198.88392857142858,125.17254174500704L198.88392857142858,130.421326354146L198.88392857142858,119.75206353515387L198.88392857142858,119.29779910296202L198.88392857142858,119.23866701126099L198.88392857142858,122.62722265720367L198.88392857142858,120.99992141872644L198.88392857142858,121.96940921992064L198.88392857142858,119.9928059130907L198.88392857142858,116.9203011021018L198.88392857142858,120.95115692168474L198.88392857142858,125.19471918046474L198.88392857142858,125.610222004354L198.88392857142858,115.1297243386507L198.88392857142858,123.10011029988527L198.88392857142858,122.96022237092257L198.88392857142858,123.22889790683985L198.88392857142858,117.95466013997793L198.88392857142858,120.4089519456029L198.88392857142858,123.01970922201872L206.83928571428572,127.66520392894745L206.83928571428572,125.2587980106473L206.83928571428572,129.08600535988808L206.83928571428572,124.48140081763268L206.83928571428572,122.55541206151247L206.83928571428572,127.49713417887688L206.83928571428572,120.92699349671602L206.83928571428572,122.1473193988204L206.83928571428572,126.6588509902358L206.83928571428572,120.28119214624166L206.83928571428572,124.87189807742834L206.83928571428572,123.42396252602339L206.83928571428572,117.56047271937132L206.83928571428572,125.54516178369522L206.83928571428572,125.88105593621731L206.83928571428572,120.60555827617645L206.83928571428572,121.35842402279377L206.83928571428572,117.97065083682537L206.83928571428572,126.06785499304533L206.83928571428572,129.31314586475492L206.83928571428572,125.80677528679371L206.83928571428572,124.18192420899868L206.83928571428572,122.56184746325016L206.83928571428572,124.6208146288991L206.83928571428572,121.82742588967085L214.79464285714286,125.93352054059505L214.79464285714286,123.10477853566408L214.79464285714286,123.26156229525805L214.79464285714286,127.92013999819756L214.79464285714286,125.21545768529177L214.79464285714286,127.83344276994467L214.79464285714286,135.16619016230106L214.79464285714286,124.07534056156874L214.79464285714286,124.15809896588326L214.79464285714286,127.04185520112514L214.79464285714286,126.46302711963654L214.79464285714286,124.78743881732225L214.79464285714286,121.80052385479212L214.79464285714286,124.66720522195101L214.79464285714286,124.54056606441736L214.79464285714286,127.94930486753583L214.79464285714286,125.89830321073532L214.79464285714286,128.61335146054626L214.79464285714286,125.99854760617018L214.79464285714286,120.32462199032307L214.79464285714286,121.14612207561731L214.79464285714286,124.876927703619L214.79464285714286,122.80456256866455L214.79464285714286,126.46749974042177L214.79464285714286,125.29410154372454L222.75,130.64592054858804L222.75,126.70447901636362L222.75,126.64959740638733L222.75,129.9817695170641L222.75,127.466522090137L222.75,127.88184919208288L222.75,125.28437384217978L222.75,127.61948638409376L222.75,124.61652436107397L222.75,129.01604979112744L222.75,130.31024521961808L222.75,128.24224992468953L222.75,125.16121928393841L222.75,128.797862816602L222.75,131.00483593344688L222.75,127.89228641241789L222.75,125.62693216651678L222.75,129.82684741541743L222.75,125.5632710903883L222.75,128.7929707840085L222.75,128.75666762515903L222.75,125.18259105086327L222.75,126.67805109918118L222.75,128.91865507513285L222.75,118.96723628789186L230.70535714285717,134.63872925192118L230.70535714285717,128.59588204696774L230.70535714285717,128.7405492812395L230.70535714285717,124.85061914473772L230.70535714285717,126.14528537541628L230.70535714285717,131.9577677436173L230.70535714285717,128.6538155823946L230.70535714285717,125.09985585510731L230.70535714285717,129.42586320266128L230.70535714285717,129.13078958913684L230.70535714285717,128.7035150527954L230.70535714285717,130.3845441043377L230.70535714285717,128.79135447368026L230.70535714285717,126.98048182576895L230.70535714285717,129.15625435113907L230.70535714285717,127.99656412377954L230.70535714285717,129.88720624521375L230.70535714285717,126.91727497428656L230.70535714285717,122.20297683775425L230.70535714285717,126.05758686363697L230.70535714285717,127.79877249896526L230.70535714285717,128.75451088696718L230.70535714285717,126.26798239350319L230.70535714285717,130.37302105501294L230.70535714285717,123.7136749625206L238.66071428571428,128.5801996923983L238.66071428571428,132.79808168113232L238.66071428571428,130.80441345274448L238.66071428571428,124.72823046892881L238.66071428571428,128.1621837131679L238.66071428571428,124.70911324769258L238.66071428571428,131.6290417201817L238.66071428571428,131.35045612975955L238.66071428571428,130.24937580153346L238.66071428571428,129.40862919017673L238.66071428571428,132.36882281303406L238.66071428571428,127.54388616234064L238.66071428571428,128.89480496570468L238.66071428571428,129.64358600601554L238.66071428571428,127.26642121374607L238.66071428571428,128.80728217586875L238.66071428571428,129.7217673510313L238.66071428571428,123.66287142783403L238.66071428571428,127.20337019115686L238.66071428571428,128.57087814062834L238.66071428571428,128.77972035482526L238.66071428571428,128.50985289365053L238.66071428571428,127.81395752727985L238.66071428571428,124.48088359832764L238.66071428571428,126.4883343949914" style="fill: none;" fill="none"></path></g></g></g></g></g></g><g transform="translate(51, 178)" clip-path="url(#clip_1)"><clipPath id="clip_1"><rect width="278" height="22"></rect></clipPath><g><g><line x1="0" y1="0" x2="0" y2="5" style="visibility: inherit;" fill="rgb(0, 0, 0)" stroke="rgb(204, 204, 204)" stroke-width="1px"></line><line x1="39.776785714285715" y1="0" x2="39.776785714285715" y2="5" style="visibility: inherit;" fill="rgb(0, 0, 0)" stroke="rgb(204, 204, 204)" stroke-width="1px"></line><line x1="79.55357142857143" y1="0" x2="79.55357142857143" y2="5" style="visibility: inherit;" fill="rgb(0, 0, 0)" stroke="rgb(204, 204, 204)" stroke-width="1px"></line><line x1="119.33035714285714" y1="0" x2="119.33035714285714" y2="5" style="visibility: inherit;" fill="rgb(0, 0, 0)" stroke="rgb(204, 204, 204)" stroke-width="1px"></line><line x1="159.10714285714286" y1="0" x2="159.10714285714286" y2="5" style="visibility: inherit;" fill="rgb(0, 0, 0)" stroke="rgb(204, 204, 204)" stroke-width="1px"></line><line x1="198.88392857142858" y1="0" x2="198.88392857142858" y2="5" style="visibility: inherit;" fill="rgb(0, 0, 0)" stroke="rgb(204, 204, 204)" stroke-width="1px"></line><line x1="238.66071428571428" y1="0" x2="238.66071428571428" y2="5" style="visibility: inherit;" fill="rgb(0, 0, 0)" stroke="rgb(204, 204, 204)" stroke-width="1px"></line><line x1="278.4375" y1="0" x2="278.4375" y2="5" style="visibility: inherit;" fill="rgb(0, 0, 0)" stroke="rgb(204, 204, 204)" stroke-width="1px"></line></g><g transform="translate(0, 8)"><text x="0" y="0" dx="0em" dy="0.95em" style="text-anchor: middle; visibility: hidden; font-family: Roboto, sans-serif; font-size: 12px; font-weight: 200;" fill="rgb(50, 49, 63)" stroke="none" stroke-width="1px">0</text><text x="39.776785714285715" y="0" dx="0em" dy="0.95em" style="text-anchor: middle; visibility: inherit; font-family: Roboto, sans-serif; font-size: 12px; font-weight: 200;" fill="rgb(50, 49, 63)" stroke="none" stroke-width="1px">5</text><text x="79.55357142857143" y="0" dx="0em" dy="0.95em" style="text-anchor: middle; visibility: inherit; font-family: Roboto, sans-serif; font-size: 12px; font-weight: 200;" fill="rgb(50, 49, 63)" stroke="none" stroke-width="1px">10</text><text x="119.33035714285714" y="0" dx="0em" dy="0.95em" style="text-anchor: middle; visibility: inherit; font-family: Roboto, sans-serif; font-size: 12px; font-weight: 200;" fill="rgb(50, 49, 63)" stroke="none" stroke-width="1px">15</text><text x="159.10714285714286" y="0" dx="0em" dy="0.95em" style="text-anchor: middle; visibility: inherit; font-family: Roboto, sans-serif; font-size: 12px; font-weight: 200;" fill="rgb(50, 49, 63)" stroke="none" stroke-width="1px">20</text><text x="198.88392857142858" y="0" dx="0em" dy="0.95em" style="text-anchor: middle; visibility: inherit; font-family: Roboto, sans-serif; font-size: 12px; font-weight: 200;" fill="rgb(50, 49, 63)" stroke="none" stroke-width="1px">25</text><text x="238.66071428571428" y="0" dx="0em" dy="0.95em" style="text-anchor: middle; visibility: inherit; font-family: Roboto, sans-serif; font-size: 12px; font-weight: 200;" fill="rgb(50, 49, 63)" stroke="none" stroke-width="1px">30</text><text x="278.4375" y="0" dx="0em" dy="0.95em" style="text-anchor: middle; visibility: hidden; font-family: Roboto, sans-serif; font-size: 12px; font-weight: 200;" fill="rgb(50, 49, 63)" stroke="none" stroke-width="1px">35</text></g><line x1="0" y1="0" x2="278.4375" y2="0" fill="rgb(0, 0, 0)" stroke="rgb(204, 204, 204)" stroke-width="1px"></line></g></g></g></g></svg>