<svg viewBox="0 0 330 200" xmlns="http://www.w3.org/2000/svg"><g><g><g><g><g><line x1="51.5625" y1="178" x2="46.5625" y2="178" style="visibility: inherit;" fill="rgb(0, 0, 0)" stroke="rgb(204, 204, 204)" stroke-width="1px"></line><line x1="51.5625" y1="163.16666666666666" x2="46.5625" y2="163.16666666666666" style="visibility: inherit;" fill="rgb(0, 0, 0)" stroke="rgb(204, 204, 204)" stroke-width="1px"></line><line x1="51.5625" y1="148.33333333333334" x2="46.5625" y2="148.33333333333334" style="visibility: inherit;" fill="rgb(0, 0, 0)" stroke="rgb(204, 204, 204)" stroke-width="1px"></line><line x1="51.5625" y1="133.5" x2="46.5625" y2="133.5" style="visibility: inherit;" fill="rgb(0, 0, 0)" stroke="rgb(204, 204, 204)" stroke-width="1px"></line><line x1="51.5625" y1="118.66666666666669" x2="46.5625" y2="118.66666666666669" style="visibility: inherit;" fill="rgb(0, 0, 0)" stroke="rgb(204, 204, 204)" stroke-width="1px"></line><line x1="51.5625" y1="103.83333333333334" x2="46.5625" y2="103.83333333333334" style="visibility: inherit;" fill="rgb(0, 0, 0)" stroke="rgb(204, 204, 204)" stroke-width="1px"></line><line x1="51.5625" y1="89.00000000000001" x2="46.5625" y2="89.00000000000001" style="visibility: inherit;" fill="rgb(0, 0, 0)" stroke="rgb(204, 204, 204)" stroke-width="1px"></line><line x1="51.5625" y1="74.16666666666669" x2="46.5625" y2="74.16666666666669" style="visibility: inherit;" fill="rgb(0, 0, 0)" stroke="rgb(204, 204, 204)" stroke-width="1px"></line><line x1="51.5625" y1="59.33333333333336" x2="46.5625" y2="59.33333333333336" style="visibility: inherit;" fill="rgb(0, 0, 0)" stroke="rgb(204, 204, 204)" stroke-width="1px"></line><line x1="51.5625" y1="44.50000000000002" x2="46.5625" y2="44.50000000000002" style="visibility: inherit;" fill="rgb(0, 0, 0)" stroke="rgb(204, 204, 204)" stroke-width="1px"></line><line x1="51.5625" y1="29.66666666666668" x2="46.5625" y2="29.66666666666668" style="visibility: inherit;" fill="rgb(0, 0, 0)" stroke="rgb(204, 204, 204)" stroke-width="1px"></line><line x1="51.5625" y1="14.83333333333334" x2="46.5625" y2="14.83333333333334" style="visibility: inherit;" fill="rgb(0, 0, 0)" stroke="rgb(204, 204, 204)" stroke-width="1px"></line><line x1="51.5625" y1="0" x2="46.5625" y2="0" style="visibility: inherit;" fill="rgb(0, 0, 0)" stroke="rgb(204, 204, 204)" stroke-width="1px"></line></g><g transform="translate(41.5625, 0)"><text x="0" y="178" dx="0em" dy="0.3em" style="text-anchor: end; visibility: hidden; font-family: Roboto, sans-serif; font-size: 12px; font-weight: 200;" fill="rgb(50, 49, 63)" stroke="none" stroke-width="1px">-0.1</text><text x="0" y="163.16666666666666" dx="0em" dy="0.3em" style="text-anchor: end; visibility: inherit; font-family: Roboto, sans-serif; font-size: 12px; font-weight: 200;" fill="rgb(50, 49, 63)" stroke="none" stroke-width="1px">0</text><text x="0" y="148.33333333333334" dx="0em" dy="0.3em" style="text-anchor: end; visibility: hidden; font-family: Roboto, sans-serif; font-size: 12px; font-weight: 200;" fill="rgb(50, 49, 63)" stroke="none" stroke-width="1px">0.1</text><text x="0" y="133.5" dx="0em" dy="0.3em" style="text-anchor: end; visibility: inherit; font-family: Roboto, sans-serif; font-size: 12px; font-weight: 200;" fill="rgb(50, 49, 63)" stroke="none" stroke-width="1px">0.2</text><text x="0" y="118.66666666666669" dx="0em" dy="0.3em" style="text-anchor: end; visibility: hidden; font-family: Roboto, sans-serif; font-size: 12px; font-weight: 200;" fill="rgb(50, 49, 63)" stroke="none" stroke-width="1px">0.3</text><text x="0" y="103.83333333333334" dx="0em" dy="0.3em" style="text-anchor: end; visibility: inherit; font-family: Roboto, sans-serif; font-size: 12px; font-weight: 200;" fill="rgb(50, 49, 63)" stroke="none" stroke-width="1px">0.4</text><text x="0" y="89.00000000000001" dx="0em" dy="0.3em" style="text-anchor: end; visibility: hidden; font-family: Roboto, sans-serif; font-size: 12px; font-weight: 200;" fill="rgb(50, 49, 63)" stroke="none" stroke-width="1px">0.5</text><text x="0" y="74.16666666666669" dx="0em" dy="0.3em" style="text-anchor: end; visibility: inherit; font-family: Roboto, sans-serif; font-size: 12px; font-weight: 200;" fill="rgb(50, 49, 63)" stroke="none" stroke-width="1px">0.6</text><text x="0" y="59.33333333333336" dx="0em" dy="0.3em" style="text-anchor: end; visibility: hidden; font-family: Roboto, sans-serif; font-size: 12px; font-weight: 200;" fill="rgb(50, 49, 63)" stroke="none" stroke-width="1px">0.7</text><text x="0" y="44.50000000000002" dx="0em" dy="0.3em" style="text-anchor: end; visibility: inherit; font-family: Roboto, sans-serif; font-size: 12px; font-weight: 200;" fill="rgb(50, 49, 63)" stroke="none" stroke-width="1px">0.8</text><text x="0" y="29.66666666666668" dx="0em" dy="0.3em" style="text-anchor: end; visibility: hidden; font-family: Roboto, sans-serif; font-size: 12px; font-weight: 200;" fill="rgb(50, 49, 63)" stroke="none" stroke-width="1px">0.9</text><text x="0" y="14.83333333333334" dx="0em" dy="0.3em" style="text-anchor: end; visibility: inherit; font-family: Roboto, sans-serif; font-size: 12px; font-weight: 200;" fill="rgb(50, 49, 63)" stroke="none" stroke-width="1px">1</text><text x="0" y="0" dx="0em" dy="0.3em" style="text-anchor: end; visibility: hidden; font-family: Roboto, sans-serif; font-size: 12px; font-weight: 200;" fill="rgb(50, 49, 63)" stroke="none" stroke-width="1px">1.1</text></g><line x1="51.5625" y1="0" x2="51.5625" y2="178" fill="rgb(0, 0, 0)" stroke="rgb(204, 204, 204)" stroke-width="1px"></line></g></g><g transform="translate(51, 0)" clip-path="url(#clip_0)"><clipPath id="clip_0"><rect width="278" height="178"></rect></clipPath><g><g><g><line x1="0" y1="0" x2="0" y2="178" fill="rgb(0, 0, 0)" stroke="rgb(60, 60, 60)" stroke-width="1px" opacity="0.25"></line><line x1="23.203125" y1="0" x2="23.203125" y2="178" fill="rgb(0, 0, 0)" stroke="rgb(60, 60, 60)" stroke-width="1px" opacity="0.25"></line><line x1="46.40625" y1="0" x2="46.40625" y2="178" fill="rgb(0, 0, 0)" stroke="rgb(60, 60, 60)" stroke-width="1px" opacity="0.25"></line><line x1="69.609375" y1="0" x2="69.609375" y2="178" fill="rgb(0, 0, 0)" stroke="rgb(60, 60, 60)" stroke-width="1px" opacity="0.25"></line><line x1="92.8125" y1="0" x2="92.8125" y2="178" fill="rgb(0, 0, 0)" stroke="rgb(60, 60, 60)" stroke-width="1px" opacity="0.25"></line><line x1="116.015625" y1="0" x2="116.015625" y2="178" fill="rgb(0, 0, 0)" stroke="rgb(60, 60, 60)" stroke-width="1px" opacity="0.25"></line><line x1="139.21875" y1="0" x2="139.21875" y2="178" fill="rgb(0, 0, 0)" stroke="rgb(60, 60, 60)" stroke-width="1px" opacity="0.25"></line><line x1="162.421875" y1="0" x2="162.421875" y2="178" fill="rgb(0, 0, 0)" stroke="rgb(60, 60, 60)" stroke-width="1px" opacity="0.25"></line><line x1="185.625" y1="0" x2="185.625" y2="178" fill="rgb(0, 0, 0)" stroke="rgb(60, 60, 60)" stroke-width="1px" opacity="0.25"></line><line x1="208.828125" y1="0" x2="208.828125" y2="178" fill="rgb(0, 0, 0)" stroke="rgb(60, 60, 60)" stroke-width="1px" opacity="0.25"></line><line x1="232.03125" y1="0" x2="232.03125" y2="178" fill="rgb(0, 0, 0)" stroke="rgb(60, 60, 60)" stroke-width="1px" opacity="0.25"></line><line x1="255.234375" y1="0" x2="255.234375" y2="178" fill="rgb(0, 0, 0)" stroke="rgb(60, 60, 60)" stroke-width="1px" opacity="0.25"></line><line x1="278.4375" y1="0" x2="278.4375" y2="178" fill="rgb(0, 0, 0)" stroke="rgb(60, 60, 60)" stroke-width="1px" opacity="0.25"></line></g><g><line x1="0" y1="178" x2="278.4375" y2="178" fill="rgb(0, 0, 0)" stroke="rgb(60, 60, 60)" stroke-width="1px" opacity="0.25"></line><line x1="0" y1="163.16666666666666" x2="278.4375" y2="163.16666666666666" fill="rgb(0, 0, 0)" stroke="rgb(60, 60, 60)" stroke-width="1px" opacity="0.25"></line><line x1="0" y1="148.33333333333334" x2="278.4375" y2="148.33333333333334" fill="rgb(0, 0, 0)" stroke="rgb(60, 60, 60)" stroke-width="1px" opacity="0.25"></line><line x1="0" y1="133.5" x2="278.4375" y2="133.5" fill="rgb(0, 0, 0)" stroke="rgb(60, 60, 60)" stroke-width="1px" opacity="0.25"></line><line x1="0" y1="118.66666666666669" x2="278.4375" y2="118.66666666666669" fill="rgb(0, 0, 0)" stroke="rgb(60, 60, 60)" stroke-width="1px" opacity="0.25"></line><line x1="0" y1="103.83333333333334" x2="278.4375" y2="103.83333333333334" fill="rgb(0, 0, 0)" stroke="rgb(60, 60, 60)" stroke-width="1px" opacity="0.25"></line><line x1="0" y1="89.00000000000001" x2="278.4375" y2="89.00000000000001" fill="rgb(0, 0, 0)" stroke="rgb(60, 60, 60)" stroke-width="1px" opacity="0.25"></line><line x1="0" y1="74.16666666666669" x2="278.4375" y2="74.16666666666669" fill="rgb(0, 0, 0)" stroke="rgb(60, 60, 60)" stroke-width="1px" opacity="0.25"></line><line x1="0" y1="59.33333333333336" x2="278.4375" y2="59.33333333333336" fill="rgb(0, 0, 0)" stroke="rgb(60, 60, 60)" stroke-width="1px" opacity="0.25"></line><line x1="0" y1="44.50000000000002" x2="278.4375" y2="44.50000000000002" fill="rgb(0, 0, 0)" stroke="rgb(60, 60, 60)" stroke-width="1px" opacity="0.25"></line><line x1="0" y1="29.66666666666668" x2="278.4375" y2="29.66666666666668" fill="rgb(0, 0, 0)" stroke="rgb(60, 60, 60)" stroke-width="1px" opacity="0.25"></line><line x1="0" y1="14.83333333333334" x2="278.4375" y2="14.83333333333334" fill="rgb(0, 0, 0)" stroke="rgb(60, 60, 60)" stroke-width="1px" opacity="0.25"></line><line x1="0" y1="0" x2="278.4375" y2="0" fill="rgb(0, 0, 0)" stroke="rgb(60, 60, 60)" stroke-width="1px" opacity="0.25"></line></g></g></g><g><g><line x1="0" y1="163.16666666666666" x2="278.4375" y2="163.16666666666666" fill="rgb(0, 0, 0)" stroke="rgb(153, 153, 153)" stroke-width="1.5px"></line></g></g><g><g><line x1="23.203125" y1="0" x2="23.203125" y2="178" fill="rgb(0, 0, 0)" stroke="rgb(153, 153, 153)" stroke-width="1.5px"></line></g></g><g><g><g><g><g><path stroke="rgb(238, 51, 119)" stroke-width="2px" d="M32.67,-3.965700362461705L34.549453125,1.220785511779508L35.825625,5.61236775249926L35.895234375,8.309843146867365L36.220078125,10.365508658737275L36.312890624999994,11.63723700795711L37.426640625,12.48880781532565L37.589062500000004,13.119200550628523L38.61,13.826741323941272L39.30609375,14.571418348723475L40.628671875,15.38166793818187L41.3015625,16.05288494810623L34.920703125,22.418352714529377L35.291953125,25.92243550905548L36.591328125,27.814549335002354L37.7746875,28.7015735833872L38.19234375,29.33497567946202L38.401171874999996,29.713722562638942L38.772421875000006,30.353119327137804L38.842031250000005,30.685555327044256L39.86296875,31.59346414492963L41.324765625,32.60570849311254L41.835234375,33.49225804010194L41.90484375,34.001182560915794L42.09046875,34.34311219342259L43.01859375,34.82452343476442L43.413046875,35.23241372847138L43.714687500000004,35.63038628067722L39.02765625,42.556424638228606L40.41984375,46.00352263088844L42.531328125,48.47645027420416L42.809765625,50.1118148901949L43.552265625000004,51.224398521913486L43.691484375,51.94272283812369L44.155546875,52.62418949663645L44.2715625,53.105066419005425L45.315703125,53.98558499039811L45.594140625,54.5882731534338L39.654140625,60.49968279146927L40.46625,61.77259909755258L40.489453125,62.66807447063685L41.556796874999996,63.64598103078859L41.95125,64.52395568517443L41.997656250000006,64.98949110246261L42.113671875,65.2486116234654L42.693749999999994,65.62479953830602L42.716953125,65.82553368925151L42.995390625,66.15019888551491L43.111406249999995,66.33304095390315L43.784296875,66.50576384140776L44.132343750000004,66.4696015950465L44.2715625,66.50600256342236L47.334375,66.88422050765281L41.8584375,71.26534709945L42.995390625,71.88400097061006L45.478125,73.58414453289195L47.125546875000005,74.46845927648515L48.77296875,75.0938769667115L48.842578125,75.45338289472062L50.188359375,75.75421809672872L44.874843750000004,78.41041196695701L46.475859375,78.96928651319983L46.800703125,79.40406234574542L46.847109375,79.80185922490892L46.8703125,80.02889151875577L48.21609375,80.22311726115785L52.276640625,80.76486179174567L48.30890625,82.5431939658021L48.7265625,84.09615661480994L48.77296875,85.02535606490953L49.933125000000004,85.74399706364107L51.580546874999996,85.6555079975154L52.787109375,85.8198871508296L53.274375,85.92038901021415L53.436796875000006,85.96827686252395L49.167421875,86.26238109522383L49.817109375,87.44726744008057L50.466796875,87.88583244509694L51.673359375,88.53983893966992L53.111953125,88.71153961207263L55.385859374999995,88.55928885888534L56.10515625,88.49128665895151L56.221171874999996,88.53678757968083L51.1396875,89.50483666473151L51.441328125,91.78267768589768L51.487734375,92.73294030170509L53.36718750000001,92.46990796649975L55.501875,92.32522858813121L55.896328125000004,92.35114824554155L56.38359375,92.35987451343236L58.6575,92.14808328550158L59.4928125,92.10998264710764L59.585625,92.09407333787678L59.77125,92.05770838413477L55.617890625,93.73647112143342L55.942734375,94.46736213262263L56.824453125,94.74840036647747L57.102890625,94.85007479360041L58.077421875000006,94.9362154239635L59.655234375,94.89541568562709L59.864062499999996,94.9560621830145L59.933671875,95.00481383317626L61.697109375,95.02507493285688L61.743515625,95.02328523827603L56.244375000000005,96.32694265146857L56.894062500000004,97.98298663039887L59.33039062500001,97.95194941047758L61.418671875,97.68479833970822L61.789921875000005,97.55608017824309L62.114765625,97.41045609066218L63.53015625,97.21869705686568L59.028749999999995,98.29002071163812L59.77125,98.56753252789434L62.439609375,98.46017862664694L62.787656250000005,98.49191602850179L63.80859375,98.79634682010145L65.78085937499999,98.77485308848142L66.1753125,98.72522808990271L66.244921875,98.70175167251463L67.080234375,98.58985036807559L60.490546875,97.89354280350985L61.325859375,100.06189722846975L61.813125,100.84955248255152L63.251718749999995,100.52554833304059L63.71578125,100.34122498876556L66.291328125,100.02410575576646L66.523359375,99.9291228105308L68.124375,99.89584379094929L68.426015625,99.79708752253507L68.565234375,99.74180353016966L68.866875,99.69399715462116L63.43734375,100.58594247300697L63.971015625,101.4608688151793L64.08703125,102.20773026919105L65.456015625,102.10886960174088L66.012890625,101.59717109369502L68.797265625,101.48464059373102L70.050234375,101.22731253429468L70.723125,100.9502135967665L65.223984375,102.98322553567805L66.12890625,103.51071211377415L66.198515625,103.92601328301211L66.476953125,104.1920243891544L67.19625,104.46038680031698L69.609375,104.26668552212796L69.795,104.07840240192144L70.143046875,103.83770676965554L72.39375,103.51758866617106L72.99703124999999,103.20434879328225L73.50750000000001,102.98055494069305L68.890078125,103.69844031476526L69.075703125,104.23360740031927L70.02703125000001,104.02110885115145L72.16171874999999,103.90016823926575L73.64671875,103.61815392525399L74.29640624999999,103.49176225394848L74.31960937500001,103.39931257564332L74.76046875,103.28589121897126L75.29414062500001,103.21377314964397L75.735,103.09085937642732L70.11984375,103.47615606568463L70.35187499999999,104.14895272045658L70.421484375,104.72962581191058L70.76953125,106.10590622270263L71.535234375,106.03945083286855L75.618984375,105.46697787165539L75.75820312500001,105.12465584905881L77.3128125,104.9968119341052L77.9625,104.90840493507683L78.19453125,104.84491025329133L72.25453125,102.90458693655629L73.809140625,103.77108611992381L74.55164062499999,104.55593807100085L75.920625,104.83567614514926L76.732734375,104.97793210641125L77.660859375,105.33015139358588L80.306015625,105.14588358078808L74.366015625,106.71289055391796L74.505234375,107.57120787011375L76.10624999999999,106.69771463616762L77.1271875,106.54021843439783L77.800078125,106.42042382657397L77.91609375,106.33407553096535L78.124921875,106.23099553223405L80.213203125,106.00199993631813L80.2828125,105.86400490312718L80.9325,105.64978820468352L81.16453125,105.563815166863L82.5103125,105.3031651121252L83.322421875,105.087865126642L77.35921875,105.92986384581275L78.75140625,107.01505423913844L81.62859375000001,107.66627280313044L81.69820312499999,108.0582045976218L82.99757812499999,108.4439107416409L83.600859375,108.59185611635472L83.67046875,108.66688917932925L84.157734375,108.79632274423848L84.32015625,108.83176717826612L78.913828125,107.96126995286676L79.05304687499999,107.59447338065306L80.352421875,109.79269364206473L84.32015625,109.3082191232551L84.482578125,109.00016468467567L85.1090625,108.72220248601191L86.4084375,108.27497206104609L87.1509375,107.90823659085918L81.883828125,109.60542736520581L81.9534375,111.04445243320988L82.41749999999999,111.8506851222642L83.183203125,110.92554056802558L85.01625,110.07140028571584L85.178671875,109.5312267587314L85.4803125,109.28331390891853L86.8725,108.87259506309657L87.56859375,108.50689917281049L88.102265625,108.2235780883319L88.51992187500001,108.16162326704385L90.14414062499999,108.1833320345735L85.132265625,109.20068578439488L86.617265625,109.67538853000124L88.12546875,109.2954198053113L90.1209375,108.98872044467716L90.72421874999999,108.63634373416775L85.921171875,115.3408064544416L88.427109375,113.75611420672436L88.58953125,112.65923435808003L91.211484375,111.53338282100823L91.28109375,110.85524778441072L91.768359375,110.32568057502597L93.13734375,109.82895407751376L93.36937499999999,109.45762864555027L94.135078125,109.25482369147802L89.35523437500001,110.63476186603145L89.74968750000001,111.57724685039027L90.07453125,111.69722193022115L90.44578125,111.36863344633308L90.840234375,110.94487994744613L91.768359375,110.3637275646184L92.835703125,110.07620770633544L92.85890625,109.93249915977512L93.36937499999999,109.83500837648032L94.181484375,109.54505782543094L94.78476562499999,109.33808625073317L94.99359375,109.22977177102018L96.20015624999999,109.18976521769356L96.269765625,109.17651060588673L97.058671875,109.15702871104588L97.151484375,109.15217924686577L90.933046875,112.0719794903535L91.072265625,113.46585900034538L91.11867187499999,114.12126604584475L92.046796875,113.36826034308048L92.186015625,112.84522742383027L92.48765625,112.46004024954047L92.603671875,112.08585535970175L94.08867187499999,111.16022138687082L94.52953125,110.47291913564268L94.738359375,110.00126533668397L96.316171875,109.44414859390949L96.362578125,109.10856825933871L96.38578125000001,108.89320474163304L97.754765625,108.6311859327293L94.691953125,110.59677352732837L95.92171875,111.12184454734975L96.38578125000001,111.36407329083991L97.105078125,111.39795817598609L97.31390624999999,111.53927775421684L97.708359375,111.52949705639848L98.1028125,111.33597616902611L98.822109375,111.11533405712218L100.00546875,110.96027778584345L100.53914062499999,110.6601052065606L100.863984375,110.48589177011938L95.82890625,114.20460460432069L98.4740625,119.71589655984063L100.70156250000001,123.97154458746485L100.817578125,126.57250520220501L101.652890625,128.39168591875497L102.3721875,129.65508179612158L97.87078125,133.62261010853766L98.4740625,136.32221250523122L98.566875,137.82513896498475L98.938125,138.68649426623224L99.91265625,139.37056644473893L101.39765625000001,139.5260400854414L101.467265625,139.62771206396016L101.838515625,139.7500813323092L104.066015625,140.07363456991305L105.29578124999999,140.29566187366044L100.74796875,141.25881984653589L103.48593749999999,142.1598679472358L104.135625,142.72721892094717L105.504609375,142.97243462898L106.59515625,143.09609202284216L108.26578124999999,143.16045752409258L108.706640625,143.20591472929613L102.95226562500001,144.11376950748303L104.762109375,144.86330298746154L105.15656249999999,145.2413753817351L105.78304687500001,145.48503021398415L106.2703125,145.59778731663562L106.54875,145.62665985583985L106.896796875,145.69804605877235L106.989609375,145.76072264533738L107.3840625,145.79177140586475L108.219375,145.77125777041655L109.14750000000001,145.75907734673663L109.913203125,145.7560889788952L105.7134375,146.45790695459564L106.943203125,146.92872329241587L107.036015625,147.14799607606662L107.500078125,147.3491951474265L108.63703124999999,147.52997082464194L109.309921875,147.65167527690906L110.284453125,147.78318528411017L111.4678125,147.67208834535217L112.001484375,147.59680765000783L113.37046875,147.415109692779L113.440078125,147.30746530717622L108.196171875,147.80128499404196L108.8690625,148.3631636144853L109.65796875,148.64985925210334L110.470078125,148.81020604522715L111.00375,148.85294911733283L111.375,148.88996450188367L113.06882812500001,148.8580389961557L113.5096875,148.81318010359743L114.02015625,148.78108815433427L109.170703125,150.28158112117754L112.44234374999999,150.3565381204035L113.97375,150.31784878184078L114.136171875,150.32040728833087L114.345,150.30809152447665L114.73945312500001,150.28583267424594L115.017890625,150.27715753571644L115.157109375,150.28801056478295L116.52609375,150.24746073027774L117.68625,150.1705026601175L112.0246875,150.90763081557074L112.86,151.13915277786958L113.416875,151.32511434516059L113.486484375,151.44485716160582L115.22671875,151.58305103661488L115.3659375,151.6694070910327L116.06203125,151.71272152850503L116.27085937499999,151.76094708456282L116.363671875,151.8094766305706L116.50289062499999,151.84123217663097L118.63757812499999,151.72631774704215L118.66078125000001,151.66172743555242L118.84640625,151.56524715353845L118.93921875,151.48377908883373L119.333671875,151.42508169284193L114.0665625,151.2273617909594L114.507421875,151.33854762770198L115.296328125,151.51060874496378L117.63984375,151.78051999947118L119.101640625,151.91021171852364L120.168984375,151.98033123400455L121.18992187500001,152.02579713972398L121.63078125,152.00317076710058L116.43328125000001,152.49006606857296L117.7790625,152.84078651400597L118.312734375,153.1851520572038L121.236328125,153.43706476393928L121.282734375,153.59073968949073L122.025234375,153.6333954774667L122.74453125000001,153.67409573256944L124.11351562499999,153.60612150883662L120.679453125,154.18005057139786L121.236328125,154.5046418321943L121.44515625,154.68810020960262L122.65171875,154.58968236591554L122.721328125,154.5013910862573L126.225,154.37666562295564L126.54984375000001,154.2747738074061L122.164453125,154.4918660125611L122.65171875,154.5629574150728L125.737734375,154.70862289116104L127.408359375,154.620642172865L127.91882812499999,154.5410494039885L128.31328125,154.50749892773817L129.380625,154.4775646837508L123.41742187499999,154.92476863485308L124.925625,154.94883971455735L126.17859375,155.05765875007532L126.781875,155.1771940985868L126.897890625,155.2636573840906L128.5453125,155.20920766520877L129.380625,155.16428901977366L130.517578125,155.06872559722478L131.956171875,154.91253831418086L131.979375,154.81575246809956L126.016171875,154.85060471341436L126.341015625,154.79327647315714L127.315546875,154.95244001255782L131.19046875,155.04870026105453L131.909765625,155.08255270000583L132.698671875,155.05721314972413L134.11406250000002,154.9964647232042L134.34609375,154.96358669083594L128.4525,155.23794922102257L128.638125,155.45428137552003L129.218203125,155.57451940519368L129.635859375,155.58904355034883L129.68226562499999,155.6218575836161L130.2159375,155.49844158943134L130.239140625,155.4470453143456L130.26234374999999,155.39009084783027L130.331953125,155.32494336256602L130.77281250000001,155.3304973074151L131.584921875,155.32639122078936L132.30421875000002,155.3431632642157L133.209140625,155.3306962847237L133.441171875,155.3316010176852L135.50625,155.28083658653784L135.83109375,155.2110323480067L136.50398437500002,155.20517877119565L136.66640625,155.2094742052423L136.689609375,155.20105900820099L130.610390625,155.04484525396032L131.306484375,154.99839968725206L132.9075,155.20564919160302L134.044453125,155.3888339163651L134.81015625,155.50350803157428L135.691875,155.57086539181515L138.267421875,155.53306210286883L138.8475,155.51712276834726L138.917109375,155.51047261535214L132.373828125,154.56045702782725L133.02351562500002,155.2839477311817L133.835625,155.47854286986077L134.11406250000002,155.64031814669062L135.5990625,155.76941134463442L135.993515625,155.8904949328146L137.571328125,156.0622336949413L138.081796875,156.16615733020532L138.731484375,156.2030150309982L139.98445312500002,156.1319183334181L136.318359375,156.46357988314642L136.34156249999998,156.66160492696451L138.545859375,156.6829179253067L139.59,156.67218860244066L142.397578125,156.4917051653384L142.56,156.36180086197368L138.70828125,156.60292379614856L139.82203125,156.65502900515287L141.330234375,156.61336641888394L141.77109375,156.61687361874525L141.88710937500002,156.61261216260002L142.42078124999998,156.5355124932945L142.93125,156.47059698923948L143.418515625,156.35821492338889L144.99632812500002,156.19129236160546L139.47398437500001,156.42818544776537L140.819765625,156.62116705162106L141.84070312499998,156.74704488485722L142.51359375,156.84358107717634L146.806171875,156.81720333996495L147.15421874999998,156.78509357295283L147.223828125,156.77076207332917L147.73429687499998,156.74386223047838L147.873515625,156.70300012612262L142.23515625000002,156.82931572765463L142.583203125,156.97492372683894L143.650546875,156.90382181470918L143.975390625,156.84161486148037L144.230625,156.7913650696627L145.506796875,156.74846286526235L145.76203124999998,156.71233935972597L145.90125,156.6874390457305L147.270234375,156.51290686215359L147.89671875,156.37549067160725L148.430390625,156.26624435556673L150.054609375,156.21947405808814L150.56507812499999,156.17906978919297L144.578671875,156.549492302701L144.973125,156.90283946434565L145.135546875,157.0710854822789L146.06367187499998,157.2735902087526L146.481328125,157.47400214373886L146.620546875,157.5661901574323L146.69015625,157.56263589358267L148.45359375,157.39080213405254L148.476796875,157.2858056285832L148.523203125,157.21025277925654L149.56734375,157.04540428719793L150.286640625,156.90735871018097L150.913125,156.80005760741903L150.982734375,156.74193353108174L151.09875,156.69704227140508L152.398125,156.6398126104929L152.746171875,156.5809327579215L146.202890625,158.436337923259L146.249296875,158.68947792068153L147.38625,158.01380572626013L148.708828125,157.43540161446145L149.75296875,157.0300194621806L150.704296875,156.73734356318263L151.0059375,156.55203618320436L151.029140625,156.4438982653376L151.539609375,156.3331615918531L151.655625,156.2653275163166L151.910859375,156.19948822346484L154.48640625,156.03418121936215L154.973671875,155.95977027437462L149.822578125,156.4440973737123L149.8921875,156.73512951214803L149.915390625,156.92795933542467L151.029140625,156.88852437192887L151.586015625,156.82888946496263L152.931796875,156.8031213560471L154.648828125,156.8629141313097L155.576953125,156.7977545417703L155.762578125,156.74200521056L156.505078125,156.6100317442068L156.80671875000002,156.50917971205604L151.539609375,156.470588865808L153.0478125,156.53099025265257L153.581484375,156.65729753261337L155.530546875,156.72227444848735L155.60015625,156.7542434350728L155.71617187500001,156.7702021528927L157.27078125,156.77144462692624L157.6884375,156.75662844128144L159.428671875,156.65755292373936L153.581484375,156.70968441624268L153.60468749999998,156.7416902922123L157.247578125,156.6132606402554L158.222109375,156.50814657522346L158.2453125,156.44920373378062L159.753515625,156.3545870209805L159.892734375,156.25007323076755L160.356796875,156.12707796285807L160.496015625,156.04576498671526L160.98328125,155.9833239375799L161.1225,155.94962837800875L155.762578125,156.05202406747438L157.1315625,156.58630292775212L157.87406249999998,156.85036845552114L158.036484375,156.99837475149147L163.001953125,156.8736356976329L163.58203125,156.74731435622962L163.883671875,156.66641566850458L164.51015625,156.60189239003887L157.92046875,156.89610099585033L158.29171875,157.11612032428093L158.47734375000002,157.41676707610313L158.8021875,157.41779540803924L159.451875,157.36473742123582L161.052890625,157.15460232543631L161.1225,157.04763075300662L162.09703125000001,156.92240664813087L162.909140625,156.83112389119367L163.76765625,156.70758042596916L165.879140625,156.52906225043418L166.250390625,156.40010767083098L161.981015625,156.3956281427586L162.1434375,156.39119138473532L162.421875,156.29501475336707L163.605234375,156.29904641375478L163.883671875,156.32126054216744L165.971953125,156.28886639058186L166.04156250000003,156.24586702374376L162.70031250000002,156.25572967472328L162.793125,156.4425444962143L162.81632812499998,156.50429977247472L163.21078125,156.43626701644672L163.79085937500003,156.54950356420844L164.04609374999998,156.52549804659864L164.162109375,156.4677824819814L164.278125,156.38528869617366L165.06703124999999,156.34492775540582L165.2990625,156.36239508832116L165.90234375,156.35552698003025L166.946484375,156.3543869781103L167.48015625000002,156.3425113679532L168.663515625,156.29753041147572L169.220390625,156.26050336239368L169.66125,156.23366221980828L169.98609375,156.2034173331454L170.751796875,156.15929936101801L166.621640625,156.86346804041128L167.75859375000002,157.41448144677358L169.638046875,157.87210053764628L169.89328125,158.17327474716018L170.35734375,158.38939542271322L171.74953125,158.61077534202312L172.051171875,158.76721744935855L172.9096875,158.93257380496152L173.37375,159.05715976712517L173.62898437500002,159.15055212710746L169.10437499999998,159.75806721176374L172.376015625,160.11104127740265L173.2809375,160.3487519975527L173.953828125,160.50283185329184L174.85875000000001,160.5873946037063L175.9725,160.64843210172666L170.334140625,160.95620190320122L170.380546875,161.14996098645653L170.566171875,161.1804148374833L171.262265625,161.0984207045339L171.7959375,161.09149734323535L172.12078125,161.11247769804984L173.443359375,161.15727237239295L175.670859375,161.18624264423934L176.715,161.20204889096254L176.8078125,161.21527109571258L178.20000000000002,161.23031723391787L172.515234375,161.35548369360532L173.211328125,161.44723128950636L173.721796875,161.47685686045014L173.907421875,161.50453684219096L176.738203125,161.5176894084168L177.434296875,161.507054218956L177.944765625,161.5053050362417L178.71046875000002,161.51004517783815L180.4275,161.4781284784382L174.5803125,161.53717759704227L176.57578125,161.6096359918354L178.269609375,161.646762990619L178.8496875,161.65019616119483L179.151328125,161.64179867386272L179.36015625,161.63587488547137L181.19320312500003,161.60612218369147L182.5621875,161.60347990466616L178.455234375,161.7209260398058L178.80328125,161.7752433823143L180.636328125,161.7526339442985L182.074921875,161.7418727042401L182.655,161.72806536764148L184.720078125,161.74294498591271L178.826484375,161.87686521192083L179.63859375,161.88783127258532L180.404296875,161.85829828134862L181.355625,161.8375118071438L183.8615625,161.8619404808194L184.2328125,161.88136157321995L184.720078125,161.8791929794534L184.92890625,161.87222130923573L185.30015625,161.87564010468586L186.761953125,161.87707436584907L186.78515624999997,161.87824680136725L187.11,161.87785227682443L182.91023437500002,161.9765186133658L183.21187500000002,162.0368117041742L183.467109375,162.06887685324133L185.787421875,162.02284814356992L187.34203125,161.993084789202L188.3165625,161.97500839509686L185.23054687500002,161.91705028992766L187.179609375,161.9270908218535L187.226015625,161.9361027455973L188.154140625,161.94370244552576L188.17734374999998,161.94904085736405L188.20054687500001,161.95220533405302L188.57179687500002,161.95306488448617L188.8734375,161.950169564481L188.91984374999998,161.9488534972988L191.216953125,161.96664026355282L187.9453125,161.9499207536163L189.4303125,161.95908904608282L189.56953124999998,161.962075042692L189.70875,161.96047465456553L189.8015625,161.9640045594108L189.824765625,161.96752595700912L191.565,161.9781514738138L192.493125,161.9900132318816L193.76929687499998,162.0040955895845L189.546328125,162.06771862758183L189.8015625,162.0983335333744L189.9871875,162.10204080153082L191.10093750000001,162.11332752432816L192.5859375,162.1211785349457L192.655546875,162.12797197130075L193.37484375,162.13668385979832L193.606875,162.13844498808066L193.76929687499998,162.13917486644215L194.186953125,162.13268921074376L195.50953125,162.13357960926507L195.97359375,162.1305993542518L196.043203125,162.12959379936433L196.53046874999998,162.12325933392947L191.773828125,162.1283962705698L193.8853125,162.1682727563386L193.93171875000002,162.19492197874217L194.67421875000002,162.20963258246152L195.091875,162.21772762643536L194.90625,162.173889588049L195.50953125,162.1518419437121L196.53046874999998,162.13699851113125L197.806640625,162.14337782928385L199.245234375,162.142662179062L199.546875,162.14378646377827L194.92945312499998,162.45175474164722L195.60234375000002,162.45994881793064L196.507265625,162.40431535010558L198.01546875,162.35999842959407L203.004140625,162.32332258372662L198.085078125,162.22791846252477L198.688359375,162.24018186511293L199.198828125,162.26415856079777L199.63968749999998,162.28732415487778L200.10375,162.3062315314536L200.21976562499998,162.3117821617886L200.591015625,162.31337460576285L200.869453125,162.31669187453164L201.240703125,162.31365846700038L201.8671875,162.3070842321484L203.445,162.31728638521943L204.581953125,162.30399009839712L204.88359375,162.2921189524592L205.06921875,162.28598663487452L200.52140624999998,162.3280371118168L202.19203124999999,162.31880832488568L202.957734375,162.3154435672128L203.12015625,162.3174165017936L203.32898437499998,162.32064233940292L204.489140625,162.3206962633418L204.55875,162.3205913556588L205.04601562500002,162.3236065842741L205.32445312500002,162.32153364795644L205.7653125,162.3126563702218L206.20617187500002,162.31374965665393L202.6096875,162.38225803217134L204.489140625,162.37672112126654L204.51234375,162.37499403816912L205.30124999999998,162.38502948642991L205.742109375,162.3898370859199L206.809453125,162.38336959116697L208.480078125,162.3788945131483L208.59609375,162.36879143080756L209.199375,162.3578512805401L210.26671875,162.34454355688086L210.614765625,162.33806615278837L205.7653125,162.40556547888548L206.76304687500001,162.43222832533525L207.227109375,162.4314311598036L207.366328125,162.42886124440292L207.66796875,162.42219907270578L208.31765625,162.43160667393133L209.31539062500002,162.4433474322693L211.798125,162.44749822208752L212.378203125,162.44447146902414L212.540625,162.43950504876634L212.6334375,162.43648433297102L208.1784375,162.4355025488564L208.248046875,162.44051381408494L209.176171875,162.44054576097025L211.357265625,162.43015779700482L211.68210937499998,162.43128130281184L212.07656250000002,162.43461670960266L212.099765625,162.4371001667397L213.074296875,162.44691819019317L215.37140624999998,162.45226224930656L212.6334375,162.46762460938783L213.863203125,162.4657509039642L216.369140625,162.459789409263L216.62437500000001,162.4590303906315L212.72625,162.4591058476004L214.09523437500002,162.46620085959037L214.95375,162.4662396836369L215.441015625,162.4661120395465L216.29953125,162.46620299678167L217.13484375000002,162.46526308438848L217.158046875,162.4652115487705L217.738125,162.46663621845994L219.17671875,162.4662307126561L214.07203125,162.51478325158416L214.67531250000002,162.54550461646082L215.60343749999998,162.5556043609922L216.67078125,162.5633406392576L218.178984375,162.5620865482072L218.34140625,162.55392962400248L218.52703125000002,162.5463145975394L219.64078125,162.5409102945873L219.849609375,162.5374646102994L221.21859375,162.52836177386249L221.520234375,162.5222459221998L218.132578125,162.4910757889173L218.411015625,162.47920686117243L219.17671875,162.47189046974586L220.15124999999998,162.46272287681813L221.659453125,162.45461157925743L223.37648437500002,162.45738790401012L224.46703125000002,162.45701319686736L218.550234375,162.4306355873351L219.223125,162.44369560928521L219.896015625,162.4632219391771L220.19765625000002,162.47978688913085L220.26726562500002,162.48919507384298L221.798671875,162.49069822399068L221.86828125,162.49173497238206L222.866015625,162.49260692785998L223.7709375,162.4801979055081L224.00296875,162.4691856681972L225.30234375,162.4595424529465L221.613046875,162.44169962236595L221.77546875,162.43987045167722L221.798671875,162.44230371701022L221.96109375,162.42145179688814L223.469296875,162.4529028213936L224.118984375,162.47945903315153L224.397421875,162.49640307849302L224.69906250000003,162.5036632139523L224.861484375,162.50590284046268L227.50664062500002,162.5037168156459L227.599453125,162.49702056650693L228.2259375,162.4983647952986L228.27234375,162.49863388866757L223.07484375,162.51979873100515L223.60851562500002,162.53759918150064L225.23273437499998,162.5364744737452L225.46476562499998,162.53128000334632L225.85921875,162.5280434654796L226.021640625,162.52989045046135L226.09125,162.52931883913695L226.41609375000002,162.51814148173432L226.671328125,162.50997226500184L229.82695312500002,162.49462859662327L230.68546875,162.4808654227522L225.20953125,162.41972223129872L225.371953125,162.4641151394616L226.88015625,162.40816919664067L227.460234375,162.40111906685644L227.6690625,162.3958853017159L227.9475,162.40762595594134L228.38835937500002,162.41556418190274L228.7828125,162.4313058432184L229.130859375,162.43550134035402L230.03578125,162.4425304100486L230.31421875,162.44669267628026L230.894296875,162.45021345056406L231.590390625,162.4527693643782L231.7528125,162.4541616167519L233.09859375,162.46316173907726L227.41382812499998,162.61416397865952L227.8546875,162.57442477277968L228.017109375,162.57618661643795L229.08445312499998,162.54766466341206L230.29101562499997,162.51581662643028L230.360625,162.48694440572305L231.172734375,162.44778112896338L233.330625,162.44395860523565L234.11953125,162.4501296114857L234.189140625,162.45225756979596L235.395703125,162.45683001535602L235.41890625000002,162.45995244529823L235.90617187499998,162.46336943818318L230.430234375,162.53061670218074L231.05671875,162.5336043650781L232.44890625,162.54059040274967L232.472109375,162.54505508509575L233.07539062499998,162.53043669395527L233.35382812499998,162.52405694205044L233.701875,162.51825072706578L234.16593749999998,162.5182577034285L234.374765625,162.51040579217377L234.58359375,162.49953788453212L235.2796875,162.4941778717967L236.41664062499999,162.49506906066034L237.6928125,162.48567683801022L238.43531249999998,162.48202683082948L232.19367187499998,162.5155901083081L233.8875,162.50616509578995L235.69734375000002,162.50831150709266L237.414375,162.49602162875686L238.551328125,162.48473634127797L239.386640625,162.48314026291087L240.825234375,162.47973740084169L235.859765625,162.5145019155857L235.92937500000002,162.53901362392008L237.6928125,162.54766213759652L238.18007812500002,162.5584259139391L238.36570312499998,162.56370742293797L238.66734375,162.5603734007459L238.71374999999998,162.55750045614576L238.85296875,162.5588675168011L240.33796875,162.5572761352968L241.12687499999998,162.5474800612695L241.17328125,162.54127655763926L241.19648437499998,162.5375539857641L243.191953125,162.53753343395613L243.2615625,162.53740657968655L237.1359375,162.5096109936585L241.103671875,162.51710455453346L241.26609375,162.52110422130994L242.79749999999999,162.51326562102577L242.91351562499997,162.50979933888033L243.88804687500001,162.4995413985122L245.326640625,162.49725483790152L245.72109375,162.4996989135178L245.744296875,162.50134613698117L240.52359375,162.50548436978195L240.98765625000001,162.50519341701755L241.846171875,162.51404310654544L241.86937500000002,162.51966405309307L241.938984375,162.51156778025867L243.470390625,162.51432919292841L244.676953125,162.52078034851468L245.025,162.52325358271955L245.373046875,162.52154993824132L245.744296875,162.52112255375516L246.0459375,162.52320618123866L246.85804687499999,162.53007039752737L247.29890625,162.53521294968854L247.46132812500002,162.53873880812546L246.115546875,162.50824726543487L247.507734375,162.49317120111732L248.203828125,162.4802544025883L248.6446875,162.47420255448498L243.95765624999999,162.4421989551549L244.862578125,162.46770391160686L244.955390625,162.48206564028226L245.16421874999997,162.48924885826557L245.3034375,162.4921366846298L245.883515625,162.48264782135098L247.20609375,162.46399782824165L248.203828125,162.4349020978966L250.59375,162.40679842418137L252.00914062500001,162.38626227750302L246.533203125,162.35788300226733L247.29890625,162.42216272631646L248.15742187499998,162.47068844145903L249.82804687499998,162.4961126321934L249.967265625,162.5092709164698L250.17609374999998,162.51930892112628L251.42906250000001,162.5228232655492L253.16929687500001,162.53209834353527L253.401328125,162.53975597343188L253.958203125,162.54674332612805L248.87671875,162.5862189633343L250.91859375,162.58019625790325L251.730703125,162.5759934135496L253.14609375,162.56614310724603L253.58695312499998,162.56102135135322L254.5846875,162.55833449928366L256.18570312500003,162.5538955027217L250.941796875,162.56528300820415L251.452265625,162.54293293181485L254.422265625,162.54894483006552L256.76578125000003,162.53583589419657L258.04195312499996,162.53403625523012L258.39,162.53402823755866L253.23890624999999,162.54520152526433L254.0278125,162.53519472788176L255.74484375,162.5266972766443L256.11609375,162.52511987578615L256.371328125,162.51707026251947L257.160234375,162.51971594364224L259.016484375,162.52781956957L260.431875,162.54098808823505L260.455078125,162.5492755114172L260.803125,162.55423520061922L261.800859375,162.55726138223838L255.5128125,162.5214736728671L256.510546875,162.4879991003654L256.6265625,162.46530585302853L258.2971875,162.48599317645892L261.568828125,162.48236080325412L261.6384375,162.48069489631862L262.1025,162.48232283727862L262.12570312500003,162.48340931755226L262.1953125,162.48431354353232L264.30679687500003,162.49037897006812" style="fill: none;" fill="none"></path></g></g></g></g><g opacity="0.2"><g><g><g><path stroke="rgb(238, 51, 119)" stroke-width="2px" d="M37.658671875,-13.41904179255165L32.67,15.053571502367669L34.549453125,9.000514189402276L35.825625,12.199741045633965L35.895234375,12.356056213378926L36.220078125,13.449006915092488L36.312890624999994,13.544829527537042L37.426640625,13.766164024670925L37.589062500000004,14.064789652824421L38.61,14.888052483399715L39.30609375,15.68843388557436L40.628671875,16.597042322158835L41.3015625,17.059710462888088L34.920703125,31.96655436356865L35.291953125,31.178559700648023L36.591328125,30.65272007385893L37.7746875,30.032109955946638L38.19234375,30.285078823566458L38.401171874999996,30.281842887401602L38.772421875000006,31.312214473883344L38.842031250000005,31.18420932690306L39.86296875,32.95532737175627L41.324765625,34.12407501538597L41.835234375,34.822082360585554L41.90484375,34.764569342136404L42.09046875,34.85600664218269L43.01859375,35.54664029677711L43.413046875,35.84424916903181L43.714687500000004,36.22734510898592L39.02765625,52.94548217455547L40.41984375,51.17416961987816L42.531328125,52.185841739177725L42.809765625,52.56486181418102L43.552265625000004,52.89327396949135L43.691484375,53.020209312438986L44.155546875,53.64638948440554L44.2715625,53.82638180255892L45.315703125,55.306362847487144L45.594140625,55.49230539798739L39.654140625,69.36679724852246L40.46625,63.68197355667751L40.489453125,64.01128753026329L41.556796874999996,65.1128408710162L41.95125,65.84091766675316L41.997656250000006,65.68779422839485L42.113671875,65.63729240496956L42.693749999999994,66.18908141056698L42.716953125,66.12663491566978L42.995390625,66.63719667991005L43.111406249999995,66.60730405648552L43.784296875,66.76484817266466L44.132343750000004,66.41535822550458L44.2715625,66.56060401598614L47.334375,67.45154742399853L41.8584375,77.83703698714577L42.995390625,72.81198177735013L45.478125,76.13435987631482L47.125546875000005,75.79493139187497L48.77296875,76.03200350205105L48.842578125,75.99264178673428L50.188359375,76.20547089974087L44.874843750000004,82.39470277229947L46.475859375,79.80759833256405L46.800703125,80.05622609456383L46.847109375,80.39855454365414L46.8703125,80.36943995952608L48.21609375,80.51445587476097L52.276640625,81.57747858762743L48.30890625,85.21069222688676L48.7265625,86.4256005883217L48.77296875,86.41915524005891L49.933125000000004,86.82195856173836L51.580546874999996,85.52277439832689L52.787109375,86.0664558808009L53.274375,86.071141799291L53.436796875000006,86.04010864098869L49.167421875,86.70353744427365L49.817109375,89.22459695736569L50.466796875,88.54367995262147L51.673359375,89.52084868152939L53.111953125,88.9690906206767L55.385859374999995,88.33091272910438L56.10515625,88.38928335905076L56.221171874999996,88.60503896077476L51.1396875,90.95691029230755L51.441328125,95.19943921764694L51.487734375,94.1583342254162L53.36718750000001,92.07535946369173L55.501875,92.1082095205784L55.896328125000004,92.39002773165704L56.38359375,92.3729639152686L58.6575,91.83039644360544L59.4928125,92.05283168951672L59.585625,92.07020937403045L59.77125,92.00316095352174L55.617890625,96.25461522738141L55.942734375,95.56369864940645L56.824453125,95.16995771725975L57.102890625,95.00258643428486L58.077421875000006,95.06542636950813L59.655234375,94.83421607812248L59.864062499999996,95.04703192909561L59.933671875,95.07794130841893L61.697109375,95.05546658237778L61.743515625,95.0206006964048L56.244375000000005,98.28242877125741L56.894062500000004,100.46705259879433L59.33039062500001,97.90539358059567L61.418671875,97.28407173355423L61.789921875000005,97.36300293604535L62.114765625,97.19201995929085L63.53015625,96.93105850617093L59.028749999999995,99.89700619379681L59.77125,98.98380025227867L62.439609375,98.29914777477585L62.787656250000005,98.5395221312841L63.80859375,99.25299300750099L65.78085937499999,98.74261249105137L66.1753125,98.65079059203468L66.244921875,98.66653704643251L67.080234375,98.42199841141702L60.490546875,96.84908145666124L61.325859375,103.31442886590958L61.813125,102.03103536367416L63.251718749999995,100.0395421087742L63.71578125,100.064739972353L66.291328125,99.54842690626782L66.523359375,99.78664839267732L68.124375,99.845925261577L68.426015625,99.64895311991376L68.565234375,99.65887754162155L68.866875,99.62228759129844L63.43734375,101.9238604505857L63.971015625,102.7732583284378L64.08703125,103.32802245020866L65.456015625,101.96057860056561L66.012890625,100.82962333162628L68.797265625,101.31584484378499L70.050234375,100.84132044514023L70.723125,100.53456519047421L65.223984375,106.03274344404541L66.12890625,104.30194198091827L66.198515625,104.54896503686905L66.476953125,104.59104104836784L67.19625,104.86293041706085L69.609375,103.97613360484443L69.795,103.79597772161168L70.143046875,103.47666332125664L72.39375,103.03741151094437L72.99703124999999,102.73448898394905L73.50750000000001,102.64486416180931L68.890078125,104.77526837587357L69.075703125,105.03635802865028L70.02703125000001,103.70236102739972L72.16171874999999,103.71875732143722L73.64671875,103.19513245423637L74.29640624999999,103.3021747469902L74.31960937500001,103.26063805818558L74.76046875,103.11575918396316L75.29414062500001,103.10559604565304L75.735,102.90648871660233L70.11984375,104.05410109957062L70.35187499999999,105.15814770261449L70.421484375,105.60063544909161L70.76953125,108.17032683889073L71.535234375,105.93976774811745L75.618984375,104.60826842983566L75.75820312500001,104.61117281516395L77.3128125,104.80504606167477L77.9625,104.77579443653427L78.19453125,104.7496682306131L72.25453125,99.99410196145378L73.809140625,105.07083489497505L74.55164062499999,105.73321599761647L75.920625,105.25528325637184L76.732734375,105.19131604830426L77.660859375,105.85848032434784L80.306015625,104.86948186159134L74.366015625,109.06340101361275L74.505234375,108.85868384440742L76.10624999999999,105.38747478524846L77.1271875,106.30397413174313L77.800078125,106.24073191483818L77.91609375,106.20455308755241L78.124921875,106.07637553413711L80.213203125,105.65850654244423L80.2828125,105.6570123533408L80.9325,105.32846315701805L81.16453125,105.43485561013222L82.5103125,104.91219003001851L83.322421875,104.76491514841717L77.35921875,107.19286192456883L78.75140625,108.64283982912701L81.62859375000001,108.64310064911842L81.69820312499999,108.6461022893588L82.99757812499999,109.0224699576696L83.600859375,108.81377417842549L83.67046875,108.77943877379101L84.157734375,108.99047309160233L84.32015625,108.88493382930756L78.913828125,106.65552411476773L79.05304687499999,107.04427852233253L80.352421875,113.09002403418225L84.32015625,108.58150734504066L84.482578125,108.53808302680653L85.1090625,108.30525918801628L86.4084375,107.60412642359734L87.1509375,107.35813338557881L81.883828125,112.15121352672577L81.9534375,113.20299003521603L82.41749999999999,113.06003415584564L83.183203125,109.53782373666763L85.01625,108.79018986225128L85.178671875,108.72096646825474L85.4803125,108.91144463419914L86.8725,108.25651679436368L87.56859375,107.95835533738136L88.102265625,107.798596461614L88.51992187500001,108.06869103511177L90.14414062499999,108.21589518586796L85.132265625,110.72671640912694L86.617265625,110.3874426484108L88.12546875,108.72546671827637L90.1209375,108.52867140372597L90.72421874999999,108.10777866840363L85.921171875,125.39750053485236L88.427109375,111.37907583514851L88.58953125,111.01391458511353L91.211484375,109.84460551540059L91.28109375,109.83804522951446L91.768359375,109.53132976094884L93.13734375,109.08386433124542L93.36937499999999,108.90064049760502L94.135078125,108.95061626036964L89.35523437500001,112.70466912786168L89.74968750000001,112.99097432692848L90.07453125,111.87718454996747L90.44578125,110.87575072050095L90.840234375,110.30924969911575L91.768359375,109.49199899037681L92.835703125,109.64492791891098L92.85890625,109.71693633993469L93.36937499999999,109.68877220153809L94.181484375,109.11013199885689L94.78476562499999,109.02762888868652L94.99359375,109.06730005145073L96.20015624999999,109.1297553877036L96.269765625,109.1566286881765L97.058671875,109.1278058687846L97.151484375,109.14490505059563L90.933046875,116.4516798555851L91.072265625,115.55667826533318L91.11867187499999,115.10437661409378L92.046796875,112.2387517889341L92.186015625,112.06067804495495L92.48765625,111.88225948810577L92.603671875,111.5245780249437L94.08867187499999,109.7717704276244L94.52953125,109.4419657588005L94.738359375,109.29378463824592L96.316171875,108.60847347974777L96.362578125,108.60519775748253L96.38578125000001,108.57015946507454L97.754765625,108.2381577193737L94.691953125,113.54515491922699L95.92171875,111.90945107738179L96.38578125000001,111.72741640607518L97.105078125,111.44878550370537L97.31390624999999,111.75125712156296L97.708359375,111.51482600967091L98.1028125,111.04569483796757L98.822109375,110.78437088926636L100.00546875,110.72769337892532L100.53914062499999,110.20984633763634L100.863984375,110.22457161545753L95.82890625,119.78267385562263L98.4740625,127.98283449312052L100.70156250000001,130.35501662890118L100.817578125,130.47394612431526L101.652890625,131.12045699357986L102.3721875,131.5501756121715L97.87078125,139.5739025771618L98.4740625,140.37161610027155L98.566875,140.0795286546151L98.938125,139.9785272181034L99.91265625,140.396674712499L101.39765625000001,139.75925054649514L101.467265625,139.78022003173828L101.838515625,139.93363523483276L104.066015625,140.55896442631882L105.29578124999999,140.6287028292815L100.74796875,142.70355680584908L103.48593749999999,143.51144009828568L104.135625,143.57824538151425L105.504609375,143.34025819102925L106.59515625,143.2815781136354L108.26578124999999,143.25700577596825L108.706640625,143.27410053710145L102.95226562500001,145.47555167476338L104.762109375,145.98760320742926L105.15656249999999,145.80848397314548L105.78304687500001,145.8505124623577L106.2703125,145.76692297061285L106.54875,145.66996866464615L106.896796875,145.8051253631711L106.989609375,145.85473752518496L107.3840625,145.83834454665583L108.219375,145.74048731724423L109.14750000000001,145.74080671121678L109.913203125,145.75160642713308L105.7134375,147.5106339181463L106.943203125,147.63494779914618L107.036015625,147.47690525154275L107.500078125,147.65099375446638L108.63703124999999,147.80113434046507L109.309921875,147.83423195530972L110.284453125,147.98045029491186L111.4678125,147.50544293721518L112.001484375,147.4838866069913L113.37046875,147.14256275693577L113.440078125,147.145998728772L108.196171875,148.54201452434063L108.8690625,149.20598154515028L109.65796875,149.07990270853043L110.470078125,149.05072623491287L111.00375,148.91706372549137L111.375,148.94548757870993L113.06882812500001,148.8101507375638L113.5096875,148.74589176476002L114.02015625,148.7329502304395L109.170703125,152.53232057144245L112.44234374999999,150.46897361924252L113.97375,150.25981477399668L114.136171875,150.324245048066L114.345,150.28961787869534L114.73945312500001,150.25244439889988L115.017890625,150.2641448279222L115.157109375,150.3042901083827L116.52609375,150.18663597851992L117.68625,150.05506555487713L112.0246875,152.01332304875058L112.86,151.48643572131795L113.416875,151.60405669609708L113.486484375,151.6244713862737L115.22671875,151.79034184912842L115.3659375,151.7989411726594L116.06203125,151.77769318471354L116.27085937499999,151.83328541864952L116.363671875,151.88227094958228L116.50289062499999,151.88886549572152L118.63757812499999,151.55394610265893L118.66078125000001,151.56484196831784L118.84640625,151.42052673051757L118.93921875,151.36157699177664L119.333671875,151.33703559885424L114.0665625,150.93078193813562L114.507421875,151.50532638281584L115.296328125,151.76870042085648L117.63984375,152.18538688123226L119.101640625,152.1047492971023L120.168984375,152.085510507226L121.18992187500001,152.09399599830311L121.63078125,151.9692312081655L116.43328125000001,153.22040902078152L117.7790625,153.36686718215546L118.312734375,153.70170037200054L121.236328125,153.8149338240425L121.282734375,153.82125207781792L122.025234375,153.69737915943068L122.74453125000001,153.73514611522359L124.11351562499999,153.50416017323732L120.679453125,155.04094416523975L121.236328125,154.9915287233889L121.44515625,154.9632877757152L122.65171875,154.4420556003849L122.721328125,154.36895416676998L126.225,154.18957742800316L126.54984375000001,154.12193608408174L122.164453125,154.81750432029366L122.65171875,154.6695945188403L125.737734375,154.92712110529345L127.408359375,154.48867109542093L127.91882812499999,154.4216602506737L128.31328125,154.4571732133627L129.380625,154.43266331776977L123.41742187499999,155.5955745615065L124.925625,154.9849463341137L126.17859375,155.22088730335236L126.781875,155.35649712135395L126.897890625,155.3933523123463L128.5453125,155.12753308688602L129.380625,155.09691105162105L130.517578125,154.9253804634015L131.956171875,154.678257389615L131.979375,154.67057369897765L126.016171875,154.9028830813865L126.341015625,154.70728411277136L127.315546875,155.19118532165885L131.19046875,155.19309063379964L131.909765625,155.13333135843277L132.698671875,155.01920382430157L134.11406250000002,154.90534208342433L134.34609375,154.91426964228353L128.4525,155.64949301630259L128.638125,155.7787796072662L129.218203125,155.75487644970417L129.635859375,155.61082976808152L129.68226562499999,155.67107863351703L130.2159375,155.31331759815416L130.239140625,155.36995090171695L130.26234374999999,155.3046591480573L130.331953125,155.22722213466963L130.77281250000001,155.33882822468877L131.584921875,155.32023209085068L132.30421875000002,155.36832132935524L133.209140625,155.31199581548572L133.441171875,155.33295811712742L135.50625,155.2046899398168L135.83109375,155.10632599021L136.50398437500002,155.1963984059791L136.66640625,155.21591735631227L136.689609375,155.18843621263903L130.610390625,154.8105246225993L131.306484375,154.92873133718967L132.9075,155.5165234481295L134.044453125,155.66361100350818L134.81015625,155.67551920438808L135.691875,155.67190143217644L138.267421875,155.47635716944933L138.8475,155.49321376656493L138.917109375,155.5004973858595L132.373828125,153.13543364653987L133.02351562500002,156.3691837862134L133.835625,155.77043557787937L134.11406250000002,155.88298106193542L135.5990625,155.96305114155015L135.993515625,156.07212031508487L137.571328125,156.31984183813137L138.081796875,156.3220427831014L138.731484375,156.2583015821874L139.98445312500002,156.02527328704795L136.318359375,156.96107220773897L136.34156249999998,156.9586424926917L138.545859375,156.71488742281994L139.59,156.65609461814165L142.397578125,156.22098000968498L142.56,156.16694440692663L138.70828125,156.9646081974109L139.82203125,156.7331868186593L141.330234375,156.55087253948054L141.77109375,156.62213441853723L141.88710937500002,156.6062199783822L142.42078124999998,156.41986298933625L142.93125,156.37322373315692L143.418515625,156.18964182461303L144.99632812500002,155.94090851893029L139.47398437500001,156.78352507700524L140.819765625,156.9106394574046L141.84070312499998,156.93586163471144L142.51359375,156.98838536565503L146.806171875,156.77763673414788L147.15421874999998,156.73692892243466L147.223828125,156.74926482389372L147.73429687499998,156.7035124662022L147.873515625,156.641706969589L142.23515625000002,157.0187891299526L142.583203125,157.19333572561544L143.650546875,156.79716894651455L143.975390625,156.74830443163714L144.230625,156.71599038193625L145.506796875,156.6841095586618L145.76203124999998,156.65815410142145L145.90125,156.6500885747373L147.270234375,156.25110858678818L147.89671875,156.16936638578773L148.430390625,156.10237488150597L150.054609375,156.14931861187023L150.56507812499999,156.1184633858502L144.578671875,157.1051260729631L144.973125,157.43286020681262L145.135546875,157.32345450917882L146.06367187499998,157.5773472984632L146.481328125,157.77462004621825L146.620546875,157.7044721779724L146.69015625,157.55730449780822L148.45359375,157.13305149475735L148.476796875,157.1283108703792L148.523203125,157.09692350526652L149.56734375,156.79813154911002L150.286640625,156.7002903446555L150.913125,156.63910595327616L150.982734375,156.65474741657576L151.09875,156.62970538189015L152.398125,156.5539681191246L152.746171875,156.4926129790644L146.202890625,161.21944567126533L146.249296875,159.06918791681528L147.38625,157.000297434628L148.708828125,156.56779544676345L149.75296875,156.42194623375934L150.704296875,156.29832971468568L151.0059375,156.2740751132369L151.029140625,156.2816913885375L151.539609375,156.16705658162635L151.655625,156.1635764030119L151.910859375,156.10072928418717L154.48640625,155.78622071320814L154.973671875,155.8481538568934L149.822578125,157.17058802271885L149.8921875,157.17167771980166L149.915390625,157.21720407033962L151.029140625,156.82937192668518L151.586015625,156.73943710451326L152.931796875,156.76446919267377L154.648828125,156.9526032942037L155.576953125,156.70001515746117L155.762578125,156.6583812137445L156.505078125,156.41207154467702L156.80671875000002,156.3579016638299L151.539609375,156.41270259643596L153.0478125,156.62159233291945L153.581484375,156.84675845255455L155.530546875,156.8197398222983L155.60015625,156.80219691495103L155.71617187500001,156.79414022962254L157.27078125,156.77330833797654L157.6884375,156.73440416281423L159.428671875,156.50893964742622L153.581484375,156.78788165499768L153.60468749999998,156.78969910616678L157.247578125,156.42061616232L158.222109375,156.35047547767562L158.2453125,156.36078947161636L159.753515625,156.21266195178032L159.892734375,156.09330254544815L160.356796875,155.94258506099385L160.496015625,155.92379552250108L160.98328125,155.8896623638769L161.1225,155.89908503865203L155.762578125,156.20561760167283L157.1315625,157.38772121816874L157.87406249999998,157.24646674717468L158.036484375,157.22038419544697L163.001953125,156.68652711684507L163.58203125,156.55783234412473L163.883671875,156.54506763691705L164.51015625,156.50510747234028L157.92046875,157.33741390456757L158.29171875,157.4461493169268L158.47734375000002,157.86773720383644L158.8021875,157.4193379059434L159.451875,157.28515044103068L161.052890625,156.83939968173704L161.1225,156.88717339436215L162.09703125000001,156.73457049081725L162.909140625,156.69419975578785L163.76765625,156.52226522813243L165.879140625,156.26128498713177L166.250390625,156.20667580142617L161.981015625,156.38890885065L162.1434375,156.38453624770045L162.421875,156.1507498063147L163.605234375,156.3050939043363L163.883671875,156.35458173478645L165.971953125,156.24027516320348L166.04156250000003,156.1813679734866L162.70031250000002,156.2705236511926L162.793125,156.72276672845086L162.81632812499998,156.59693268686533L163.21078125,156.33421788240474L163.79085937500003,156.719358385851L164.04609374999998,156.48948977018398L164.162109375,156.38120913505554L164.278125,156.2615480174621L165.06703124999999,156.28438634425402L165.2990625,156.38859608769417L165.90234375,156.3452248175939L166.946484375,156.3526769752304L167.48015625000002,156.32469795271754L168.663515625,156.23005897675952L169.220390625,156.20496278877062L169.66125,156.19340050593019L169.98609375,156.15805000315112L170.751796875,156.09312240282696L166.621640625,157.91972105950117L167.75859375000002,158.24100155631703L169.638046875,158.55852917395532L169.89328125,158.62503606143096L170.35734375,158.71357643604279L171.74953125,158.942845220988L172.051171875,159.0018806103617L172.9096875,159.18060833836594L173.37375,159.24403871037066L173.62898437500002,159.29064066708088L169.10437499999998,160.6693398387482L172.376015625,160.64050237586102L173.2809375,160.70531807777783L173.953828125,160.7339516369005L174.85875000000001,160.71423872932792L175.9725,160.73998834875724L170.334140625,161.41785660541305L170.380546875,161.44059961133948L170.566171875,161.2260956140235L171.262265625,160.9754295051098L171.7959375,161.08111230128756L172.12078125,161.14394823027155L173.443359375,161.22446438390762L175.670859375,161.22969805200896L176.715,161.2257582610473L176.8078125,161.23510440283766L178.20000000000002,161.2528864412258L172.515234375,161.54323338313648L173.211328125,161.5848526833579L173.721796875,161.52129521686584L173.907421875,161.5460568148022L176.738203125,161.53741825775555L177.434296875,161.49110143476477L177.944765625,161.50268126217028L178.71046875000002,161.5171553902328L180.4275,161.43025342933834L174.5803125,161.62575127494833L176.57578125,161.71832358402511L178.269609375,161.70245348879448L178.8496875,161.6553459170585L179.151328125,161.62920244286457L179.36015625,161.62698920288435L181.19320312500003,161.56149313102165L182.5621875,161.59951648612818L178.455234375,161.8970952425152L178.80328125,161.8567193960771L180.636328125,161.7187197872748L182.074921875,161.72573084415248L182.655,161.7073543627436L184.720078125,161.76526441331953L178.826484375,162.07774555093297L179.63859375,161.90428036358207L180.404296875,161.81399879449359L181.355625,161.8063320958366L183.8615625,161.89858349133283L184.2328125,161.91049321182072L184.720078125,161.87594008880356L184.92890625,161.8617638039092L185.30015625,161.880768297861L186.761953125,161.8792257575939L186.78515624999997,161.88000545464456L187.11,161.87726049001017L182.91023437500002,162.12451811817786L183.21187500000002,162.12725134038678L183.467109375,162.11697457684204L185.787421875,161.9538050790628L187.34203125,161.9484397576501L188.3165625,161.94789380393922L185.23054687500002,161.8301131321738L187.179609375,161.9421516197423L187.226015625,161.94962063121298L188.154140625,161.95510199541846L188.17734374999998,161.95704847512147L188.20054687500001,161.95695204908648L188.57179687500002,161.95435421013585L188.8734375,161.94582658447325L188.91984374999998,161.94687939652553L191.216953125,161.99332041293383L187.9453125,161.92484148871154L189.4303125,161.9728414847826L189.56953124999998,161.96655403760573L189.70875,161.9580740723759L189.8015625,161.96929941667864L189.824765625,161.97280805340657L191.565,161.99408974902084L192.493125,162.00780586898327L193.76929687499998,162.02521912613884L189.546328125,162.16315318457782L189.8015625,162.14425589206317L189.9871875,162.10760170376548L191.10093750000001,162.1302576085242L192.5859375,162.13295505087203L192.655546875,162.13816212583333L193.37484375,162.14975169254467L193.606875,162.14108668050417L193.76929687499998,162.14026968398443L194.186953125,162.1229607271962L195.50953125,162.13491520704702L195.97359375,162.1261289717319L196.043203125,162.1280854670331L196.53046874999998,162.1137576357772L191.773828125,162.13610167553028L193.8853125,162.2280874849918L193.93171875000002,162.23489581234753L194.67421875000002,162.2316984880405L195.091875,162.22987019239613L194.90625,162.10813253046945L195.50953125,162.11877047720677L196.53046874999998,162.11473336225995L197.806640625,162.15294680651277L199.245234375,162.1415887037292L199.546875,162.14547289085263L194.92945312499998,162.91370715845065L195.60234375000002,162.4722399323558L196.507265625,162.32086514836797L198.01546875,162.2935230488268L203.004140625,162.26830881492546L198.085078125,162.08481228072196L198.688359375,162.25857696899524L199.198828125,162.30012360432497L199.63968749999998,162.3220725459978L200.10375,162.33459259631732L200.21976562499998,162.32010810729116L200.591015625,162.3157632717242L200.869453125,162.32166777768484L201.240703125,162.30910835570344L201.8671875,162.29722287987047L203.445,162.33258961482593L204.581953125,162.28404566816366L204.88359375,162.27431223355234L205.06921875,162.27678815849745L200.52140624999998,162.39111282723024L202.19203124999999,162.30496514448896L202.957734375,162.3103964307035L203.12015625,162.32037590366477L203.32898437499998,162.32548109581694L204.489140625,162.32077714925012L204.55875,162.32043399413428L205.04601562500002,162.32812942719707L205.32445312500002,162.31842424347997L205.7653125,162.29934045361975L206.20617187500002,162.31538958630213L202.6096875,162.48502059544748L204.489140625,162.3684157549093L204.51234375,162.372403413523L205.30124999999998,162.4000826588211L205.742109375,162.3970484851549L206.809453125,162.37366834903756L208.480078125,162.3721818961203L208.59609375,162.35363680729643L209.199375,162.34144105513892L210.26671875,162.32458197139204L210.614765625,162.32835004664958L205.7653125,162.50681446803114L206.76304687500001,162.47222259500995L207.227109375,162.43023541150615L207.366328125,162.42500637130192L207.66796875,162.41220581516004L208.31765625,162.44571807576963L209.31539062500002,162.46095856977627L211.798125,162.4537244068148L212.378203125,162.43993133942908L212.540625,162.4320554183796L212.6334375,162.4319532592781L208.1784375,162.43402987268442L208.248046875,162.44803071192777L209.176171875,162.4405936812982L211.357265625,162.41457585105672L211.68210937499998,162.43296656152233L212.07656250000002,162.43961981978887L212.099765625,162.44082535244524L213.074296875,162.46164522537342L215.37140624999998,162.46027833797658L212.6334375,162.4906681495098L213.863203125,162.46294034582874L216.369140625,162.45084716721126L216.62437500000001,162.45789186268425L212.72625,162.45921903305376L214.09523437500002,162.47684337757528L214.95375,162.46629791970676L215.441015625,162.4659205734109L216.29953125,162.4663394326344L217.13484375000002,162.46385321579874L217.158046875,162.4651342453435L217.738125,162.46877322299406L219.17671875,162.46562245395035L214.07203125,162.5876120599763L214.67531250000002,162.59158666377576L215.60343749999998,162.57075397778922L216.67078125,162.57494505665576L218.178984375,162.5602054116316L218.34140625,162.5416942376954L218.52703125000002,162.53489205784476L219.64078125,162.53280384015912L219.849609375,162.53229608386755L221.21859375,162.51470751920715L221.520234375,162.5130721447058L218.132578125,162.44432058899352L218.411015625,162.46140346955508L219.17671875,162.46091588260606L220.15124999999998,162.44897148742652L221.659453125,162.4424446329164L223.37648437500002,162.46155239113918L224.46703125000002,162.4564511361532L218.550234375,162.39106917303675L219.223125,162.4632856422104L219.896015625,162.4925114340149L220.19765625000002,162.50463431406146L220.26726562500002,162.5033073509112L221.798671875,162.49295294921225L221.86828125,162.49329009496918L222.866015625,162.49391486107683L223.7709375,162.46158437198028L224.00296875,162.45266731223091L225.30234375,162.44507763007036L221.613046875,162.41493537649512L221.77546875,162.4371266956441L221.798671875,162.44595361500978L221.96109375,162.39017391670495L223.469296875,162.5000793581518L224.118984375,162.51929335078844L224.397421875,162.52181914650524L224.69906250000003,162.51455341714123L224.861484375,162.50926228022823L227.50664062500002,162.50043777842075L227.599453125,162.48697619279847L228.2259375,162.50038113848618L228.27234375,162.499037528721L223.07484375,162.55154599451149L223.60851562500002,162.5642998572439L225.23273437499998,162.53478741211197L225.46476562499998,162.52348829774806L225.85921875,162.52318865867952L226.021640625,162.53266092793396L226.09125,162.52846142215034L226.41609375000002,162.5013754456304L226.671328125,162.4977184399031L229.82695312500002,162.4716130940554L230.68546875,162.46022066194564L225.20953125,162.32800744411847L225.371953125,162.53070450170586L226.88015625,162.32425028240928L227.460234375,162.39054387218007L227.6690625,162.3880346540051L227.9475,162.4252369372795L228.38835937500002,162.42747152084485L228.7828125,162.4549183351919L229.130859375,162.44179458605745L230.03578125,162.45307401459044L230.31421875,162.4529360756278L230.894296875,162.4554946119897L231.590390625,162.45660323509946L231.7528125,162.45624999531233L233.09859375,162.47666192256534L227.41382812499998,162.8406673380329L227.8546875,162.51481596395993L228.017109375,162.57882938192537L229.08445312499998,162.50488173387325L230.29101562499997,162.46804457095763L230.360625,162.4436360746622L231.172734375,162.3890362138239L233.330625,162.43822481964403L234.11953125,162.45938612086078L234.189140625,162.4554495072613L235.395703125,162.4636886836961L235.41890625000002,162.46463609021157L235.90617187499998,162.46849492751062L230.430234375,162.63148759817705L231.05671875,162.53808585942411L232.44890625,162.55106945925704L232.472109375,162.5517521086149L233.07539062499998,162.50850910724452L233.35382812499998,162.5144873141932L233.701875,162.50954140458876L234.16593749999998,162.51826816797256L234.374765625,162.49862792529166L234.58359375,162.48323602306968L235.2796875,162.4861378526936L236.41664062499999,162.49640584395578L237.6928125,162.47158850403503L238.43531249999998,162.47655182005838L232.19367187499998,162.56593502452597L233.8875,162.49202757701278L235.69734375000002,162.51153112404668L237.414375,162.4775868112532L238.551328125,162.46780841005966L239.386640625,162.48074614536017L240.825234375,162.47463310773796L235.859765625,162.56664868770167L235.92937500000002,162.57578118642172L237.6928125,162.56063490811115L238.18007812500002,162.57457157845298L238.36570312499998,162.5716296864363L238.66734375,162.5553723674578L238.71374999999998,162.55319103924558L238.85296875,162.56091810778403L240.33796875,162.5548890630404L241.12687499999998,162.53278595022857L241.17328125,162.5319713021939L241.19648437499998,162.53197012795135L243.191953125,162.53750260624415L243.2615625,162.53721629828215L237.1359375,162.46791761461645L241.103671875,162.5283448958459L241.26609375,162.52710372147462L242.79749999999999,162.50150772059956L242.91351562499997,162.50459991566217L243.88804687500001,162.48415448796004L245.326640625,162.4938249969855L245.72109375,162.50336502694213L245.744296875,162.50381697217622L240.52359375,162.51169171898314L240.98765625000001,162.504756987871L241.846171875,162.52731764083728L241.86937500000002,162.5280954729145L241.938984375,162.49942337100705L243.470390625,162.51847131193304L244.676953125,162.53045708189407L245.025,162.5269634340269L245.373046875,162.5189944715239L245.744296875,162.5204814770259L246.0459375,162.52633162246397L246.85804687499999,162.5403667219604L247.29890625,162.54292677793032L247.46132812500002,162.5440275957808L246.115546875,162.46250995139903L247.507734375,162.47055710464096L248.203828125,162.46087920479476L248.6446875,162.46512478233004L243.95765624999999,162.39419355615973L244.862578125,162.5059613462848L244.955390625,162.50360823329538L245.16421874999997,162.5000236852405L245.3034375,162.4964684241762L245.883515625,162.46841452643275L247.20609375,162.43602283857763L248.203828125,162.39125850237906L250.59375,162.3646429136085L252.00914062500001,162.35545805748552L246.533203125,162.31531408941373L247.29890625,162.5185823123902L248.15742187499998,162.54347701417282L249.82804687499998,162.5342489182949L249.967265625,162.52900834288448L250.17609374999998,162.534365928111L251.42906250000001,162.52809478218356L253.16929687500001,162.54601096051434L253.401328125,162.55124241827676L253.958203125,162.55722435517237L248.87671875,162.64543241914362L250.91859375,162.57116219975674L251.730703125,162.56968914701915L253.14609375,162.55136764779067L253.58695312499998,162.55333871751404L254.5846875,162.55430422117934L256.18570312500003,162.54723700787872L250.941796875,162.58236426642785L251.452265625,162.50940781723088L254.422265625,162.55796267744154L256.76578125000003,162.51617249039313L258.04195312499996,162.53133679678044L258.39,162.5340162110515L253.23890624999999,162.56196145682284L254.0278125,162.5201845318079L255.74484375,162.51395109978816L256.11609375,162.5227537744989L256.371328125,162.50499584261948L257.160234375,162.52368446532637L259.016484375,162.53997500846162L260.431875,162.56074086623266L260.455078125,162.56170664619034L260.803125,162.56167473442233L261.800859375,162.5618006546671L255.5128125,162.4677921088102L256.510546875,162.43778724161288L256.6265625,162.43126598202312L258.2971875,162.51702416160455L261.568828125,162.47691224344695L261.6384375,162.47819603591537L262.1025,162.4847647487186L262.12570312500003,162.48503903796276L262.1953125,162.4856698825024L264.30679687500003,162.4994771098718" style="fill: none;" fill="none"></path></g></g></g></g></g></g><g transform="translate(51, 178)" clip-path="url(#clip_1)"><clipPath id="clip_1"><rect width="278" height="22"></rect></clipPath><g><g><line x1="0" y1="0" x2="0" y2="5" style="visibility: inherit;" fill="rgb(0, 0, 0)" stroke="rgb(204, 204, 204)" stroke-width="1px"></line><line x1="23.203125" y1="0" x2="23.203125" y2="5" style="visibility: inherit;" fill="rgb(0, 0, 0)" stroke="rgb(204, 204, 204)" stroke-width="1px"></line><line x1="46.40625" y1="0" x2="46.40625" y2="5" style="visibility: inherit;" fill="rgb(0, 0, 0)" stroke="rgb(204, 204, 204)" stroke-width="1px"></line><line x1="69.609375" y1="0" x2="69.609375" y2="5" style="visibility: inherit;" fill="rgb(0, 0, 0)" stroke="rgb(204, 204, 204)" stroke-width="1px"></line><line x1="92.8125" y1="0" x2="92.8125" y2="5" style="visibility: inherit;" fill="rgb(0, 0, 0)" stroke="rgb(204, 204, 204)" stroke-width="1px"></line><line x1="116.015625" y1="0" x2="116.015625" y2="5" style="visibility: inherit;" fill="rgb(0, 0, 0)" stroke="rgb(204, 204, 204)" stroke-width="1px"></line><line x1="139.21875" y1="0" x2="139.21875" y2="5" style="visibility: inherit;" fill="rgb(0, 0, 0)" stroke="rgb(204, 204, 204)" stroke-width="1px"></line><line x1="162.421875" y1="0" x2="162.421875" y2="5" style="visibility: inherit;" fill="rgb(0, 0, 0)" stroke="rgb(204, 204, 204)" stroke-width="1px"></line><line x1="185.625" y1="0" x2="185.625" y2="5" style="visibility: inherit;" fill="rgb(0, 0, 0)" stroke="rgb(204, 204, 204)" stroke-width="1px"></line><line x1="208.828125" y1="0" x2="208.828125" y2="5" style="visibility: inherit;" fill="rgb(0, 0, 0)" stroke="rgb(204, 204, 204)" stroke-width="1px"></line><line x1="232.03125" y1="0" x2="232.03125" y2="5" style="visibility: inherit;" fill="rgb(0, 0, 0)" stroke="rgb(204, 204, 204)" stroke-width="1px"></line><line x1="255.234375" y1="0" x2="255.234375" y2="5" style="visibility: inherit;" fill="rgb(0, 0, 0)" stroke="rgb(204, 204, 204)" stroke-width="1px"></line><line x1="278.4375" y1="0" x2="278.4375" y2="5" style="visibility: inherit;" fill="rgb(0, 0, 0)" stroke="rgb(204, 204, 204)" stroke-width="1px"></line></g><g transform="translate(0, 8)"><text x="0" y="0" dx="0em" dy="0.95em" style="text-anchor: middle; visibility: hidden; font-family: Roboto, sans-serif; font-size: 12px; font-weight: 200;" fill="rgb(50, 49, 63)" stroke="none" stroke-width="1px">-1k</text><text x="23.203125" y="0" dx="0em" dy="0.95em" style="text-anchor: middle; visibility: inherit; font-family: Roboto, sans-serif; font-size: 12px; font-weight: 200;" fill="rgb(50, 49, 63)" stroke="none" stroke-width="1px">0</text><text x="46.40625" y="0" dx="0em" dy="0.95em" style="text-anchor: middle; visibility: inherit; font-family: Roboto, sans-serif; font-size: 12px; font-weight: 200;" fill="rgb(50, 49, 63)" stroke="none" stroke-width="1px">1k</text><text x="69.609375" y="0" dx="0em" dy="0.95em" style="text-anchor: middle; visibility: inherit; font-family: Roboto, sans-serif; font-size: 12px; font-weight: 200;" fill="rgb(50, 49, 63)" stroke="none" stroke-width="1px">2k</text><text x="92.8125" y="0" dx="0em" dy="0.95em" style="text-anchor: middle; visibility: inherit; font-family: Roboto, sans-serif; font-size: 12px; font-weight: 200;" fill="rgb(50, 49, 63)" stroke="none" stroke-width="1px">3k</text><text x="116.015625" y="0" dx="0em" dy="0.95em" style="text-anchor: middle; visibility: inherit; font-family: Roboto, sans-serif; font-size: 12px; font-weight: 200;" fill="rgb(50, 49, 63)" stroke="none" stroke-width="1px">4k</text><text x="139.21875" y="0" dx="0em" dy="0.95em" style="text-anchor: middle; visibility: inherit; font-family: Roboto, sans-serif; font-size: 12px; font-weight: 200;" fill="rgb(50, 49, 63)" stroke="none" stroke-width="1px">5k</text><text x="162.421875" y="0" dx="0em" dy="0.95em" style="text-anchor: middle; visibility: inherit; font-family: Roboto, sans-serif; font-size: 12px; font-weight: 200;" fill="rgb(50, 49, 63)" stroke="none" stroke-width="1px">6k</text><text x="185.625" y="0" dx="0em" dy="0.95em" style="text-anchor: middle; visibility: inherit; font-family: Roboto, sans-serif; font-size: 12px; font-weight: 200;" fill="rgb(50, 49, 63)" stroke="none" stroke-width="1px">7k</text><text x="208.828125" y="0" dx="0em" dy="0.95em" style="text-anchor: middle; visibility: inherit; font-family: Roboto, sans-serif; font-size: 12px; font-weight: 200;" fill="rgb(50, 49, 63)" stroke="none" stroke-width="1px">8k</text><text x="232.03125" y="0" dx="0em" dy="0.95em" style="text-anchor: middle; visibility: inherit; font-family: Roboto, sans-serif; font-size: 12px; font-weight: 200;" fill="rgb(50, 49, 63)" stroke="none" stroke-width="1px">9k</text><text x="255.234375" y="0" dx="0em" dy="0.95em" style="text-anchor: middle; visibility: inherit; font-family: Roboto, sans-serif; font-size: 12px; font-weight: 200;" fill="rgb(50, 49, 63)" stroke="none" stroke-width="1px">10k</text><text x="278.4375" y="0" dx="0em" dy="0.95em" style="text-anchor: middle; visibility: hidden; font-family: Roboto, sans-serif; font-size: 12px; font-weight: 200;" fill="rgb(50, 49, 63)" stroke="none" stroke-width="1px">11k</text></g><line x1="0" y1="0" x2="278.4375" y2="0" fill="rgb(0, 0, 0)" stroke="rgb(204, 204, 204)" stroke-width="1px"></line></g></g></g></g></svg>