<svg viewBox="0 0 330 200" xmlns="http://www.w3.org/2000/svg"><g><g><g><g><g><line x1="41.171875" y1="178" x2="36.171875" y2="178" style="visibility: inherit;" fill="rgb(0, 0, 0)" stroke="rgb(204, 204, 204)" stroke-width="1px"></line><line x1="41.171875" y1="158.2222222222222" x2="36.171875" y2="158.2222222222222" style="visibility: inherit;" fill="rgb(0, 0, 0)" stroke="rgb(204, 204, 204)" stroke-width="1px"></line><line x1="41.171875" y1="138.44444444444446" x2="36.171875" y2="138.44444444444446" style="visibility: inherit;" fill="rgb(0, 0, 0)" stroke="rgb(204, 204, 204)" stroke-width="1px"></line><line x1="41.171875" y1="118.66666666666669" x2="36.171875" y2="118.66666666666669" style="visibility: inherit;" fill="rgb(0, 0, 0)" stroke="rgb(204, 204, 204)" stroke-width="1px"></line><line x1="41.171875" y1="98.8888888888889" x2="36.171875" y2="98.8888888888889" style="visibility: inherit;" fill="rgb(0, 0, 0)" stroke="rgb(204, 204, 204)" stroke-width="1px"></line><line x1="41.171875" y1="79.1111111111111" x2="36.171875" y2="79.1111111111111" style="visibility: inherit;" fill="rgb(0, 0, 0)" stroke="rgb(204, 204, 204)" stroke-width="1px"></line><line x1="41.171875" y1="59.33333333333334" x2="36.171875" y2="59.33333333333334" style="visibility: inherit;" fill="rgb(0, 0, 0)" stroke="rgb(204, 204, 204)" stroke-width="1px"></line><line x1="41.171875" y1="39.55555555555555" x2="36.171875" y2="39.55555555555555" style="visibility: inherit;" fill="rgb(0, 0, 0)" stroke="rgb(204, 204, 204)" stroke-width="1px"></line><line x1="41.171875" y1="19.777777777777786" x2="36.171875" y2="19.777777777777786" style="visibility: inherit;" fill="rgb(0, 0, 0)" stroke="rgb(204, 204, 204)" stroke-width="1px"></line><line x1="41.171875" y1="0" x2="36.171875" y2="0" style="visibility: inherit;" fill="rgb(0, 0, 0)" stroke="rgb(204, 204, 204)" stroke-width="1px"></line></g><g transform="translate(31.171875, 0)"><text x="0" y="178" dx="0em" dy="0.3em" style="text-anchor: end; visibility: hidden; font-family: Roboto, sans-serif; font-size: 12px; font-weight: 200;" fill="rgb(50, 49, 63)" stroke="none" stroke-width="1px">65</text><text x="0" y="158.2222222222222" dx="0em" dy="0.3em" style="text-anchor: end; visibility: inherit; font-family: Roboto, sans-serif; font-size: 12px; font-weight: 200;" fill="rgb(50, 49, 63)" stroke="none" stroke-width="1px">70</text><text x="0" y="138.44444444444446" dx="0em" dy="0.3em" style="text-anchor: end; visibility: hidden; font-family: Roboto, sans-serif; font-size: 12px; font-weight: 200;" fill="rgb(50, 49, 63)" stroke="none" stroke-width="1px">75</text><text x="0" y="118.66666666666669" dx="0em" dy="0.3em" style="text-anchor: end; visibility: inherit; font-family: Roboto, sans-serif; font-size: 12px; font-weight: 200;" fill="rgb(50, 49, 63)" stroke="none" stroke-width="1px">80</text><text x="0" y="98.8888888888889" dx="0em" dy="0.3em" style="text-anchor: end; visibility: hidden; font-family: Roboto, sans-serif; font-size: 12px; font-weight: 200;" fill="rgb(50, 49, 63)" stroke="none" stroke-width="1px">85</text><text x="0" y="79.1111111111111" dx="0em" dy="0.3em" style="text-anchor: end; visibility: inherit; font-family: Roboto, sans-serif; font-size: 12px; font-weight: 200;" fill="rgb(50, 49, 63)" stroke="none" stroke-width="1px">90</text><text x="0" y="59.33333333333334" dx="0em" dy="0.3em" style="text-anchor: end; visibility: hidden; font-family: Roboto, sans-serif; font-size: 12px; font-weight: 200;" fill="rgb(50, 49, 63)" stroke="none" stroke-width="1px">95</text><text x="0" y="39.55555555555555" dx="0em" dy="0.3em" style="text-anchor: end; visibility: inherit; font-family: Roboto, sans-serif; font-size: 12px; font-weight: 200;" fill="rgb(50, 49, 63)" stroke="none" stroke-width="1px">100</text><text x="0" y="19.777777777777786" dx="0em" dy="0.3em" style="text-anchor: end; visibility: hidden; font-family: Roboto, sans-serif; font-size: 12px; font-weight: 200;" fill="rgb(50, 49, 63)" stroke="none" stroke-width="1px">105</text><text x="0" y="0" dx="0em" dy="0.3em" style="text-anchor: end; visibility: hidden; font-family: Roboto, sans-serif; font-size: 12px; font-weight: 200;" fill="rgb(50, 49, 63)" stroke="none" stroke-width="1px">110</text></g><line x1="41.171875" y1="0" x2="41.171875" y2="178" fill="rgb(0, 0, 0)" stroke="rgb(204, 204, 204)" stroke-width="1px"></line></g></g><g transform="translate(41, 0)" clip-path="url(#clip_0)"><clipPath id="clip_0"><rect width="288" height="178"></rect></clipPath><g><g><g><line x1="0" y1="0" x2="0" y2="178" fill="rgb(0, 0, 0)" stroke="rgb(60, 60, 60)" stroke-width="1px" opacity="0.25"></line><line x1="24.069010416666664" y1="0" x2="24.069010416666664" y2="178" fill="rgb(0, 0, 0)" stroke="rgb(60, 60, 60)" stroke-width="1px" opacity="0.25"></line><line x1="48.13802083333333" y1="0" x2="48.13802083333333" y2="178" fill="rgb(0, 0, 0)" stroke="rgb(60, 60, 60)" stroke-width="1px" opacity="0.25"></line><line x1="72.20703125" y1="0" x2="72.20703125" y2="178" fill="rgb(0, 0, 0)" stroke="rgb(60, 60, 60)" stroke-width="1px" opacity="0.25"></line><line x1="96.27604166666666" y1="0" x2="96.27604166666666" y2="178" fill="rgb(0, 0, 0)" stroke="rgb(60, 60, 60)" stroke-width="1px" opacity="0.25"></line><line x1="120.34505208333334" y1="0" x2="120.34505208333334" y2="178" fill="rgb(0, 0, 0)" stroke="rgb(60, 60, 60)" stroke-width="1px" opacity="0.25"></line><line x1="144.4140625" y1="0" x2="144.4140625" y2="178" fill="rgb(0, 0, 0)" stroke="rgb(60, 60, 60)" stroke-width="1px" opacity="0.25"></line><line x1="168.48307291666669" y1="0" x2="168.48307291666669" y2="178" fill="rgb(0, 0, 0)" stroke="rgb(60, 60, 60)" stroke-width="1px" opacity="0.25"></line><line x1="192.55208333333331" y1="0" x2="192.55208333333331" y2="178" fill="rgb(0, 0, 0)" stroke="rgb(60, 60, 60)" stroke-width="1px" opacity="0.25"></line><line x1="216.62109375" y1="0" x2="216.62109375" y2="178" fill="rgb(0, 0, 0)" stroke="rgb(60, 60, 60)" stroke-width="1px" opacity="0.25"></line><line x1="240.69010416666669" y1="0" x2="240.69010416666669" y2="178" fill="rgb(0, 0, 0)" stroke="rgb(60, 60, 60)" stroke-width="1px" opacity="0.25"></line><line x1="264.7591145833333" y1="0" x2="264.7591145833333" y2="178" fill="rgb(0, 0, 0)" stroke="rgb(60, 60, 60)" stroke-width="1px" opacity="0.25"></line><line x1="288.828125" y1="0" x2="288.828125" y2="178" fill="rgb(0, 0, 0)" stroke="rgb(60, 60, 60)" stroke-width="1px" opacity="0.25"></line></g><g><line x1="0" y1="178" x2="288.828125" y2="178" fill="rgb(0, 0, 0)" stroke="rgb(60, 60, 60)" stroke-width="1px" opacity="0.25"></line><line x1="0" y1="158.2222222222222" x2="288.828125" y2="158.2222222222222" fill="rgb(0, 0, 0)" stroke="rgb(60, 60, 60)" stroke-width="1px" opacity="0.25"></line><line x1="0" y1="138.44444444444446" x2="288.828125" y2="138.44444444444446" fill="rgb(0, 0, 0)" stroke="rgb(60, 60, 60)" stroke-width="1px" opacity="0.25"></line><line x1="0" y1="118.66666666666669" x2="288.828125" y2="118.66666666666669" fill="rgb(0, 0, 0)" stroke="rgb(60, 60, 60)" stroke-width="1px" opacity="0.25"></line><line x1="0" y1="98.8888888888889" x2="288.828125" y2="98.8888888888889" fill="rgb(0, 0, 0)" stroke="rgb(60, 60, 60)" stroke-width="1px" opacity="0.25"></line><line x1="0" y1="79.1111111111111" x2="288.828125" y2="79.1111111111111" fill="rgb(0, 0, 0)" stroke="rgb(60, 60, 60)" stroke-width="1px" opacity="0.25"></line><line x1="0" y1="59.33333333333334" x2="288.828125" y2="59.33333333333334" fill="rgb(0, 0, 0)" stroke="rgb(60, 60, 60)" stroke-width="1px" opacity="0.25"></line><line x1="0" y1="39.55555555555555" x2="288.828125" y2="39.55555555555555" fill="rgb(0, 0, 0)" stroke="rgb(60, 60, 60)" stroke-width="1px" opacity="0.25"></line><line x1="0" y1="19.777777777777786" x2="288.828125" y2="19.777777777777786" fill="rgb(0, 0, 0)" stroke="rgb(60, 60, 60)" stroke-width="1px" opacity="0.25"></line><line x1="0" y1="0" x2="288.828125" y2="0" fill="rgb(0, 0, 0)" stroke="rgb(60, 60, 60)" stroke-width="1px" opacity="0.25"></line></g></g></g><g><g><line x1="0" y1="435.11111111111114" x2="288.828125" y2="435.11111111111114" fill="rgb(0, 0, 0)" stroke="rgb(153, 153, 153)" stroke-width="1.5px"></line></g></g><g><g><line x1="24.069010416666664" y1="0" x2="24.069010416666664" y2="178" fill="rgb(0, 0, 0)" stroke="rgb(153, 153, 153)" stroke-width="1.5px"></line></g></g><g><g><g><g><g><path stroke="rgb(0, 153, 136)" stroke-width="2px" d="M32.18026692708333,180.09417923435504L33.467958984375,176.94792515139042L33.86509765625,174.962672043609L34.346477864583335,173.29962511126618L32.27654296875,168.85450758723834L32.99861328125,165.13434042519123L34.23816731770833,162.23831326429377L34.996341145833334,159.99294984443145L35.53789388020833,158.44354795525666L33.02268229166666,154.18033002567063L33.58830403645833,150.43970409140243L34.17799479166666,148.41402604086963L34.190029296875,147.1701789979561L34.334443359375,146.34601025791315L34.74361653645833,145.41964269444898L36.584895833333334,143.67299085754064L33.74475260416666,139.1093500700578L36.47658528645833,134.1290362844247L37.33103515625,131.14405900480762L35.309238281249996,127.229243020068L36.139619140624994,125.16273963256901L36.33217122395833,123.88974989933257L36.34420572916667,123.04692461950388L37.04220703125,122.34481574175433L37.306966145833336,120.21841722283015L37.33103515625,119.01359414337686L37.93276041666667,118.52350926922924L38.78721028645833,117.83356479005317L39.665729166666665,117.45855250250412L39.749970703125,117.196051369124L37.53562174479167,113.78970303284592L37.872587890625,112.13209425351829L38.83534830729167,111.56123504060922L39.581487630208336,111.63425323139681L40.760869140625,111.79754683901167L41.194111328125004,111.7484450955945L38.71500325520834,107.95707785379771L39.7138671875,108.22355226783411L40.821041666666666,108.77487612524037L41.02562825520834,109.1214356849099L42.939114583333335,109.29232430157089L43.035390625,109.4435293465675L40.881214192708335,107.91818195255857L41.049697265625,106.62055164115316L43.08352864583333,105.74406234862415L41.20614583333333,104.50593217371444L41.54311197916667,103.36685872914182L44.082392578125,102.8512674456014L44.25087565104167,102.5363477611977L43.035390625,102.74936141822033L44.59987630208334,102.3740820473298L45.12939453125,102.42378014745165L46.15232747395833,102.42674014793283L46.826259765625,102.36914901497498L43.40846028645833,97.19808188402838L43.84170247395833,97.54094439951427L44.84056640625,98.50981566314603L47.3678125,99.24933408647263L47.59646809895833,99.74932199593738L44.93684244791666,100.06683033948954L45.98384440104167,99.17476034019546L48.36667643229166,98.78219018849232L48.71567708333333,98.65223661201031L46.36894856770833,97.61340536238845L46.513362630208334,97.13470988409975L48.234296875000005,97.04836065268205L49.58216145833333,96.84203722494254L47.86122721354167,96.16138959842041L48.35464192708333,95.45478921695158L51.086474609375,95.45616468142963L48.523125,95.65494880885781L48.559228515625,95.74773463904728L48.73974609375,95.59502967231725L49.136884765625,95.89092269705348L52.47044270833334,95.56557616054981L52.59078776041667,95.3647912529705L49.50995442708333,94.3198685397598L51.41140625,94.16107992376901L52.313994140625,93.82820543581526L53.68592773437501,93.74253130727908L50.677301432291664,90.60940767325634L52.386201171875,91.55723423068994L52.44637369791667,92.01297809809279L52.554684244791666,92.4361942481786L54.010859375,92.41371307668494L54.13120442708333,92.39218482300748L55.25041341145833,92.48462702878712L55.08193033854167,92.03682371618719L55.68365559895833,91.9712671355283L55.76789713541667,91.95224934924232L52.963857421875005,94.47968294287874L56.1770703125,92.8182269749286L55.17820638020833,90.40384539177144L56.213173828125,89.8712182322417L56.36962239583333,89.87206511360718L57.729521484375,89.80208835201844L57.946142578125,89.82657948148018L56.18910481770833,88.68978354500794L56.95931315104167,88.79528017474779L57.898004557291664,87.95287326435387L57.98224609375001,87.40797979086062L59.37824869791667,87.72255398779765L60.341009114583336,88.0130845302654L60.858492838541665,88.20356645709154L58.379384765625,87.4314528896629L58.94500651041667,87.503877159145L60.184560546875,87.60418800338633L60.19659505208333,87.6301279550266L60.461354166666666,87.6096829470611L61.30376953125,87.95558637956476L61.92956380208334,88.01252568299059L61.96566731770833,88.0639513635704L62.422978515625005,88.1604872460936L59.19773111979166,86.67465809743916L59.29400716145834,86.139773835243L59.84759440104167,86.35254390726563L60.834423828125004,86.52630661779688L61.06307942708333,86.76985610066947L61.14732096354167,85.99849921812736L61.78514973958333,86.4242244494962L62.02583984375,86.53948651974113L62.39890950520833,86.58825517139329L62.50722005208333,86.63543031637765L62.916393229166665,86.64875479898458L64.34849934895833,86.88392111940814L61.73701171875,86.57665299174037L64.2642578125,86.59830258605987L64.32443033854167,86.61045941621923L62.796048177083335,85.43741225997458L63.1089453125,85.51396360489969L64.62529296875,86.02128736975406L65.70839843750001,86.33976894963024L68.18750651041667,86.49535591730421L65.43160481770833,85.75997044057351L66.57488281250001,84.59312744663573L66.899814453125,84.09356377809428L67.1525390625,83.92727487709962L67.296953125,83.909055898482L67.477470703125,83.87330571790866L67.50153971354166,84.30229980986849L68.72905924479167,84.80467320731871L69.23450846354166,84.87048770802836L69.84826822916666,84.9486893804594L70.12506184895832,84.85680138326694L70.83509765625,84.90329768108863L68.90957682291666,84.5014174921167L69.80013020833333,84.66918382860338L68.65685221354167,83.43484363049534L70.35371744791667,83.17174778528506L71.232236328125,83.2453110409627L71.54513346354167,83.2515568773988L71.76175455729167,83.37951906025L72.47179036458334,83.73131902078543L73.073515625,84.06104876381674L71.79785807291667,83.83992461419287L71.87006510416667,83.66170474138893L72.23110026041667,83.59405314539765L72.33941080729167,83.53611558949554L72.45975585937501,83.40046031506884L73.56693033854167,83.46424984898051L73.67524088541667,83.54030704371988L73.92796549479166,83.72767163942636L71.1961328125,81.58747103921135L71.42478841145834,81.23264307817091L73.80762044270833,82.29178189182444L74.89072591145833,83.01949065744708L72.42365234374999,84.17558328335711L73.12165364583333,85.01561662583028L74.914794921875,84.19208468361445L74.93886393229167,83.67026166086309L75.32396809895833,83.39198175780258L74.625966796875,83.22415674673881L74.914794921875,83.57648921948427L77.67069661458333,83.4831824856836L75.39617513020833,82.26683535404034L75.64889973958334,82.20041072848322L77.24948893229167,82.85441988544062L78.11597330729167,83.31618763004904L78.380732421875,83.51636554569438L79.13890625,83.37238633045484L76.82828125,81.78266316220515L79.13890625,81.81221359285264L80.48677083333334,82.25333604959182L77.56238606770833,81.90292353188187L78.06783528645833,82.22690779208921L80.07759765624999,82.59531961557471L80.45066731770834,82.69798251370247L78.65752604166666,82.3345342727614L79.29535481770834,81.62571473140856L79.59621744791667,81.19238345581564L79.86097656250001,80.88885523082443L81.124599609375,80.95840279235749L82.31601562499999,81.16838246860027L82.48449869791668,81.37486235333901L82.83349934895833,81.52989448991134L82.92977539062501,81.62880461386867L79.77673502604166,80.05907937205386L80.96815104166666,79.4249441510101L83.74812174479166,80.15952215466858L81.02832356770834,78.82618394167265L81.5939453125,78.95560619833695L83.98881184895833,80.0403641801567L84.63867513020833,80.85132191521208L82.73722330729166,80.60023759357169L84.43408854166667,80.78974691269686L83.97677734375,79.57313620642887L85.33667643229167,79.97208688336256L87.23812825520832,80.46640520618942L84.37391601562501,80.62100035027615L85.601435546875,79.88139836012229L88.73040690104168,80.36731584984072L86.540126953125,79.75888329788187L86.70861002604167,79.24078258832117L87.63526692708334,79.17804973962465L89.01923502604166,79.75226088761158L90.12640950520833,80.19107726281868L87.31033528645834,78.02853524658013L87.79171549479166,77.25148041444109L88.00833658854168,77.20335244137299L88.11664713541666,77.21060535045748L89.03126953125,77.681130327245L90.30692708333333,78.50034486301365L90.34303059895834,79.00797682883248L90.403203125,79.30834309057205L91.25765299479167,79.74454890447339L89.16364908854166,79.73839600935075L89.70520182291666,79.42968419849238L90.35506510416667,79.38307297026726L90.367099609375,79.37956288480792L90.63185872395835,79.50869706790733L90.82441080729167,79.63692573314893L89.74130533854166,78.35096593251085L89.77740885416667,77.60432955950652L90.367099609375,77.03670811439315L90.655927734375,77.07275078009422L93.36369140625,77.97648168550448L90.63185872395835,77.16231764085998L91.41410156250001,77.31348257127819L91.69089518229167,77.54224210353075L92.70179361979167,77.98467482483544L92.73789713541666,78.29843211929364L92.79806966145833,78.51923098381576L93.60438151041667,78.94984967969917L93.82100260416667,79.24904636380911L91.69089518229167,78.53027132414486L93.59234700520834,78.30447355837582L94.96428059895833,78.20319316822858L95.27717773437499,78.13508552441805L95.52990234375,78.30825888843555L95.602109375,78.41308033306139L94.00152018229167,77.54750165578304L96.87776692708333,78.08818008418163L93.94134765625,76.68438550819127L94.39865885416665,75.68291117145124L94.735625,75.44724670287074L96.10755859375,76.13656538825889L96.97404296875,76.65849739267753L96.13162760416667,75.92022579563255L97.03421549479168,75.8057617794629L98.11732096354167,76.14390153924893L97.11845703125,76.5008284995042L97.23880208333334,76.71056654414701L97.64797526041667,77.24573839111488L97.76832031250001,77.3419272197818L98.08121744791667,77.52218934510691L98.62277018229166,77.60626418215094L98.89956380208332,77.65025088667768L99.80215169270834,77.93337739290071L100.59642903645833,78.37967622957717L98.454287109375,77.21028322255536L100.01877278645833,77.08131451903668L100.15115234375,76.98230135248102L100.39184244791667,77.04925684230454L99.74197916666667,77.46102396757887L101.43884440104166,77.31569139335117L101.90819010416666,77.3263184547173L102.25719075520833,77.45089781653695L103.30419270833335,77.4898416684378L100.37980794270834,77.66200002601927L100.403876953125,77.91393015884074L100.86118815104167,77.8312169820232L101.13798177083333,77.94857271851079L103.689296875,77.78067262958739L104.45950520833334,77.72732488309093L102.136845703125,76.32579203814454L102.23312174479166,75.51419375587281L104.32712565104167,75.69754742214344L104.72426432291667,75.82030701773922L105.61481770833332,76.06554562014874L102.58212239583334,75.36779959431148L103.61708984375001,74.87610795211639L104.79647135416667,75.00476280729417L105.06123046875001,75.15322525165081L106.01195638020833,75.6474791776832L106.72199218749999,76.03396344519503L104.591884765625,74.91757546837567L104.77240234375,74.27670196505318L106.77013020833333,74.48536633962215L104.78443684895834,73.05114561215L105.20564453125,72.72036645800182L106.09619791666667,72.63607024372472L107.841201171875,73.32787139428171L108.14206380208334,73.83108535827039L108.91227213541667,74.11011429547443L109.08075520833333,74.4084821786302L107.191337890625,75.47392977484306L108.39478841145834,75.91602412467145L109.20110026041667,76.24126350909111L109.63434244791667,76.15309143878804L109.646376953125,76.11308044921037L109.99537760416668,76.0761816028596L110.01944661458334,76.07141303615153L111.21086263020834,76.01203361270656L110.28420572916667,75.09450586640865L110.35641276041666,74.56340002592161L110.42861979166668,74.24176695782728L110.4767578125,74.08124710503489L110.48879231770833,74.01843332161467L111.87276041666667,74.2982228076389L111.15069010416667,73.1076538451736L112.33007161458335,72.70824315888366L112.45041666666665,72.52259210843785L112.534658203125,72.41097212161657L112.75127929687501,72.3789347540897L111.49969075520833,73.17010146660311L112.59483072916666,73.21850008894623L113.00400390624999,73.28549173631042L113.220625,73.29565308757623L113.12434895833333,72.91475296365681L113.96676432291667,73.19010923804653L115.37480143229168,73.53593525311437L115.53125,73.82119480529744L113.13638346354166,67.53160577206734L113.48538411458334,69.526374894447L113.95472981770834,70.52617080255362L114.77307617187499,70.09813263018667L115.08597330729168,69.8301798982075L115.57938802083333,69.91503705676308L115.88025065104166,70.48690458540334L116.07280273437499,70.90171713275244L117.55304687499999,71.7390852926723L118.29918619791667,72.19693858879783L117.300322265625,71.8042229948586L117.49287434895834,71.72087431883361L118.38342773437499,71.74264164316644L118.98515299479166,72.06016682726272L117.11980468750001,71.72846120746875L118.094599609375,71.8220605840733L118.10663411458333,71.9163054693676L120.16453450520832,72.53886816117787L120.22470703125,72.9086636430175L120.53760416666667,73.13335356775497L121.271708984375,73.1453531237259L118.75649739583334,72.7249598126036L119.58687825520832,72.69350968747533L120.08029296875,72.34110689755465L120.59777669270832,72.18647322056405L122.18633138020833,72.34264144644435L122.3187109375,72.53298599091349L120.52556966145833,71.90734883196131L121.65681315104167,71.37506251098236L121.82529622395833,71.09705939786546L122.04191731770833,70.90825137222622L122.95653971354167,70.78524908179925L123.076884765625,70.63501161813338L123.52216145833333,70.7075432935797L123.06485026041666,70.1799765512346L124.41271484375001,70.1927925171123L125.19495768229167,70.3964370933837L125.27919921875001,70.47417695329582L125.37547526041666,70.56990317176049L125.95313151041667,70.96673831690181L126.06144205729167,71.24882757672962L126.77147786458333,71.61730747811242L126.92792643229167,71.8020484408605L125.31530273437501,71.0567170744989L125.71244140625001,70.46176434843196L128.45630859374998,70.71158565441503L126.24195963541666,69.52525922685044L127.62592773437501,69.44022240351477L128.21561848958333,69.511676709253L128.88955078125,69.80261651274799L126.97606445312499,67.68962641264012L127.07234049479167,66.32488695869519L128.275791015625,66.75770235750876L128.66089518229168,67.4225076992275L130.080966796875,68.49682181246186L130.4058984375,69.06805239737292L130.42996744791668,69.44862250830226L128.01103190104166,68.9838852834102L128.853447265625,68.67257088901317L129.26262044270834,68.77320222850338L129.59958658854165,68.88405154543537L131.23627929687498,69.31517769917964L128.84141276041666,66.47613963274563L130.008759765625,66.6528852499165L130.1170703125,66.78443948328325L130.261484375,66.95807213723558L130.49013997395832,67.24308126519729L130.6947265625,67.62527584245171L131.34458984375,67.82274824201619L131.48900390625,68.01827134104302L131.78986653645833,68.29990106417436L132.23514322916665,68.5108873615949L129.98469075520833,68.0537546391792L130.21334635416665,66.72878056128529L131.47696940104166,67.08337944788231L134.13659505208332,68.22972859646377L134.38931966145833,68.9561303436422L131.54917643229166,68.24115677606379L132.59617838541666,68.10142746407577L132.608212890625,68.01582745283783L133.06552408854168,68.02441400642493L133.48673177083333,68.17390363931504L135.70108072916668,68.63399618206992L136.19449544270833,69.02838761809609L136.940634765625,69.18616003939061L134.36525065104166,68.34481939603022L135.3159765625,67.67083437307824L135.568701171875,67.47480775275315L135.66497721354168,67.35351000429942L135.84549479166665,67.30015423391649L137.09708333333333,67.58977108852693L137.12115234375,67.76176670585055L138.2042578125,68.02597237702598L137.085048828125,67.15445549652807L137.16929036458333,66.5968642430123L137.96356770833333,66.65717697679695L138.023740234375,66.70257509341326L139.27532877604168,67.14109854997153L139.47991536458332,67.48544105815132L136.78418619791668,66.25856810168766L139.29939778645834,66.73383321669836L139.49194986979165,67.04274879612143L139.6483984375,67.19319973340204L140.06960611979167,67.39440643943357L140.38250325520832,67.64125242485804L139.68450195312502,67.72903924245823L140.406572265625,67.700386327593L140.767607421875,67.69647311600028L140.99626302083334,67.73330894555498L138.56529296875001,64.85010269046667L139.19108723958334,64.09676707217929L139.56415690104168,64.04173361027807L140.25012369791665,64.2645788760193L142.00716145833331,65.27110843672267L139.901123046875,66.65377617314472L140.29826171875,67.47229527202923L143.34299153645833,67.35110923244501L143.75216471354165,67.29697548955383L143.55961263020833,66.81801046191804L144.90747721354165,66.58853793947719L145.20833984375,66.22187208551792L145.87023763020835,66.28756633941835L146.05075520833336,66.38130418082118L143.78826822916668,66.18369746617498L144.67882161458334,65.73542735557308L144.87137369791668,65.53752960670325L145.00375325520835,65.3654715943171L146.37568684895834,65.35809575498432L147.10979166666667,65.32655789244372L147.121826171875,65.30640389236726L147.81982747395833,65.40488549405752L144.55847656249998,64.02695907421227L146.0026171875,64.3801219777305L147.69948242187502,64.7376369887216L147.988310546875,64.91995157799856L146.12296223958333,64.19217683872621L147.27827473958334,64.15476139837456L147.988310546875,64.22906438568272L148.12069010416667,64.30797723275514L148.03644856770833,64.11231563652808L149.37227864583332,64.2659577684186L149.70924479166666,64.34794271660672L150.32300455729168,64.38358957744667L151.4903515625,64.54516283392456L148.36138020833334,63.290387902177635L148.42155273437498,62.89872330120241L148.62613932291666,62.33784509183258L149.69721028645836,62.43796475909259L149.51669270833335,63.32840385545557L151.8273177083333,63.210280703030264L151.97173177083334,63.095128925290425L153.74080403645834,63.320966244063186L153.86114908854168,63.472523594094156L153.93335611979165,63.5699524160051L150.479453125,64.16211033849197L150.85252278645834,64.3143279706733L150.876591796875,64.2328927079682L151.04507486979165,64.0569438767341L151.11728190104168,64.0151598427505L151.99580078125,63.77789839588468L154.96832356770835,64.07621996743534L152.52531901041667,63.689124721346644L152.83821614583334,63.393058166141344L153.92132161458335,63.213462666611896L154.24625325520833,63.257527334125164L155.08866861979166,63.51918938767128L155.90701497395833,63.63807721767224L153.39180338541667,61.9054361200999L153.96945963541668,61.36840788516756L154.16201171875,60.97016528231584L154.46287434895834,60.31543250272284L156.08753255208333,60.34431918045315L156.17177408854167,60.367324743948984L157.62794921875,60.94013036069229L157.91677734375,61.369218868542085L158.20560546874998,61.66093059955406L155.44970377604164,60.744437727136926L156.59298177083335,60.86648427799217L157.92881184895833,61.089119896222414L158.14543294270834,61.266955010650086L157.17063802083334,61.29697856194561L158.35001953125,61.62871624415523L160.61250651041667,61.88093335977435L160.81709309895834,62.076891585960084L157.78439778645833,60.59739648043893L160.88930013020834,60.392300735485605L159.74602213541667,59.80835732931222L160.27554036458332,59.88861425110292L160.69674804687497,59.866862940852734L161.34661132812502,60.048765225449166L161.73171549479167,60.42667626309068L162.59819986979167,60.766773308852684L162.92313151041668,60.9972316827943L162.97126953125002,61.12394230828767L163.46468424479167,61.33977961023301L160.22740234375,61.9852135235183L162.285302734375,61.42559344614224L162.33344075520833,61.127604874108904L162.48988932291667,60.88843060024657L163.4526497395833,60.55218203093785L163.50078776041667,60.3481755380072L163.93402994791666,60.38831301052135L161.4789908854167,60.63931362554022L161.563232421875,60.611365953101945L162.09275065104165,59.731106138701435L162.73057942708334,58.86478211855068L162.61023437499998,57.93970260446376L163.3323046875,56.81810799388482L164.34320312499997,56.84640285514167L165.22172200520833,57.605831079404446L165.390205078125,58.11777694082845L167.17131184895834,58.853986070095985L165.3541015625,58.10098118741349L167.83320963541667,58.48174254816856L167.94152018229167,58.71443642516854L165.07730794270833,58.83111709598654L166.70196614583335,58.24479154122909L167.13520833333334,58.17918490195101L168.51917643229166,58.10559850627478L167.195380859375,57.942748616568686L167.6165885416667,57.86933840605232L169.53007486979166,57.84850557726852L170.21604166666668,58.06298436849655L170.62521484375,58.23691524132363L167.6647265625,58.567322755905295L168.09796874999998,58.30656444347372L169.4578678385417,57.94281941695229L169.650419921875,57.747314914060254L170.60114583333333,57.57377157104899L171.63611328124998,57.571443660945405L170.5048697916667,57.7891186379735L173.044150390625,57.48260624680317L173.56163411458334,57.38295716713575L174.28370442708334,57.442155485177295L171.022353515625,57.25469162009941L171.33525065104166,56.99035511962905L172.41835611979167,56.28459298171666L173.044150390625,56.07738271502826L173.766220703125,56.316393550457924L174.199462890625,56.48034557037895L174.83729166666666,56.460042872826286L174.88542968750002,56.4633488573763L175.04187825520833,56.48988567076261L175.210361328125,56.564692036138105L175.49918945312498,56.66777206304568L172.1415625,57.23955212671632L172.61090820312498,57.1801597699534L172.77939127604168,56.853024247388696L174.271669921875,56.22386261700962L174.343876953125,55.84285286208947L174.83729166666666,55.698239793425564L175.05391276041667,55.723216879527556L175.33070638020834,55.804330247074155L176.60636393229166,55.996297828149046L174.36794596354164,56.28111772683736L174.560498046875,56.41893403671007L174.921533203125,56.29364571390975L174.87339518229166,54.941596499526376L174.96967122395833,54.428916775583865L176.51008789062502,54.4158631133104L178.84478190104167,54.744750479748426L177.00350260416667,54.803841254645974L176.9914680989583,57.00413187409834L177.64133138020836,56.79291667871251L177.94219401041667,56.13602385162853L179.45854166666666,55.544460448129904L180.43333658854166,55.16492089778424L181.16744140625,54.976018782160125L181.39609700520836,54.89228865102348L182.32275390625,54.8427989989908L179.4224381510417,54.908457177172224L180.54164713541667,54.341916211685266L180.73419921875,53.874638388035436L181.095234375,53.60092303390636L181.97375325520835,53.743838461185824L183.34568684895834,54.09779002875146L180.90268229166665,53.84339623947311L181.72102864583334,53.690759965906096L182.81616861979165,53.52475803575025L182.84023763020832,53.425917375703634L182.91244466145835,53.33778648227983L185.102724609375,53.44741310030543L183.52620442708331,52.85983674907213L183.95944661458333,52.61548687474714L185.39155273437498,52.85877102024759L183.008720703125,53.18827503619371L183.67061848958335,52.73944546333951L184.3926888020833,52.33941448394992L185.53596679687502,52.278547507644255L185.80072591145836,51.83144287633135L186.33024414062498,51.5683225129082L186.37838216145835,51.41681192137337L186.474658203125,51.35051914609663L188.25576497395832,51.54094503257985L188.82138671875,51.7609580785757L186.113623046875,52.431784808082895L186.13769205729167,52.760766034589366L188.15948893229168,52.51780225855743L188.82138671875,52.29439283516916L189.15835286458335,52.22881614815009L189.55549153645836,52.35399121341261L189.96466471354168,52.570766174445104L187.94286783854167,52.07669161113408L188.15948893229168,51.68304797991824L189.51938802083333,51.57213876516449L190.012802734375,51.56025252450667L187.95490234375,50.94741426426995L189.20649088541668,50.60560445591446L189.60362955729167,50.539882855840354L190.373837890625,50.34553765078719L190.49418294270833,50.22908745592371L191.44490885416667,50.41449118340667L191.62542643229168,50.57908899715338L192.07070312500002,50.69177807819652L191.66152994791665,50.333959262282484L191.75780598958335,50.148251398298335L192.467841796875,50.21857364171338L192.63632486979165,50.32606117721552L191.13201171875,49.87693987473208L191.83001302083335,49.545009682217724L191.91425455729168,49.392109162195176L191.96239257812502,49.272242493844885L192.01053059895833,49.18960309179302L193.70739583333332,49.24476296727201L194.10453450520833,49.38174534004198L194.2369140625,49.51952354951128L192.73260091145832,49.74745767354357L192.91311848958335,49.96856100278067L193.16584309895833,50.10109021494965L193.34636067708334,50.07522444146978L194.76643229166666,50.08057642377943L192.7927734375,49.02265140982319L193.97215494791666,48.49370220114568L195.88564127604167,48.89453254573079L196.15040039062498,49.123587067586065L196.67991861979166,49.26058521038671L197.016884765625,49.37677715162264L194.57388020833332,47.884151685938825L196.13836588541668,47.70542427979246L196.67991861979166,47.61968699517581L195.717158203125,48.0435076181124L196.99281575520834,47.81540280220429L197.02891927083334,47.709539261617714L197.34181640625002,47.688053743602545L197.71488606770833,47.88968323900002L196.36702148437502,48.26436549895562L196.42719401041668,48.48917485492891L196.52347005208333,48.78887125952851L198.47305989583333,48.68799289460603L199.110888671875,48.738305448135165L199.45988932291667,48.74196004839499L200.36247721354167,48.75448592487033L197.97964518229165,49.24375885635452L198.01574869791668,49.55751806337867L199.52006184895833,49.12695753399075L198.58137044270836,51.478952298172246L198.97850911458332,49.47266407638601L199.48395833333333,48.20574566262846L200.121787109375,47.56285617036351L201.024375,47.353268308337896L201.19285807291666,47.25075303144374L201.277099609375,47.188785152199536L202.23986002604167,47.27643474691871L200.89199544270832,47.13880342085089L201.28913411458333,46.94071342186821L201.72237630208335,46.70304065620251L203.44331054687498,46.76613361138642L203.88858723958333,46.86375487386312L202.80548177083335,46.62413996858869L203.09430989583336,46.409391207715665L203.55162109375,46.244050116339466L203.623828125,46.175724096496396L205.59748697916666,46.6243685128023L202.27596354166667,46.11455166323694L202.68513671875,46.080895711483876L205.59748697916666,46.15190154906919L203.41924153645832,46.3976183871238L206.06683268229165,46.40462192203125L205.031865234375,46.03698878364415L205.645625,46.0009202124608L206.77686848958334,45.75237300963791L208.17287109375,45.60897860178974L208.83476888020834,45.47774664458081L209.19580403645833,45.41972198848459L209.24394205729166,45.37380150906296L206.63245442708333,45.37745378412703L206.9573860677083,45.393478970780045L207.16197265625001,45.3136691695774L207.46283528645833,45.198074819888795L208.47373372395836,45.047441490240566L210.18263346354166,45.05537095425721L210.375185546875,45.04216639308384L210.447392578125,45.04186070824618L209.68921874999998,44.96638799070289L210.25484049479167,44.97779164316303L208.20897460937502,42.80889720812002L209.94194335937502,43.22107128928168L210.519599609375,43.509756488846776L210.71215169270832,43.708317543481655L211.07318684895833,43.831558451436244L211.8794986979167,43.971280041564896L212.04798177083333,44.09778538605005L210.20670247395833,43.68304663853108L211.63880859375,43.434299961200246L212.5775,43.502856181147244L213.696708984375,43.77291189662238L213.768916015625,43.93162569157587L214.03367513020834,44.0305478162042L211.61473958333335,43.667969531736404L212.830224609375,43.526387865960274L213.75688151041666,43.55632235716299L214.09384765624998,43.575743690990485L215.213056640625,43.64270763495017L212.21646484375,43.49844711786243L212.61360351562502,43.434138393330294L213.39584635416668,43.36229645830721L215.02050455729167,43.205345946815925L213.33567382812498,43.21045081353224L214.53912434895832,43.062464335775616L215.53798828125,42.960562911361194L216.3924381510417,42.91384737680806L217.55978515625,42.973420188237604L217.70419921875,43.01037101485225L214.53912434895832,42.81876913126382L214.83998697916667,42.74959481209162L215.99529947916668,42.941949405701166L217.75233723958334,43.01691090861172L218.55864908854167,42.99175299047955L219.77413411458335,42.78168102605859L220.08703125,42.660442263638586L217.23485351562502,42.26680504459807L219.220546875,42.046436243989795L220.8091015625,41.92388415307792L221.18217122395833,41.821284973183566L221.27844726562498,41.76461438126259L221.61541341145835,41.818866013740205L222.32544921875,41.83897138233263L219.16037434895833,41.93697088278501L219.91854817708332,41.76950430701473L222.27731119791665,41.556917292325096L220.43603190104167,41.483493230212765L221.27844726562498,41.59322839798008L221.29048177083334,41.69119148757275L222.30138020833334,41.598726801180824L223.516865234375,41.53308387259215L224.16672851562498,41.45273986348586L224.20283203125,41.409313731459534L222.02458658854167,41.147117372990294L222.650380859375,41.06123808872474L223.03548502604167,40.9980254053182L224.51572916666666,40.879750573052064L225.63493815104164,40.81759779391803L225.83952473958334,40.782237550048734L222.71055338541666,40.29156475225148L223.24007161458334,40.29382774023981L223.55296875000002,40.27501422769428L223.86586588541667,40.36291679399504L227.307734375,40.41908661068525L223.92603841145834,40.780019946011834L223.950107421875,40.83961556461234L225.92376627604165,40.704683374140615L228.354736328125,40.71640825039583L226.05614583333332,40.634670118423266L226.188525390625,40.5543381767397L226.52549153645836,40.51661698481989L226.838388671875,40.47232818242839L229.13697916666666,40.421913890793846L229.48597981770834,40.396964659346075L229.70260091145832,40.386195966831615L226.89856119791665,40.259962344638886L227.199423828125,40.165958146800705L228.10201171875,40.16259734901791L228.47508138020834,40.20041648232737L228.72780598958335,40.21249720384953L229.02866861979166,40.21192337113783L229.91922200520833,40.18444256977469L230.42467122395834,40.16086817858355L227.71690755208334,40.42442604495392L228.76390950520832,40.31502238044459L230.09973958333333,40.19103911728584L230.59315429687499,40.102610124017325L231.70032877604166,40.048369731094404L231.80863932291666,40.011733291564646L231.30319010416665,40.00344039269055L230.64129231770835,39.97642228140425L232.00119140625,39.93307491289638L233.6860221354167,39.92199881058505L232.12153645833334,39.8737430417764L232.45850260416665,39.853034345031105L232.55477864583335,39.833728430369305L233.00005533854167,39.799233368985476L232.48257161458332,39.77043642438612L234.54047200520833,39.717185492869504L234.94964518229165,39.68024944676332L235.4189908854167,39.66811915047984L234.29978190104165,39.71266348247541L235.17830078125002,39.7086804462561L237.44078776041667,39.706544123873456L237.452822265625,39.705008831094915L237.65740885416665,39.7050412958358L238.36744466145834,39.713691823942426L238.82475585937502,39.714934793801206L235.936474609375,39.89840532072519L236.93533854166668,39.775316521428195L237.87402994791665,39.702308239679816L239.08951497395833,39.666760106568304L240.56975911458332,39.644465514895835L238.45168619791667,39.630581761194435L239.16172200520833,39.62915634838328L241.36403645833335,39.63443337066187L241.37607096354168,39.63750301284852L241.53251953125002,39.638137658403565L239.72734375,39.636007595042145L240.32906901041665,39.63290677599228L241.27979492187498,39.626785081220405L241.53251953125002,39.62118064074616L239.77548177083335,39.6464392600987L240.268896484375,39.629098229453305L240.593828125,39.62655209088379L240.95486328125003,39.62854925583238L241.90558919270833,39.63625403809146L243.012763671875,39.63350128353199L243.31362630208335,39.6334189124803L242.37493489583332,39.64641867062189L242.48324544270832,39.6353026455155L242.84428059895833,39.65034947467907L242.89241861979167,39.65710814943415L243.18124674479168,39.66269642177854L243.26548828125001,39.663212606756325L243.69873046875,39.669594230720435L244.31249023437502,39.66702536438711L244.87811197916668,39.66230926702636L245.22711263020835,39.6553029050509L246.11766601562502,39.65414108005311L244.84200846354165,39.64028616170377L245.81680338541665,39.62279894854137L245.63628580729167,39.59590159134705L246.14173502604166,39.587838942004446L247.51366861979167,39.58881976602732L247.85063476562502,39.58808040670837L247.9830143229167,39.59123406759271L245.52797526041667,39.57696266277787L245.84087239583332,39.568399819888946L247.236875,39.58901040517119L248.11539388020833,39.59841926393604L249.09018880208336,39.597859880844254L249.76412109375,39.60189409690933L250.00481119791667,39.606499549508484L246.87583984375001,39.586121951927325L247.14059895833333,39.573895393378606L247.53773763020834,39.566559458249415L247.83860026041665,39.562157897171865L247.87470377604168,39.55951696052536L249.76412109375,39.55793239853746L250.7028125,39.556981661344736L250.95553710937497,39.55641121902907L250.96757161458333,39.55606895363968L250.991640625,39.555863594406055L248.71711914062502,39.57418547435195L248.75322265625,39.58439396147748L249.23460286458334,39.58409707024588L250.60653645833335,39.58923035043749L250.6907779947917,39.59716302037534L252.59222981770833,39.593231216088036L250.89536458333333,39.60322117322923L251.79795247395833,39.60078931201041L252.53205729166666,39.60010276472362L251.07588216145834,39.60189990210674L252.74867838541667,39.60172275918933L253.4707486979167,39.59851412426363L254.421474609375,39.59672172868149L254.79454427083334,39.598434784170706L254.91488932291668,39.60320475071073L254.97506184895832,39.605680445912554L255.54068359375,39.60413594224369L256.1664778645833,39.60392145249901L252.760712890625,39.58457509372164L253.03750651041668,39.572967278455216L253.39854166666666,39.56600258929537L254.08450846354165,39.57276046199732L254.48164713541667,39.57434054911678L255.55271809895834,39.577340738975295L256.0942708333333,39.581868988741064L256.2025813802083,39.584175511083174L256.28682291666667,39.58525763954919L255.31202799479166,39.58412034978851L256.51547851562503,39.57269443209531L257.35789388020834,39.57252643573287L257.79113606770835,39.5713271407366L258.9825520833333,39.57660704833085L256.56361653645837,39.56818645122078L257.165341796875,39.563134092954684L257.53841145833337,39.56010267799501L260.811796875,39.564935169079995L257.6226529947917,39.56118332367019L257.8392740885417,39.55893221642436L258.8020345052083,39.55758155207685L259.548173828125,39.5567711534683L260.36652018229165,39.55628491430325L259.3556217447917,39.604471903443084L259.6444498697917,39.61787235105018L259.6685188802083,39.62505555038708L260.125830078125,39.61875471152563L261.18486653645834,39.611739073660196L261.42555664062496,39.60590005226906L261.70235026041667,39.60083942914788L263.13445638020835,39.59626998778389L262.1957649739583,39.59981752109915L262.80952473958337,39.59769690914382L264.54249348958336,39.590545771354336L261.5338671875,39.57654968503485L261.60607421875,39.56815203324312L261.9911783854167,39.58077389681215L263.014111328125,39.578665754102936L264.41011393229167,39.573984662965245L264.49435546875,39.57105529430692L264.6267350260417,39.56912867354597L262.91783528645834,39.5636994263498L264.42214843749997,39.5604418780321L265.36083984375,39.558487349041485L265.93849609374996,39.55731463164715L266.8771875,39.55989442134945L264.0731477864583,39.55815887503191L264.36197591145833,39.55711754724139L264.66283854166664,39.55649275056711L264.9155631510417,39.567054558760375L266.27546223958336,39.5679233005774L268.18894856770834,39.56618719432211L265.20439127604163,39.59534816728769L265.8783235677083,39.606012340042774L268.18894856770834,39.5945089611003L268.2972591145833,39.58734136298829L268.6943977864583,39.5821837348937L269.46460611979165,39.57785787548481" style="fill: none;" fill="none"></path></g></g></g></g><g opacity="0.2"><g><g><g><path stroke="rgb(0, 153, 136)" stroke-width="2px" d="M33.45592447916667,192.68695254855686L31.6266796875,175.55192057291666L32.14416341145833,175.6723629421658L32.18026692708333,175.70537821451822L33.467958984375,172.22854410807292L33.86509765625,171.98479241265193L34.346477864583335,170.8050547281901L32.27654296875,162.18683132595487L32.99861328125,159.55408969455294L34.23816731770833,157.89427252875433L34.996341145833334,156.6249047173394L35.53789388020833,156.11944512261286L33.02268229166666,147.785503133138L33.58830403645833,144.82876519097223L34.17799479166666,145.3755089653863L34.190029296875,145.30440843370226L34.334443359375,145.10975714789495L34.74361653645833,144.03009134928385L36.584895833333334,141.05301310221355L33.74475260416666,132.26388888888889L36.47658528645833,126.65856560601128L37.33103515625,126.66659308539496L35.309238281249996,121.35701904296874L36.139619140624994,122.06298455132378L36.33217122395833,121.98026529947919L36.34420572916667,121.78268669976129L37.04220703125,121.29165242513021L37.306966145833336,117.02881944444445L37.33103515625,117.20635952419705L37.93276041666667,117.78838195800782L38.78721028645833,116.79864807128907L39.665729166666665,116.89603407118057L39.749970703125,116.80229966905381L37.53562174479167,108.68018052842882L37.872587890625,109.64568108452691L38.83534830729167,110.70494622124566L39.581487630208336,111.74378051757813L40.760869140625,112.04248725043404L41.194111328125004,111.67479248046875L38.71500325520834,102.27002699110244L39.7138671875,108.6232638888889L40.821041666666666,109.60186191134984L41.02562825520834,109.64127502441406L42.939114583333335,109.5486572265625L43.035390625,109.6703369140625L40.881214192708335,105.63016086154515L41.049697265625,104.67410617404515L43.08352864583333,104.42932840983072L41.20614583333333,102.64873691134984L41.54311197916667,101.65824856228299L44.082392578125,102.0778805202908L44.25087565104167,102.06396823459202L43.035390625,103.06888190375435L44.59987630208334,101.8111629909939L45.12939453125,102.49832729763453L46.15232747395833,102.4311801486545L46.826259765625,102.28276231553819L43.40846028645833,89.4414811876085L43.84170247395833,98.05523817274306L44.84056640625,99.96312255859375L47.3678125,100.35861172146268L47.59646809895833,100.49930386013453L44.93684244791666,100.54309285481771L45.98384440104167,97.83665534125434L48.36667643229166,98.1933349609375L48.71567708333333,98.45730624728732L46.36894856770833,96.05515848795572L46.513362630208334,96.41666666666669L48.234296875000005,96.91883680555556L49.58216145833333,96.53255208333331L47.86122721354167,95.14041815863716L48.35464192708333,94.39488864474825L51.086474609375,95.45822787814669L48.523125,95.953125L48.559228515625,95.88691338433159L48.73974609375,95.36597222222223L49.136884765625,96.33476223415799L52.47044270833334,95.07755635579427L52.59078776041667,95.06361389160156L49.50995442708333,92.75248446994357L51.41140625,93.92289699978299L52.313994140625,93.32889370388453L53.68592773437501,93.61402011447481L50.677301432291664,85.90972222222221L52.386201171875,92.97897406684028L52.44637369791667,92.69659389919705L52.554684244791666,93.07101847330729L54.010859375,92.37999131944444L54.13120442708333,92.35989244249132L55.25041341145833,92.6232903374566L55.08193033854167,91.36511874728731L55.68365559895833,91.87293226453994L55.76789713541667,91.92372266981337L52.963857421875005,98.27083333333331L56.1770703125,90.32604302300346L55.17820638020833,86.78227301703559L56.213173828125,89.07227749294704L56.36962239583333,89.87333543565538L57.729521484375,89.69712320963544L57.946142578125,89.86331617567274L56.18910481770833,86.98458964029948L56.95931315104167,88.95352511935765L57.898004557291664,86.689262898763L57.98224609375001,86.59063958062066L59.37824869791667,88.19441528320313L60.341009114583336,88.448880343967L60.858492838541665,88.48928934733073L58.379384765625,86.27328253851996L58.94500651041667,87.61251356336805L60.184560546875,87.75465426974826L60.19659505208333,87.66903788248698L60.461354166666666,87.57901543511285L61.30376953125,88.47444152832031L61.92956380208334,88.09793463812935L61.96566731770833,88.14108988444012L62.422978515625005,88.30529106987846L59.19773111979166,84.44591437445747L59.29400716145834,85.33744744194878L59.84759440104167,86.6716990152995L60.834423828125004,86.78695068359374L61.06307942708333,87.13518032497831L61.14732096354167,84.84146389431424L61.78514973958333,87.0628122965495L62.02583984375,86.7123796251085L62.39890950520833,86.66140814887153L62.50722005208333,86.70619303385416L62.916393229166665,86.66874152289496L64.34849934895833,87.23667060004341L61.73701171875,86.11575080023871L64.2642578125,86.63077697753906L64.32443033854167,86.62869466145834L62.796048177083335,83.67784152560763L63.1089453125,85.62879062228734L64.62529296875,86.78227301703559L65.70839843750001,86.81749131944444L68.18750651041667,86.72873636881512L65.43160481770833,84.65689222547743L66.57488281250001,82.84286295572916L66.899814453125,83.34421827528212L67.1525390625,83.67784152560763L67.296953125,83.88172743055556L67.477470703125,83.8196804470486L67.50153971354166,84.94579094780816L68.72905924479167,85.55823330349394L69.23450846354166,84.96920945909288L69.84826822916666,85.0659918891059L70.12506184895832,84.71896938747831L70.83509765625,84.97304212782119L68.90957682291666,83.89859720865887L69.80013020833333,84.92083333333333L68.65685221354167,81.58333333333334L70.35371744791667,82.77710401746963L71.232236328125,83.35565592447917L71.54513346354167,83.26092563205295L71.76175455729167,83.57146233452691L72.47179036458334,84.25901896158854L73.073515625,84.55564337836371L71.79785807291667,83.50823838975694L71.87006510416667,83.39437493218315L72.23110026041667,83.4925757514106L72.33941080729167,83.44920925564237L72.45975585937501,83.19697740342882L73.56693033854167,83.55993414984809L73.67524088541667,83.654392835829L73.92796549479166,84.00871853298612L71.1961328125,78.3771701388889L71.42478841145834,80.70040113661025L73.80762044270833,83.88049011230468L74.89072591145833,84.11105380588107L72.42365234374999,85.90972222222221L73.12165364583333,86.27566663953993L74.914794921875,82.9567867702908L74.93886393229167,82.88752712673612L75.32396809895833,82.97456190321181L74.625966796875,82.97241923014325L74.914794921875,84.10498792860244L77.67069661458333,83.34322238498265L75.39617513020833,80.4423146565755L75.64889973958334,82.10077379014757L77.24948893229167,83.83543362087674L78.11597330729167,84.00883924696181L78.380732421875,83.81663241916232L79.13890625,83.15641750759549L76.82828125,79.39807840983075L79.13890625,81.85653923882379L80.48677083333334,82.91501973470052L77.56238606770833,81.37730475531684L78.06783528645833,82.71288418240016L80.07759765624999,83.14793735080296L80.45066731770834,82.8519768608941L78.65752604166666,81.78936191134981L79.29535481770834,80.56248541937934L79.59621744791667,80.54238654242621L79.86097656250001,80.43356289333768L81.124599609375,81.06272413465712L82.31601562499999,81.48335198296441L82.48449869791668,81.68458218044704L82.83349934895833,81.76244269476997L82.92977539062501,81.77716979980468L79.77673502604166,77.70449150933159L80.96815104166666,78.47374131944444L83.74812174479166,81.26138916015626L81.02832356770834,76.82617662217882L81.5939453125,79.14973958333334L83.98881184895833,81.66750115288629L84.63867513020833,82.06775851779513L82.73722330729166,80.2236111111111L84.43408854166667,81.07401089138456L83.97677734375,77.74822014702691L85.33667643229167,80.57051289876303L87.23812825520832,81.20788269042968L84.37391601562501,80.85289306640625L85.601435546875,78.7719953748915L88.73040690104168,81.0961920844184L86.540126953125,78.84623446994357L86.70861002604167,78.46363152398003L87.63526692708334,79.08395046657985L89.01923502604166,80.61357760959203L90.12640950520833,80.84930182562934L87.31033528645834,74.78472222222221L87.79171549479166,76.08589816623265L88.00833658854168,77.13116048177083L88.11664713541666,77.22148471408421L89.03126953125,78.38691779242622L90.30692708333333,79.72916666666666L90.34303059895834,79.76942477756076L90.403203125,79.75889248318141L91.25765299479167,80.3988576253255L89.16364908854166,79.72916666666666L89.70520182291666,78.96661648220487L90.35506510416667,79.31315612792969L90.367099609375,79.37429775661893L90.63185872395835,79.70239834255644L90.82441080729167,79.82926873101128L89.74130533854166,76.42202623155382L89.77740885416667,76.484375L90.367099609375,76.1852759467231L90.655927734375,77.12681477864584L93.36369140625,79.33207804361979L90.63185872395835,75.94107157389323L91.41410156250001,77.54022996690537L91.69089518229167,77.88538140190973L92.70179361979167,78.64832390679253L92.73789713541666,78.7690680609809L92.79806966145833,78.85042928059896L93.60438151041667,79.59577772352431L93.82100260416667,79.69784138997396L91.69089518229167,77.45210876464844L93.59234700520834,77.96577690972222L94.96428059895833,78.05127258300782L95.27717773437499,78.03292405870225L95.52990234375,78.5680189344618L95.602109375,78.5703125L94.00152018229167,76.24913363986546L96.87776692708333,78.8991977267795L93.94134765625,74.57869364420573L94.39865885416665,74.18069966634116L94.735625,75.09375L96.10755859375,77.17054341634115L96.97404296875,77.44139539930556L96.13162760416667,74.8128184000651L97.03421549479168,75.63406575520834L98.11732096354167,76.65111117892796L97.11845703125,77.03621893988715L97.23880208333334,77.0251736111111L97.64797526041667,78.04849616156685L97.76832031250001,77.48621046278213L98.08121744791667,77.79258253309462L98.62277018229166,77.73237643771701L98.89956380208332,77.71623094346788L99.80215169270834,78.35806715223525L100.59642903645833,79.04912448459203L98.454287109375,75.45619371202257L100.01877278645833,76.88786146375868L100.15115234375,76.83378160264756L100.39184244791667,77.14969007703993L99.74197916666667,78.07867465549045L101.43884440104166,77.09769253200956L101.90819010416666,77.3422590467665L102.25719075520833,77.63776685926649L103.30419270833335,77.54825744628906L100.37980794270834,77.92023756239149L100.403876953125,78.29182535807291L100.86118815104167,77.70714721679687L101.13798177083333,78.12460632324219L103.689296875,77.52882249620225L104.45950520833334,77.64730326334634L102.136845703125,74.22349277072482L102.23312174479166,74.29679633246528L104.32712565104167,75.97257792154947L104.72426432291667,76.00444641113282L105.61481770833332,76.433403523763L102.58212239583334,74.32118055555556L103.61708984375001,74.13857048882379L104.79647135416667,75.19774509006078L105.06123046875001,75.37591891818577L106.01195638020833,76.38886006673178L106.72199218749999,76.61368984646266L104.591884765625,73.24299350314669L104.77240234375,73.31539171006943L106.77013020833333,74.79836290147568L104.78443684895834,70.89981452094185L105.20564453125,72.22419772677951L106.09619791666667,72.50962592230903L107.841201171875,74.36557312011719L108.14206380208334,74.58590630425347L108.91227213541667,74.52865770128038L109.08075520833333,74.85603400336372L107.191337890625,77.07210116916234L108.39478841145834,76.57916564941407L109.20110026041667,76.72912258572048L109.63434244791667,76.02083333333334L109.646376953125,76.05306396484374L109.99537760416668,76.02083333333334L110.01944661458334,76.06426018608941L111.21086263020834,75.92296447753907L110.28420572916667,73.71821424696181L110.35641276041666,73.76674126519097L110.42861979166668,73.75931735568575L110.4767578125,73.84046732584635L110.48879231770833,73.92421264648438L111.87276041666667,74.71790703667534L111.15069010416667,71.32180040147568L112.33007161458335,72.10912712944878L112.45041666666665,72.2441155327691L112.534658203125,72.24354214138454L112.75127929687501,72.3308787027995L111.49969075520833,74.35685153537325L112.59483072916666,73.29109802246094L113.00400390624999,73.38597920735675L113.220625,73.31089511447482L113.12434895833333,72.34340277777778L113.96676432291667,73.60314364963106L115.37480143229168,74.05467427571615L115.53125,74.24908413357205L113.13638346354166,58.097222222222214L113.48538411458334,72.5185285780165L113.95472981770834,72.02586466471354L114.77307617187499,69.45607537163629L115.08597330729168,69.42825080023871L115.57938802083333,70.04232279459634L115.88025065104166,71.34470587836371L116.07280273437499,71.52393595377603L117.55304687499999,72.99513753255209L118.29918619791667,72.88371853298612L117.300322265625,71.21514960394965L117.49287434895834,71.595851304796L118.38342773437499,71.77529262966578L118.98515299479166,72.53645460340712L117.11980468750001,71.23090277777779L118.094599609375,71.96245964898003L118.10663411458333,72.05767279730902L120.16453450520832,73.47271219889322L120.22470703125,73.4633568657769L120.53760416666667,73.47038845486112L121.271708984375,73.16335245768231L118.75649739583334,72.09436984592013L119.58687825520832,72.646334499783L120.08029296875,71.81250271267362L120.59777669270832,71.95452270507812L122.18633138020833,72.57689378526476L122.3187109375,72.8185028076172L120.52556966145833,70.968893093533L121.65681315104167,70.5766330295139L121.82529622395833,70.6800547281901L122.04191731770833,70.62503933376735L122.95653971354167,70.60074564615887L123.076884765625,70.40965542263456L123.52216145833333,70.81634080674912L123.06485026041666,69.38862643771701L124.41271484375001,70.21201646592881L125.19495768229167,70.7019039577908L125.27919921875001,70.59078674316406L125.37547526041666,70.71349249945747L125.95313151041667,71.56199103461371L126.06144205729167,71.67196146647134L126.77147786458333,72.17002733018663L126.92792643229167,72.07915988498263L125.31530273437501,69.9387200249566L125.71244140625001,69.5693352593316L128.45630859374998,71.08631761338975L126.24195963541666,67.74576958550347L127.62592773437501,69.31266716851128L128.21561848958333,69.61885816786025L128.88955078125,70.23902621799044L126.97606445312499,64.5201412624783L127.07234049479167,64.27777777777779L128.275791015625,67.40692545572917L128.66089518229168,68.41971571180557L130.080966796875,70.10829298231337L130.4058984375,69.92489827473959L130.42996744791668,70.01947767469619L128.01103190104166,68.28677944607206L128.853447265625,68.20559929741754L129.26262044270834,68.92414923773872L129.59958658854165,69.05032552083334L131.23627929687498,69.961866929796L128.84141276041666,62.21758253309463L130.008759765625,66.91800367567275L130.1170703125,66.98177083333334L130.261484375,67.21852111816406L130.49013997395832,67.67059495713976L130.6947265625,68.19856770833334L131.34458984375,68.11895684136285L131.48900390625,68.31155598958334L131.78986653645833,68.72234564887152L132.23514322916665,68.8273668077257L129.98469075520833,67.36805555555556L130.21334635416665,64.74131944444444L131.47696940104166,67.61527777777778L134.13659505208332,69.94925231933594L134.38931966145833,70.04573296440972L131.54917643229166,67.16869642469618L132.59617838541666,67.89183349609375L132.608212890625,67.88742743598091L133.06552408854168,68.03729383680556L133.48673177083333,68.39813808865019L135.70108072916668,69.32413499620225L136.19449544270833,69.61997477213541L136.940634765625,69.42281867133246L134.36525065104166,67.08280843098959L135.3159765625,66.65985683865019L135.568701171875,67.18076782226562L135.66497721354168,67.17156338161891L135.84549479166665,67.220120578342L137.09708333333333,68.02419637044271L137.12115234375,68.01976013183594L138.2042578125,68.42228088378906L137.085048828125,65.84718017578125L137.16929036458333,65.76047736273871L137.96356770833333,66.74764607747396L138.023740234375,66.77067226833766L139.27532877604168,67.79888373480902L139.47991536458332,68.001954820421L136.78418619791668,64.41825866699219L139.29939778645834,67.44673088921441L139.49194986979165,67.50612216525609L139.6483984375,67.41887613932293L140.06960611979167,67.69621649848091L140.38250325520832,68.01152140299479L139.68450195312502,67.8607194688585L140.406572265625,67.65740695529513L140.767607421875,67.69060329861112L140.99626302083334,67.78856268988716L138.56529296875001,60.5252933078342L139.19108723958334,62.96676364474826L139.56415690104168,63.95918341742622L140.25012369791665,64.59884677463107L142.00716145833331,66.78090277777778L139.901123046875,68.72777777777777L140.29826171875,68.7000739203559L143.34299153645833,67.16933017306859L143.75216471354165,67.21577487521701L143.55961263020833,66.09956292046441L144.90747721354165,66.24432915581598L145.20833984375,65.671873304579L145.87023763020835,66.3861077202691L146.05075520833336,66.52191094292535L143.78826822916668,65.88728739420573L144.67882161458334,65.06302218967015L144.87137369791668,65.24068298339844L145.00375325520835,65.10738457573784L146.37568684895834,65.34703199598525L147.10979166666667,65.27925109863281L147.121826171875,65.2761728922526L147.81982747395833,65.55260789659287L144.55847656249998,61.96006944444445L146.0026171875,64.90986633300781L147.69948242187502,65.27390950520834L147.988310546875,65.19342346191407L146.12296223958333,63.10051472981772L147.27827473958334,64.09863823784723L147.988310546875,64.34051886664497L148.12069010416667,64.42634650336372L148.03644856770833,63.818823242187506L149.37227864583332,64.49642096625435L149.70924479166666,64.4709201388889L150.32300455729168,64.4370598687066L151.4903515625,64.7875227186415L148.36138020833334,61.4082255045573L148.42155273437498,62.311226399739574L148.62613932291666,61.496527777777786L149.69721028645836,62.588144259982634L149.51669270833335,64.6640625L151.8273177083333,63.03309597439236L151.97173177083334,62.922401258680566L153.74080403645834,63.659722222222214L153.86114908854168,63.699859619140625L153.93335611979165,63.71609564887153L150.479453125,65.05034722222221L150.85252278645834,64.54265441894532L150.876591796875,64.1107398139106L151.04507486979165,63.79302062988282L151.11728190104168,63.95248379177517L151.99580078125,63.42200622558593L154.96832356770835,64.52370232476129L152.52531901041667,63.10848185221355L152.83821614583334,62.94895833333333L153.92132161458335,62.9440694173177L154.24625325520833,63.32362433539497L155.08866861979166,63.91168246799045L155.90701497395833,63.81640896267361L153.39180338541667,59.306474473741325L153.96945963541668,60.562865532769095L154.16201171875,60.37280137803819L154.46287434895834,59.33333333333334L156.08753255208333,60.38764919704861L156.17177408854167,60.4018330891927L157.62794921875,61.7993387858073L157.91677734375,62.012851630316845L158.20560546874998,62.09849819607205L155.44970377604164,59.36969841851128L156.59298177083335,61.04955410427517L157.92881184895833,61.4230733235677L158.14543294270834,61.53370768229167L157.17063802083334,61.34201388888889L158.35001953125,62.12632276746961L160.61250651041667,62.25925903320312L160.81709309895834,62.37082892523871L157.78439778645833,58.37815382215711L160.88930013020834,60.08465711805556L159.74602213541667,58.932442220052074L160.27554036458332,60.00899963378906L160.69674804687497,59.83423597547744L161.34661132812502,60.321618652343744L161.73171549479167,60.99354281955295L162.59819986979167,61.27691887749566L162.92313151041668,61.34291924370659L162.97126953125002,61.31400824652778L163.46468424479167,61.66353556315105L160.22740234375,62.95336439344617L162.285302734375,60.58616333007812L162.33344075520833,60.68062201605903L162.48988932291667,60.52966918945313L163.4526497395833,60.04780917697483L163.50078776041667,60.042165798611116L163.93402994791666,60.448519219292535L161.4789908854167,61.01581454806858L161.563232421875,60.56944444444445L162.09275065104165,58.41071641710069L162.73057942708334,57.56529608832466L162.61023437499998,56.55208333333334L163.3323046875,55.1357160780165L164.34320312499997,56.88884514702691L165.22172200520833,58.744973415798604L165.390205078125,58.88569573296441L167.17131184895834,59.958299763997395L165.3541015625,56.97147386338975L167.83320963541667,59.052884589301215L167.94152018229167,59.063477240668405L165.07730794270833,59.00613810221355L166.70196614583335,57.36530320909287L167.13520833333334,58.080774943033845L168.51917643229166,57.99521891276041L167.195380859375,57.69847378200955L167.6165885416667,57.759223090277786L169.53007486979166,57.817256334092875L170.21604166666668,58.38470255533854L170.62521484375,58.49781155056423L167.6647265625,59.062934027777786L168.09796874999998,57.915426974826396L169.4578678385417,57.39720187717014L169.650419921875,57.45405815972222L170.60114583333333,57.31345655653211L171.63611328124998,57.56795179578994L170.5048697916667,58.115631103515625L173.044150390625,57.022837660047735L173.56163411458334,57.23348354763454L174.28370442708334,57.530952962239574L171.022353515625,56.97349582248264L171.33525065104166,56.593850368923604L172.41835611979167,55.22594977484809L173.044150390625,55.766567314995655L173.766220703125,56.674909803602425L174.199462890625,56.72627360026042L174.83729166666666,56.42958882649739L174.88542968750002,56.46830783420139L175.04187825520833,56.52969089084201L175.210361328125,56.676901584201396L175.49918945312498,56.822392103407125L172.1415625,58.097222222222214L172.61090820312498,57.091071234809036L172.77939127604168,56.36232096354167L174.271669921875,55.28012017144097L174.343876953125,55.27133822970921L174.83729166666666,55.481320190429685L175.05391276041667,55.76068250868056L175.33070638020834,55.9260002983941L176.60636393229166,56.28424919976128L174.36794596354164,56.7083475748698L174.560498046875,56.6256585015191L174.921533203125,56.1057132297092L174.87339518229166,52.913522677951384L174.96967122395833,53.65989718967014L176.51008789062502,54.39628261990017L178.84478190104167,55.23808152940538L177.00350260416667,54.89247741699219L176.9914680989583,60.30456780327691L177.64133138020836,56.47609388563369L177.94219401041667,55.15068461100261L179.45854166666666,54.65711534288194L180.43333658854166,54.595611572265625L181.16744140625,54.69266560872395L181.39609700520836,54.76669345431858L182.32275390625,54.76856452094184L179.4224381510417,55.00694444444445L180.54164713541667,53.492104763454854L180.73419921875,53.173721652560765L181.095234375,53.19035000271267L181.97375325520835,53.95821160210504L183.34568684895834,54.62871738009982L180.90268229166665,53.46180555555555L181.72102864583334,53.46180555555555L182.81616861979165,53.27575514051649L182.84023763020832,53.27765638563369L182.91244466145835,53.20559014214409L185.102724609375,53.611853027343756L183.52620442708331,51.97847222222222L183.95944661458333,52.24896206325955L185.39155273437498,53.22369723849827L183.008720703125,53.68253106011285L183.67061848958335,52.06620110405815L184.3926888020833,51.739368014865455L185.53596679687502,52.18724704318577L185.80072591145836,51.160785929361985L186.33024414062498,51.173641967773435L186.37838216145835,51.189546034071185L186.474658203125,51.25107998318142L188.25576497395832,51.82658386230469L188.82138671875,52.09097764756945L186.113623046875,53.438024902343756L186.13769205729167,53.25423787434895L188.15948893229168,52.15335659450955L188.82138671875,51.95927870008681L189.15835286458335,52.13045111762153L189.55549153645836,52.54175381130643L189.96466471354168,52.89592861599392L187.94286783854167,51.33557976616753L188.15948893229168,51.09258253309463L189.51938802083333,51.405774943033855L190.012802734375,51.54242316351997L187.95490234375,50.02815687391494L189.20649088541668,50.09288974338107L189.60362955729167,50.44130045572917L190.373837890625,50.05401984320747L190.49418294270833,50.05441216362847L191.44490885416667,50.69259677463108L191.62542643229168,50.825985717773435L192.07070312500002,50.860811699761285L191.66152994791665,49.79723103841147L191.75780598958335,49.86968960232205L192.467841796875,50.32405700683594L192.63632486979165,50.48729248046875L191.13201171875,49.20325792100694L191.83001302083335,49.04711439344617L191.91425455729168,49.16275838216145L191.96239257812502,49.09244249131945L192.01053059895833,49.06564398871528L193.70739583333332,49.327502780490455L194.10453450520833,49.58721889919705L194.2369140625,49.726190863715274L192.73260091145832,50.08935885959202L192.91311848958335,50.30021599663628L193.16584309895833,50.29988403320313L193.34636067708334,50.03642578125L194.76643229166666,50.08860439724392L192.7927734375,47.43576388888889L193.97215494791666,47.70027838812935L195.88564127604167,49.495778062608515L196.15040039062498,49.46716885036893L196.67991861979166,49.466082424587675L197.016884765625,49.55106506347656L194.57388020833332,45.64521348741319L196.13836588541668,47.43733317057292L196.67991861979166,47.49108106825088L195.717158203125,48.679238552517354L196.99281575520834,47.47324557834201L197.02891927083334,47.55074395073784L197.34181640625002,47.65582546657986L197.71488606770833,48.19212748209636L196.36702148437502,48.82638888888889L196.42719401041668,48.82638888888889L196.52347005208333,49.23841586642795L198.47305989583333,48.536675347222214L199.110888671875,48.81377427842881L199.45988932291667,48.747441948784726L200.36247721354167,48.77327473958334L197.97964518229165,49.97766825358074L198.01574869791668,50.02815687391494L199.52006184895833,48.48111673990886L198.58137044270836,55.00694444444445L198.97850911458332,46.4632317437066L199.48395833333333,46.30536804199218L200.121787109375,46.59852193196614L201.024375,47.03888651529949L201.19285807291666,47.09698011610242L201.277099609375,47.095833333333324L202.23986002604167,47.40790913899739L200.89199544270832,46.93235643174913L201.28913411458333,46.64357842339409L201.72237630208335,46.346531507704L203.44331054687498,46.86077304416232L203.88858723958333,47.01018676757812L202.80548177083335,46.264717610677074L203.09430989583336,46.08726806640625L203.55162109375,45.99603847927518L203.623828125,46.07323506673176L205.59748697916666,47.297335137261285L202.27596354166667,45.34982638888889L202.68513671875,46.03041178385417L205.59748697916666,46.25841030544705L203.41924153645832,46.766193644205735L206.06683268229165,46.41512722439236L205.031865234375,45.485539076063375L205.645625,45.94681735568576L206.77686848958334,45.379552205403655L208.17287109375,45.39388699001736L208.83476888020834,45.28089870876736L209.19580403645833,45.33268500434028L209.24394205729166,45.30492078993056L206.63245442708333,45.38293219672309L206.9573860677083,45.41751675075955L207.16197265625001,45.19395446777344L207.46283528645833,45.0246832953559L208.47373372395836,44.821491495768235L210.18263346354166,45.067265150282125L210.375185546875,45.02235955132379L210.447392578125,45.04140218098959L209.68921874999998,44.85317891438802L210.25484049479167,44.99489712185329L208.20897460937502,39.55555555555555L209.94194335937502,43.839332411024316L210.519599609375,43.94278428819445L210.71215169270832,44.006159125434024L211.07318684895833,44.01641981336806L211.8794986979167,44.18086242675781L212.04798177083333,44.287543402777786L210.20670247395833,43.060938517252595L211.63880859375,43.061179945204L212.5775,43.6056905110677L213.696708984375,44.177995469835075L213.768916015625,44.16969638400608L214.03367513020834,44.17893100314671L211.61473958333335,43.12410210503472L212.830224609375,43.314015367296015L213.75688151041666,43.60122409396701L214.09384765624998,43.60487569173177L215.213056640625,43.743153550889765L212.21646484375,43.2820563422309L212.61360351562502,43.33767530653211L213.39584635416668,43.254533555772575L215.02050455729167,42.969920179578985L213.33567382812498,43.21810811360677L214.53912434895832,42.840484619140625L215.53798828125,42.80771077473958L216.3924381510417,42.84377407497829L217.55978515625,43.06277940538195L217.70419921875,43.06579725477431L214.53912434895832,42.53136630588107L214.83998697916667,42.64583333333334L215.99529947916668,43.23048129611545L217.75233723958334,43.12935316297744L218.55864908854167,42.954016113281256L219.77413411458335,42.46657307942709L220.08703125,42.47858412000869L217.23485351562502,41.67634921603733L219.220546875,41.71588304307726L220.8091015625,41.74005601671008L221.18217122395833,41.66738620334201L221.27844726562498,41.679608493381075L221.61541341145835,41.9002434624566L222.32544921875,41.86912943522136L219.16037434895833,42.083970133463545L219.91854817708332,41.51830444335937L222.27731119791665,41.2380367702908L220.43603190104167,41.37335713704428L221.27844726562498,41.75783114963108L221.29048177083334,41.83813612196181L222.30138020833334,41.46002977159287L223.516865234375,41.434619479709205L224.16672851562498,41.332223849826384L224.20283203125,41.34417453342014L222.02458658854167,40.75382283528645L222.650380859375,40.93241916232639L223.03548502604167,40.903206380208324L224.51572916666666,40.702338324652786L225.63493815104164,40.72436862521702L225.83952473958334,40.72919718424478L222.71055338541666,39.55555555555555L223.24007161458334,40.29722222222222L223.55296875000002,40.24679395887586L223.86586588541667,40.49477064344619L227.307734375,40.503341335720485L223.92603841145834,41.32141994900173L223.950107421875,40.92900899251301L225.92376627604165,40.502285088433155L228.354736328125,40.733995564778645L226.05614583333332,40.5120629204644L226.188525390625,40.43384026421441L226.52549153645836,40.460035196940105L226.838388671875,40.40589497884114L229.13697916666666,40.34629245334201L229.48597981770834,40.35954081217448L229.70260091145832,40.370042928059895L226.89856119791665,40.07061191134982L227.199423828125,40.02495185004341L228.10201171875,40.157556152343744L228.47508138020834,40.25714518229167L228.72780598958335,40.23061828613281L229.02866861979166,40.211062622070315L229.91922200520833,40.143221367730035L230.42467122395834,40.12550659179688L227.71690755208334,40.81976284450955L228.76390950520832,40.150916883680566L230.09973958333333,40.00506422254774L230.59315429687499,39.96996663411458L231.70032877604166,39.967009141710065L231.80863932291666,39.95677863226997L231.30319010416665,39.991001044379345L230.64129231770835,39.935895114474825L232.00119140625,39.868053860134545L233.6860221354167,39.90538465711806L232.12153645833334,39.80135938856336L232.45850260416665,39.82197129991319L232.55477864583335,39.80476955837674L233.00005533854167,39.747490776909714L232.48257161458332,39.72724100748699L234.54047200520833,39.63730909559461L234.94964518229165,39.62484537760417L235.4189908854167,39.64992370605469L234.29978190104165,39.77947998046875L235.17830078125002,39.702705891927074L237.44078776041667,39.70333964029948L237.452822265625,39.702705891927074L237.65740885416665,39.705089992947045L238.36744466145834,39.726667616102425L238.82475585937502,39.71679924858941L235.936474609375,40.17361111111111L236.93533854166668,39.59068332248264L237.87402994791665,39.5927958170573L239.08951497395833,39.61343790690105L240.56975911458332,39.611023627387155L238.45168619791667,39.60975613064236L239.16172200520833,39.62701822916667L241.36403645833335,39.64234890407986L241.37607096354168,39.64210747612847L241.53251953125002,39.639089626736116L239.72734375,39.6328125L240.32906901041665,39.62825554741754L241.27979492187498,39.6176025390625L241.53251953125002,39.61277398003472L239.77548177083335,39.68432718912761L240.268896484375,39.60308668348524L240.593828125,39.62273288302952L240.95486328125003,39.631545003255205L241.90558919270833,39.64781121148003L243.012763671875,39.6293721516927L243.31362630208335,39.633295355902774L242.37493489583332,39.6659183078342L242.48324544270832,39.61862860785591L242.84428059895833,39.67291971842449L242.89241861979167,39.66724616156684L243.18124674479168,39.67107883029514L243.26548828125001,39.66398688422309L243.69873046875,39.67916666666667L244.31249023437502,39.66317206488715L244.87811197916668,39.65523512098525L245.22711263020835,39.644793362087675L246.11766601562502,39.65239834255642L244.84200846354165,39.619503784179685L245.81680338541665,39.596568128797735L245.63628580729167,39.55555555555555L246.14173502604166,39.57574496799045L247.51366861979167,39.59029100206164L247.85063476562502,39.58697136773003L247.9830143229167,39.59596455891927L245.52797526041667,39.55555555555555L245.84087239583332,39.55555555555555L247.236875,39.61992628309463L248.11539388020833,39.61253255208333L249.09018880208336,39.5970208062066L249.76412109375,39.60794542100695L250.00481119791667,39.613407728407125L246.87583984375001,39.55555555555555L247.14059895833333,39.55555555555555L247.53773763020834,39.55555555555555L247.83860026041665,39.55555555555555L247.87470377604168,39.55555555555555L249.76412109375,39.55555555555555L250.7028125,39.55555555555555L250.95553710937497,39.55555555555555L250.96757161458333,39.55555555555555L250.991640625,39.55555555555555L248.71711914062502,39.60166829427083L248.75322265625,39.5997066921658L249.23460286458334,39.58365173339844L250.60653645833335,39.59693027072483L250.6907779947917,39.60906202528213L252.59222981770833,39.58733350965713L250.89536458333333,39.61820610894097L251.79795247395833,39.5971415201823L252.53205729166666,39.5990729437934L251.07588216145834,39.60459560818142L252.74867838541667,39.60145704481337L253.4707486979167,39.593701171875L254.421474609375,39.59403313530815L254.79454427083334,39.60100436740452L254.91488932291668,39.610359700520824L254.97506184895832,39.60939398871528L255.54068359375,39.60181918674045L256.1664778645833,39.603599717881934L252.760712890625,39.55555555555555L253.03750651041668,39.55555555555555L253.39854166666666,39.55555555555555L254.08450846354165,39.58289727105034L254.48164713541667,39.576710679796015L255.55271809895834,39.58184102376301L256.0942708333333,39.58866136338975L256.2025813802083,39.58763529459636L256.28682291666667,39.58688083224826L255.31202799479166,39.582414415147575L256.51547851562503,39.55555555555555L257.35789388020834,39.57227444118923L257.79113606770835,39.56952819824218L258.9825520833333,39.584526909722214L256.56361653645837,39.55555555555555L257.165341796875,39.55555555555555L257.53841145833337,39.55555555555555L260.811796875,39.57218390570746L257.6226529947917,39.55555555555555L257.8392740885417,39.55555555555555L258.8020345052083,39.55555555555555L259.548173828125,39.55555555555555L260.36652018229165,39.55555555555555L259.3556217447917,39.676752387152774L259.6444498697917,39.63797302246094L259.6685188802083,39.63583034939236L260.125830078125,39.609303453233515L261.18486653645834,39.601215616861985L261.42555664062496,39.5971415201823L261.70235026041667,39.593248494466145L263.13445638020835,39.589415825737845L262.1957649739583,39.60513882107205L262.80952473958337,39.59451599121094L264.54249348958336,39.57981906467014L261.5338671875,39.55555555555555L261.60607421875,39.55555555555555L261.9911783854167,39.5997066921658L263.014111328125,39.575503540039065L264.41011393229167,39.56696302625869L264.49435546875,39.56666124131944L264.6267350260417,39.566238742404515L262.91783528645834,39.55555555555555L264.42214843749997,39.55555555555555L265.36083984375,39.55555555555555L265.93849609374996,39.55555555555555L266.8771875,39.56376410590278L264.0731477864583,39.55555555555555L264.36197591145833,39.55555555555555L264.66283854166664,39.55555555555555L264.9155631510417,39.58289727105034L266.27546223958336,39.56922641330295L268.18894856770834,39.563583034939235L265.20439127604163,39.639089626736116L265.8783235677083,39.622008599175345L268.18894856770834,39.57725389268663L268.2972591145833,39.57658996582032L268.6943977864583,39.574447292751735L269.46460611979165,39.57136908637153" style="fill: none;" fill="none"></path></g></g></g></g></g></g><g transform="translate(41, 178)" clip-path="url(#clip_1)"><clipPath id="clip_1"><rect width="288" height="22"></rect></clipPath><g><g><line x1="0" y1="0" x2="0" y2="5" style="visibility: inherit;" fill="rgb(0, 0, 0)" stroke="rgb(204, 204, 204)" stroke-width="1px"></line><line x1="24.069010416666664" y1="0" x2="24.069010416666664" y2="5" style="visibility: inherit;" fill="rgb(0, 0, 0)" stroke="rgb(204, 204, 204)" stroke-width="1px"></line><line x1="48.13802083333333" y1="0" x2="48.13802083333333" y2="5" style="visibility: inherit;" fill="rgb(0, 0, 0)" stroke="rgb(204, 204, 204)" stroke-width="1px"></line><line x1="72.20703125" y1="0" x2="72.20703125" y2="5" style="visibility: inherit;" fill="rgb(0, 0, 0)" stroke="rgb(204, 204, 204)" stroke-width="1px"></line><line x1="96.27604166666666" y1="0" x2="96.27604166666666" y2="5" style="visibility: inherit;" fill="rgb(0, 0, 0)" stroke="rgb(204, 204, 204)" stroke-width="1px"></line><line x1="120.34505208333334" y1="0" x2="120.34505208333334" y2="5" style="visibility: inherit;" fill="rgb(0, 0, 0)" stroke="rgb(204, 204, 204)" stroke-width="1px"></line><line x1="144.4140625" y1="0" x2="144.4140625" y2="5" style="visibility: inherit;" fill="rgb(0, 0, 0)" stroke="rgb(204, 204, 204)" stroke-width="1px"></line><line x1="168.48307291666669" y1="0" x2="168.48307291666669" y2="5" style="visibility: inherit;" fill="rgb(0, 0, 0)" stroke="rgb(204, 204, 204)" stroke-width="1px"></line><line x1="192.55208333333331" y1="0" x2="192.55208333333331" y2="5" style="visibility: inherit;" fill="rgb(0, 0, 0)" stroke="rgb(204, 204, 204)" stroke-width="1px"></line><line x1="216.62109375" y1="0" x2="216.62109375" y2="5" style="visibility: inherit;" fill="rgb(0, 0, 0)" stroke="rgb(204, 204, 204)" stroke-width="1px"></line><line x1="240.69010416666669" y1="0" x2="240.69010416666669" y2="5" style="visibility: inherit;" fill="rgb(0, 0, 0)" stroke="rgb(204, 204, 204)" stroke-width="1px"></line><line x1="264.7591145833333" y1="0" x2="264.7591145833333" y2="5" style="visibility: inherit;" fill="rgb(0, 0, 0)" stroke="rgb(204, 204, 204)" stroke-width="1px"></line><line x1="288.828125" y1="0" x2="288.828125" y2="5" style="visibility: inherit;" fill="rgb(0, 0, 0)" stroke="rgb(204, 204, 204)" stroke-width="1px"></line></g><g transform="translate(0, 8)"><text x="0" y="0" dx="0em" dy="0.95em" style="text-anchor: middle; visibility: hidden; font-family: Roboto, sans-serif; font-size: 12px; font-weight: 200;" fill="rgb(50, 49, 63)" stroke="none" stroke-width="1px">-2k</text><text x="24.069010416666664" y="0" dx="0em" dy="0.95em" style="text-anchor: middle; visibility: inherit; font-family: Roboto, sans-serif; font-size: 12px; font-weight: 200;" fill="rgb(50, 49, 63)" stroke="none" stroke-width="1px">0</text><text x="48.13802083333333" y="0" dx="0em" dy="0.95em" style="text-anchor: middle; visibility: inherit; font-family: Roboto, sans-serif; font-size: 12px; font-weight: 200;" fill="rgb(50, 49, 63)" stroke="none" stroke-width="1px">2k</text><text x="72.20703125" y="0" dx="0em" dy="0.95em" style="text-anchor: middle; visibility: inherit; font-family: Roboto, sans-serif; font-size: 12px; font-weight: 200;" fill="rgb(50, 49, 63)" stroke="none" stroke-width="1px">4k</text><text x="96.27604166666666" y="0" dx="0em" dy="0.95em" style="text-anchor: middle; visibility: inherit; font-family: Roboto, sans-serif; font-size: 12px; font-weight: 200;" fill="rgb(50, 49, 63)" stroke="none" stroke-width="1px">6k</text><text x="120.34505208333334" y="0" dx="0em" dy="0.95em" style="text-anchor: middle; visibility: inherit; font-family: Roboto, sans-serif; font-size: 12px; font-weight: 200;" fill="rgb(50, 49, 63)" stroke="none" stroke-width="1px">8k</text><text x="144.4140625" y="0" dx="0em" dy="0.95em" style="text-anchor: middle; visibility: inherit; font-family: Roboto, sans-serif; font-size: 12px; font-weight: 200;" fill="rgb(50, 49, 63)" stroke="none" stroke-width="1px">10k</text><text x="168.48307291666669" y="0" dx="0em" dy="0.95em" style="text-anchor: middle; visibility: inherit; font-family: Roboto, sans-serif; font-size: 12px; font-weight: 200;" fill="rgb(50, 49, 63)" stroke="none" stroke-width="1px">12k</text><text x="192.55208333333331" y="0" dx="0em" dy="0.95em" style="text-anchor: middle; visibility: inherit; font-family: Roboto, sans-serif; font-size: 12px; font-weight: 200;" fill="rgb(50, 49, 63)" stroke="none" stroke-width="1px">14k</text><text x="216.62109375" y="0" dx="0em" dy="0.95em" style="text-anchor: middle; visibility: inherit; font-family: Roboto, sans-serif; font-size: 12px; font-weight: 200;" fill="rgb(50, 49, 63)" stroke="none" stroke-width="1px">16k</text><text x="240.69010416666669" y="0" dx="0em" dy="0.95em" style="text-anchor: middle; visibility: inherit; font-family: Roboto, sans-serif; font-size: 12px; font-weight: 200;" fill="rgb(50, 49, 63)" stroke="none" stroke-width="1px">18k</text><text x="264.7591145833333" y="0" dx="0em" dy="0.95em" style="text-anchor: middle; visibility: inherit; font-family: Roboto, sans-serif; font-size: 12px; font-weight: 200;" fill="rgb(50, 49, 63)" stroke="none" stroke-width="1px">20k</text><text x="288.828125" y="0" dx="0em" dy="0.95em" style="text-anchor: middle; visibility: hidden; font-family: Roboto, sans-serif; font-size: 12px; font-weight: 200;" fill="rgb(50, 49, 63)" stroke="none" stroke-width="1px">22k</text></g><line x1="0" y1="0" x2="288.828125" y2="0" fill="rgb(0, 0, 0)" stroke="rgb(204, 204, 204)" stroke-width="1px"></line></g></g></g></g></svg>