<svg viewBox="0 0 330 200" xmlns="http://www.w3.org/2000/svg"><g><g><g><g><g><line x1="51.5625" y1="178" x2="46.5625" y2="178" style="visibility: inherit;" fill="rgb(0, 0, 0)" stroke="rgb(204, 204, 204)" stroke-width="1px"></line><line x1="51.5625" y1="155.75" x2="46.5625" y2="155.75" style="visibility: inherit;" fill="rgb(0, 0, 0)" stroke="rgb(204, 204, 204)" stroke-width="1px"></line><line x1="51.5625" y1="133.5" x2="46.5625" y2="133.5" style="visibility: inherit;" fill="rgb(0, 0, 0)" stroke="rgb(204, 204, 204)" stroke-width="1px"></line><line x1="51.5625" y1="111.24999999999999" x2="46.5625" y2="111.24999999999999" style="visibility: inherit;" fill="rgb(0, 0, 0)" stroke="rgb(204, 204, 204)" stroke-width="1px"></line><line x1="51.5625" y1="88.99999999999999" x2="46.5625" y2="88.99999999999999" style="visibility: inherit;" fill="rgb(0, 0, 0)" stroke="rgb(204, 204, 204)" stroke-width="1px"></line><line x1="51.5625" y1="66.75" x2="46.5625" y2="66.75" style="visibility: inherit;" fill="rgb(0, 0, 0)" stroke="rgb(204, 204, 204)" stroke-width="1px"></line><line x1="51.5625" y1="44.5" x2="46.5625" y2="44.5" style="visibility: inherit;" fill="rgb(0, 0, 0)" stroke="rgb(204, 204, 204)" stroke-width="1px"></line><line x1="51.5625" y1="22.25" x2="46.5625" y2="22.25" style="visibility: inherit;" fill="rgb(0, 0, 0)" stroke="rgb(204, 204, 204)" stroke-width="1px"></line><line x1="51.5625" y1="0" x2="46.5625" y2="0" style="visibility: inherit;" fill="rgb(0, 0, 0)" stroke="rgb(204, 204, 204)" stroke-width="1px"></line></g><g transform="translate(41.5625, 0)"><text x="0" y="178" dx="0em" dy="0.3em" style="text-anchor: end; visibility: hidden; font-family: Roboto, sans-serif; font-size: 12px; font-weight: 200;" fill="rgb(50, 49, 63)" stroke="none" stroke-width="1px">-0.2</text><text x="0" y="155.75" dx="0em" dy="0.3em" style="text-anchor: end; visibility: inherit; font-family: Roboto, sans-serif; font-size: 12px; font-weight: 200;" fill="rgb(50, 49, 63)" stroke="none" stroke-width="1px">0</text><text x="0" y="133.5" dx="0em" dy="0.3em" style="text-anchor: end; visibility: hidden; font-family: Roboto, sans-serif; font-size: 12px; font-weight: 200;" fill="rgb(50, 49, 63)" stroke="none" stroke-width="1px">0.2</text><text x="0" y="111.24999999999999" dx="0em" dy="0.3em" style="text-anchor: end; visibility: inherit; font-family: Roboto, sans-serif; font-size: 12px; font-weight: 200;" fill="rgb(50, 49, 63)" stroke="none" stroke-width="1px">0.4</text><text x="0" y="88.99999999999999" dx="0em" dy="0.3em" style="text-anchor: end; visibility: hidden; font-family: Roboto, sans-serif; font-size: 12px; font-weight: 200;" fill="rgb(50, 49, 63)" stroke="none" stroke-width="1px">0.6</text><text x="0" y="66.75" dx="0em" dy="0.3em" style="text-anchor: end; visibility: inherit; font-family: Roboto, sans-serif; font-size: 12px; font-weight: 200;" fill="rgb(50, 49, 63)" stroke="none" stroke-width="1px">0.8</text><text x="0" y="44.5" dx="0em" dy="0.3em" style="text-anchor: end; visibility: hidden; font-family: Roboto, sans-serif; font-size: 12px; font-weight: 200;" fill="rgb(50, 49, 63)" stroke="none" stroke-width="1px">1</text><text x="0" y="22.25" dx="0em" dy="0.3em" style="text-anchor: end; visibility: inherit; font-family: Roboto, sans-serif; font-size: 12px; font-weight: 200;" fill="rgb(50, 49, 63)" stroke="none" stroke-width="1px">1.2</text><text x="0" y="0" dx="0em" dy="0.3em" style="text-anchor: end; visibility: hidden; font-family: Roboto, sans-serif; font-size: 12px; font-weight: 200;" fill="rgb(50, 49, 63)" stroke="none" stroke-width="1px">1.4</text></g><line x1="51.5625" y1="0" x2="51.5625" y2="178" fill="rgb(0, 0, 0)" stroke="rgb(204, 204, 204)" stroke-width="1px"></line></g></g><g transform="translate(51, 0)" clip-path="url(#clip_0)"><clipPath id="clip_0"><rect width="278" height="178"></rect></clipPath><g><g><g><line x1="0" y1="0" x2="0" y2="178" fill="rgb(0, 0, 0)" stroke="rgb(60, 60, 60)" stroke-width="1px" opacity="0.25"></line><line x1="23.203125" y1="0" x2="23.203125" y2="178" fill="rgb(0, 0, 0)" stroke="rgb(60, 60, 60)" stroke-width="1px" opacity="0.25"></line><line x1="46.40625" y1="0" x2="46.40625" y2="178" fill="rgb(0, 0, 0)" stroke="rgb(60, 60, 60)" stroke-width="1px" opacity="0.25"></line><line x1="69.609375" y1="0" x2="69.609375" y2="178" fill="rgb(0, 0, 0)" stroke="rgb(60, 60, 60)" stroke-width="1px" opacity="0.25"></line><line x1="92.8125" y1="0" x2="92.8125" y2="178" fill="rgb(0, 0, 0)" stroke="rgb(60, 60, 60)" stroke-width="1px" opacity="0.25"></line><line x1="116.015625" y1="0" x2="116.015625" y2="178" fill="rgb(0, 0, 0)" stroke="rgb(60, 60, 60)" stroke-width="1px" opacity="0.25"></line><line x1="139.21875" y1="0" x2="139.21875" y2="178" fill="rgb(0, 0, 0)" stroke="rgb(60, 60, 60)" stroke-width="1px" opacity="0.25"></line><line x1="162.421875" y1="0" x2="162.421875" y2="178" fill="rgb(0, 0, 0)" stroke="rgb(60, 60, 60)" stroke-width="1px" opacity="0.25"></line><line x1="185.625" y1="0" x2="185.625" y2="178" fill="rgb(0, 0, 0)" stroke="rgb(60, 60, 60)" stroke-width="1px" opacity="0.25"></line><line x1="208.828125" y1="0" x2="208.828125" y2="178" fill="rgb(0, 0, 0)" stroke="rgb(60, 60, 60)" stroke-width="1px" opacity="0.25"></line><line x1="232.03125" y1="0" x2="232.03125" y2="178" fill="rgb(0, 0, 0)" stroke="rgb(60, 60, 60)" stroke-width="1px" opacity="0.25"></line><line x1="255.234375" y1="0" x2="255.234375" y2="178" fill="rgb(0, 0, 0)" stroke="rgb(60, 60, 60)" stroke-width="1px" opacity="0.25"></line><line x1="278.4375" y1="0" x2="278.4375" y2="178" fill="rgb(0, 0, 0)" stroke="rgb(60, 60, 60)" stroke-width="1px" opacity="0.25"></line></g><g><line x1="0" y1="178" x2="278.4375" y2="178" fill="rgb(0, 0, 0)" stroke="rgb(60, 60, 60)" stroke-width="1px" opacity="0.25"></line><line x1="0" y1="155.75" x2="278.4375" y2="155.75" fill="rgb(0, 0, 0)" stroke="rgb(60, 60, 60)" stroke-width="1px" opacity="0.25"></line><line x1="0" y1="133.5" x2="278.4375" y2="133.5" fill="rgb(0, 0, 0)" stroke="rgb(60, 60, 60)" stroke-width="1px" opacity="0.25"></line><line x1="0" y1="111.24999999999999" x2="278.4375" y2="111.24999999999999" fill="rgb(0, 0, 0)" stroke="rgb(60, 60, 60)" stroke-width="1px" opacity="0.25"></line><line x1="0" y1="88.99999999999999" x2="278.4375" y2="88.99999999999999" fill="rgb(0, 0, 0)" stroke="rgb(60, 60, 60)" stroke-width="1px" opacity="0.25"></line><line x1="0" y1="66.75" x2="278.4375" y2="66.75" fill="rgb(0, 0, 0)" stroke="rgb(60, 60, 60)" stroke-width="1px" opacity="0.25"></line><line x1="0" y1="44.5" x2="278.4375" y2="44.5" fill="rgb(0, 0, 0)" stroke="rgb(60, 60, 60)" stroke-width="1px" opacity="0.25"></line><line x1="0" y1="22.25" x2="278.4375" y2="22.25" fill="rgb(0, 0, 0)" stroke="rgb(60, 60, 60)" stroke-width="1px" opacity="0.25"></line><line x1="0" y1="0" x2="278.4375" y2="0" fill="rgb(0, 0, 0)" stroke="rgb(60, 60, 60)" stroke-width="1px" opacity="0.25"></line></g></g></g><g><g><line x1="0" y1="155.75" x2="278.4375" y2="155.75" fill="rgb(0, 0, 0)" stroke="rgb(153, 153, 153)" stroke-width="1.5px"></line></g></g><g><g><line x1="23.203125" y1="0" x2="23.203125" y2="178" fill="rgb(0, 0, 0)" stroke="rgb(153, 153, 153)" stroke-width="1.5px"></line></g></g><g><g><g><g><g><path stroke="rgb(187, 187, 187)" stroke-width="2px" d="M35.570390625,-0.2528436267652294L36.776953125,1.3577212575684832L37.658671875,2.8677557831683647L32.67,10.420341724391989L34.549453125,15.486241759002377L35.825625,19.249273419506004L35.895234375,21.559461518835075L36.220078125,23.166265219877364L36.312890624999994,24.11647535119129L37.426640625,25.496036380167656L37.589062500000004,26.37542065998666L38.61,27.229191154611748L39.30609375,28.007526976227066L40.628671875,29.128909029099262L41.3015625,30.15261983730795L34.920703125,34.92906125717393L35.291953125,38.467618884720544L36.591328125,41.05707308181326L37.7746875,43.17214339095992L38.19234375,44.44433133077428L38.401171874999996,45.21690895123589L38.772421875000006,45.62301765658513L38.842031250000005,45.77820654975225L39.86296875,46.00136208097262L41.324765625,46.65921447014907L41.835234375,47.31669983468129L41.90484375,47.707681919346335L42.09046875,47.97914492798455L43.01859375,48.41826558537847L43.413046875,48.72134106414062L43.714687500000004,48.986150980332745L39.02765625,53.18212192674834L40.41984375,56.08971702707029L42.531328125,58.36730704100261L42.809765625,59.69322617883285L43.552265625000004,60.62302392145872L43.691484375,61.273638662224286L44.155546875,61.795757851913734L44.2715625,62.15210179800697L45.315703125,62.47769384571852L45.594140625,62.806369644337565L39.654140625,67.26544628258564L40.46625,69.97107665369522L40.489453125,71.72263242977627L41.556796874999996,72.70746526824097L41.95125,73.64302134935056L41.997656250000006,74.17594241752622L42.113671875,74.40904623660086L42.693749999999994,74.52139776583097L42.716953125,74.5563405730461L42.995390625,74.50518731940596L43.111406249999995,74.38288389246945L43.784296875,74.31398175121119L44.132343750000004,74.2639113960312L44.2715625,74.24169908747947L47.334375,74.86876081696674L41.8584375,81.31801983279898L42.995390625,81.98721846081564L45.478125,82.84987710796445L47.125546875000005,83.59242025543838L48.77296875,84.29501740056033L48.842578125,84.72080362390133L50.188359375,85.06824490756183L44.874843750000004,88.72118866640561L46.475859375,90.1173814487352L46.800703125,90.98488364528978L46.847109375,91.50156814999201L46.8703125,91.78418479649316L48.21609375,91.5933351533895L52.276640625,91.39806488855393L48.30890625,93.3663840157015L48.7265625,94.40402351988689L48.77296875,95.0384422610601L49.933125000000004,94.97591613354683L51.580546874999996,94.87116459979055L52.787109375,94.9086489199009L53.274375,94.94414160957373L53.436796875000006,94.92592166847251L49.167421875,98.10602327577033L49.817109375,98.50360493893477L50.466796875,98.7428117336932L51.673359375,98.604764273292L53.111953125,98.7529895964421L55.385859374999995,98.56756514687282L56.10515625,98.5770108960804L56.221171874999996,98.59225088135818L51.1396875,95.62699131236326L51.441328125,96.89031314889104L51.487734375,97.90005412721342L53.36718750000001,99.07451237752261L55.501875,100.11472605773342L55.896328125000004,100.6787547088178L56.38359375,100.99872573712538L58.6575,101.21004572510165L59.4928125,101.30154214203024L59.585625,101.34752392709056L59.77125,101.37015697622179L55.617890625,102.7587510661118L55.942734375,103.50370306168989L56.824453125,103.62672389385101L57.102890625,103.63387212954163L58.077421875000006,103.52431049229024L59.655234375,103.56030789483378L59.864062499999996,103.56063801329609L59.933671875,103.5459136443214L61.697109375,103.59609905045487L61.743515625,103.61680486000334L56.244375000000005,104.70388141987775L56.894062500000004,105.56883047949106L59.33039062500001,105.71653989810244L61.418671875,105.68178885196744L61.789921875000005,105.78142645070017L62.114765625,105.75761443441544L63.53015625,105.62581632474325L59.028749999999995,107.17868770324743L59.77125,108.15716715552544L62.439609375,108.10014173327764L62.787656250000005,107.96824629866408L63.80859375,107.88728285588817L65.78085937499999,107.92386428569553L66.1753125,107.9317102971959L66.244921875,107.89596472342537L67.080234375,107.86297277903392L60.490546875,109.18885227618118L61.325859375,108.75666048870981L61.813125,108.76376905886232L63.251718749999995,108.79092977552352L63.71578125,109.0797994530722L66.291328125,108.91390894630696L66.523359375,108.87491847741096L68.124375,108.859803683564L68.426015625,108.88140989065464L68.565234375,108.85419230592426L68.866875,108.85483185310468L63.43734375,109.90508854603351L63.971015625,110.54496363231885L64.08703125,110.77563262539714L65.456015625,110.58857311044697L68.797265625,110.27543881377319L70.050234375,110.03734419846974L70.723125,109.89907874527242L65.223984375,110.75428898252646L66.12890625,111.39090587566852L66.198515625,111.86022772115801L66.476953125,112.23508342637021L67.19625,112.77488526721834L69.609375,112.33051534009005L69.795,111.97542898960127L70.143046875,111.77381170455939L72.39375,111.53121124603942L72.99703124999999,111.36867689429877L73.50750000000001,111.22944453560802L68.890078125,113.09444530131516L69.075703125,113.89133351339157L70.02703125000001,113.58571607049262L72.16171874999999,113.3234312008378L73.64671875,112.83131461862071L74.29640624999999,112.43696136488525L74.31960937500001,112.19331655629875L74.76046875,112.018982331326L75.29414062500001,111.93404939196729L75.735,111.92562096966637L70.11984375,114.27461862059437L70.35187499999999,115.06817479426861L70.421484375,115.7184124737692L70.76953125,116.30381863115502L71.535234375,116.51041067420405L75.618984375,115.39412307607508L75.75820312500001,114.72232673089134L77.3128125,114.05767520678299L77.9625,113.71703300423773L78.19453125,113.45827997653099L72.25453125,114.88983842091805L73.809140625,115.47699596200613L74.55164062499999,115.74278091617957L75.920625,115.5188014103683L76.732734375,115.18916872404287L77.660859375,114.85204227425024L80.306015625,114.56507505868292L74.366015625,114.21681603726397L74.505234375,114.89390503726392L76.10624999999999,115.73408288873426L77.1271875,116.29615662167785L77.800078125,116.18108727437446L77.91609375,116.1569814139735L78.124921875,116.06905816818066L80.213203125,115.74413811758035L80.2828125,115.5350288664989L80.9325,115.32098884676053L81.16453125,115.10674886878819L82.5103125,114.95982370362573L83.322421875,114.90268584839042L77.35921875,115.22624197454175L78.75140625,115.9196050068791L81.62859375000001,116.19186503595442L81.69820312499999,116.36315307561355L82.99757812499999,116.35040430452705L83.600859375,116.32582870856689L83.67046875,116.29997905037264L84.157734375,116.16926462317383L84.32015625,116.05747399547623L78.913828125,112.64361142110184L79.05304687499999,115.17332793469043L80.352421875,115.73608852442986L84.32015625,116.09131707261137L84.482578125,116.30521278983433L85.1090625,116.4922413492565L86.4084375,116.54664132382659L87.1509375,116.48892044357171L81.883828125,116.43686690826242L81.9534375,116.30753287314789L82.41749999999999,116.09449924015651L83.183203125,116.4299895255783L85.01625,116.41485659414641L85.178671875,116.41622864385911L85.4803125,116.48873581695835L86.8725,116.80533854489494L87.56859375,116.95581247702222L88.102265625,117.05099981006968L88.51992187500001,117.16684710369698L90.14414062499999,117.04825608066436L85.132265625,117.5844402678711L86.617265625,118.1401766012849L88.12546875,118.41518455569395L90.1209375,118.40150862529546L90.72421874999999,118.2730774289052L85.921171875,115.96841351721764L88.427109375,117.72006495019247L88.58953125,118.65560980868605L91.211484375,118.93553626675767L91.28109375,119.07748396777725L91.768359375,119.12188377132188L93.13734375,119.07036120683055L93.36937499999999,119.02223222249806L94.135078125,118.81571254607475L89.35523437500001,120.27934704408905L89.74968750000001,120.7070284020058L90.07453125,120.81667664534758L90.44578125,120.86633100144213L90.840234375,120.71686601359932L91.768359375,120.5867006851392L92.835703125,120.25575949389679L92.85890625,120.05329971992339L93.36937499999999,119.83086132099248L94.181484375,119.58915489071619L94.78476562499999,119.31654098721751L94.99359375,119.1352784400726L96.20015624999999,119.07383719477323L96.269765625,119.0275099867181L97.058671875,118.99528149030186L97.151484375,118.98094683147416L90.933046875,120.71465098713007L91.072265625,121.8022666833053L91.11867187499999,122.66354470022023L92.046796875,122.47815049628912L92.186015625,122.21806488895714L92.48765625,122.05499658265293L92.603671875,121.94715867804632L94.08867187499999,121.75245485226601L94.52953125,121.56478014302425L94.738359375,121.42315798826321L96.316171875,121.15528003470482L96.362578125,120.98870205340613L96.38578125000001,120.89408394967215L97.754765625,120.57578446134745L94.691953125,120.84256242015847L95.92171875,121.0956239002877L96.38578125000001,121.36399029779037L97.105078125,121.34672198943852L97.31390624999999,121.31495475621558L97.708359375,121.23372598201951L98.1028125,121.1204264861996L98.822109375,121.0048612864408L100.00546875,120.7572061694618L100.53914062499999,120.58358101111386L100.863984375,120.43492107726178L95.82890625,121.05354901931906L98.4740625,121.43108890820876L100.70156250000001,121.25135033946832L100.817578125,121.17567823899745L101.652890625,121.14587510867692L102.3721875,121.0705646469818L97.87078125,121.96487143007676L98.4740625,122.99351937990043L98.566875,123.46608434868249L98.938125,123.5354693398022L99.91265625,123.5918623039212L101.39765625000001,123.09522337490834L101.467265625,122.7886090861232L101.838515625,122.55987186649268L104.066015625,121.90567547034517L105.29578124999999,121.55957077116547L100.74796875,123.00935445529686L103.48593749999999,122.54407873035949L104.135625,122.23003547359396L105.504609375,121.99134376030496L106.59515625,121.72330647338231L108.26578124999999,121.65789647477149L108.706640625,121.6743510161476L102.95226562500001,122.32214346496085L104.762109375,123.46503342966926L105.15656249999999,124.07858348656114L105.78304687500001,124.37048600476037L106.2703125,124.45053608334689L106.54875,124.44427401790993L106.896796875,124.41581226271377L106.989609375,124.40614072908154L107.3840625,124.38668587165589L108.219375,124.32421141181895L109.14750000000001,124.06363280901019L109.913203125,123.76268969648305L105.7134375,124.85628430350555L106.943203125,124.80494208517034L107.036015625,124.78581264842964L107.500078125,124.63604248004803L108.63703124999999,124.27032477818518L109.309921875,123.93818941809289L110.284453125,123.80186440108749L111.4678125,123.71235751842578L112.001484375,123.54486646792363L113.37046875,123.3448057951991L113.440078125,123.25488614335441L108.196171875,124.40516545054189L108.8690625,125.0004922549538L109.65796875,125.23654098812413L110.470078125,125.16766462328238L111.00375,125.0866309499872L111.375,125.00584103144001L113.06882812500001,124.43433237359997L113.5096875,124.08269943467423L114.02015625,123.85569648248936L109.170703125,124.14623511912218L112.44234374999999,124.91141504694099L113.97375,125.17607506900474L114.136171875,125.35989388698007L114.345,125.44534273668329L114.73945312500001,125.40215586557505L115.017890625,125.34629276653837L115.157109375,125.35040725326962L116.52609375,125.2509983304526L117.68625,125.07425717850838L112.0246875,124.66196163201519L112.86,124.82148603620641L113.416875,124.99199854744978L113.486484375,125.10783995934432L115.22671875,124.90716402976574L115.3659375,124.74294336586512L116.06203125,124.64893597334216L116.27085937499999,124.59904319625849L116.363671875,124.59885824967475L116.50289062499999,124.52798504977854L118.63757812499999,124.37858240216632L118.66078125000001,124.29440211897884L118.84640625,124.25440013197539L118.93921875,124.24806927315875L119.333671875,124.28154768152527L114.0665625,124.7342276698559L114.507421875,125.26733511246499L115.296328125,125.5778047535256L117.63984375,125.70044469198199L119.101640625,125.86837210870154L120.168984375,125.89791541764954L121.18992187500001,125.71964313667905L121.63078125,125.67873132575686L116.43328125000001,126.35853746741493L117.7790625,126.50971592789578L118.312734375,126.76876993075425L121.236328125,126.72945865449555L121.282734375,126.72107415769842L122.025234375,126.64819887503592L122.74453125000001,126.48109037711983L124.11351562499999,126.23911116739968L120.679453125,126.63899719548735L121.236328125,126.75167960126707L121.44515625,126.72619222223466L122.65171875,126.59487291645829L122.721328125,126.53810028715029L126.225,126.00621710707601L126.54984375000001,125.684373786985L122.164453125,126.60570962187L122.65171875,127.3904998955509L125.737734375,127.54558249755983L127.408359375,127.48260821368862L127.91882812499999,127.41385414282423L128.31328125,127.33913628506626L129.380625,127.27054398505668L123.41742187499999,128.79057993292082L124.925625,129.35159260957997L126.17859375,129.37981483596303L126.781875,129.0814585775598L126.897890625,128.8322919810095L128.5453125,128.53306698079578L129.380625,128.22821173236173L130.517578125,127.86978618005158L131.956171875,127.5895227563336L131.979375,127.42058224212852L126.016171875,129.26518063832359L126.341015625,130.27932492845676L127.315546875,130.7429576051439L131.19046875,130.253673281205L131.909765625,129.8275426944687L132.698671875,129.56893608543837L134.34609375,129.1891749416206L128.4525,130.257334561015L129.218203125,130.45250930241633L129.635859375,130.52849587560826L129.68226562499999,130.56678110218724L130.2159375,130.44529620174572L130.239140625,130.3445576436162L130.26234374999999,130.25599568228964L130.331953125,130.1481042110386L130.77281250000001,129.8885619925536L131.584921875,129.85179047060473L132.30421875000002,129.8671921388654L133.209140625,129.69126730241464L133.441171875,129.5829638441091L135.50625,129.36118938921007L135.83109375,129.18167179166144L136.50398437500002,129.03586869441787L136.66640625,128.9721398011048L136.689609375,128.92305478484627L130.610390625,129.36262752432344L131.306484375,129.62001268606613L132.9075,129.71918486828343L134.044453125,129.78989791139804L134.81015625,129.80551056870723L135.691875,129.6824355397159L138.267421875,129.56947945943676L138.8475,129.39905767226938L138.917109375,129.29248316636517L132.373828125,130.5049256327798L133.02351562500002,131.86751387375892L133.835625,132.25409714793145L134.11406250000002,132.40978577831376L135.5990625,131.89341463654628L135.993515625,131.68383899932738L137.571328125,131.37782544854662L138.081796875,131.13360584654438L138.731484375,131.01543229149598L139.98445312500002,130.82490461663494L136.318359375,130.86114193109327L136.34156249999998,130.92635461305173L138.545859375,131.05066293695324L139.59,131.02066154610367L142.397578125,130.64256202179942L142.56,130.39162508546562L138.70828125,131.25623843013793L139.82203125,131.80654487871854L141.330234375,132.18335407891112L141.77109375,132.29560891341112L141.88710937500002,132.34120677441922L142.42078124999998,132.34071190524438L142.93125,132.29877087246382L143.418515625,132.27764321578147L144.99632812500002,132.00921427436234L139.47398437500001,133.55397933261133L140.819765625,134.39453568480334L141.84070312499998,134.33313104165745L142.51359375,134.16546558978052L146.806171875,133.44395780498917L147.15421874999998,132.9360357787319L147.223828125,132.61226348078893L147.73429687499998,132.36557395754247L147.873515625,132.19970755724898L142.23515625000002,132.64688056527848L142.583203125,132.91462670158907L143.650546875,133.1063977235053L143.975390625,133.26582714340054L144.230625,133.46633841050243L145.506796875,133.83586265118464L145.76203124999998,134.01370241028994L145.90125,134.14590318818645L147.270234375,134.15464775454853L147.89671875,134.0945086907855L148.430390625,133.94380879142946L150.054609375,133.62084970467725L150.56507812499999,133.3453847682085L144.578671875,134.39095664862432L144.973125,135.01553795840525L145.135546875,135.36694490227808L146.06367187499998,135.35286763348404L146.481328125,135.21736170821325L146.620546875,135.18359856440387L146.69015625,135.1333293594942L148.45359375,134.70638569909485L148.476796875,134.437123244811L148.523203125,134.280624574905L149.56734375,134.11521118371806L150.286640625,133.9769329845257L150.913125,133.80898361768408L150.982734375,133.7226808867817L151.09875,133.66531659525424L152.398125,133.48253366268747L152.746171875,133.37662302653237L146.202890625,131.06124503135825L146.249296875,132.1039708076128L147.38625,134.25832750160745L148.708828125,135.33133020108494L149.75296875,135.52513511094782L150.704296875,135.37580140896637L151.0059375,135.27799331526757L151.029140625,135.21088640469787L151.539609375,135.1584026207237L151.655625,135.1211831518834L151.910859375,135.1058743803993L154.48640625,134.7177802225527L154.973671875,134.47730004790887L149.822578125,135.40869812967458L149.8921875,135.9979023936515L149.915390625,136.3675920339301L151.029140625,136.569085730426L151.586015625,136.61868790883568L152.931796875,136.49705116807667L154.648828125,135.9617367333725L155.576953125,135.58327863344877L155.762578125,135.34193780409888L156.505078125,135.1714653038239L156.80671875000002,135.0772245638523L151.539609375,136.05235226976595L153.0478125,136.83863449709247L153.581484375,137.16831904868263L155.530546875,136.88027783614382L155.60015625,136.7057940282344L155.71617187500001,136.58667995589488L157.27078125,136.33172265921542L157.6884375,136.12839963426896L159.428671875,135.84259981298865L153.581484375,136.57033353230014L153.60468749999998,137.0927353556791L157.247578125,137.24334520285362L158.222109375,137.16142602375172L158.2453125,137.06778901434552L159.753515625,136.69884628425007L159.892734375,136.49257350337487L160.356796875,136.34442824943054L160.496015625,136.21604676141254L160.98328125,136.1157244330282L161.1225,136.07110862050263L155.762578125,135.81058717288857L157.1315625,136.58723382364678L157.87406249999998,137.27624478912932L158.036484375,137.68918918655265L163.001953125,137.23928732476205L163.58203125,136.9446310821269L163.883671875,136.72049320328796L164.51015625,136.55370946728328L157.92046875,138.28454649599277L158.29171875,139.26472030074527L158.47734375000002,139.8400446250506L158.8021875,139.92198387679267L159.451875,139.84308193860534L161.052890625,139.18618986748507L161.1225,138.75928745563536L162.09703125000001,138.5390907609207L162.909140625,138.48430896602525L163.76765625,138.3619967568067L165.879140625,138.1652148302285L166.250390625,138.00834162747194L161.981015625,138.49002933779553L162.1434375,138.8024587364745L162.421875,138.9170958761425L163.605234375,138.96664356971093L163.883671875,139.00564234724226L165.971953125,138.71264463973395L166.04156250000003,138.549135278537L162.70031250000002,140.16869242839462L162.793125,140.87194746048718L162.81632812499998,141.43638047314565L163.21078125,141.2771875231676L163.79085937500003,141.04680483008698L164.04609374999998,140.88391181060837L164.162109375,140.74132380175092L164.278125,140.5998330654949L165.06703124999999,140.4705903838426L165.2990625,140.30397099020183L165.90234375,140.12668501443923L166.946484375,139.99156200353656L167.48015625000002,139.82827353605242L168.663515625,139.57986788379318L169.220390625,139.39036335454685L169.66125,139.22739881370245L169.98609375,139.09350094106065L170.751796875,138.9741758177058L166.621640625,139.3942474257574L167.75859375000002,139.78514587024603L169.638046875,139.9947092124209L169.89328125,140.13935688813837L170.35734375,140.1317828099746L171.74953125,139.99777107690684L172.051171875,139.88820944580382L172.9096875,139.71106143953173L173.37375,139.54930683321817L173.62898437500002,139.43103945760166L169.10437499999998,140.14358339165588L172.376015625,140.58552757176722L173.2809375,140.82077227993585L173.953828125,140.90312652119266L174.85875000000001,140.8770999779002L175.9725,140.7311872255621L170.334140625,140.84819317828521L170.380546875,140.86021024120393L170.566171875,140.78526218165482L171.262265625,140.9778627823563L171.7959375,141.18430321638414L172.12078125,141.3073080970325L173.443359375,141.52231421655284L175.670859375,141.41687199226538L176.715,141.2394722715111L176.8078125,141.10272073537655L178.20000000000002,140.84145332449998L172.515234375,141.0322814916034L173.211328125,141.1607015376961L173.721796875,141.40054834161256L173.907421875,141.5142136828545L176.738203125,141.96287775063178L177.434296875,142.17154031335508L177.944765625,142.2780964052033L178.71046875000002,142.22551845463227L180.4275,142.09684751377767L174.5803125,142.18550723386565L176.57578125,142.55240022148345L178.269609375,142.87778616401943L178.8496875,143.05647698985572L179.151328125,143.12097381247304L179.36015625,143.1917332034899L181.19320312500003,142.99754310229977L182.5621875,142.7855712455783L178.455234375,143.1541431669756L178.80328125,143.43190326686883L180.636328125,143.3846811869513L182.074921875,143.3415882904095L182.655,143.27631182111875L184.720078125,143.12241111479744L178.826484375,143.96950937677946L179.63859375,144.49530836787537L180.404296875,144.9067949382765L181.355625,145.16216795091646L183.8615625,145.24105142992627L184.2328125,145.21190832222635L184.720078125,145.15701059275946L184.92890625,145.15069217174695L185.30015625,145.13550737464098L186.761953125,144.9028897886793L186.78515624999997,144.76333614619494L187.11,144.66776229102564L182.91023437500002,144.88597186749666L183.21187500000002,145.08695198428924L183.467109375,145.25147153486188L185.787421875,145.32363996833192L187.34203125,145.22453165533915L188.3165625,145.03888836567268L185.23054687500002,145.81130452641645L187.179609375,146.14751429521323L187.226015625,146.3515872048633L188.17734374999998,146.40245542450526L188.20054687500001,146.43433405696618L188.57179687500002,146.4353986784176L188.8734375,146.39815809976196L188.91984374999998,146.378080897189L191.216953125,146.204092548136L187.9453125,146.7515049432779L189.4303125,146.85846083864956L189.56953124999998,146.93573792803517L189.70875,146.97388404177565L189.8015625,146.97093295867407L189.824765625,146.97242178508736L191.565,146.92488147162854L192.493125,146.87187855373895L193.76929687499998,146.78775741789386L189.546328125,146.86733787288455L189.8015625,146.9208445208084L189.9871875,146.99112559374043L191.10093750000001,147.11678967932383L192.5859375,147.11363975888204L192.655546875,147.1126894216878L193.37484375,147.0495031914796L193.606875,146.98107418815408L193.76929687499998,146.9332786785073L194.186953125,146.87911174440424L195.50953125,146.68746486153626L195.97359375,146.585140316018L196.043203125,146.520096208649L196.53046874999998,146.52044836863706L191.773828125,146.88605985230103L193.8853125,147.41054568327007L193.93171875000002,147.73775488368594L194.67421875000002,147.99275263462616L195.091875,148.17036827170344L194.90625,148.52420080796475L195.50953125,148.6545252142584L196.53046874999998,148.63883228678915L197.806640625,148.69483283656484L199.245234375,148.72486037461547L199.546875,148.72142688452357L194.92945312499998,148.57190690350026L195.60234375000002,148.59017140738064L196.507265625,148.64583178279935L198.01546875,148.73605731341624L203.004140625,148.82190845326116L198.085078125,149.018903644252L198.688359375,149.34617953456532L199.198828125,149.47808860216793L199.63968749999998,149.50942673295293L200.10375,149.50869314415485L200.21976562499998,149.51631481524248L200.591015625,149.46432507940196L200.869453125,149.45498541128973L201.240703125,149.45842300173544L201.8671875,149.45929130988958L203.445,149.48401600317743L204.581953125,149.51208467079152L204.88359375,149.53129098925262L205.06921875,149.5348983410047L200.52140624999998,150.41864134091412L202.19203124999999,150.7433538040118L202.957734375,150.8745999437181L203.12015625,150.9617363610332L203.32898437499998,151.0084743498841L204.489140625,150.93920995662086L204.55875,150.90185074355884L205.04601562500002,150.8646497061651L205.32445312500002,150.82586675581638L205.7653125,150.78545265762392L206.20617187500002,150.76340420428446L202.6096875,151.18852512431758L204.489140625,151.12006274434995L204.51234375,151.08560688390176L205.30124999999998,150.98643704932238L205.742109375,150.94688771214368L206.809453125,151.0060925676452L208.480078125,151.10126744435888L208.59609375,151.15695250392952L209.199375,151.1725280939698L210.26671875,151.14654438550232L210.614765625,151.13081772725258L205.7653125,151.50018967002913L206.76304687500001,151.78156724831632L207.227109375,151.94745542599958L207.366328125,152.0643194894892L207.66796875,152.1420975807847L208.31765625,152.16200861460217L209.31539062500002,152.2145931722671L211.798125,152.1923911446005L212.378203125,152.15099105342745L212.540625,152.14305992561293L212.6334375,152.13350752115375L208.1784375,152.3560463428207L208.248046875,152.49516861768558L209.176171875,152.57341707297113L211.357265625,152.6045548182976L211.68210937499998,152.63356983287642L212.07656250000002,152.65551097578413L212.099765625,152.66902047439876L213.074296875,152.64970211189666L215.37140624999998,152.63067764175193L212.6334375,152.75844650887552L213.863203125,152.8253391810766L216.369140625,152.88565711269595L216.62437500000001,152.92043587954234L212.72625,153.06082986863785L214.09523437500002,153.24571581265232L214.95375,153.34891221515628L215.441015625,153.43290156162405L216.29953125,153.5155578011967L217.13484375000002,153.57520855935348L217.158046875,153.6135019744005L217.738125,153.64018683397418L219.17671875,153.62109463912188L214.07203125,153.53827822656595L214.67531250000002,153.5506681234459L215.60343749999998,153.58772372507718L216.67078125,153.68532837195644L218.178984375,153.71507077206493L218.34140625,153.74111960870368L218.52703125000002,153.7652272457918L219.64078125,153.8106290023798L219.849609375,153.83210969209816L221.21859375,153.87504970797983L221.520234375,153.90994131203942L218.132578125,154.05917177710057L218.411015625,154.16058309881387L219.17671875,154.2279499633744L220.15124999999998,154.28569982989936L221.659453125,154.30721656529565L223.37648437500002,154.3078899769207L224.46703125000002,154.31794053692937L218.550234375,154.43920173917678L219.223125,154.51488833382408L219.896015625,154.49181975007986L220.19765625000002,154.47619096061027L220.26726562500002,154.4266773859698L221.798671875,154.3876707321987L221.86828125,154.3615967610492L222.866015625,154.38089307049L223.7709375,154.425175900994L224.00296875,154.455100727987L225.30234375,154.49711270422068L221.613046875,154.67468929882915L221.77546875,154.78359641559877L221.798671875,154.85292453834685L221.96109375,154.90233766080192L223.469296875,154.92287265231275L224.118984375,154.9334140688259L224.397421875,154.94526773615277L224.69906250000003,154.94987194096765L224.861484375,154.9444772979027L227.50664062500002,154.92222851677423L227.599453125,154.90854081758073L228.2259375,154.9021224890263L228.27234375,154.89903381015466L223.07484375,154.7321879553533L223.60851562500002,154.73082158641435L225.23273437499998,154.76967372906307L225.46476562499998,154.79355768583477L225.85921875,154.82264936624324L226.021640625,154.84379146845404L226.09125,154.85984296542412L226.41609375000002,154.86000991075193L226.671328125,154.8676126174976L229.82695312500002,154.88839600860362L230.68546875,154.89960625369793L225.20953125,154.9627431646329L225.371953125,154.91456084771255L226.88015625,154.99569999772976L227.460234375,155.04200755300138L227.6690625,155.06507015987194L227.9475,155.0802139928465L228.38835937500002,155.09980131578035L228.7828125,155.11733489931203L229.130859375,155.12532092349946L230.03578125,155.1184945822602L230.31421875,155.11641893748578L230.894296875,155.12255095045126L231.590390625,155.13224115417552L231.7528125,155.13887646566644L233.09859375,155.14112720585726L227.41382812499998,155.17794623319986L227.8546875,155.19635484507862L228.017109375,155.2181016857769L229.08445312499998,155.25293539473054L230.29101562499997,155.25629382483223L230.360625,155.25653643284286L231.172734375,155.2462093428186L233.330625,155.24102237099441L234.11953125,155.23647349523736L234.189140625,155.2349825328796L235.395703125,155.2380271316761L235.41890625000002,155.24020707548263L235.90617187499998,155.24055371011593L230.430234375,155.22871893563484L231.05671875,155.25190128197815L232.44890625,155.24435893621992L232.472109375,155.24029442587167L233.07539062499998,155.24696507889732L233.35382812499998,155.2541941856199L233.701875,155.26085764454734L234.16593749999998,155.2607227315068L234.374765625,155.26273150716145L234.58359375,155.2636144844192L235.2796875,155.2697651971596L236.41664062499999,155.28231814444058L237.6928125,155.28454252990517L238.43531249999998,155.28585042989772L232.19367187499998,155.22322484980685L233.8875,155.2661354980769L237.414375,155.30124459255651L238.551328125,155.32511778750367L239.386640625,155.33494814417924L240.825234375,155.343554641554L235.859765625,155.3555975981797L235.92937500000002,155.3643040056645L237.6928125,155.38001919616445L238.18007812500002,155.3932911400746L238.36570312499998,155.4000846365132L238.66734375,155.4073391050272L238.71374999999998,155.41237243928114L238.85296875,155.41645086407442L240.33796875,155.41151714144607L241.12687499999998,155.40652829335363L241.17328125,155.40387419208687L241.19648437499998,155.40242830787946L243.191953125,155.39920602042605L243.2615625,155.3972250186041L237.1359375,155.42401127837007L241.103671875,155.4359916554626L241.26609375,155.44216342974093L242.79749999999999,155.43533556941773L242.91351562499997,155.43141880244033L243.88804687500001,155.43042269226083L245.326640625,155.42808403198836L245.72109375,155.42723980981341L245.744296875,155.42684310272307L240.52359375,155.4400449371504L240.98765625000001,155.44904413751763L241.846171875,155.44741521516332L241.86937500000002,155.44667458904803L241.938984375,155.44724119476723L243.470390625,155.44269982848076L244.676953125,155.43981140909293L245.025,155.4409880683238L245.373046875,155.4385419686153L245.744296875,155.43734959959417L246.0459375,155.43678161469415L246.85804687499999,155.43413780947756L247.29890625,155.43379649973892L247.46132812500002,155.43168289284193L246.115546875,155.44169439899252L247.507734375,155.45164125596628L248.203828125,155.45622851272105L248.6446875,155.45828279684852L243.95765624999999,155.4661739027757L244.862578125,155.4517634741036L244.955390625,155.44518549318457L245.16421874999997,155.44480831563212L245.3034375,155.4379256287304L245.883515625,155.4342124133572L247.20609375,155.4373432056121L248.203828125,155.44648391868432L250.59375,155.45932136701035L252.00914062500001,155.46471626290543L246.533203125,155.4507509650334L247.29890625,155.45067005822793L248.15742187499998,155.45670017754313L249.82804687499998,155.46702034207414L249.967265625,155.47223985713558L250.17609374999998,155.4741449938526L251.42906250000001,155.4706929263415L253.16929687500001,155.46659782700178L253.401328125,155.46292661787345L253.958203125,155.46159307363644L248.87671875,155.48017081909282L250.91859375,155.48240785615013L251.730703125,155.48660952821348L253.14609375,155.48942732125505L253.58695312499998,155.4894739193692L254.5846875,155.48767816213922L256.18570312500003,155.48388482984546L250.941796875,155.4697591621266L251.452265625,155.45273773821492L254.422265625,155.45475440585957L256.76578125000003,155.45634948202112L258.04195312499996,155.4570732091778L258.39,155.45919878989872L253.23890624999999,155.49372971297396L254.0278125,155.47661911416148L255.74484375,155.45189586400127L256.11609375,155.44185491640818L256.371328125,155.43972343849717L257.160234375,155.4411493227533L259.016484375,155.44430593008332L260.431875,155.4508541222373L260.455078125,155.45498864049222L260.803125,155.45895984859192L261.800859375,155.46372294268284L255.5128125,155.5126742190301L256.510546875,155.51185612074144L256.6265625,155.51309409216168L258.2971875,155.49488100506437L261.568828125,155.4891432703235L261.6384375,155.48598284140664L262.1025,155.48616689978056L262.12570312500003,155.48615926126323L262.1953125,155.48616700769958L258.52921875,155.47775500963402L260.75671875,155.48095389453857L261.22078125,155.478880234425L262.12570312500003,155.47542634527983L262.3809375,155.4746402632632L266.627109375,155.4801538940864" style="fill: none;" fill="none"></path></g></g></g></g><g opacity="0.2"><g><g><g><path stroke="rgb(187, 187, 187)" stroke-width="2px" d="M36.684140625000005,-20.23595067858696L30.256874999999997,5.893623799085617L30.651328125000003,-0.929692417383194L33.969375,-0.8711405396461487L34.57265625,0.0499209463596344L35.570390625,1.6346941590309143L36.776953125,3.7735683917999268L37.658671875,5.1328074634075165L32.67,21.749220311641693L34.549453125,23.085091680288315L35.825625,24.893820852041245L35.895234375,25.024743646383286L36.220078125,25.576470762491226L36.312890624999994,25.541790544986725L37.426640625,27.565377920866013L37.589062500000004,27.69449707865715L38.61,28.50984689593315L39.30609375,29.17503070831299L40.628671875,30.81098210811615L41.3015625,31.688186049461365L34.920703125,42.09372338652611L35.291953125,43.775455325841904L36.591328125,44.94125437736511L37.7746875,46.344748854637146L38.19234375,46.35261324048042L38.401171874999996,46.37577538192272L38.772421875000006,46.23218071460724L38.842031250000005,46.010989889502525L39.86296875,46.33609537780285L41.324765625,47.64599305391312L41.835234375,48.30292788147926L41.90484375,48.2941550463438L42.09046875,48.38633944094181L43.01859375,49.07694657146931L43.413046875,49.17595428228378L43.714687500000004,49.38336585462093L39.02765625,59.47607834637165L40.41984375,60.45110967755318L42.531328125,61.78369206190109L42.809765625,61.682104885578156L43.552265625000004,62.01772053539753L43.691484375,62.24956077337265L44.155546875,62.57893663644791L44.2715625,62.68661771714687L45.315703125,62.96608191728592L45.594140625,63.29938334226608L39.654140625,73.95406123995781L40.46625,74.02952221035957L40.489453125,74.34996609389782L41.556796874999996,74.18471452593803L41.95125,75.04635547101498L41.997656250000006,74.9753240197897L42.113671875,74.75870196521282L42.693749999999994,74.68992505967617L42.716953125,74.60875478386879L42.995390625,74.42845743894577L43.111406249999995,74.1994287520647L43.784296875,74.2106285393238L44.132343750000004,74.18880586326122L44.2715625,74.20838062465191L47.334375,75.80935341119766L41.8584375,90.99190835654736L42.995390625,82.99101640284061L45.478125,84.14386507868767L47.125546875000005,84.70623497664928L48.77296875,85.34891311824322L48.842578125,85.35948295891285L50.188359375,85.58940683305264L44.874843750000004,94.20060430467129L46.475859375,92.21167062222958L46.800703125,92.28613694012165L46.847109375,92.27659490704536L46.8703125,92.20810976624489L48.21609375,91.30706068873405L52.276640625,91.10515949130058L48.30890625,96.3188627064228L48.7265625,95.96048277616501L48.77296875,95.9900703728199L49.933125000000004,94.88212694227695L51.580546874999996,94.71403729915619L52.787109375,94.96487540006638L53.274375,94.99738064408302L53.436796875000006,94.89859175682068L49.167421875,102.87617568671703L49.817109375,99.09997743368149L50.466796875,99.10162192583084L51.673359375,98.39769308269024L53.111953125,98.97532758116722L55.385859374999995,98.28942847251892L56.10515625,98.59117951989174L56.221171874999996,98.61511085927486L51.1396875,91.17910195887089L51.441328125,98.78529590368271L51.487734375,99.414665594697L53.36718750000001,100.83619975298643L55.501875,101.67504657804966L55.896328125000004,101.52479768544436L56.38359375,101.47868227958679L58.6575,101.52702570706606L59.4928125,101.43878676742315L59.585625,101.41649660468102L59.77125,101.40410654991865L55.617890625,104.84164220094681L55.942734375,104.62113105505705L56.824453125,103.8112551420927L57.102890625,103.64459448307753L58.077421875000006,103.35996803641319L59.655234375,103.61430399864912L59.864062499999996,103.5611331909895L59.933671875,103.52382709085941L61.697109375,103.6713771596551L61.743515625,103.64786357432604L56.244375000000005,106.33449625968933L56.894062500000004,106.86625406891108L59.33039062500001,105.93810402601957L61.418671875,105.62966228276491L61.789921875000005,105.93088284879923L62.114765625,105.7218964099884L63.53015625,105.42811916023493L59.028749999999995,109.50799477100372L59.77125,109.62488633394241L62.439609375,108.01460359990597L62.787656250000005,107.77040314674377L63.80859375,107.7658376917243L65.78085937499999,107.97873643040657L66.1753125,107.94347931444645L66.244921875,107.8423463627696L67.080234375,107.81348486244678L60.490546875,111.17767152190208L61.325859375,108.10837280750275L61.813125,108.77443191409111L63.251718749999995,108.83167085051537L63.71578125,109.51310396939516L66.291328125,108.66507318615913L66.523359375,108.81643277406693L68.124375,108.83713149279356L68.426015625,108.91381920129061L68.565234375,108.81336592882872L68.866875,108.85579117387533L63.43734375,111.48047358542681L63.971015625,111.50477626174688L64.08703125,111.12163611501455L65.456015625,110.30798383802176L68.797265625,109.8057373687625L70.050234375,109.6802022755146L70.723125,109.69168056547642L65.223984375,112.03710433840752L66.12890625,112.34583121538162L66.198515625,112.56421048939228L66.476953125,112.79736698418856L67.19625,113.58458802849054L69.609375,111.66396044939756L69.795,111.44279946386814L70.143046875,111.47138577699661L72.39375,111.16731055825949L72.99703124999999,111.12487536668777L73.50750000000001,111.02059599757195L68.890078125,115.89194644987583L69.075703125,115.08666583150625L70.02703125000001,113.12728990614414L72.16171874999999,112.93000389635563L73.64671875,112.09313974529505L74.29640624999999,111.84543148428202L74.31960937500001,111.82784934341908L74.76046875,111.75748099386692L75.29414062500001,111.80664998292923L75.735,111.91297833621502L70.11984375,117.7981150969863L70.35187499999999,116.25850905478L70.421484375,116.69376899302006L70.76953125,117.18192786723375L71.535234375,116.82029873877764L75.618984375,113.71969167888165L75.75820312500001,113.71463221311569L77.3128125,113.06069792062044L77.9625,113.2060697004199L78.19453125,113.07015043497086L72.25453125,117.03717608749866L73.809140625,116.35773227363825L74.55164062499999,116.14145834743977L75.920625,115.18283215165138L76.732734375,114.6947196945548L77.660859375,114.34635259956121L80.306015625,114.13462423533201L74.366015625,113.69442750513554L74.505234375,115.90953853726387L76.10624999999999,116.99434966593981L77.1271875,117.13926722109318L77.800078125,116.0084832534194L77.91609375,116.12082262337208L78.124921875,115.9371732994914L80.213203125,115.25675804167986L80.2828125,115.22136498987675L80.9325,114.99992881715298L81.16453125,114.78538890182972L82.5103125,114.73943595588207L83.322421875,114.81697906553745L77.35921875,115.71157616376877L78.75140625,116.95964955538511L81.62859375000001,116.60025507956743L81.69820312499999,116.62008513510227L82.99757812499999,116.33128114789724L83.600859375,116.2889653146267L83.67046875,116.26120456308126L84.157734375,115.97319298237562L84.32015625,115.8897880539298L78.913828125,107.52281755954027L79.05304687499999,118.96790270507336L80.352421875,116.58022940903902L84.32015625,116.62415989488363L84.482578125,116.62605636566877L85.1090625,116.77278418838978L86.4084375,116.62824128568172L87.1509375,116.40233912318945L81.883828125,116.35878660529852L81.9534375,116.11353182047606L82.41749999999999,115.77494879066944L83.183203125,116.93322495371103L85.01625,116.3921571969986L85.178671875,116.41828671842813L85.4803125,116.59749657660723L86.8725,117.28024263679981L87.56859375,117.18152337521315L88.102265625,117.19378080964088L88.51992187500001,117.34061804413795L90.14414062499999,116.8703695461154L85.132265625,118.38871654868126L86.617265625,118.97378110140562L88.12546875,118.82769648730755L90.1209375,118.3809947296977L90.72421874999999,118.08043063431978L85.921171875,112.51141764968634L88.427109375,120.34754209965467L88.58953125,120.05892709642649L91.211484375,119.35542595386505L91.28109375,119.29040551930666L91.768359375,119.1884834766388L93.13734375,118.9930773600936L93.36937499999999,118.95003874599934L94.135078125,118.50593303143978L89.35523437500001,122.47479879111052L89.74968750000001,121.34855043888092L90.07453125,120.98114901036024L90.44578125,120.94081253558397L90.840234375,120.49266853183508L91.768359375,120.39145269244909L92.835703125,119.75934770703316L92.85890625,119.7496100589633L93.36937499999999,119.49720372259617L94.181484375,119.22659524530172L94.78476562499999,118.90762013196945L94.99359375,118.8633846193552L96.20015624999999,118.98167532682419L96.269765625,118.95801917463541L97.058671875,118.94693874567747L97.151484375,118.95944484323263L90.933046875,123.31520722061396L91.072265625,123.43369022756815L91.11867187499999,123.95546172559261L92.046796875,122.2000591903925L92.186015625,121.82793647795916L92.48765625,121.8103941231966L92.603671875,121.78540182113647L94.08867187499999,121.46039911359549L94.52953125,121.28326807916164L94.738359375,121.21072475612164L96.316171875,120.75346310436726L96.362578125,120.73883508145809L96.38578125000001,120.7521567940712L97.754765625,120.09833522886038L94.691953125,121.24272935837507L95.92171875,121.47521612048149L96.38578125000001,121.7665398940444L97.105078125,121.32081952691078L97.31390624999999,121.26730390638113L97.708359375,121.11188282072544L98.1028125,120.95047724246979L98.822109375,120.83151348680258L100.00546875,120.38572349399328L100.53914062499999,120.323143273592L100.863984375,120.21193117648363L95.82890625,121.981490932405L98.4740625,121.9973987415433L100.70156250000001,120.98174248635769L100.817578125,121.06217008829117L101.652890625,121.10117041319609L102.3721875,120.95759895443916L97.87078125,123.30633160471916L98.4740625,124.536491304636L98.566875,124.17493180185556L98.938125,123.63954682648182L99.91265625,123.67645175009966L101.39765625000001,122.35026498138905L101.467265625,122.32868765294552L101.838515625,122.21676603704691L104.066015625,120.9243808761239L105.29578124999999,121.0404137223959L100.74796875,125.18402998149395L103.48593749999999,121.8461651429534L104.135625,121.75897058844566L105.504609375,121.63330619037151L106.59515625,121.32125054299831L108.26578124999999,121.55978147685528L108.706640625,121.69903282821178L102.95226562500001,123.29383213818073L104.762109375,125.17936837673187L105.15656249999999,124.99890857189894L105.78304687500001,124.80833978205919L106.2703125,124.57061120122671L106.54875,124.4348809197545L106.896796875,124.37311962991953L106.989609375,124.39163342863321L107.3840625,124.3575035855174L108.219375,124.23049972206354L109.14750000000001,123.67276490479708L109.913203125,123.31127502769232L105.7134375,126.49667621403933L106.943203125,124.72792875766754L107.036015625,124.75711849331856L107.500078125,124.41138722747564L108.63703124999999,123.72174822539091L109.309921875,123.43998637795448L110.284453125,123.59737687557936L111.4678125,123.57809719443321L112.001484375,123.29362989217043L113.37046875,123.04471478611231L113.440078125,123.12000666558743L108.196171875,126.13058441132307L108.8690625,125.8934824615717L109.65796875,125.59061408787966L110.470078125,125.06435007601976L111.00375,124.9650804400444L111.375,124.88465615361929L113.06882812500001,123.57706938683987L113.5096875,123.55525002628565L114.02015625,123.5151920542121L109.170703125,124.58204307407141L112.44234374999999,126.0591849386692L113.97375,125.57306510210037L114.136171875,125.6356221139431L114.345,125.5735160112381L114.73945312500001,125.33737555891275L115.017890625,125.26249811798334L115.157109375,125.35657898336649L116.52609375,125.10188494622707L117.68625,124.80914545059204L112.0246875,124.04351831227541L112.86,125.06077264249325L113.416875,125.24776731431484L113.486484375,125.28160207718611L115.22671875,124.60615013539791L115.3659375,124.49661237001419L116.06203125,124.50792488455772L116.27085937499999,124.52420403063297L116.363671875,124.59858082979918L116.50289062499999,124.4216752499342L118.63757812499999,124.15447843074799L118.66078125000001,124.16813169419765L118.84640625,124.19439715147018L118.93921875,124.23857298493385L119.333671875,124.33176529407501L114.0665625,125.41324765235186L114.507421875,126.06699627637863L115.296328125,126.0435092151165L117.63984375,125.8844045996666L119.101640625,126.12026323378086L120.168984375,125.94223038107157L121.18992187500001,125.45223471522331L121.63078125,125.61736360937357L116.43328125000001,127.37824667990208L117.7790625,126.73648361861706L118.312734375,127.1573509350419L121.236328125,126.67049174010754L121.282734375,126.70849741250277L122.025234375,126.53888595104218L122.74453125000001,126.23042763024569L124.11351562499999,125.87614235281944L120.679453125,127.23882623761892L121.236328125,126.92070320993662L121.44515625,126.68796115368605L122.65171875,126.39789395779371L122.721328125,126.45294134318829L126.225,125.20839233696461L126.54984375000001,125.20160880684853L122.164453125,127.98771337419748L122.65171875,128.56768530607224L125.737734375,127.77820640057325L127.408359375,127.38814678788185L127.91882812499999,127.31072303652763L128.31328125,127.2270594984293L129.380625,127.16765553504229L123.41742187499999,131.07063385471702L124.925625,130.1931116245687L126.17859375,129.4221481755376L126.781875,128.633924189955L126.897890625,128.45854208618402L128.5453125,128.0842294804752L129.380625,127.7709288597107L130.517578125,127.33214785158634L131.956171875,127.16912762075663L131.979375,127.1671714708209L126.016171875,132.0320782326162L126.341015625,131.80054136365652L127.315546875,131.43840662017465L131.19046875,129.51974679529667L131.909765625,129.1883468143642L132.698671875,129.18102617189288L134.34609375,128.61953322589397L128.4525,131.85957399010658L129.218203125,130.74527141451836L129.635859375,130.64247573539615L129.68226562499999,130.6242089420557L130.2159375,130.26306885108352L130.239140625,130.193449806422L130.26234374999999,130.1231527402997L130.331953125,129.98626700416207L130.77281250000001,129.49924866482615L131.584921875,129.79663318768144L132.30421875000002,129.89029464125633L133.209140625,129.42738004773855L133.441171875,129.42050865665078L135.50625,129.0285277068615L135.83109375,128.91239539533854L136.50398437500002,128.8171640485525L136.66640625,128.87654646113515L136.689609375,128.84942726045847L130.610390625,130.0219866335392L131.306484375,130.00609042868018L132.9075,129.86794314160943L134.044453125,129.89596747606993L134.81015625,129.82892955467105L135.691875,129.49782299622893L138.267421875,129.4000453390181L138.8475,129.14342499151826L138.917109375,129.13262140750885L132.373828125,132.32358933240175L133.02351562500002,133.91139623522758L133.835625,132.83397205919027L134.11406250000002,132.6433187238872L135.5990625,131.11885792389512L135.993515625,131.369475543499L137.571328125,130.9188051223755L138.081796875,130.76727644354105L138.731484375,130.83817195892334L139.98445312500002,130.53911310434341L136.318359375,130.91549790278077L136.34156249999998,131.02417363598943L138.545859375,131.23712542280555L139.59,130.97565945982933L142.397578125,130.07541273534298L142.56,130.01521968096495L138.70828125,132.55315844714642L139.82203125,132.6320045515895L141.330234375,132.74856787919998L141.77109375,132.46399116516113L141.88710937500002,132.40960356593132L142.42078124999998,132.33996960148215L142.93125,132.23585932329297L143.418515625,132.24595173075795L144.99632812500002,131.60657086223364L139.47398437500001,135.87112691998482L140.819765625,135.65537021309137L141.84070312499998,134.24102407693863L142.51359375,133.91396741196513L146.806171875,132.36169612780213L147.15421874999998,132.17415273934603L147.223828125,132.1266050338745L147.73429687499998,131.99553967267275L147.873515625,131.9509079568088L142.23515625000002,133.31764007732272L142.583203125,133.31624590605497L143.650546875,133.3940542563796L143.975390625,133.50497127324343L144.230625,133.76710531115532L145.506796875,134.39014901220798L145.76203124999998,134.2804620489478L145.90125,134.34420435503125L147.270234375,134.16776460409164L147.89671875,134.00430009514093L148.430390625,133.71775894239545L150.054609375,133.13641107454896L150.56507812499999,132.93218736350536L144.578671875,135.95931446924806L144.973125,135.95240992307663L145.135546875,135.89405531808734L146.06367187499998,135.33175173029304L146.481328125,135.01410282030702L146.620546875,135.1329538486898L146.69015625,135.05792555212975L148.45359375,134.06597020849586L148.476796875,134.03322956338525L148.523203125,134.04587657004595L149.56734375,133.86709109693766L150.286640625,133.76951568573713L150.913125,133.55705956742167L150.982734375,133.59322679042816L151.09875,133.57927015796304L152.398125,133.20835926383734L152.746171875,133.21775707229972L146.202890625,127.5881780385971L146.249296875,133.66805947199464L147.38625,137.48986254259944L148.708828125,136.94083425030112L149.75296875,135.8158424757421L150.704296875,135.15180085599422L151.0059375,135.13128117471933L151.029140625,135.1102260388434L151.539609375,135.07967694476247L151.655625,135.06535394862294L151.910859375,135.08291122317314L154.48640625,134.13563898578286L154.973671875,134.11657978594303L149.822578125,136.80579525232315L149.8921875,136.88170878961682L149.915390625,136.92212649434805L151.029140625,136.87132627516985L151.586015625,136.69309117645025L152.931796875,136.31459605693817L154.648828125,135.15876508131623L155.576953125,135.01559148356318L155.762578125,134.9799265600741L156.505078125,134.91575655341148L156.80671875000002,134.93586345389485L151.539609375,137.5150438286364L153.0478125,138.0180578380823L153.581484375,137.66284587606788L155.530546875,136.44821601733565L155.60015625,136.44406831637025L155.71617187500001,136.40800884738564L157.27078125,135.9492867141962L157.6884375,135.8234150968492L159.428671875,135.41390008106828L153.581484375,137.66193411126733L153.60468749999998,137.8763380907476L157.247578125,137.4692599736154L158.222109375,137.03854725509882L158.2453125,136.92733350023627L159.753515625,136.14543218910694L159.892734375,136.183164332062L160.356796875,136.12221036851406L160.496015625,136.02347452938557L160.98328125,135.96524094045162L161.1225,136.00418490171432L155.762578125,135.41980500146747L157.1315625,137.75220379978418L157.87406249999998,138.3097612373531L158.036484375,138.30860578268766L163.001953125,136.56443453207612L163.58203125,136.50264671817422L163.883671875,136.38428638502955L164.51015625,136.30353386327624L157.92046875,140.88080203905702L158.29171875,140.734981007874L158.47734375000002,140.7030311115086L158.8021875,140.04489275440574L159.451875,139.7247290313244L161.052890625,138.20085176080465L161.1225,138.11893383786082L162.09703125000001,138.2087957188487L162.909140625,138.40213627368212L163.76765625,138.17852844297886L165.879140625,137.87004194036126L166.250390625,137.77303182333708L161.981015625,139.21256090328097L162.1434375,139.27110283449292L162.421875,139.08905158564448L163.605234375,139.04096511006355L163.883671875,139.06414051353931L165.971953125,138.27314807847142L166.04156250000003,138.30387123674154L162.70031250000002,142.59802815318108L162.793125,141.92683000862598L162.81632812499998,142.28302999213338L163.21078125,141.03839809820056L163.79085937500003,140.70123079046607L164.04609374999998,140.63957228139043L164.162109375,140.52744178846478L164.278125,140.38759696111083L165.06703124999999,140.27672636136413L165.2990625,140.0540418997407L165.90234375,139.86075605079532L166.946484375,139.78887748718262L167.48015625000002,139.58334083482623L168.663515625,139.20725940540433L169.220390625,139.1061065606773L169.66125,138.98295200243592L169.98609375,138.89265413209796L170.751796875,138.7951881326735L166.621640625,140.02435483783484L167.75859375000002,140.37149353697896L169.638046875,140.3090542256832L169.89328125,140.35632840171456L170.35734375,140.120421692729L171.74953125,139.79675347730517L172.051171875,139.72386699914932L172.9096875,139.44533943012357L173.37375,139.30667492374778L173.62898437500002,139.25363839417696L169.10437499999998,141.21239929273725L172.376015625,141.2484438419342L173.2809375,141.17363934218884L173.953828125,141.02665788307786L174.85875000000001,140.83806016296148L175.9725,140.51231809705496L170.334140625,141.0237021073699L170.380546875,140.87823583558202L170.566171875,140.67284009233117L171.262265625,141.2667636834085L171.7959375,141.49396386742592L172.12078125,141.491815418005L173.443359375,141.84482339583337L175.670859375,141.2587086558342L176.715,140.97337269037962L176.8078125,140.89759343117476L178.20000000000002,140.4495522081852L172.515234375,141.31852374225855L173.211328125,141.35333160683513L173.721796875,141.76031854748726L173.907421875,141.6847116947174L176.738203125,142.63587385229766L177.434296875,142.48453415744007L177.944765625,142.43793054297566L178.71046875000002,142.1466515287757L180.4275,141.9038411024958L174.5803125,142.31849681399763L176.57578125,143.10273970291018L178.269609375,143.3658650778234L178.8496875,143.32451322861016L179.151328125,143.217719046399L179.36015625,143.29787229001522L181.19320312500003,142.70625795051455L182.5621875,142.46761346049607L178.455234375,143.70700104907155L178.80328125,143.8485434167087L180.636328125,143.313848067075L182.074921875,143.2769489455968L182.655,143.1783971171826L184.720078125,142.8915600553155L178.826484375,145.2401567697525L179.63859375,145.28400685451925L180.404296875,145.5240247938782L181.355625,145.5452274698764L183.8615625,145.35937664844096L184.2328125,145.16819366067648L184.720078125,145.07466399855912L184.92890625,145.14121454022825L185.30015625,145.11273017898202L186.761953125,144.55396340973675L186.78515624999997,144.55400568246841L187.11,144.5244015082717L182.91023437500002,145.21328623220325L183.21187500000002,145.38842215947807L183.467109375,145.49825086072087L185.787421875,145.43189261853695L187.34203125,145.07586918585002L188.3165625,144.76042343117297L185.23054687500002,146.9699287675321L187.179609375,146.65182894840837L187.226015625,146.65769656933844L188.17734374999998,146.47875775396824L188.20054687500001,146.48215200565755L188.57179687500002,146.43699561059475L188.8734375,146.3422972317785L188.91984374999998,146.34796509332955L191.216953125,145.94311002455652L187.9453125,147.57262353599072L189.4303125,147.01889468170702L189.56953124999998,147.05165356211364L189.70875,147.03110321238637L189.8015625,146.9665063340217L189.824765625,146.97465502470732L191.565,146.8535710014403L192.493125,146.79237417690456L193.76929687499998,146.66157571412623L189.546328125,146.98670855537057L189.8015625,147.00110449269414L189.9871875,147.09654720313847L191.10093750000001,147.30528580769897L192.5859375,147.10891487821937L192.655546875,147.11126391589642L193.37484375,146.95472384616733L193.606875,146.8784306831658L193.76929687499998,146.8615854140371L194.186953125,146.79786134324968L195.50953125,146.3999945372343L195.97359375,146.43165349774063L196.043203125,146.4225300475955L196.53046874999998,146.5209766086191L191.773828125,147.43447707779706L193.8853125,148.19727442972362L193.93171875000002,148.22856868430972L194.67421875000002,148.37524926103652L195.091875,148.43679172731936L194.90625,149.05494961235672L195.50953125,148.85001182369888L196.53046874999998,148.6152928955853L197.806640625,148.77883366122842L199.245234375,148.7699016816914L199.546875,148.7162766493857L194.92945312499998,148.34762693196535L195.60234375000002,148.6175681632012L196.507265625,148.72932234592736L198.01546875,148.87139560934156L203.004140625,148.95068516302854L198.085078125,149.31439643073827L198.688359375,149.8370933700353L199.198828125,149.6759522035718L199.63968749999998,149.55643392913043L200.10375,149.50759276095778L200.21976562499998,149.5277473218739L200.591015625,149.3863404756412L200.869453125,149.44097590912133L201.240703125,149.46357938740402L201.8671875,149.46059377212077L203.445,149.52110304310918L204.581953125,149.55418767221272L204.88359375,149.56010046694428L205.06921875,149.54030936863273L200.52140624999998,151.74425584077835L202.19203124999999,151.2304224986583L202.957734375,151.07146915327758L203.12015625,151.09244098700583L203.32898437499998,151.0785813331604L204.489140625,150.83531336672604L204.55875,150.8458119239658L205.04601562500002,150.80884815007448L205.32445312500002,150.76769233029336L205.7653125,150.7248315103352L206.20617187500002,150.73033152427524L202.6096875,151.8262065043673L204.489140625,151.01736917439848L204.51234375,151.03392309322953L205.30124999999998,150.83768229745328L205.742109375,150.88756370637566L206.809453125,151.0948998508975L208.480078125,151.2440297594294L208.59609375,151.24048009328544L209.199375,151.19589147903025L210.26671875,151.1075688228011L210.614765625,151.107227739878L205.7653125,152.05424758419394L206.76304687500001,152.2036336157471L207.227109375,152.1962876925245L207.366328125,152.23961558472365L207.66796875,152.2587647177279L208.31765625,152.19187516532838L209.31539062500002,152.29347000876442L211.798125,152.15908810310066L212.378203125,152.08889091666788L212.540625,152.13116323389113L212.6334375,152.119178914465L208.1784375,152.68985457532108L208.248046875,152.70385202998295L209.176171875,152.69078975589946L211.357265625,152.6512614362873L211.68210937499998,152.67709235474467L212.07656250000002,152.68842269014567L212.099765625,152.68928472232074L213.074296875,152.6207245681435L215.37140624999998,152.60214093653485L212.6334375,152.95009980956092L213.863203125,152.92567818937823L216.369140625,152.97613401012495L216.62437500000001,152.97260402981192L212.72625,153.27142085228115L214.09523437500002,153.523044728674L214.95375,153.50370681891218L215.441015625,153.55888558132574L216.29953125,153.63954216055572L217.13484375000002,153.66468469658867L217.158046875,153.67094209697098L217.738125,153.68021412333474L219.17671875,153.5924563468434L214.07203125,153.41405360773206L214.67531250000002,153.5692529687658L215.60343749999998,153.64330712752417L216.67078125,153.83173534227535L218.178984375,153.75968437222764L218.34140625,153.7801928636618L218.52703125000002,153.801388701424L219.64078125,153.8787316372618L219.849609375,153.8643307266757L221.21859375,153.93945973180234L221.520234375,153.9622787181288L218.132578125,154.28301747469231L218.411015625,154.3127000813838L219.17671875,154.32900026021525L220.15124999999998,154.37232462968677L221.659453125,154.3394916683901L223.37648437500002,154.30890009435825L224.46703125000002,154.3330163769424L218.550234375,154.6210935425479L219.223125,154.62841822579503L219.896015625,154.45721687446348L220.19765625000002,154.4527477764059L220.26726562500002,154.35240702400915L221.798671875,154.32916075154208L221.86828125,154.32248580432497L222.866015625,154.40983753465116L223.7709375,154.49160014675L224.00296875,154.4999879684765L225.30234375,154.56013066857122L221.613046875,154.94105419074185L221.77546875,154.94695709075313L221.798671875,154.95691672246903L221.96109375,154.97645734448452L223.469296875,154.953675139579L224.118984375,154.94922619359568L224.397421875,154.96304823714308L224.69906250000003,154.95677824818995L224.861484375,154.93638533330522L227.50664062500002,154.88885534508154L227.599453125,154.88800926879048L228.2259375,154.89249499619473L228.27234375,154.89440079184715L223.07484375,154.48191917315125L223.60851562500002,154.72877203300595L225.23273437499998,154.82795194303617L225.46476562499998,154.8293836209923L225.85921875,154.86628688685596L226.021640625,154.87550462177023L226.09125,154.8839202108793L226.41609375000002,154.8602603287436L226.671328125,154.87901667761616L229.82695312500002,154.91957109526265L230.68546875,154.9164216213394L225.20953125,155.05744853103533L225.371953125,154.84228737233207L226.88015625,155.1174087227555L227.460234375,155.11146888590883L227.6690625,155.09966407017782L227.9475,155.10292974230833L228.38835937500002,155.12918230018113L228.7828125,155.14363527460955L229.130859375,155.13729995978065L230.03578125,155.10825507040136L230.31421875,155.11330547032412L230.894296875,155.1317489698995L231.590390625,155.1467764597619L231.7528125,155.14882943290286L233.09859375,155.14450331614353L227.41382812499998,155.2331747742137L227.8546875,155.2239677628968L228.017109375,155.25072194682434L229.08445312499998,155.30518595816102L230.29101562499997,155.26133146998473L230.360625,155.25690034485888L231.172734375,155.23071870778222L233.330625,155.2332419132581L234.11953125,155.22965018160176L234.189140625,155.23274608934298L235.395703125,155.24259402987082L235.41890625000002,155.24347699119244L235.90617187499998,155.2410736620659L230.430234375,155.21096677391324L231.05671875,155.28667480149306L232.44890625,155.23304541758262L232.472109375,155.2341976603493L233.07539062499998,155.25697105843574L233.35382812499998,155.26503784570377L233.701875,155.27085283293854L234.16593749999998,155.26052036194596L234.374765625,155.26574467064347L234.58359375,155.2649389503058L235.2796875,155.27899126627017L236.41664062499999,155.30114756536204L237.6928125,155.28787910810206L238.43531249999998,155.28781227988657L232.19367187499998,155.12928647967055L233.8875,155.33050147048198L237.414375,155.35390823427588L238.551328125,155.36092757992446L239.386640625,155.34969367919257L240.825234375,155.35646438761614L235.859765625,155.3736620331183L235.92937500000002,155.37736361689167L237.6928125,155.40359198191436L238.18007812500002,155.4131990559399L238.36570312499998,155.41027488117106L238.66734375,155.4182208077982L238.71374999999998,155.41992244066205L238.85296875,155.42256850126432L240.33796875,155.40411655750358L241.12687499999998,155.399045021215L241.17328125,155.39989304018673L241.19648437499998,155.40025948156836L243.191953125,155.3943725892459L243.2615625,155.39425351587124L237.1359375,155.464190668019L241.103671875,155.4539622211014L241.26609375,155.4514210911584L242.79749999999999,155.42509377893293L242.91351562499997,155.4255436519743L243.88804687500001,155.4289285269915L245.326640625,155.4245760415797L245.72109375,155.425973476551L245.744296875,155.42624804208754L240.52359375,155.45984768879134L240.98765625000001,155.4625429380685L241.846171875,155.44497183163185L241.86937500000002,155.4455636498751L241.938984375,155.4480911033461L243.470390625,155.43588777905097L244.676953125,155.43547878001118L245.025,155.4427530571702L245.373046875,155.43487281905254L245.744296875,155.4355610460625L246.0459375,155.4359296373441L246.85804687499999,155.43017210165272L247.29890625,155.43328453513095L247.46132812500002,155.42851248249644L246.115546875,155.4567116582184L247.507734375,155.46656154142693L248.203828125,155.46310939785326L248.6446875,155.4613642230397L243.95765624999999,155.47801056166645L244.862578125,155.43014783109538L244.955390625,155.43531852180604L245.16421874999997,155.44424254930345L245.3034375,155.4276015983778L245.883515625,155.4286425902974L247.20609375,155.4420393939945L248.203828125,155.46019498829264L250.59375,155.47857753949938L252.00914062500001,155.472808606748L246.533203125,155.42980301822536L247.29890625,155.4505486980197L248.15742187499998,155.46574535651598L249.82804687499998,155.4825005888706L249.967265625,155.48006912972778L250.17609374999998,155.47700269892812L251.42906250000001,155.46551482507493L253.16929687500001,155.46045517799212L253.401328125,155.45741980418097L253.958203125,155.45959275728092L248.87671875,155.50803743727738L250.91859375,155.48576341173612L251.730703125,155.49291203630855L253.14609375,155.4936540108174L253.58695312499998,155.4895438165404L254.5846875,155.48498452629428L256.18570312500003,155.47819483140483L250.941796875,155.44857066054828L251.452265625,155.42720560234739L254.422265625,155.4577794073266L256.76578125000003,155.45874209626345L258.04195312499996,155.45815879991278L258.39,155.46238716098014L253.23890624999999,155.54552609758684L254.0278125,155.45095321594272L255.74484375,155.41481098876102L256.11609375,155.4267934950185L256.371328125,155.43652622163063L257.160234375,155.44328814913752L259.016484375,155.44904084107839L260.431875,155.4606764104683L260.455078125,155.4611904178746L260.803125,155.46491666074144L261.800859375,155.4708675838192L255.5128125,155.58610113355098L256.510546875,155.51062897330849L256.6265625,155.514951049292L258.2971875,155.46756137441844L261.568828125,155.48053666821215L261.6384375,155.4812421980314L262.1025,155.48644298734143L262.12570312500003,155.48614780348726L262.1953125,155.4861786273541L258.52921875,155.4651370125357L260.75671875,155.48575222189538L261.22078125,155.47576974425465L262.12570312500003,155.4702455115621L262.3809375,155.47346114023821L266.627109375,155.48842434032122" style="fill: none;" fill="none"></path></g></g></g></g></g></g><g transform="translate(51, 178)" clip-path="url(#clip_1)"><clipPath id="clip_1"><rect width="278" height="22"></rect></clipPath><g><g><line x1="0" y1="0" x2="0" y2="5" style="visibility: inherit;" fill="rgb(0, 0, 0)" stroke="rgb(204, 204, 204)" stroke-width="1px"></line><line x1="23.203125" y1="0" x2="23.203125" y2="5" style="visibility: inherit;" fill="rgb(0, 0, 0)" stroke="rgb(204, 204, 204)" stroke-width="1px"></line><line x1="46.40625" y1="0" x2="46.40625" y2="5" style="visibility: inherit;" fill="rgb(0, 0, 0)" stroke="rgb(204, 204, 204)" stroke-width="1px"></line><line x1="69.609375" y1="0" x2="69.609375" y2="5" style="visibility: inherit;" fill="rgb(0, 0, 0)" stroke="rgb(204, 204, 204)" stroke-width="1px"></line><line x1="92.8125" y1="0" x2="92.8125" y2="5" style="visibility: inherit;" fill="rgb(0, 0, 0)" stroke="rgb(204, 204, 204)" stroke-width="1px"></line><line x1="116.015625" y1="0" x2="116.015625" y2="5" style="visibility: inherit;" fill="rgb(0, 0, 0)" stroke="rgb(204, 204, 204)" stroke-width="1px"></line><line x1="139.21875" y1="0" x2="139.21875" y2="5" style="visibility: inherit;" fill="rgb(0, 0, 0)" stroke="rgb(204, 204, 204)" stroke-width="1px"></line><line x1="162.421875" y1="0" x2="162.421875" y2="5" style="visibility: inherit;" fill="rgb(0, 0, 0)" stroke="rgb(204, 204, 204)" stroke-width="1px"></line><line x1="185.625" y1="0" x2="185.625" y2="5" style="visibility: inherit;" fill="rgb(0, 0, 0)" stroke="rgb(204, 204, 204)" stroke-width="1px"></line><line x1="208.828125" y1="0" x2="208.828125" y2="5" style="visibility: inherit;" fill="rgb(0, 0, 0)" stroke="rgb(204, 204, 204)" stroke-width="1px"></line><line x1="232.03125" y1="0" x2="232.03125" y2="5" style="visibility: inherit;" fill="rgb(0, 0, 0)" stroke="rgb(204, 204, 204)" stroke-width="1px"></line><line x1="255.234375" y1="0" x2="255.234375" y2="5" style="visibility: inherit;" fill="rgb(0, 0, 0)" stroke="rgb(204, 204, 204)" stroke-width="1px"></line><line x1="278.4375" y1="0" x2="278.4375" y2="5" style="visibility: inherit;" fill="rgb(0, 0, 0)" stroke="rgb(204, 204, 204)" stroke-width="1px"></line></g><g transform="translate(0, 8)"><text x="0" y="0" dx="0em" dy="0.95em" style="text-anchor: middle; visibility: hidden; font-family: Roboto, sans-serif; font-size: 12px; font-weight: 200;" fill="rgb(50, 49, 63)" stroke="none" stroke-width="1px">-1k</text><text x="23.203125" y="0" dx="0em" dy="0.95em" style="text-anchor: middle; visibility: inherit; font-family: Roboto, sans-serif; font-size: 12px; font-weight: 200;" fill="rgb(50, 49, 63)" stroke="none" stroke-width="1px">0</text><text x="46.40625" y="0" dx="0em" dy="0.95em" style="text-anchor: middle; visibility: inherit; font-family: Roboto, sans-serif; font-size: 12px; font-weight: 200;" fill="rgb(50, 49, 63)" stroke="none" stroke-width="1px">1k</text><text x="69.609375" y="0" dx="0em" dy="0.95em" style="text-anchor: middle; visibility: inherit; font-family: Roboto, sans-serif; font-size: 12px; font-weight: 200;" fill="rgb(50, 49, 63)" stroke="none" stroke-width="1px">2k</text><text x="92.8125" y="0" dx="0em" dy="0.95em" style="text-anchor: middle; visibility: inherit; font-family: Roboto, sans-serif; font-size: 12px; font-weight: 200;" fill="rgb(50, 49, 63)" stroke="none" stroke-width="1px">3k</text><text x="116.015625" y="0" dx="0em" dy="0.95em" style="text-anchor: middle; visibility: inherit; font-family: Roboto, sans-serif; font-size: 12px; font-weight: 200;" fill="rgb(50, 49, 63)" stroke="none" stroke-width="1px">4k</text><text x="139.21875" y="0" dx="0em" dy="0.95em" style="text-anchor: middle; visibility: inherit; font-family: Roboto, sans-serif; font-size: 12px; font-weight: 200;" fill="rgb(50, 49, 63)" stroke="none" stroke-width="1px">5k</text><text x="162.421875" y="0" dx="0em" dy="0.95em" style="text-anchor: middle; visibility: inherit; font-family: Roboto, sans-serif; font-size: 12px; font-weight: 200;" fill="rgb(50, 49, 63)" stroke="none" stroke-width="1px">6k</text><text x="185.625" y="0" dx="0em" dy="0.95em" style="text-anchor: middle; visibility: inherit; font-family: Roboto, sans-serif; font-size: 12px; font-weight: 200;" fill="rgb(50, 49, 63)" stroke="none" stroke-width="1px">7k</text><text x="208.828125" y="0" dx="0em" dy="0.95em" style="text-anchor: middle; visibility: inherit; font-family: Roboto, sans-serif; font-size: 12px; font-weight: 200;" fill="rgb(50, 49, 63)" stroke="none" stroke-width="1px">8k</text><text x="232.03125" y="0" dx="0em" dy="0.95em" style="text-anchor: middle; visibility: inherit; font-family: Roboto, sans-serif; font-size: 12px; font-weight: 200;" fill="rgb(50, 49, 63)" stroke="none" stroke-width="1px">9k</text><text x="255.234375" y="0" dx="0em" dy="0.95em" style="text-anchor: middle; visibility: inherit; font-family: Roboto, sans-serif; font-size: 12px; font-weight: 200;" fill="rgb(50, 49, 63)" stroke="none" stroke-width="1px">10k</text><text x="278.4375" y="0" dx="0em" dy="0.95em" style="text-anchor: middle; visibility: hidden; font-family: Roboto, sans-serif; font-size: 12px; font-weight: 200;" fill="rgb(50, 49, 63)" stroke="none" stroke-width="1px">11k</text></g><line x1="0" y1="0" x2="278.4375" y2="0" fill="rgb(0, 0, 0)" stroke="rgb(204, 204, 204)" stroke-width="1px"></line></g></g></g></g></svg>